<svg width="232" height="247" viewBox="0 0 232 247" fill="none" xmlns="http://www.w3.org/2000/svg">
<g id="Dots">
<g id="Group">
<path id="Vector" d="M27.8733 238.936C32.3252 238.936 35.9341 235.33 35.9341 230.881C35.9341 226.433 32.3252 222.826 27.8733 222.826C23.4215 222.826 19.8125 226.433 19.8125 230.881C19.8125 235.33 23.4215 238.936 27.8733 238.936Z" fill="#ADADAD"/>
<path id="Vector_2" d="M68.8952 205.671C69.6108 201.28 66.6289 197.141 62.2349 196.425C57.841 195.71 53.6988 198.69 52.9832 203.081C52.2676 207.472 55.2495 211.611 59.6435 212.326C64.0375 213.041 68.1796 210.061 68.8952 205.671Z" fill="#BBF046"/>
<path id="Vector_3" d="M16.2378 91.4633C20.3508 89.7609 22.3039 85.049 20.6003 80.9389C18.8966 76.8289 14.1813 74.8772 10.0683 76.5796C5.95533 78.282 4.00218 82.9939 5.70583 87.104C7.40949 91.214 12.1248 93.1657 16.2378 91.4633Z" fill="#BBF046"/>
<path id="Vector_4" d="M31.0312 141.967C34.1792 138.822 34.1792 133.721 31.0312 130.576C27.8833 127.43 22.7794 127.43 19.6315 130.576C16.4836 133.721 16.4836 138.822 19.6315 141.967C22.7794 145.113 27.8833 145.113 31.0312 141.967Z" fill="#ADADAD"/>
<path id="Vector_5" d="M87.6996 26.2326C88.3991 21.8392 85.4021 17.7109 81.0055 17.012C76.6089 16.313 72.4778 19.3079 71.7783 23.7013C71.0788 28.0947 74.0758 32.2229 78.4724 32.9219C82.869 33.6209 87.0002 30.626 87.6996 26.2326Z" fill="#B2B2B2"/>
<path id="Vector_6" d="M28.0703 24.3129C31.2182 21.1673 31.2182 16.0671 28.0703 12.9214C24.9223 9.77575 19.8185 9.77575 16.6706 12.9214C13.5226 16.0671 13.5226 21.1673 16.6706 24.3129C19.8185 27.4586 24.9223 27.4586 28.0703 24.3129Z" fill="#808080"/>
<path id="Vector_7" d="M153.695 33.4263C154.722 29.0976 152.043 24.7565 147.711 23.7301C143.38 22.7036 139.035 25.3806 138.008 29.7092C136.981 34.0378 139.66 38.379 143.992 39.4054C148.324 40.4318 152.668 37.7549 153.695 33.4263Z" fill="#BBF046"/>
<path id="Vector_8" d="M193.348 16.7997C196.139 13.3337 195.59 8.26318 192.121 5.47442C188.652 2.68566 183.578 3.23471 180.788 6.70075C177.997 10.1668 178.546 15.2373 182.015 18.0261C185.483 20.8148 190.557 20.2658 193.348 16.7997Z" fill="#808080"/>
<path id="Vector_9" d="M226.923 44.1461C227.979 39.8244 225.329 35.4656 221.004 34.4105C216.679 33.3554 212.317 36.0035 211.261 40.3252C210.206 44.6469 212.856 49.0057 217.18 50.0609C221.505 51.116 225.867 48.4679 226.923 44.1461Z" fill="#525252"/>
<path id="Vector_10" d="M219.416 148.057C222.319 144.684 221.937 139.598 218.562 136.697C215.186 133.796 210.097 134.179 207.194 137.551C204.291 140.924 204.674 146.01 208.049 148.911C211.424 151.812 216.513 151.429 219.416 148.057Z" fill="#BBF046"/>
<path id="Vector_11" d="M188.923 213.495C190.047 209.19 187.466 204.79 183.158 203.667C178.85 202.545 174.447 205.124 173.324 209.428C172.2 213.733 174.781 218.133 179.089 219.256C183.397 220.379 187.8 217.799 188.923 213.495Z" fill="#525252"/>
<path id="Vector_12" d="M0.802734 177.058C1.487 177.245 2.20887 177.358 2.95329 177.358C7.40478 177.358 11.0141 173.751 11.0141 169.303C11.0141 164.855 7.40478 161.248 2.95329 161.248C2.20887 161.248 1.487 161.361 0.802734 161.549V177.05V177.058Z" fill="#525252"/>
<path id="Vector_13" d="M113.496 2.35711C113.496 6.8054 117.105 10.4121 121.557 10.4121C126.008 10.4121 129.618 6.8054 129.618 2.35711C129.618 1.98892 129.58 1.62074 129.535 1.26758H113.586C113.541 1.62825 113.504 1.98892 113.504 2.35711H113.496Z" fill="#525252"/>
<path id="Vector_14" d="M231.326 86.3047C228.979 87.7098 227.4 90.2721 227.4 93.2101C227.4 96.148 228.979 98.7103 231.326 100.115V86.3047Z" fill="#525252"/>
<path id="Vector_15" d="M114.383 243.481C114.383 239.033 110.774 235.426 106.323 235.426C101.871 235.426 98.2617 239.033 98.2617 243.481C98.2617 244.45 98.4422 245.374 98.758 246.231H113.887C114.203 245.374 114.383 244.45 114.383 243.481Z" fill="#808080"/>
<path id="Vector_16" d="M216.129 242.446C216.129 237.997 212.52 234.391 208.069 234.391C203.617 234.391 200.008 237.997 200.008 242.446C200.008 243.813 200.354 245.098 200.955 246.233H215.174C215.776 245.106 216.122 243.813 216.122 242.446H216.129Z" fill="#B2B2B2"/>
<path id="Vector_17" d="M132.987 211.13C133.703 206.739 130.721 202.6 126.327 201.884C121.933 201.169 117.791 204.149 117.075 208.54C116.359 212.931 119.341 217.07 123.735 217.785C128.129 218.5 132.271 215.52 132.987 211.13Z" fill="#ADADAD"/>
</g>
</g>
</svg>
