<svg width="124" height="31" viewBox="0 0 124 31" fill="none" xmlns="http://www.w3.org/2000/svg">
<g id="Group 215">
<path id="Vector" d="M14.5298 7.04817C13.0626 7.04817 11.6283 7.48444 10.4084 8.30175C9.18842 9.11907 8.23758 10.2808 7.6761 11.6399C7.11462 12.9991 6.96772 14.4947 7.25396 15.9376C7.54018 17.3804 8.24672 18.7059 9.28421 19.7461C10.3217 20.7862 11.6435 21.4946 13.0825 21.7817C14.5216 22.0687 16.0131 21.9213 17.3687 21.3584C18.7242 20.7955 19.8828 19.8421 20.6979 18.619C21.5132 17.3956 21.9481 15.9575 21.9481 14.4864C21.9505 13.5089 21.7603 12.5407 21.3883 11.6372C21.0163 10.7336 20.4701 9.91264 19.7807 9.22146C19.0913 8.53027 18.2726 7.98247 17.3715 7.60951C16.4703 7.23656 15.5046 7.0458 14.5298 7.04817ZM14.5298 19.3303C13.5742 19.3303 12.6402 19.0462 11.8458 18.5139C11.0514 17.9818 10.4322 17.2253 10.0665 16.3401C9.70088 15.455 9.60522 14.4811 9.79162 13.5414C9.97802 12.6018 10.4381 11.7386 11.1137 11.0612C11.7893 10.3838 12.6502 9.92247 13.5873 9.73557C14.5245 9.54867 15.4958 9.64459 16.3786 10.0112C17.2614 10.3778 18.0159 10.9988 18.5465 11.7952C19.0774 12.5918 19.3608 13.5283 19.3608 14.4864C19.3608 15.771 18.8518 17.0032 17.9458 17.9116C17.0399 18.82 15.811 19.3303 14.5298 19.3303ZM23.9927 6.73976C23.9927 7.09859 23.8867 7.44935 23.6878 7.74768C23.489 8.04602 23.2064 8.27857 22.8758 8.41586C22.5452 8.55318 22.1814 8.5891 21.8304 8.51911C21.4793 8.4491 21.1571 8.27632 20.904 8.0226C20.651 7.76889 20.4786 7.44563 20.4087 7.09371C20.3389 6.74177 20.3747 6.37701 20.5117 6.0455C20.6487 5.71401 20.8806 5.43067 21.1781 5.23132C21.4757 5.03196 21.8255 4.92556 22.1834 4.92556C22.6632 4.92556 23.1235 5.1167 23.4628 5.45694C23.8022 5.79716 23.9927 6.25862 23.9927 6.73976ZM28.8961 8.55396C28.9487 6.2986 28.1097 4.11388 26.562 2.47639C24.9376 0.904725 22.7577 0.0434683 20.5007 0.0816391C18.1485 -0.027213 10.911 -0.027213 8.55889 0.0816391C6.31023 0.0328189 4.13279 0.873556 2.49753 2.42196C0.949873 4.05946 0.110836 6.24418 0.163452 8.49954C0.0548908 10.858 0.0548908 18.1148 0.163452 20.4733C0.110836 22.7287 0.949873 24.9133 2.49753 26.5508C4.13279 28.0992 6.31023 28.94 8.55889 28.8911C10.9472 29.0363 18.1123 29.0363 20.5007 28.8911C22.7501 28.9439 24.9289 28.1027 26.562 26.5508C28.1097 24.9133 28.9487 22.7287 28.8961 20.4733C29.0047 18.1148 29.0047 10.858 28.8961 8.49954V8.55396ZM25.8202 23.0676C25.5745 23.6916 25.2037 24.2582 24.7306 24.7326C24.2574 25.207 23.6924 25.5788 23.0699 25.8251C20.2611 26.3946 17.3896 26.5898 14.5298 26.4057C11.676 26.59 8.81041 26.3948 6.00769 25.8251C5.3854 25.5788 4.82017 25.207 4.34709 24.7326C3.874 24.2582 3.50313 23.6916 3.25746 23.0676C2.49753 21.1445 2.66037 16.609 2.66037 14.5045C2.66037 12.4001 2.49753 7.84642 3.25746 5.94151C3.49621 5.31138 3.86443 4.73864 4.33823 4.26044C4.81203 3.78225 5.38082 3.40928 6.00769 3.16578C8.81041 2.59609 11.676 2.40088 14.5298 2.58524C17.3896 2.40119 20.2611 2.59639 23.0699 3.16578C23.6924 3.41211 24.2574 3.78397 24.7306 4.25833C25.2037 4.73267 25.5745 5.29941 25.8202 5.92337C26.5801 7.84642 26.3992 12.3819 26.3992 14.4864C26.3992 16.5909 26.5801 21.1445 25.8202 23.0494V23.0676Z" fill="black"/>
<path id="Vector_2" d="M38.5931 5.08874C36.7576 5.86044 34.7397 8.03783 34.1024 10.773C33.2953 14.2375 36.654 15.7026 36.9295 15.2229C37.2537 14.6583 36.3277 14.4674 36.137 12.6698C35.8907 10.3481 36.9662 7.75378 38.3198 6.61547C38.5715 6.40399 38.5594 6.69834 38.5594 7.2428C38.5594 8.21659 38.5058 16.9568 38.5058 18.781C38.5058 21.2493 38.4042 22.0287 38.2217 22.7987C38.0368 23.5792 37.7398 24.1066 37.9648 24.3099C38.2164 24.5371 39.2906 23.9966 39.9125 23.1255C40.6581 22.0808 40.9191 20.8262 40.9661 19.4636C41.0227 17.8212 41.0203 15.2149 41.0227 13.7283C41.0249 12.3649 41.0455 8.37247 40.9988 5.97239C40.9875 5.38369 39.3608 4.76606 38.5931 5.08874ZM123.251 18.0555C122.984 18.0555 122.863 18.3309 122.762 18.7947C122.414 20.407 122.047 20.7709 121.575 20.7709C121.047 20.7709 120.572 19.9725 120.45 18.3746C120.354 17.1181 120.37 14.8047 120.492 12.5037C120.517 12.0309 120.387 11.563 119.124 11.1024C118.58 10.9041 117.79 10.6124 117.396 11.5658C116.285 14.2591 115.849 16.3976 115.747 17.266C115.742 17.3109 115.687 17.32 115.677 17.2151C115.612 16.5194 115.466 15.255 115.448 12.5989C115.445 12.0807 115.335 11.6395 114.765 11.2784C114.395 11.0439 113.272 10.6296 112.868 11.1227C112.518 11.5259 112.112 12.6112 111.69 13.8977C111.348 14.9431 111.109 15.6504 111.109 15.6504C111.109 15.6504 111.113 12.8292 111.118 11.7591C111.119 11.3553 110.843 11.2207 110.76 11.1964C110.386 11.0874 109.648 10.9051 109.335 10.9051C108.948 10.9051 108.854 11.1219 108.854 11.4378C108.854 11.4791 108.793 15.1522 108.793 17.7206C108.793 17.8321 108.793 17.9539 108.793 18.0832C108.58 19.2637 107.886 20.8662 107.133 20.8662C106.378 20.8662 106.022 20.1963 106.022 17.1343C106.022 15.3482 106.075 14.5714 106.101 13.2796C106.117 12.5355 106.146 11.9639 106.144 11.8344C106.139 11.4367 105.454 11.2363 105.135 11.162C104.815 11.0875 104.536 11.0584 104.319 11.0708C104.011 11.0883 103.794 11.2908 103.794 11.5694C103.794 11.7188 103.795 12.0027 103.795 12.0027C103.399 11.3778 102.762 10.9428 102.338 10.8168C101.196 10.4765 100.004 10.7782 99.1053 12.0404C98.3908 13.0434 97.9602 14.1796 97.7907 15.8118C97.6668 17.0049 97.7072 18.215 97.9274 19.2384C97.6613 20.393 97.1673 20.8662 96.6263 20.8662C95.8409 20.8662 95.2715 19.5797 95.3377 17.3546C95.3813 15.891 95.6731 14.864 95.992 13.3782C96.128 12.7447 96.0175 12.4132 95.7404 12.0954C95.4862 11.8038 94.9447 11.655 94.166 11.8382C93.6114 11.9686 92.8184 12.1092 92.0931 12.217C92.0931 12.217 92.1368 12.0418 92.1728 11.7327C92.3615 10.1121 90.6067 10.2435 90.0469 10.7612C89.7127 11.0702 89.4852 11.4347 89.3988 12.0901C89.2619 13.1299 90.1069 13.6206 90.1069 13.6206C89.8296 14.8947 89.1499 16.5586 88.4483 17.7618C88.0725 18.4064 87.7848 18.884 87.4138 19.3918C87.4124 19.2031 87.4114 19.0143 87.4107 18.8256C87.4021 16.1473 87.4378 14.0395 87.4533 13.2797C87.4687 12.5356 87.4984 11.9793 87.4966 11.8498C87.4925 11.559 87.3233 11.449 86.9713 11.3101C86.6601 11.187 86.2921 11.1019 85.9103 11.0722C85.4287 11.0346 85.1382 11.291 85.1459 11.5943C85.1475 11.6515 85.1475 12.0031 85.1475 12.0031C84.7512 11.3782 84.1138 10.9433 83.6899 10.8172C82.5479 10.477 81.3562 10.7786 80.4573 12.0408C79.743 13.0439 79.2752 14.4514 79.1427 15.7997C79.0192 17.0563 79.042 18.1242 79.2103 19.0237C79.0287 19.9245 78.5066 20.8665 77.9162 20.8665C77.1615 20.8665 76.7321 20.1966 76.7321 17.1346C76.7321 15.3485 76.7855 14.5718 76.8116 13.2799C76.827 12.5358 76.8565 11.9642 76.8546 11.8347C76.8491 11.437 76.1639 11.2366 75.8451 11.1623C75.5115 11.0848 75.2235 11.0565 75.0024 11.0728C74.7105 11.0946 74.5055 11.3567 74.5055 11.5523V12.0031C74.1092 11.3782 73.4718 10.9433 73.0479 10.8172C71.9059 10.477 70.7208 10.7835 69.8153 12.0408C69.2248 12.8607 68.7467 13.7697 68.5007 15.7818C68.4296 16.3632 68.3982 16.9078 68.4023 17.4167C68.1668 18.8619 67.1269 20.5276 66.2761 20.5276C65.7782 20.5276 65.3041 19.5586 65.3041 17.4933C65.3041 14.7423 65.4739 10.8254 65.5025 10.4479C65.5025 10.4479 66.5774 10.4296 66.7855 10.4272C67.3218 10.4212 67.8074 10.434 68.5214 10.3973C68.8796 10.379 69.2246 9.08888 68.855 8.92921C68.6876 8.85695 67.5033 8.79362 67.034 8.78362C66.6392 8.77469 65.5402 8.69303 65.5402 8.69303C65.5402 8.69303 65.6388 6.09313 65.6619 5.81847C65.6813 5.58942 65.3862 5.47171 65.217 5.40005C64.8054 5.22554 64.4374 5.14176 64.001 5.05147C63.3981 4.92664 63.1245 5.04875 63.0712 5.55958C62.9907 6.33446 62.9491 8.60471 62.9491 8.60471C62.5065 8.60471 60.9954 8.51791 60.5528 8.51791C60.1415 8.51791 59.6978 10.2926 60.2663 10.3144C60.9204 10.3399 62.0601 10.3619 62.8158 10.3847C62.8158 10.3847 62.7821 14.3662 62.7821 15.5955C62.7821 15.7262 62.7826 15.8521 62.7835 15.9743C62.3676 18.1498 60.9027 19.3249 60.9027 19.3249C61.2173 17.8857 60.5747 16.805 59.4174 15.8901C58.9908 15.5529 58.1491 14.9148 57.2072 14.2154C57.2072 14.2154 57.7528 13.6757 58.2365 12.59C58.5793 11.821 58.5941 10.941 57.7526 10.747C56.3625 10.4262 55.2161 11.4508 54.8742 12.5447C54.6093 13.3923 54.7506 14.021 55.2695 14.6744C55.3074 14.7221 55.3485 14.7707 55.3909 14.8198C55.0771 15.4268 54.646 16.2441 54.2809 16.878C53.2673 18.6377 52.5018 20.0296 51.9231 20.0296C51.4606 20.0296 51.4669 18.6165 51.4669 17.2934C51.4669 16.1528 51.5508 14.4379 51.6179 12.6624C51.6401 12.0752 51.3474 11.7407 50.8569 11.4378C50.559 11.2537 49.923 10.8918 49.5549 10.8918C49.0036 10.8918 47.4131 10.9671 45.9103 15.3299C45.7209 15.8798 45.3488 16.8818 45.3488 16.8818L45.3808 11.6353C45.3808 11.5123 45.3154 11.3932 45.166 11.3119C44.9127 11.174 44.2363 10.8918 43.6349 10.8918C43.3485 10.8918 43.2054 11.0256 43.2054 11.2922L43.1528 19.5005C43.1528 20.1241 43.169 20.8518 43.2306 21.1699C43.2917 21.4886 43.3909 21.7477 43.5137 21.9019C43.6363 22.0558 43.7782 22.1732 44.0122 22.2217C44.2298 22.2667 45.4218 22.4203 45.4839 21.9631C45.5581 21.4152 45.5609 20.8225 46.1868 18.6123C47.1613 15.1711 48.4319 13.4921 49.0293 12.8959C49.1336 12.7916 49.2528 12.7854 49.2471 12.956C49.2218 13.7103 49.1321 15.5956 49.0716 17.1972C48.9097 21.4832 49.6867 22.2776 50.7969 22.2776C51.6462 22.2776 52.8435 21.4305 54.127 19.2865C54.9271 17.9504 55.704 16.6403 56.2623 15.696C56.6513 16.0575 57.0877 16.4464 57.5241 16.8619C58.5378 17.8275 58.8707 18.7451 58.6498 19.6156C58.4809 20.2811 57.8448 20.9669 56.7127 20.3003C56.3828 20.106 56.2418 19.9557 55.9102 19.7363C55.7319 19.6186 55.4599 19.5833 55.2967 19.7068C54.8727 20.0275 54.6303 20.4356 54.4919 20.9407C54.3572 21.4321 54.8477 21.6919 55.356 21.9192C55.7938 22.1147 56.7346 22.292 57.3346 22.3121C59.6723 22.3906 61.5453 21.1793 62.8488 18.0546C63.0823 20.7531 64.0754 22.2802 65.8012 22.2802C66.9549 22.2802 68.1116 20.7836 68.6174 19.3112C68.7626 19.9115 68.9775 20.4332 69.2551 20.8746C70.5848 22.989 73.1643 22.5339 74.46 20.7386C74.8605 20.1838 74.9216 19.9843 74.9216 19.9843C75.1106 21.6797 76.4709 22.2722 77.2498 22.2722C78.1221 22.2722 79.0228 21.8583 79.6541 20.432C79.7264 20.5842 79.8075 20.732 79.897 20.8748C81.2266 22.9892 83.8062 22.5341 85.1019 20.7387C85.1628 20.6544 85.216 20.578 85.2622 20.5094L85.3002 21.6232L84.1074 22.7212C82.1079 24.5604 80.5887 25.9555 80.477 27.5801C80.335 29.6516 82.0079 30.4215 83.2754 30.5224C84.6191 30.6295 85.7719 29.8839 86.4796 28.8402C87.1022 27.9219 87.5096 25.9451 87.4799 23.9925C87.4679 23.2106 87.4483 22.2166 87.4328 21.151C88.1347 20.3329 88.9256 19.2988 89.6536 18.0887C90.4473 16.7697 91.2977 14.9986 91.7331 13.6202C91.7331 13.6202 92.472 13.6265 93.2605 13.5747C93.5127 13.5582 93.585 13.6097 93.5385 13.7954C93.4822 14.0195 92.5423 17.6582 93.4001 20.082C93.9873 21.7413 95.3109 22.2752 96.0957 22.2752C97.0144 22.2752 97.893 21.5789 98.364 20.545C98.4207 20.6603 98.4802 20.7718 98.5448 20.8748C99.8745 22.9892 102.445 22.5315 103.75 20.7387C104.044 20.3343 104.211 19.9845 104.211 19.9845C104.491 21.739 105.851 22.2811 106.63 22.2811C107.441 22.2811 108.211 21.9474 108.835 20.4641C108.861 21.1173 108.902 21.6512 108.967 21.8195C109.007 21.9225 109.237 22.0517 109.405 22.1141C110.147 22.3902 110.904 22.2597 111.184 22.2029C111.378 22.1635 111.529 22.0073 111.55 21.6041C111.604 20.5451 111.571 18.766 111.891 17.4437C112.427 15.2246 112.928 14.3637 113.166 13.9377C113.299 13.6989 113.449 13.6595 113.454 13.9122C113.465 14.4235 113.491 15.9249 113.699 17.9422C113.852 19.4258 114.056 20.3028 114.212 20.5803C114.66 21.3738 115.213 21.4114 115.663 21.4114C115.949 21.4114 116.548 21.3321 116.494 20.8271C116.468 20.5809 116.514 19.0595 117.043 16.8733C117.389 15.4456 117.965 14.1558 118.173 13.6841C118.25 13.5102 118.285 13.6473 118.284 13.6739C118.241 14.6571 118.142 17.873 118.541 19.6318C119.082 22.0146 120.647 22.2811 121.193 22.2811C122.357 22.2811 123.309 21.3923 123.63 19.0536C123.708 18.4902 123.593 18.0555 123.251 18.0555ZM74.4816 16.6097C74.4149 17.8474 74.1743 18.8821 73.7882 19.6336C73.0896 20.9939 71.7074 21.4252 71.098 19.4597C70.6586 18.0425 70.8082 16.1099 70.991 15.0661C71.2623 13.5168 71.9415 12.4185 73.0019 12.5226C74.0911 12.6295 74.6206 14.0343 74.4816 16.6097ZM85.1235 16.6276C85.0613 17.7963 84.7594 18.9704 84.43 19.6338C83.7502 21.0034 82.3288 21.4315 81.7399 19.4599C81.3371 18.1126 81.4336 16.3691 81.6328 15.2707C81.8914 13.8451 82.5181 12.5227 83.6437 12.5227C84.7381 12.5226 85.2777 13.7276 85.1235 16.6276ZM85.4012 24.6013C85.3864 26.7334 85.0522 28.6028 84.3352 29.1458C83.3183 29.9157 81.9515 29.3382 82.2345 27.7824C82.4849 26.4056 83.6692 24.9996 85.4042 23.2817C85.4041 23.2817 85.4077 23.6735 85.4012 24.6013ZM103.772 16.64C103.712 17.9231 103.429 18.9262 103.078 19.6336C102.398 21.0033 100.987 21.4285 100.388 19.4597C100.062 18.3865 100.046 16.5941 100.281 15.0964C100.52 13.5709 101.187 12.4185 102.292 12.5226C103.382 12.6252 103.892 14.0343 103.772 16.64Z" fill="black"/>
</g>
</svg>
