<svg width="170" height="135" viewBox="0 0 170 135" fill="none" xmlns="http://www.w3.org/2000/svg">
<g id="Text">
<g id="Group">
<path id="Vector" d="M11.7008 57.9651V3.481H0.166016V0.347656H26.7847V3.481H15.5357V57.9651H11.6933H11.7008Z" fill="#BBF046"/>
<path id="Vector_2" d="M33.4844 57.9654V0.355469H37.402V26.3164H57.6142V0.355469H61.4566V57.9654H57.6142V29.2994H37.402V57.9654H33.4844Z" fill="#BBF046"/>
<path id="Vector_3" d="M69.0739 57.9654L81.1727 0.355469H85.6542L97.8282 57.9654H93.9106L90.9178 42.0357H75.9692L72.9088 57.9654H69.0664H69.0739ZM76.5482 39.1878H90.4291L83.4511 5.04421L76.5482 39.1878Z" fill="#BBF046"/>
<path id="Vector_4" d="M105.438 57.9654V0.355469H108.498L128.071 49.0087V0.355469H131.485V57.9654H128.424L108.851 9.24453V57.9654H105.438Z" fill="#BBF046"/>
<path id="Vector_5" d="M142.027 57.9654V0.355469H145.945V32.7183L162.676 0.355469H166.518L154.344 24.7534L169.436 57.9729H165.593L151.998 28.0972L145.945 39.1202V57.9654H142.027Z" fill="#BBF046"/>
</g>
<g id="Group_2">
<path id="Vector_6" d="M40.4559 133.488V115.064L27.1465 75.8711H31.1318L42.4485 110.436L53.1937 75.8711H57.179L44.2983 115.064V133.488H40.4559Z" fill="#BBF046"/>
<path id="Vector_7" d="M76.9703 134.27C73.2181 134.27 70.3156 133.526 68.2478 132.031C66.1799 130.536 64.7512 128.499 63.9391 125.914C63.1346 123.33 62.7285 120.399 62.7285 117.131V91.9511C62.7285 88.6825 63.1571 85.7896 64.0068 83.2724C64.864 80.7627 66.3228 78.7941 68.3831 77.3664C70.451 75.9462 73.3083 75.2324 76.9628 75.2324C80.6172 75.2324 83.4746 75.9462 85.5424 77.3664C87.6103 78.7865 89.069 80.7552 89.9187 83.2724C90.7759 85.7896 91.197 88.675 91.197 91.9511V117.198C91.197 120.467 90.791 123.39 89.9864 125.944C89.1818 128.507 87.7456 130.536 85.6778 132.023C83.6099 133.519 80.7074 134.262 76.9552 134.262L76.9703 134.27ZM76.9703 131.069C79.7224 131.069 81.8429 130.528 83.3392 129.431C84.8356 128.341 85.8658 126.809 86.4372 124.84C87.0087 122.871 87.2944 120.587 87.2944 117.98V91.38C87.2944 88.7727 87.0087 86.4959 86.4372 84.5498C85.8658 82.6037 84.8431 81.1009 83.3768 80.0339C81.903 78.9669 79.7675 78.4334 76.9703 78.4334C74.1731 78.4334 72.0977 78.9669 70.6013 80.0339C69.105 81.1009 68.0748 82.6037 67.5033 84.5498C66.9319 86.4959 66.6461 88.7727 66.6461 91.38V117.98C66.6461 120.587 66.9319 122.879 67.5033 124.84C68.0748 126.809 69.105 128.334 70.6013 129.431C72.0977 130.52 74.2182 131.069 76.9703 131.069Z" fill="#BBF046"/>
<path id="Vector_8" d="M114.342 134.27C110.59 134.27 107.672 133.639 105.589 132.384C103.499 131.129 102.04 129.423 101.213 127.259C100.386 125.103 99.9648 122.668 99.9648 119.971V75.8711H103.807V120.038C103.807 122.127 104.101 124.013 104.695 125.696C105.289 127.38 106.356 128.695 107.898 129.641C109.439 130.588 111.59 131.061 114.342 131.061C116.951 131.061 119.027 130.573 120.568 129.604C122.11 128.634 123.215 127.319 123.877 125.659C124.538 123.998 124.877 122.127 124.877 120.038V75.8711H128.651V119.971C128.651 122.676 128.2 125.103 127.298 127.259C126.396 129.416 124.914 131.122 122.846 132.384C120.779 133.639 117.944 134.27 114.342 134.27Z" fill="#BBF046"/>
<path id="Vector_9" d="M138.111 133.489V128.229H142.382V133.489H138.111ZM139.608 121.113L138.187 75.8789H142.458L140.961 121.113H139.608Z" fill="#BBF046"/>
</g>
</g>
</svg>
