<svg width="78" height="159" viewBox="0 0 78 159" fill="none" xmlns="http://www.w3.org/2000/svg">
<g id="Device">
<g id="Group">
<path id="Vector" d="M9.1251 3.57248H69.8592C69.8592 3.57248 74.5293 5.89628 75.3665 14.572C76.2037 23.2478 75.3665 146.728 75.3665 146.728C75.3665 146.728 72.6147 155.978 65.0202 155.978C57.4293 155.978 9.1251 155.978 9.1251 155.978C9.1251 155.978 2.36769 148.804 2.7844 144.13C3.2011 139.457 2.76562 10.5664 2.76562 10.5664C2.76562 10.5664 4.95428 2.58139 9.1251 3.57248Z" fill="#BBF046"/>
<path id="Vector_2" d="M66.0996 0.682379L12.5021 0.652346C6.05249 0.648592 0.823004 5.87432 0.81925 12.3239L0.792969 146.691C0.792969 153.137 6.01495 158.367 12.4608 158.367L66.0583 158.397C72.5079 158.4 77.7374 153.175 77.7411 146.725L77.7674 12.3577C77.7674 5.91186 72.5454 0.686134 66.0996 0.682379ZM74.186 144.765C74.186 149.282 70.5219 152.942 66.0057 152.942L12.5171 152.912C8.00087 152.908 4.34437 149.248 4.34437 144.732L4.37064 13.5815C4.37064 9.06532 8.03466 5.40506 12.5509 5.40506L21.6471 5.40881L25.2998 5.41257C26.6926 5.41257 27.8226 6.59512 27.8226 8.05171V9.93628C27.8226 11.3929 28.9526 12.5754 30.3454 12.5754L50.5989 12.5867C51.9916 12.5867 53.1216 11.4079 53.1216 9.9513V8.06673C53.1216 6.61013 54.2516 5.43134 55.6444 5.43134L66.0358 5.43885C70.552 5.4426 74.2085 9.10287 74.2085 13.6153L74.186 144.765Z" fill="#263238"/>
</g>
</g>
</svg>
