<svg width="32" height="32" viewBox="0 0 32 32" fill="none" xmlns="http://www.w3.org/2000/svg">
<g id="Frame 22">
<path id="Vector" d="M13.3333 22.9183C13.3333 23.5156 12.848 24.001 12.2507 24.001H10.416C9.81867 24.001 9.33333 23.5156 9.33333 22.9183V22.6129C9.33333 21.9436 9.93467 21.4342 10.5947 21.5449L12.4293 21.8502C12.952 21.9369 13.3347 22.3889 13.3347 22.9183H13.3333ZM17.928 17.5234C17.4547 17.05 16.6707 17.1154 16.2813 17.6594L15.2 19.1728C14.892 19.6035 14.9413 20.1942 15.316 20.5675C15.7387 20.9902 16.424 20.9902 16.8467 20.5675L18.144 19.2701C18.5667 18.8475 18.5667 18.1621 18.144 17.7394L17.928 17.5234ZM21.5453 11.3591L22.2507 9.66574C22.48 9.11371 22.22 8.48035 21.668 8.24968C21.18 8.04567 20.616 8.22568 20.3347 8.67369L19.3467 10.2498C18.9907 10.8165 19.2307 11.5671 19.848 11.8245L20.1307 11.9418C20.6827 12.1712 21.3147 11.9112 21.5453 11.3591ZM32 15.9993C32 24.8224 24.8227 32 16 32C7.17733 32 0 24.8237 0 16.0007C0 7.17763 7.17733 0 16 0C24.8227 0 32 7.17763 32 16.0007V15.9993ZM16 27.9998C18.696 27.9998 21.1867 27.1051 23.1933 25.5984L22.26 25.4651C21.68 25.3824 21.1773 25.0197 20.916 24.4957L20.4 23.4636C20.1493 22.961 20.1493 22.3689 20.4 21.8662L20.944 20.7795C21.1907 20.2862 21.6507 19.9355 22.1907 19.8275L24.3307 19.3995C24.5507 19.3555 24.752 19.2475 24.9093 19.0901L26.0413 17.9581C26.4093 17.5901 26.98 17.5207 27.4253 17.7874L27.828 18.0287C27.9413 17.3687 28 16.69 28 15.9993C28 10.6711 24.5093 6.14426 19.696 4.58152C19.3853 5.21488 19.1173 5.75891 18.932 6.13226C18.764 6.47227 18.456 6.71761 18.088 6.80962L16.6187 7.1763C16.2333 7.2723 15.924 7.55898 15.7973 7.93633L15.5253 8.7537C15.404 9.11505 15.4693 9.51373 15.6987 9.81907L16.632 11.0631C17.048 11.6178 17.048 12.3792 16.632 12.9339L15.8013 14.0419C15.5067 14.4339 15.0453 14.6659 14.5547 14.6659H13.6493C13.1347 14.6659 12.744 15.1273 12.828 15.6353L13.2053 17.8981C13.2813 18.3554 13.0507 18.8088 12.636 19.0155L11.4293 19.6182C10.984 19.8408 10.444 19.7222 10.1333 19.3328L8.552 17.3554C8.244 16.9714 7.688 16.9007 7.29333 17.1954L5.75333 18.3501C5.48 18.5554 5.148 18.6661 4.80667 18.6661H4.29867C5.51467 24.0037 10.2987 27.9998 16 27.9998Z" fill="#4D4D4D"/>
</g>
</svg>
