<svg width="149" height="149" viewBox="0 0 149 149" fill="none" xmlns="http://www.w3.org/2000/svg">
<g id="Timey video calls to discuss, nutrition, progress, QnA.-01 1">
<g id="Background_Complete">
<g id="Group">
<g id="Group_2">
<g id="Group_3">
<path id="Vector" d="M23.5273 73.9407C23.5273 73.9407 20.4562 75.0035 23.5863 81.5903C26.7165 88.177 28.9174 91.4541 28.9174 91.4541C28.9174 91.4541 29.4631 92.9787 28.1916 93.1771C26.9201 93.3784 24.1469 92.8574 23.5391 94.3938C22.9107 95.9894 24.0377 97.5406 26.3654 98.9379C28.6931 100.335 33.6849 103.586 34.1363 103.879C34.5788 104.169 35.0095 104.882 34.1658 105.158C33.322 105.433 27.0381 105.921 27.4452 108.899C27.8553 111.878 34.98 114.702 35.753 115.024C36.5259 115.347 36.703 115.685 36.6292 116.114C36.5554 116.543 34.4254 116.508 32.6435 116.718C30.8615 116.931 28.8318 117.49 29.2124 119.187C29.593 120.886 33.7586 124.545 44.0844 125.842L48.908 126.129L51.6458 122.109C56.9797 113.145 56.67 107.597 55.5695 106.25C54.4691 104.906 52.7816 106.164 51.5189 107.443C50.2562 108.722 48.9758 110.427 48.5923 110.223C48.2088 110.018 48.0524 109.669 48.2766 108.861C48.4979 108.05 50.6663 100.676 48.5775 98.5205C46.4888 96.3654 42.2405 101.034 41.5029 101.534C40.7654 102.031 40.4704 101.25 40.5146 100.723C40.5589 100.184 41.0781 94.2369 41.4144 91.537C41.7508 88.8342 41.2227 86.9899 39.5853 86.5045C38.004 86.0367 36.7059 88.55 35.7677 89.4352C34.8266 90.3174 33.9652 88.9497 33.9652 88.9497C33.9652 88.9497 32.7467 85.1901 29.4986 78.6625C26.2504 72.1349 23.4683 73.9674 23.4683 73.9674" fill="#EBEBEB"/>
</g>
</g>
<g id="Group_4">
<g id="Group_5">
<g id="Group_6">
<path id="Vector_2" d="M49.1274 127.28C46.7613 122.476 42.6989 113.867 39.1705 106.496C35.645 99.1245 32.4469 92.4548 30.1045 87.6413C28.9332 85.2404 27.9833 83.2925 27.3254 81.9426C27.0009 81.2736 26.7471 80.7525 26.5701 80.3914C26.4875 80.2167 26.4226 80.0835 26.3784 79.9858C26.3371 79.894 26.3164 79.8467 26.3164 79.8467C26.3164 79.8467 26.343 79.8911 26.3902 79.9799C26.4403 80.0746 26.5082 80.2078 26.5967 80.3795C26.7766 80.7377 27.0392 81.2528 27.3755 81.916C28.0511 83.2511 29.0158 85.1931 30.1989 87.5939C32.5649 92.3985 35.7777 99.0623 39.3032 106.431C42.8287 113.805 46.8764 122.419 49.2189 127.233" fill="#E0E0E0"/>
</g>
</g>
</g>
<g id="Group_7">
<g id="Group_8">
<g id="Group_9">
<path id="Vector_3" d="M27.3908 95.2787C27.3938 95.2698 27.5148 95.3053 27.7242 95.3823C27.9366 95.4563 28.2405 95.5747 28.6122 95.7227C29.3586 96.0217 30.3794 96.4569 31.4946 96.9602C32.595 97.4605 33.5892 97.9134 34.3474 98.2597C34.6897 98.4137 34.9817 98.5439 35.2148 98.6476C35.4213 98.7393 35.5305 98.7926 35.5275 98.8015C35.5246 98.8104 35.4036 98.7748 35.1912 98.7008C34.9788 98.6268 34.6749 98.5084 34.3032 98.3574C33.5597 98.0525 32.5449 97.6025 31.4297 97.0993C30.3263 96.6079 29.3291 96.1609 28.568 95.8204C28.2228 95.6694 27.9337 95.5392 27.6977 95.4356C27.4971 95.3468 27.3849 95.2905 27.3908 95.2787Z" fill="#E0E0E0"/>
</g>
</g>
</g>
<g id="Group_10">
<g id="Group_11">
<g id="Group_12">
<path id="Vector_4" d="M35.8685 98.5023C35.8301 98.4875 36.6356 96.3383 37.6681 93.7006C38.7007 91.0629 39.571 88.9404 39.6094 88.9552C39.6477 88.97 38.8423 91.1192 37.8097 93.7568C36.7772 96.3915 35.9069 98.5171 35.8685 98.5023Z" fill="#E0E0E0"/>
</g>
</g>
</g>
<g id="Group_13">
<g id="Group_14">
<g id="Group_15">
<path id="Vector_5" d="M40.7742 110.069C40.7653 110.063 40.8391 109.96 40.9777 109.776C41.137 109.569 41.3347 109.311 41.5707 109.006C42.0693 108.355 42.7567 107.455 43.4765 106.434C44.1993 105.412 44.8218 104.465 45.2673 103.778C45.4768 103.453 45.6538 103.18 45.7954 102.961C45.9223 102.769 45.996 102.665 46.0049 102.671C46.0137 102.677 45.9577 102.79 45.8456 102.991C45.7334 103.192 45.5682 103.482 45.3558 103.832C44.9339 104.536 44.3232 105.495 43.5975 106.52C42.8747 107.544 42.1725 108.438 41.6504 109.071C41.3878 109.388 41.1724 109.64 41.019 109.811C40.8715 109.983 40.783 110.075 40.7742 110.069Z" fill="#E0E0E0"/>
</g>
</g>
</g>
<g id="Group_16">
<g id="Group_17">
<g id="Group_18">
<path id="Vector_6" d="M32.4648 108.846C32.4648 108.837 32.5829 108.84 32.7953 108.86C33.0372 108.887 33.3352 108.92 33.6862 108.955C34.4385 109.041 35.4741 109.171 36.6187 109.325C37.7634 109.479 38.7989 109.624 39.5483 109.74C39.8964 109.796 40.1914 109.843 40.4334 109.882C40.6428 109.92 40.7579 109.944 40.7549 109.956C40.7549 109.965 40.6369 109.962 40.4245 109.941C40.1826 109.914 39.8846 109.882 39.5335 109.846C38.7812 109.76 37.7457 109.63 36.5981 109.476C35.4534 109.322 34.4179 109.177 33.6715 109.062C33.3234 109.005 33.0283 108.958 32.7864 108.92C32.5799 108.881 32.4648 108.857 32.4648 108.846Z" fill="#E0E0E0"/>
</g>
</g>
</g>
<g id="Group_19">
<g id="Group_20">
<g id="Group_21">
<path id="Vector_7" d="M35.5039 119.61C35.5039 119.601 35.6544 119.607 35.9258 119.634C36.2238 119.664 36.6073 119.705 37.0675 119.752C38.0322 119.859 39.3628 120.016 40.832 120.196C42.3012 120.38 43.6288 120.552 44.5905 120.685C45.0478 120.753 45.4313 120.806 45.7264 120.851C45.9948 120.892 46.1424 120.922 46.1394 120.931C46.1394 120.939 45.9889 120.934 45.7175 120.907C45.4195 120.877 45.036 120.836 44.5758 120.789C43.6111 120.682 42.2805 120.525 40.8113 120.344C39.3421 120.161 38.0145 119.989 37.0528 119.856C36.5955 119.788 36.212 119.735 35.9169 119.69C35.6514 119.649 35.5039 119.619 35.5039 119.61Z" fill="#E0E0E0"/>
</g>
</g>
</g>
<g id="Group_22">
<g id="Group_23">
<g id="Group_24">
<path id="Vector_8" d="M45.899 120.827C45.8902 120.821 45.9787 120.685 46.1469 120.448C46.3327 120.19 46.5717 119.853 46.8638 119.444C47.4686 118.598 48.2976 117.422 49.1767 116.102C50.0588 114.782 50.8259 113.565 51.3746 112.68C51.6401 112.257 51.8585 111.904 52.0266 111.632C52.18 111.386 52.2715 111.25 52.2803 111.256C52.2892 111.262 52.2154 111.404 52.0768 111.662C51.9381 111.916 51.7287 112.286 51.4661 112.733C50.9409 113.633 50.1857 114.862 49.3036 116.185C48.4215 117.508 47.5777 118.675 46.9493 119.507C46.6336 119.921 46.377 120.255 46.1941 120.48C46.0112 120.711 45.9079 120.833 45.899 120.827Z" fill="#E0E0E0"/>
</g>
</g>
</g>
</g>
<g id="Group_25">
<g id="Group_26">
<g id="Group_27">
<g id="Group_28">
<g id="Group_29">
<g id="Group_30">
<path id="Vector_9" d="M101.491 111.442C94.0066 107.733 91.139 99.1653 90.2067 91.2109C90.0503 89.8847 89.6963 88.514 90.1448 87.2588C90.5961 86.0036 91.9355 84.9883 93.1982 85.3672C94.2455 85.681 94.8444 86.7556 95.5348 87.617C96.4523 88.7627 97.6943 89.636 99.0691 90.1037C99.9748 90.4116 101.052 90.5211 101.81 89.9379C102.851 89.1357 102.745 87.543 102.539 86.2286C102.152 83.7834 101.766 81.3352 101.379 78.8899C101.173 77.5785 100.963 76.2375 101.181 74.929C101.4 73.6205 102.123 72.3239 103.314 71.7851C104.506 71.2463 106.156 71.7318 106.613 72.9752C106.805 73.4932 106.778 74.0646 106.899 74.6063C107.017 75.1451 107.362 75.7105 107.902 75.7845C108.448 75.8585 108.914 75.4056 109.247 74.9616C110.398 73.4281 111.056 71.5808 111.655 69.7514C112.254 67.9219 112.823 66.0539 113.829 64.4198C114.835 62.7857 116.357 61.3795 118.216 60.9887C120.075 60.595 122.249 61.4535 123.001 63.2268C123.756 65.0059 122.966 67.0486 122.022 68.7271C120.62 71.2167 118.862 73.4962 116.821 75.4767C116.452 75.8349 116.053 76.2197 115.968 76.7289C115.817 77.6495 116.776 78.3926 117.679 78.5465C118.706 78.7242 119.747 78.4607 120.786 78.4252C121.824 78.3896 122.998 78.6738 123.532 79.5827C124.273 80.8438 123.367 82.4216 122.405 83.511C120.482 85.6928 118.184 87.5371 115.646 88.9344C114.738 89.4347 113.77 89.8995 113.097 90.6987C112.425 91.4951 112.136 92.7473 112.743 93.6028C113.354 94.4584 114.602 94.5709 115.581 94.2275C116.561 93.887 117.381 93.1973 118.287 92.6881C119.983 91.7319 122.326 91.501 123.712 92.8864C124.624 93.7953 124.907 95.2133 124.709 96.4951C124.512 97.7769 123.895 98.9463 123.217 100.045C120.848 103.878 117.57 107.176 113.617 109.266C109.678 111.347 105.869 112.33 101.491 111.442Z" fill="#F5F5F5"/>
</g>
</g>
</g>
</g>
</g>
<g id="Group_31">
<g id="Group_32">
<g id="Group_33">
<g id="Group_34">
<g id="Group_35">
<g id="Group_36">
<path id="Vector_10" d="M102.773 106.17C103.328 101.998 104.313 97.478 105.508 92.7859C105.812 91.6136 106.11 90.4561 106.405 89.3134C106.703 88.1736 106.995 87.0457 107.352 85.9593C108.054 83.7834 108.895 81.7438 109.754 79.8343C110.612 77.922 111.494 76.1398 112.332 74.4791C113.173 72.8183 113.987 71.2878 114.79 69.9231C116.383 67.1877 117.926 65.1362 119.044 63.7715C119.601 63.0877 120.05 62.5696 120.36 62.2262C120.51 62.0604 120.625 61.9331 120.714 61.8354C120.793 61.7496 120.838 61.7052 120.84 61.7081C120.843 61.7111 120.808 61.7585 120.731 61.8532C120.649 61.9539 120.537 62.09 120.395 62.2617C120.097 62.617 119.66 63.1439 119.115 63.8366C118.023 65.2162 116.507 67.2766 114.934 70.0149C114.144 71.3826 113.341 72.9131 112.509 74.5768C111.68 76.2405 110.804 78.0226 109.954 79.932C109.105 81.8415 108.27 83.8723 107.576 86.0392C107.225 87.1198 106.933 88.2388 106.638 89.3815C106.343 90.5212 106.045 91.6787 105.744 92.851C104.552 97.5402 103.561 102.049 102.995 106.205" fill="#E0E0E0"/>
</g>
</g>
</g>
</g>
</g>
</g>
<g id="Group_37">
<g id="Group_38">
<g id="Group_39">
<g id="Group_40">
<g id="Group_41">
<g id="Group_42">
<path id="Vector_11" d="M107.423 85.9417C107.409 85.9476 107.332 85.7552 107.211 85.4C107.087 85.0477 106.925 84.5326 106.733 83.8902C106.35 82.6113 105.88 80.8263 105.37 78.8547C104.86 76.8831 104.367 75.1098 103.966 73.8398C103.765 73.2034 103.6 72.6912 103.482 72.3389C103.364 71.9837 103.308 71.7854 103.323 71.7794C103.337 71.7735 103.426 71.96 103.57 72.3034C103.718 72.6468 103.91 73.153 104.131 73.7836C104.576 75.0447 105.099 76.8179 105.609 78.7925C106.108 80.7374 106.559 82.4988 106.901 83.8428C107.061 84.4497 107.196 84.9618 107.302 85.3704C107.394 85.7345 107.438 85.9358 107.423 85.9417Z" fill="#E0E0E0"/>
</g>
</g>
</g>
</g>
</g>
</g>
<g id="Group_43">
<g id="Group_44">
<g id="Group_45">
<g id="Group_46">
<g id="Group_47">
<g id="Group_48">
<path id="Vector_12" d="M123.776 80.2157C123.779 80.2334 123.543 80.2956 123.118 80.3992C122.693 80.5028 122.074 80.6508 121.319 80.8581C119.802 81.2607 117.728 81.8883 115.468 82.6846C113.208 83.4839 111.196 84.295 109.757 84.9226C109.034 85.2305 108.456 85.4969 108.057 85.6805C107.659 85.864 107.432 85.9587 107.426 85.9439C107.417 85.9291 107.63 85.8048 108.016 85.5946C108.406 85.3874 108.972 85.0943 109.689 84.7657C111.114 84.0937 113.123 83.2559 115.389 82.4537C117.654 81.6574 119.746 81.0505 121.277 80.6923C122.041 80.5058 122.667 80.3844 123.1 80.3074C123.531 80.2305 123.77 80.1979 123.776 80.2157Z" fill="#E0E0E0"/>
</g>
</g>
</g>
</g>
</g>
</g>
<g id="Group_49">
<g id="Group_50">
<g id="Group_51">
<g id="Group_52">
<g id="Group_53">
<g id="Group_54">
<path id="Vector_13" d="M102.936 105.829C102.93 105.835 102.88 105.77 102.788 105.64C102.685 105.486 102.561 105.299 102.408 105.071C102.08 104.577 101.623 103.852 101.071 102.946C99.965 101.134 98.5164 98.5853 96.9558 95.7493C95.3951 92.9133 93.9702 90.3526 92.9052 88.5231C92.383 87.632 91.9552 86.9008 91.6366 86.3561C91.5009 86.1193 91.3858 85.9239 91.2943 85.7641C91.2176 85.6279 91.1822 85.5539 91.1881 85.548C91.194 85.545 91.2442 85.6072 91.3356 85.7374C91.4389 85.8914 91.5628 86.0779 91.7162 86.3028C92.0437 86.7972 92.501 87.5225 93.0527 88.4284C94.159 90.2401 95.6075 92.789 97.1682 95.625C98.7289 98.461 100.151 101.019 101.219 102.851C101.741 103.739 102.169 104.473 102.487 105.015C102.623 105.252 102.738 105.447 102.83 105.607C102.906 105.749 102.945 105.823 102.936 105.829Z" fill="#E0E0E0"/>
</g>
</g>
</g>
</g>
</g>
</g>
<g id="Group_55">
<g id="Group_56">
<g id="Group_57">
<g id="Group_58">
<g id="Group_59">
<g id="Group_60">
<path id="Vector_14" d="M124.204 95.1803C124.207 95.1891 124.136 95.2306 123.994 95.3046C123.829 95.3904 123.625 95.4941 123.378 95.6214C122.808 95.9085 122.038 96.2963 121.1 96.767C119.177 97.735 116.539 99.0998 113.624 100.613C110.709 102.125 108.054 103.469 106.11 104.396C105.139 104.861 104.349 105.228 103.797 105.47C103.543 105.58 103.331 105.672 103.16 105.746C103.012 105.805 102.936 105.835 102.93 105.826C102.927 105.817 102.998 105.775 103.136 105.698C103.301 105.613 103.505 105.509 103.753 105.382C104.322 105.094 105.092 104.71 106.03 104.236C107.954 103.268 110.594 101.903 113.509 100.39C116.424 98.8777 119.079 97.5337 121.02 96.6072C121.991 96.1424 122.782 95.7753 123.333 95.5325C123.587 95.423 123.797 95.3312 123.971 95.2572C124.121 95.201 124.198 95.1714 124.204 95.1803Z" fill="#E0E0E0"/>
</g>
</g>
</g>
</g>
</g>
</g>
</g>
<g id="Group_61">
<g id="Group_62">
<g id="Group_63">
<path id="Vector_15" d="M33.8714 21.7287C35.0544 21.5333 36.2846 21.9507 37.2375 22.679C38.1905 23.4102 38.8897 24.4285 39.4207 25.5061C40.4503 27.5902 40.6126 30.2634 40.4267 32.5843C37.8777 32.2113 35.9011 29.9644 34.9688 28.7625C33.4967 26.856 31.9891 22.5221 33.8714 21.7287Z" fill="#F5F5F5"/>
</g>
</g>
<g id="Group_64">
<g id="Group_65">
<path id="Vector_16" d="M44.3838 34.5586C43.4161 33.6291 43.0975 32.1311 43.4545 30.8345C43.8114 29.5408 44.7791 28.4632 45.9562 27.8209C46.4991 27.5248 47.157 27.3146 47.7323 27.5485C48.2662 27.7705 48.5967 28.3478 48.6498 28.928C48.7029 29.5053 48.52 30.0826 48.2751 30.6095C47.4343 32.4153 46.2926 34.008 44.3838 34.5586Z" fill="#F5F5F5"/>
</g>
</g>
<g id="Group_66">
<g id="Group_67">
<g id="Group_68">
<path id="Vector_17" d="M45.3466 40.3018C45.3171 40.3107 45.0723 39.7808 44.7477 38.8867C44.5855 38.4368 44.4527 37.8713 44.3878 37.2437C44.3259 36.6191 44.2403 35.9323 44.261 35.1952C44.2846 33.7269 44.7005 32.4213 45.1844 31.5954C45.4233 31.178 45.6682 30.876 45.8452 30.6747C46.0311 30.4823 46.1402 30.3846 46.155 30.3965C46.1904 30.4261 45.7744 30.8494 45.3466 31.6813C44.9189 32.5072 44.5471 33.7713 44.5235 35.2011C44.5029 35.9116 44.5796 36.5954 44.6297 37.2171C44.6828 37.8358 44.792 38.3776 44.9277 38.8275C45.1991 39.7304 45.385 40.2899 45.3466 40.3018Z" fill="#E0E0E0"/>
</g>
</g>
</g>
<g id="Group_69">
<g id="Group_70">
<g id="Group_71">
<path id="Vector_18" d="M35.3135 24.926C35.3283 24.9172 35.4994 25.1333 35.7974 25.5359C36.0954 25.9385 36.5172 26.5246 37.0335 27.2529C38.0631 28.7123 39.4645 30.7461 40.9602 33.0285C42.453 35.3109 43.7452 37.4187 44.6509 38.961C45.1023 39.7337 45.4623 40.3613 45.7012 40.7994C45.9402 41.2375 46.067 41.4862 46.0523 41.4951C46.0375 41.504 45.8812 41.276 45.6157 40.8527C45.3265 40.3879 44.9489 39.784 44.4975 39.0587C43.5535 37.543 42.2377 35.456 40.7478 33.1736C39.2521 30.9237 37.9009 28.887 36.889 27.3594C36.4169 26.643 36.0245 26.051 35.7207 25.5951C35.4404 25.1747 35.2988 24.9379 35.3135 24.926Z" fill="#E0E0E0"/>
</g>
</g>
</g>
<g id="Group_72">
<g id="Group_73">
<path id="Vector_19" d="M42.4043 36.9003C40.2506 35.0708 37.1824 34.384 34.4564 35.1241C33.7631 35.3136 32.9902 35.7132 32.8987 36.4296C32.8102 37.146 33.4651 37.7263 34.1024 38.0667C36.7487 39.4788 40.2447 39.0643 42.4928 37.075" fill="#F5F5F5"/>
</g>
</g>
<g id="Group_74">
<g id="Group_75">
<g id="Group_76">
<path id="Vector_20" d="M36.1485 36.3854C36.1455 36.3676 36.2871 36.3351 36.5468 36.2907C36.8034 36.2433 37.1811 36.1989 37.6472 36.1545C38.5765 36.0923 39.9041 36.045 41.2995 36.4713C41.9928 36.6844 42.6153 37.0071 43.1257 37.3771C43.6391 37.7442 44.0196 38.1705 44.3176 38.5405C44.6008 38.9195 44.8073 39.2421 44.9224 39.479C45.0434 39.7128 45.1024 39.8461 45.0847 39.8549C45.0404 39.8816 44.769 39.3635 44.176 38.656C43.8692 38.3126 43.4886 37.9159 42.9871 37.5725C42.4885 37.2291 41.8925 36.9272 41.2228 36.7199C39.8805 36.3084 38.5795 36.3232 37.659 36.338C36.7297 36.3736 36.1544 36.4269 36.1485 36.3854Z" fill="#E0E0E0"/>
</g>
</g>
</g>
</g>
</g>
<g id="Icons">
<g id="Group_77">
<g id="Group_78">
<g id="Group_79">
<path id="Vector_21" d="M116.48 44.5027L108.048 42.0012C107.269 41.7703 106.827 40.9502 107.057 40.1717L109.55 31.711C109.78 30.9295 110.597 30.4854 111.373 30.7163L119.805 33.2178C120.584 33.4487 121.026 34.2687 120.796 35.0473L118.303 43.508C118.076 44.2866 117.259 44.7336 116.48 44.5027Z" fill="#BBF046"/>
</g>
</g>
<g id="Group_80">
<g id="Group_81">
<g id="Group_82">
<g id="Group_83">
<path id="Vector_22" d="M116.494 41.0095C116.494 41.0066 116.5 40.974 116.515 40.9089C116.533 40.8378 116.556 40.7461 116.586 40.6336C116.654 40.3849 116.748 40.0386 116.866 39.6004C117.114 38.7094 117.462 37.4512 117.881 35.9385L117.922 36.0095C116.063 35.4796 113.812 34.8343 111.387 34.1445C111.367 34.1534 111.553 34.0527 111.473 34.0971V34.1001L111.47 34.106L111.467 34.1179L111.461 34.1386L111.449 34.18L111.426 34.2659L111.379 34.4346L111.281 34.7721C111.216 34.9971 111.154 35.2191 111.089 35.4382C110.963 35.8793 110.839 36.3115 110.718 36.7348C110.473 37.5815 110.243 38.3896 110.024 39.1445L109.98 39.0646C111.898 39.63 113.517 40.1066 114.671 40.4471C115.237 40.6158 115.686 40.752 116.01 40.8497C116.158 40.8941 116.276 40.9326 116.367 40.9592C116.447 40.9918 116.491 41.0066 116.494 41.0095C116.497 41.0125 116.456 41.0036 116.376 40.9829C116.288 40.9592 116.17 40.9296 116.025 40.8911C115.704 40.8023 115.255 40.6809 114.692 40.524C113.523 40.1954 111.886 39.7366 109.945 39.1919L109.883 39.1741L109.901 39.112C110.116 38.3571 110.343 37.5459 110.585 36.6993C110.706 36.2759 110.83 35.8437 110.954 35.4026C111.016 35.1806 111.081 34.9586 111.143 34.7366L111.24 34.3991L111.287 34.2304L111.311 34.1445L111.323 34.1031L111.328 34.0823L111.331 34.0705L111.334 34.0646V34.0616C111.258 34.106 111.441 34.0024 111.423 34.0113C113.845 34.7129 116.093 35.3642 117.949 35.9029L118.005 35.9207L117.987 35.977C117.539 37.4986 117.167 38.7597 116.904 39.6567C116.775 40.083 116.674 40.4234 116.6 40.6661C116.568 40.7727 116.541 40.8586 116.518 40.9267C116.506 40.9829 116.494 41.0125 116.494 41.0095Z" fill="#263238"/>
</g>
</g>
</g>
<g id="Group_84">
<g id="Group_85">
<g id="Group_86">
<path id="Vector_23" d="M113.873 33.7359C113.876 33.724 114.089 33.7714 114.454 33.8632C114.82 33.9579 115.339 34.097 115.956 34.2687L115.991 34.2776L116 34.3131C116.092 34.6625 116.192 35.0443 116.298 35.4469L116.331 35.5654L116.213 35.5328C116.012 35.4765 115.806 35.4173 115.593 35.3552C114.564 35.0591 113.631 34.7838 112.953 34.5736L112.867 34.547L112.932 34.4878C113.478 33.9845 113.847 33.6915 113.873 33.7359C113.873 33.7359 113.785 33.8069 113.634 33.949C113.463 34.1148 113.251 34.3191 113 34.5618L112.979 34.476C113.664 34.6595 114.602 34.923 115.632 35.219C115.844 35.2812 116.05 35.3404 116.251 35.3966L116.166 35.4825C116.065 35.0799 115.968 34.695 115.882 34.3457L115.927 34.3901C115.313 34.2066 114.8 34.0497 114.44 33.9372C114.074 33.8217 113.87 33.7507 113.873 33.7359Z" fill="#263238"/>
</g>
</g>
</g>
<g id="Group_87">
<g id="Group_88">
<g id="Group_89">
<path id="Vector_24" d="M115.159 38.3835C115.147 38.3747 115.23 38.2651 115.312 38.0342C115.392 37.8092 115.46 37.4392 115.324 37.0277C115.2 36.6192 114.831 36.181 114.28 36.036C113.743 35.8791 113.043 36.0745 112.669 36.6162C112.285 37.152 112.33 37.8773 112.657 38.3332C112.979 38.8069 113.513 39.0082 113.934 38.9904C114.368 38.9815 114.693 38.798 114.878 38.644C115.07 38.4931 115.147 38.3747 115.159 38.3835C115.162 38.3865 115.144 38.4161 115.109 38.4723C115.073 38.5286 115.011 38.6026 114.917 38.6885C114.737 38.8572 114.404 39.0674 113.94 39.0911C113.489 39.1236 112.905 38.9164 112.551 38.4072C112.374 38.1585 112.262 37.8418 112.259 37.5073C112.247 37.1728 112.353 36.8264 112.557 36.5333C112.763 36.2462 113.055 36.0301 113.374 35.9294C113.69 35.8228 114.026 35.8228 114.318 35.9087C114.917 36.0745 115.3 36.56 115.421 36.9951C115.551 37.4392 115.466 37.824 115.365 38.052C115.315 38.1674 115.265 38.2533 115.224 38.3066C115.185 38.3628 115.162 38.3865 115.159 38.3835Z" fill="#263238"/>
</g>
</g>
</g>
</g>
</g>
<g id="Group_90">
<g id="Group_91">
<g id="Group_92">
<path id="Vector_25" d="M40.9085 64.3432L28.5147 67.0046C27.4998 67.2236 26.4997 66.5723 26.2844 65.554L23.6321 53.1176C23.4138 52.0992 24.0628 51.0957 25.0777 50.8795L37.4715 48.2182C38.4864 47.9991 39.4865 48.6504 39.7019 49.6688L42.3541 62.1052C42.5695 63.1235 41.9234 64.1241 40.9085 64.3432Z" fill="#BBF046"/>
</g>
<g id="Group_93">
<g id="Group_94">
<g id="Group_95">
<g id="Group_96">
<path id="Vector_26" d="M30.7605 53.8394C30.7634 53.8335 30.8637 53.8779 31.0525 53.9638C31.2561 54.0615 31.5305 54.1917 31.8786 54.3605L31.9111 54.3782L31.8934 54.4137C31.619 54.92 31.2561 55.592 30.8224 56.3972L30.8018 56.3172C31.9051 57.0277 33.2711 57.9069 34.8259 58.9075L34.7078 58.9342C35.053 58.3421 35.4129 57.7204 35.7876 57.0781L35.823 57.0188L35.8879 57.0337C36.3924 57.1639 36.8881 57.3415 37.366 57.605C37.8321 57.8714 38.316 58.2119 38.5785 58.7477C38.6287 58.8868 38.7024 59.02 38.7113 59.171L38.7437 59.393L38.726 59.618C38.726 59.772 38.67 59.9081 38.6257 60.0532C38.5844 60.1983 38.5254 60.3315 38.4546 60.4617C38.1832 60.9857 37.7318 61.4416 37.1713 61.6844C36.6137 61.936 35.9853 61.9893 35.407 61.8679C35.1179 61.8087 34.8377 61.711 34.581 61.5778C34.3184 61.4416 34.0942 61.2817 33.8582 61.1337C32.923 60.5357 32.0232 59.9555 31.1646 59.4049C30.3061 58.8543 29.4919 58.3303 28.7278 57.8389C28.536 57.7175 28.3502 57.5961 28.1672 57.4777C27.9843 57.3622 27.7985 57.2409 27.6392 57.0899C27.3176 56.7939 27.1229 56.3765 27.114 55.9709C27.0934 55.1597 27.5123 54.4848 27.9961 54.0999C28.4859 53.7033 29.0316 53.5582 29.4653 53.5404C29.902 53.5227 30.2383 53.6085 30.4507 53.6914C30.5599 53.7269 30.6336 53.7743 30.6867 53.798C30.7369 53.8217 30.7605 53.8365 30.7605 53.8394C30.7546 53.8809 30.3268 53.5671 29.4653 53.6145C29.0464 53.6441 28.5213 53.798 28.061 54.1828C27.6067 54.5558 27.2202 55.2101 27.2468 55.962C27.2615 56.335 27.4356 56.7021 27.7365 56.9774C27.884 57.1165 28.061 57.229 28.2469 57.3445C28.4328 57.4629 28.6186 57.5813 28.8104 57.7027C29.5774 58.1882 30.3946 58.7092 31.2532 59.2539C32.1146 59.8016 33.0174 60.3759 33.9526 60.9709C34.1886 61.116 34.4217 61.2817 34.6606 61.4031C34.9026 61.5275 35.1681 61.6192 35.4395 61.6755C35.9823 61.788 36.5665 61.7376 37.0857 61.5038C37.6079 61.2758 38.0209 60.8614 38.2776 60.367C38.3425 60.2456 38.4015 60.1183 38.4369 59.9881C38.4753 59.8578 38.5284 59.7305 38.5284 59.5973L38.5461 59.399L38.5166 59.2036C38.5107 59.0704 38.4428 58.9549 38.4015 58.8306C38.1714 58.354 37.72 58.0254 37.2716 57.7708C36.8143 57.5162 36.3246 57.3356 35.8437 57.2113L35.941 57.1698C35.5634 57.8122 35.1976 58.4309 34.8524 59.02L34.8082 59.097L34.7344 59.0496C33.1914 58.0342 31.8343 57.1402 30.7369 56.4179L30.6897 56.3883L30.7162 56.3409C31.1676 55.5446 31.5423 54.8785 31.8284 54.3782L31.8432 54.4285C31.501 54.248 31.2325 54.1059 31.0348 53.9993C30.8519 53.8986 30.7575 53.8454 30.7605 53.8394Z" fill="#263238"/>
</g>
</g>
</g>
</g>
</g>
<g id="Group_97">
<g id="Group_98">
<g id="Group_99">
<path id="Vector_27" d="M34.9666 55.9593C34.9253 55.9682 34.7778 55.379 34.6362 54.6449C34.4946 53.9107 34.4149 53.3098 34.4562 53.3009C34.4975 53.292 34.645 53.8811 34.7866 54.6153C34.9282 55.3494 35.0079 55.9504 34.9666 55.9593Z" fill="#263238"/>
</g>
</g>
<g id="Group_100">
<g id="Group_101">
<path id="Vector_28" d="M36.064 54.3427C36.0729 54.3842 35.4769 54.547 34.7305 54.7039C33.9871 54.8608 33.3705 54.9585 33.3557 54.917C33.341 54.8786 33.9369 54.7157 34.6892 54.5559C35.4415 54.396 36.0552 54.3013 36.064 54.3427Z" fill="#263238"/>
</g>
</g>
</g>
</g>
</g>
<g id="Character_2">
<g id="Group_102">
<g id="Group_103">
<g id="Group_104">
<path id="Vector_29" d="M100.939 26.7646H82.2734V54.2278H100.939V26.7646Z" fill="#F5F5F5"/>
</g>
<g id="Group_105">
<g id="Group_106">
<path id="Vector_30" d="M100.938 54.2276C100.938 54.2276 100.935 54.1803 100.935 54.0944C100.935 54.0026 100.932 53.8724 100.932 53.7066C100.929 53.3602 100.926 52.857 100.923 52.2027C100.92 50.8884 100.911 48.973 100.906 46.5514C100.897 41.7113 100.885 34.8551 100.87 26.7704L100.941 26.8415C95.2647 26.8444 88.9365 26.8444 82.2779 26.8474H82.275L82.3517 26.7704C82.3458 37.0991 82.3399 46.6373 82.3369 54.2335L82.275 54.1714C87.9482 54.1862 92.6066 54.1951 95.8518 54.2039C97.4744 54.2099 98.743 54.2158 99.6104 54.2187C100.041 54.2217 100.372 54.2247 100.599 54.2247C100.82 54.2217 100.938 54.2276 100.938 54.2276C100.938 54.2276 100.829 54.2306 100.608 54.2335C100.383 54.2365 100.056 54.2365 99.631 54.2395C98.7666 54.2424 97.5039 54.2483 95.8872 54.2543C92.6331 54.2631 87.963 54.272 82.272 54.2868H82.2101V54.2247C82.2071 46.6284 82.2012 37.0931 82.1953 26.7615V26.6846H82.272H82.275C88.9336 26.6875 95.2618 26.6905 100.938 26.6905H101.009V26.7615C100.994 34.867 100.982 41.7379 100.973 46.5899C100.965 49.0026 100.959 50.915 100.956 52.2264C100.953 52.8747 100.95 53.375 100.947 53.7184C100.944 53.8842 100.944 54.0086 100.944 54.1003C100.941 54.1862 100.938 54.2276 100.938 54.2276Z" fill="#263238"/>
</g>
</g>
</g>
<g id="Group_107">
<g id="Group_108">
<path id="Vector_31" d="M84.0347 53.1802C83.1497 52.7657 82.5478 51.8095 82.5508 50.8297C82.5537 49.8498 83.1674 48.8995 84.0554 48.494C84.2177 48.42 84.3976 48.3548 84.5068 48.2127C84.672 47.9937 84.6071 47.6858 84.6159 47.4105C84.6366 46.697 85.2886 46.0576 86.0025 46.0606L90.2066 47.7184V52.1618L84.0347 53.1802Z" fill="#263238"/>
</g>
<g id="Group_109">
<path id="Vector_32" d="M82.5 54.1537C82.5 54.1537 85.6095 51.6877 89.4536 51.1075C93.2948 50.5273 97.5726 51.1075 97.5726 51.1075C97.5726 51.1075 99.0241 51.3088 100.921 52.2709L100.942 54.2188L96.8085 54.204L82.5 54.1537Z" fill="#BCE1C8"/>
</g>
<g id="Group_110">
<g id="Group_111">
<g id="Group_112">
<g id="Group_113">
<g id="Group_114">
<g id="Group_115">
<g id="Group_116">
<path id="Vector_33" d="M99.1768 33.6475C98.7755 32.5315 96.8726 31.5753 95.8312 31.0158C94.2706 30.1839 92.8545 30.4089 92.0078 31.223C90.3822 29.9441 88.258 28.7363 86.2784 29.3254C84.2989 29.9145 82.7471 32.0223 83.1778 34.0501C83.4315 35.2431 84.2959 36.2941 84.29 37.5167C84.2841 38.3485 83.8711 39.1153 83.5466 39.879C83.222 40.6458 82.9831 41.5339 83.3194 42.2947C83.6321 43.0022 84.3726 43.4255 84.7827 44.0798C85.119 44.6126 85.2134 45.2609 85.4376 45.85C86.2637 48.0377 88.9071 49.1893 91.1905 48.7245C93.474 48.2598 95.3297 46.4599 96.3446 44.3551C97.3594 42.2503 97.6397 39.8642 97.6899 37.5256" fill="#263238"/>
</g>
</g>
</g>
</g>
</g>
</g>
</g>
<g id="Group_117">
<g id="Group_118">
<path id="Vector_34" d="M97.5952 51.7712L97.5155 35.3028L90.615 33.1921C88.4909 32.899 86.5526 34.4355 86.3461 36.5758C86.1012 39.1276 85.8917 42.3366 86.1366 44.2845C86.6175 48.0827 89.488 48.654 89.488 48.654C89.488 48.654 89.4644 50.0631 89.432 51.712C89.4143 52.6416 89.7093 53.506 90.2197 54.2046H96.8075C97.3031 53.5238 97.5981 52.683 97.5952 51.7712Z" fill="#FFBE9D"/>
</g>
</g>
<g id="Group_119">
<g id="Group_120">
<g id="Group_121">
<g id="Group_122">
<g id="Group_123">
<g id="Group_124">
<g id="Group_125">
<g id="Group_126">
<g id="Group_127">
<g id="Group_128">
<g id="Group_129">
<g id="Group_130">
<g id="Group_131">
<g id="Group_132">
<g id="Group_133">
<g id="Group_134">
<g id="Group_135">
<path id="Vector_35" d="M89.4825 48.6533C89.4825 48.6533 92.0138 48.8664 94.5717 47.4307C94.5717 47.4307 93.2234 50.1305 89.4648 49.6598L89.4825 48.6533Z" fill="#EB996E"/>
</g>
</g>
</g>
</g>
</g>
</g>
</g>
</g>
</g>
</g>
</g>
<g id="Group_136">
<g id="Group_137">
<g id="Group_138">
<g id="Group_139">
<g id="Group_140">
<g id="Group_141">
<g id="Group_142">
<g id="Group_143">
<g id="Group_144">
<g id="Group_145">
<g id="Group_146">
<path id="Vector_36" d="M91.8221 36.9802C91.8693 37.1223 92.3885 37.072 92.9963 37.1667C93.607 37.2466 94.0908 37.442 94.1763 37.3177C94.2147 37.2585 94.1321 37.1223 93.9374 36.9773C93.7456 36.8352 93.4329 36.6931 93.07 36.6427C92.7042 36.5924 92.3679 36.6398 92.1437 36.7227C91.9194 36.8056 91.8044 36.9151 91.8221 36.9802Z" fill="#263238"/>
</g>
</g>
</g>
</g>
</g>
</g>
</g>
</g>
</g>
</g>
</g>
<g id="Group_147">
<g id="Group_148">
<g id="Group_149">
<g id="Group_150">
<g id="Group_151">
<g id="Group_152">
<g id="Group_153">
<g id="Group_154">
<g id="Group_155">
<g id="Group_156">
<g id="Group_157">
<path id="Vector_37" d="M87.0234 37.27C87.1119 37.3913 87.4718 37.2788 87.9025 37.2877C88.3333 37.2788 88.6961 37.3913 88.7817 37.27C88.8201 37.2107 88.767 37.0894 88.6106 36.9739C88.4572 36.8585 88.1976 36.7578 87.9025 36.7578C87.6075 36.7578 87.3479 36.8585 87.1945 36.9739C87.0411 37.0894 86.985 37.2107 87.0234 37.27Z" fill="#263238"/>
</g>
</g>
</g>
</g>
</g>
</g>
</g>
</g>
</g>
</g>
</g>
</g>
</g>
<g id="Group_158">
<g id="Group_159">
<g id="Group_160">
<g id="Group_161">
<g id="Group_162">
<g id="Group_163">
<g id="Group_164">
<path id="Vector_38" d="M91.6837 41.2399C91.6866 41.3168 91.7486 41.376 91.8253 41.3731C91.902 41.3701 91.961 41.3079 91.9581 41.231C91.9551 41.154 91.8932 41.0948 91.8165 41.0978C91.7427 41.1007 91.6807 41.1629 91.6837 41.2399Z" fill="#EB996E"/>
</g>
</g>
</g>
</g>
</g>
</g>
</g>
<g id="Group_165">
<g id="Group_166">
<g id="Group_167">
<g id="Group_168">
<g id="Group_169">
<g id="Group_170">
<g id="Group_171">
<path id="Vector_39" d="M87.7696 40.6959C87.7726 40.7729 87.8345 40.8321 87.9113 40.8291C87.988 40.8262 88.047 40.764 88.044 40.687C88.0411 40.6101 87.9791 40.5509 87.9024 40.5538C87.8257 40.5538 87.7667 40.6189 87.7696 40.6959Z" fill="#EB996E"/>
</g>
</g>
</g>
</g>
</g>
</g>
</g>
<g id="Group_172">
<g id="Group_173">
<g id="Group_174">
<g id="Group_175">
<g id="Group_176">
<g id="Group_177">
<g id="Group_178">
<path id="Vector_40" d="M87.0196 41.0807C87.0226 41.1577 87.0845 41.2169 87.1612 41.2139C87.238 41.2109 87.297 41.1488 87.294 41.0718C87.2911 40.9948 87.2291 40.9356 87.1524 40.9386C87.0786 40.9386 87.0167 41.0037 87.0196 41.0807Z" fill="#EB996E"/>
</g>
</g>
</g>
</g>
</g>
</g>
</g>
<g id="Group_179">
<g id="Group_180">
<g id="Group_181">
<g id="Group_182">
<g id="Group_183">
<g id="Group_184">
<g id="Group_185">
<path id="Vector_41" d="M86.7696 40.5094C86.7726 40.5864 86.8345 40.6456 86.9112 40.6426C86.9879 40.6396 87.0469 40.5775 87.044 40.5005C87.041 40.4235 86.9791 40.3643 86.9024 40.3673C86.8286 40.3703 86.7667 40.4324 86.7696 40.5094Z" fill="#EB996E"/>
</g>
</g>
</g>
</g>
</g>
</g>
</g>
<g id="Group_186">
<g id="Group_187">
<g id="Group_188">
<g id="Group_189">
<g id="Group_190">
<g id="Group_191">
<g id="Group_192">
<path id="Vector_42" d="M92.336 41.8297C92.339 41.9067 92.4009 41.9659 92.4776 41.9629C92.5544 41.96 92.6134 41.8978 92.6104 41.8208C92.6075 41.7439 92.5455 41.6846 92.4688 41.6876C92.3921 41.6906 92.3331 41.7527 92.336 41.8297Z" fill="#EB996E"/>
</g>
</g>
</g>
</g>
</g>
</g>
</g>
<g id="Group_193">
<g id="Group_194">
<g id="Group_195">
<g id="Group_196">
<g id="Group_197">
<g id="Group_198">
<g id="Group_199">
<path id="Vector_43" d="M92.8321 41.2584C92.8351 41.3354 92.897 41.3946 92.9737 41.3916C93.0505 41.3887 93.1094 41.3265 93.1065 41.2495C93.1035 41.1726 93.0416 41.1134 92.9649 41.1163C92.8911 41.1163 92.8292 41.1814 92.8321 41.2584Z" fill="#EB996E"/>
</g>
</g>
</g>
</g>
</g>
</g>
</g>
<g id="Group_200">
<g id="Group_201">
<g id="Group_202">
<g id="Group_203">
<g id="Group_204">
<g id="Group_205">
<g id="Group_206">
<path id="Vector_44" d="M90.5625 32.6142C92.5922 31.1784 95.3861 30.9949 97.522 32.2589C99.6609 33.523 100.826 35.3466 100.938 38.3543V42.1879C100.826 43.9345 101.198 44.947 100.342 45.24C99.1742 45.6427 98.2714 48.828 97.2683 48.606C96.0263 47.6379 96.0086 47.0725 95.9643 45.092C95.9171 42.9635 95.2799 40.4324 96.1118 39.0618C93.3681 38.2418 91.1791 35.6071 90.7602 32.6142" fill="#263238"/>
</g>
</g>
</g>
</g>
</g>
</g>
</g>
<g id="Group_207">
<g id="Group_208">
<g id="Group_209">
<g id="Group_210">
<g id="Group_211">
<g id="Group_212">
<g id="Group_213">
<g id="Group_214">
<path id="Vector_45" d="M86.707 29.2066C86.707 29.2273 87.0316 29.2273 87.536 29.3428C87.6629 29.3724 87.7986 29.4079 87.9432 29.4582C88.0907 29.4997 88.2382 29.5678 88.3975 29.6329C88.7073 29.775 89.0377 29.9585 89.3563 30.1924C89.672 30.4322 89.9434 30.6927 90.1706 30.9502C90.2768 31.0834 90.3859 31.2078 90.4685 31.3351C90.56 31.4565 90.6308 31.5808 90.6987 31.6933C90.9583 32.1433 91.0527 32.457 91.0704 32.4511C91.0763 32.4482 91.0527 32.3712 91.0055 32.2321C90.9819 32.161 90.9524 32.0781 90.9081 31.9834C90.8639 31.8887 90.8196 31.7762 90.7518 31.6637C90.6898 31.5482 90.619 31.4209 90.5276 31.2966C90.4449 31.1634 90.3387 31.0361 90.2325 30.8999C90.0054 30.6364 89.731 30.367 89.4094 30.1243C89.0849 29.8875 88.7486 29.701 88.43 29.5589C88.2677 29.4937 88.1172 29.4316 87.9668 29.3901C87.8193 29.3398 87.6806 29.3102 87.5508 29.2836C87.4239 29.251 87.303 29.2421 87.2027 29.2273C87.0994 29.2125 87.0109 29.2066 86.9371 29.2066C86.7867 29.2007 86.707 29.2007 86.707 29.2066Z" fill="#455A64"/>
</g>
</g>
</g>
</g>
</g>
</g>
</g>
</g>
<g id="Group_215">
<g id="Group_216">
<g id="Group_217">
<g id="Group_218">
<g id="Group_219">
<g id="Group_220">
<g id="Group_221">
<g id="Group_222">
<path id="Vector_46" d="M84.5161 43.6502C84.5161 43.6502 84.5072 43.6384 84.4895 43.6176C84.4689 43.594 84.4394 43.5644 84.4069 43.5288C84.3361 43.4489 84.2269 43.3364 84.103 43.1765C83.9821 43.0167 83.8346 42.8124 83.749 42.5401C83.7077 42.4039 83.6841 42.2529 83.6989 42.0931C83.7136 41.9332 83.7667 41.7704 83.8523 41.6135C84.0204 41.2967 84.3066 41.0155 84.5633 40.6721C84.8199 40.3257 85.053 39.9261 85.233 39.4761C85.4129 39.0261 85.5427 38.5318 85.5958 38.0048C85.6489 37.4779 85.6076 36.9332 85.5811 36.3826C85.5545 35.8319 85.5516 35.2872 85.6755 34.784C85.7964 34.2807 86.0443 33.8337 86.3511 33.4725C86.6579 33.1114 87.0237 32.8331 87.4043 32.6496C87.7819 32.4631 88.1714 32.3742 88.5283 32.3506C89.2482 32.3002 89.8235 32.4897 90.1834 32.6584C90.3663 32.7443 90.4991 32.8272 90.5876 32.8864C90.6289 32.913 90.6613 32.9367 90.6879 32.9545C90.7115 32.9693 90.7233 32.9752 90.7233 32.9752C90.7233 32.9752 90.5581 32.8153 90.1952 32.6318C89.8353 32.4512 89.2541 32.2499 88.5195 32.2943C88.1566 32.318 87.7554 32.4039 87.366 32.5904C86.9765 32.7739 86.5989 33.0551 86.2832 33.4252C85.9676 33.7923 85.7138 34.2511 85.587 34.7662C85.4601 35.2813 85.4631 35.8349 85.4896 36.3885C85.5162 36.9421 85.5575 37.4838 85.5044 37.9989C85.4542 38.514 85.3274 39.0054 85.1533 39.4465C84.9792 39.8906 84.7521 40.2843 84.5013 40.6277C84.2505 40.9681 83.9644 41.2553 83.7933 41.5839C83.7047 41.7467 83.6516 41.9184 83.6369 42.0871C83.6221 42.2559 83.6487 42.4128 83.6959 42.5519C83.7903 42.8331 83.9437 43.0374 84.0706 43.1943C84.2004 43.3512 84.3125 43.4637 84.3892 43.5377C84.4246 43.5703 84.4541 43.5999 84.4777 43.6206C84.5043 43.6443 84.5161 43.6532 84.5161 43.6502Z" fill="#455A64"/>
</g>
</g>
</g>
</g>
</g>
</g>
</g>
</g>
</g>
</g>
</g>
<g id="Group_223">
<g id="Group_224">
<g id="Group_225">
<g id="Group_226">
<g id="Group_227">
<g id="Group_228">
<g id="Group_229">
<g id="Group_230">
<g id="Group_231">
<g id="Group_232">
<path id="Vector_47" d="M87.031 39.5893C87.09 39.6544 87.4588 39.3909 87.978 39.4028C88.4943 39.4057 88.869 39.681 88.928 39.6189C88.9575 39.5922 88.8985 39.4768 88.7332 39.3524C88.5739 39.2281 88.2966 39.1067 87.975 39.1008C87.6535 39.0949 87.3791 39.2103 87.2198 39.3287C87.0575 39.4472 87.0015 39.5597 87.031 39.5893Z" fill="#263238"/>
</g>
</g>
</g>
</g>
</g>
</g>
</g>
</g>
</g>
</g>
<g id="Group_233">
<g id="Group_234">
<g id="Group_235">
<g id="Group_236">
<g id="Group_237">
<g id="Group_238">
<g id="Group_239">
<g id="Group_240">
<g id="Group_241">
<g id="Group_242">
<path id="Vector_48" d="M92.32 39.6742C92.379 39.7394 92.7478 39.4759 93.267 39.4877C93.7833 39.4907 94.158 39.766 94.217 39.7038C94.2436 39.6772 94.1875 39.5617 94.0223 39.4374C93.863 39.3131 93.5857 39.1917 93.2641 39.1858C92.9425 39.1798 92.6681 39.2953 92.5088 39.4137C92.3466 39.5321 92.2905 39.6446 92.32 39.6742Z" fill="#263238"/>
</g>
</g>
</g>
</g>
</g>
</g>
</g>
</g>
</g>
</g>
<g id="Group_243">
<g id="Group_244">
<g id="Group_245">
<g id="Group_246">
<g id="Group_247">
<g id="Group_248">
<g id="Group_249">
<g id="Group_250">
<g id="Group_251">
<path id="Vector_49" d="M90.3642 42.8088C90.3671 42.7792 90.0455 42.7171 89.5263 42.6401C89.3935 42.6223 89.2696 42.5957 89.249 42.5039C89.2195 42.4062 89.2785 42.2641 89.3463 42.1131C89.4761 41.7934 89.6148 41.4619 89.7564 41.1096C90.3288 39.6827 90.7447 38.5074 90.6857 38.4838C90.6267 38.4601 90.1193 39.5998 89.5469 41.0297C89.4083 41.3819 89.2785 41.7165 89.1516 42.0391C89.0985 42.1901 89.01 42.3589 89.072 42.5572C89.1044 42.6578 89.2018 42.7319 89.2844 42.7555C89.3699 42.7822 89.4437 42.7851 89.5086 42.7911C90.0367 42.8295 90.3612 42.8384 90.3642 42.8088Z" fill="#263238"/>
</g>
</g>
</g>
</g>
</g>
</g>
</g>
</g>
</g>
<g id="Group_252">
<g id="Group_253">
<g id="Group_254">
<g id="Group_255">
<g id="Group_256">
<g id="Group_257">
<g id="Group_258">
<g id="Group_259">
<path id="Vector_50" d="M90.5563 44.0677C90.748 43.8249 91.0755 43.6947 91.4 43.7361C91.6242 43.7657 91.8485 43.8782 91.9812 44.0647C92.114 44.2512 92.1376 44.5117 92.0107 44.6864C91.8662 44.8818 91.5741 44.9203 91.3292 44.8463C91.0844 44.7722 90.8749 44.6035 90.6743 44.4377C90.6182 44.3904 90.5622 44.343 90.5297 44.2808C90.4973 44.2187 90.4914 44.1387 90.5356 44.0884" fill="#E8505B"/>
</g>
</g>
</g>
</g>
</g>
</g>
</g>
</g>
<g id="Group_260">
<g id="Group_261">
<g id="Group_262">
<g id="Group_263">
<g id="Group_264">
<g id="Group_265">
<g id="Group_266">
<g id="Group_267">
<g id="Group_268">
<path id="Vector_51" d="M91.8792 43.2002C91.7937 43.1943 91.7819 43.7568 91.2951 44.1476C90.8083 44.5383 90.2094 44.4643 90.2035 44.5442C90.1947 44.5798 90.3363 44.6567 90.587 44.6686C90.8349 44.6834 91.1977 44.6094 91.4987 44.3696C91.7966 44.1298 91.9294 43.8042 91.953 43.5732C91.9795 43.3394 91.9176 43.1973 91.8792 43.2002Z" fill="#263238"/>
</g>
</g>
</g>
</g>
</g>
</g>
</g>
</g>
</g>
</g>
<g id="Group_269">
<g id="Group_270">
<path id="Vector_52" d="M100.75 37.3012C100.753 37.3101 100.599 37.3486 100.319 37.393C100.039 37.4374 99.6258 37.4759 99.1183 37.4759C98.1035 37.4789 96.6726 37.2628 95.2683 36.57C93.864 35.8773 92.8196 34.8708 92.203 34.0597C91.8903 33.6541 91.672 33.3048 91.5363 33.0532C91.4006 32.8045 91.3357 32.6594 91.3445 32.6535C91.3563 32.6476 91.436 32.7838 91.5865 33.0206C91.7369 33.2604 91.97 33.5979 92.2886 33.9886C92.92 34.7702 93.9555 35.7471 95.3362 36.4279C96.7169 37.1088 98.1182 37.3397 99.1213 37.3634C99.6258 37.3782 100.033 37.3545 100.313 37.3309C100.593 37.3072 100.747 37.2894 100.75 37.3012Z" fill="#455A64"/>
</g>
</g>
<g id="Group_271">
<g id="Group_272">
<path id="Vector_53" d="M99.718 45.7171C99.7062 45.7082 99.8862 45.5188 100.14 45.131C100.385 44.7432 100.709 44.1393 100.845 43.3222C100.984 42.514 100.854 41.4898 100.308 40.5454C100.037 40.0777 99.6708 39.6307 99.2106 39.2606C98.7503 38.8935 98.1927 38.6241 97.5998 38.414C97.0068 38.2008 96.4079 38.035 95.8444 37.8248C95.2779 37.6147 94.7558 37.3453 94.2955 37.0374C93.3692 36.4187 92.6906 35.6579 92.2215 34.9681C91.7495 34.2724 91.4928 33.636 91.3453 33.1949C91.2686 32.9728 91.2244 32.7982 91.2008 32.6768C91.1742 32.5584 91.1595 32.4933 91.1654 32.4933C91.1831 32.4873 91.2362 32.7419 91.4014 33.1771C91.5666 33.6093 91.8351 34.231 92.31 34.9089C92.785 35.5839 93.4606 36.324 94.3722 36.9219C94.8266 37.2209 95.3399 37.4814 95.8945 37.6857C96.4521 37.8929 97.0481 38.0558 97.6499 38.2719C98.2488 38.485 98.8241 38.7603 99.302 39.1452C99.777 39.527 100.152 39.9918 100.429 40.4773C100.984 41.4542 101.105 42.517 100.948 43.3429C100.798 44.1777 100.45 44.7846 100.187 45.1665C100.051 45.356 99.9334 45.4981 99.8508 45.5869C99.7682 45.6757 99.721 45.7201 99.718 45.7171Z" fill="#455A64"/>
</g>
</g>
<g id="Group_273">
<g id="Group_274">
<path id="Vector_54" d="M89.4857 48.6533C89.4886 48.6621 89.4178 48.6888 89.2851 48.7154C89.1523 48.7421 88.9576 48.7628 88.7157 48.7539C88.2348 48.7421 87.5651 48.5704 86.9396 48.1766C86.3053 47.78 85.9012 47.2086 85.7035 46.7734C85.6032 46.5544 85.5442 46.3679 85.5147 46.2347C85.4852 46.1044 85.4793 46.0304 85.4881 46.0274C85.5147 46.0215 85.5796 46.3116 85.8009 46.7231C86.0192 47.1346 86.4175 47.6675 87.0222 48.0434C87.6241 48.4224 88.2613 48.6029 88.7245 48.6414C89.1907 48.6917 89.4827 48.6266 89.4857 48.6533Z" fill="#455A64"/>
</g>
</g>
</g>
</g>
</g>
<g id="Character_1">
<g id="Group_275">
<g id="Group_276">
<g id="Group_277">
<g id="Group_278">
<g id="Group_279">
<g id="Group_280">
<path id="Vector_55" d="M93.1497 64.4484C92.3679 63.2761 91.8634 58.433 90.8515 58.7053C89.5593 59.0517 91.3737 64.1908 91.5006 64.6615C91.6245 65.1174 90.9489 65.3128 90.8574 64.8836C90.7247 64.2649 89.282 58.2257 88.0193 58.6905C87.3201 58.9481 87.7715 60.2269 87.7715 60.2269C87.7715 60.2269 89.819 66.1003 89.2142 66.2986C88.6035 66.4999 87.4352 63.0659 87.0458 61.8522C86.674 60.6888 86.0515 60.3572 85.6208 60.9019C85.1606 61.4821 86.2728 64.9605 86.6268 66.1328C86.9808 67.3051 88.0105 70.5053 86.2167 69.3063C84.423 68.1103 82.6027 67.8498 82.0688 68.1163C81.5348 68.3857 81.7324 69.2264 82.3903 69.3359C82.9214 69.4247 83.7681 69.8451 84.3906 70.1855C84.9039 70.4668 85.3258 70.8723 85.7624 71.2601C86.0751 71.5384 86.6298 72.1127 87.1284 73.0156C87.7066 74.0606 88.7126 74.8037 89.878 75.0612L90.4178 77.2726L96.5543 74.9813L95.5335 70.7983C94.7251 67.61 94.6897 65.3247 94.5039 63.3442C94.2089 60.1885 93.7958 60.2033 93.4418 60.3217C92.66 60.5851 93.9109 65.594 93.1497 64.4484Z" fill="#FFBE9D"/>
</g>
</g>
</g>
<g id="Group_281">
<g id="Group_282">
<path id="Vector_56" d="M94.2691 68.5219C94.2809 68.5485 93.9269 68.6432 93.4637 68.9778C93.0035 69.3034 92.4489 69.9103 92.1922 70.7392C92.1214 70.9612 92.086 71.1862 92.0624 71.3993L92.0506 71.5059L91.9562 71.4615C91.316 71.1684 90.6994 71.05 90.2628 71.0056C89.8232 70.9612 89.5547 70.9789 89.5547 70.9553C89.5518 70.9405 89.8202 70.8901 90.2687 70.9079C90.7171 70.9257 91.3514 71.0263 92.0152 71.3223L91.909 71.3845C91.9296 71.1595 91.968 70.9227 92.0417 70.6888C92.1745 70.2566 92.3928 69.8777 92.6347 69.5728C92.8796 69.2708 93.151 69.0429 93.3959 68.8801C93.6408 68.7143 93.862 68.6314 94.0154 68.5722C94.1777 68.5307 94.2662 68.51 94.2691 68.5219Z" fill="#EB996E"/>
</g>
</g>
<g id="Group_283">
<g id="Group_284">
<path id="Vector_57" d="M94.6157 73.1959C94.6393 73.2255 94.0552 73.6962 93.2055 74.0455C92.3588 74.4008 91.6154 74.4866 91.6095 74.4481C91.6006 74.4037 92.3175 74.2527 93.1465 73.9034C93.9785 73.563 94.5892 73.1574 94.6157 73.1959Z" fill="#EB996E"/>
</g>
</g>
</g>
<g id="Group_285">
<g id="Group_286">
<path id="Vector_58" d="M96.4046 104.076C95.0534 103.946 93.7759 103.404 92.7375 102.525L82.8395 94.1266L82.928 103.807L84.887 103.949L84.3353 111.143H53.6944L53.6826 110.971C51.7975 109.361 50.638 106.93 50.2279 104.284C49.4815 99.4937 49.2042 91.6873 48.5404 86.1692C48.0713 82.2852 48.924 77.2556 52.3668 75.4231L55.0309 74.3692L63.4036 71.0596L74.16 71.5569L81.3438 73.5788C83.3352 74.3396 85.0522 76.7316 86.2765 78.496L92.2625 86.853C92.1946 85.4883 89.7194 77.2526 89.5571 76.8826L96.8825 73.8541C96.8825 73.8541 104.432 90.6896 103.414 97.9602C102.568 104.011 96.4046 104.076 96.4046 104.076Z" fill="#BCE1C8"/>
</g>
<g id="Group_287">
<g id="Group_288">
<g id="Group_289">
<g id="Group_290">
<g id="Group_291">
<g id="Group_292">
<g id="Group_293">
<g id="Group_294">
<g id="Group_295">
<g id="Group_296">
<path id="Vector_59" d="M82.125 90.576C82.128 90.5316 82.7947 90.6204 83.8421 90.4694C84.8805 90.3244 86.3143 89.8744 87.5062 88.9034C88.6952 87.9294 89.3176 86.695 89.5625 85.7891C89.8192 84.8744 89.7749 84.2764 89.8221 84.2764C89.8369 84.2764 89.8605 84.4244 89.8664 84.6908C89.8723 84.9602 89.8428 85.351 89.7336 85.8217C89.5271 86.7601 88.9105 88.0508 87.6744 89.0632C86.4382 90.0727 84.9395 90.5168 83.8686 90.6233C83.3287 90.6826 82.8891 90.6766 82.5882 90.65C82.2844 90.6204 82.1221 90.5878 82.125 90.576Z" fill="#5C5C5C"/>
</g>
</g>
</g>
</g>
<g id="Group_297">
<g id="Group_298">
<g id="Group_299">
<g id="Group_300">
<g id="Group_301">
<path id="Vector_60" d="M82.9155 103.948C82.9863 103.948 83.0718 99.8748 83.1043 94.8482C83.1367 89.8215 83.1043 85.7451 83.0335 85.7451C82.9627 85.7451 82.8771 89.8185 82.8447 94.8452C82.8122 99.8689 82.8446 103.945 82.9155 103.948Z" fill="#455A64"/>
</g>
</g>
</g>
</g>
</g>
</g>
<g id="Group_302">
<g id="Group_303">
<g id="Group_304">
<g id="Group_305">
<path id="Vector_61" d="M57.1446 106.948C57.121 106.942 57.1977 106.545 57.478 105.965C57.7553 105.385 58.2716 104.636 59.021 103.99C59.7733 103.348 60.5934 102.954 61.2071 102.771C61.8237 102.581 62.2249 102.567 62.2278 102.593C62.2367 102.635 61.8502 102.712 61.2661 102.937C60.6819 103.159 59.909 103.561 59.1832 104.18C58.4604 104.802 57.9441 105.506 57.6344 106.051C57.3187 106.59 57.183 106.96 57.1446 106.948Z" fill="#455A64"/>
</g>
</g>
</g>
</g>
<g id="Group_306">
<g id="Group_307">
<g id="Group_308">
<g id="Group_309">
<path id="Vector_62" d="M60.7578 93.4959C60.7608 93.4929 60.7991 93.5107 60.8758 93.5492C60.9614 93.5936 61.0705 93.6528 61.2062 93.7209C61.5013 93.86 61.932 94.0791 62.5191 94.2804C63.6756 94.683 65.487 95.0915 67.6731 94.7215C69.8297 94.3662 72.3403 93.0903 74.078 90.728C74.9395 89.5616 75.6033 88.1229 75.7567 86.548C75.8334 85.7664 75.7685 84.9494 75.5118 84.1827C75.261 83.4159 74.7979 82.7054 74.1872 82.1518C73.5794 81.5953 72.8242 81.2016 72.0306 81.1009C71.2487 80.9766 70.4109 81.1838 69.8681 81.7108C69.6055 81.9742 69.4432 82.3295 69.4462 82.6936C69.4462 83.0577 69.5848 83.4159 69.8002 83.706C70.2368 84.304 70.9685 84.5823 71.6706 84.6859C73.1044 84.8842 74.5117 84.6237 75.6888 84.1086C76.8718 83.5906 77.8395 82.8209 78.5358 81.9713C79.235 81.1187 79.6627 80.1951 79.9224 79.3602C80.182 78.5195 80.2587 77.7587 80.2734 77.14C80.2823 76.5213 80.2174 76.0417 80.1702 75.7161C80.1436 75.568 80.12 75.4467 80.1023 75.349C80.0876 75.2661 80.0817 75.2217 80.0876 75.2217C80.0876 75.2217 80.3472 75.8789 80.3708 77.137C80.3737 77.7617 80.3088 78.5373 80.0581 79.3958C79.8103 80.2513 79.3825 81.1986 78.6774 82.0778C77.9723 82.9541 76.9869 83.7534 75.7773 84.2922C74.5707 84.828 73.131 85.1063 71.6441 84.9079C70.9124 84.8014 70.1129 84.5142 69.6202 83.8452C69.3783 83.5225 69.2161 83.1169 69.2161 82.6906C69.2102 82.2614 69.4049 81.841 69.7058 81.5391C70.3224 80.9411 71.234 80.7279 72.0719 80.8582C72.9215 80.9677 73.724 81.3851 74.3612 81.9713C75.0044 82.5574 75.4882 83.3005 75.7537 84.1086C76.0222 84.9139 76.0871 85.7635 76.0074 86.5746C75.8481 88.2058 75.1578 89.677 74.2727 90.8671C72.4849 93.2768 69.9153 94.5587 67.7144 94.8961C65.487 95.2514 63.6579 94.8073 62.5014 94.3722C61.3154 93.9222 60.7578 93.4959 60.7578 93.4959Z" fill="#5C5C5C"/>
</g>
</g>
</g>
</g>
<g id="Group_310">
<g id="Group_311">
<g id="Group_312">
<g id="Group_313">
<path id="Vector_63" d="M48.7158 88.7765C48.704 88.7676 48.8072 88.6285 49.0167 88.3976C49.2291 88.1697 49.5566 87.8588 50.0109 87.5302C50.9019 86.8582 52.3799 86.2454 54.0792 86.0826C54.9289 85.9908 55.752 86.0323 56.4748 86.1833C57.2005 86.3342 57.826 86.58 58.3216 86.8345C58.8173 87.0891 59.1949 87.3378 59.4457 87.5213C59.6964 87.7049 59.8233 87.8203 59.8144 87.8322C59.7879 87.8707 59.2391 87.4533 58.2479 86.9914C57.2684 86.5207 55.7667 86.127 54.1058 86.3283C52.4419 86.4882 51.011 87.0536 50.1112 87.6723C49.1996 88.2851 48.7512 88.8121 48.7158 88.7765Z" fill="#5C5C5C"/>
</g>
</g>
</g>
</g>
<g id="Group_314">
<g id="Group_315">
<g id="Group_316">
<g id="Group_317">
<path id="Vector_64" d="M51.6572 76.1301C51.6955 76.0887 52.1292 76.6926 53.1441 77.2166C53.6456 77.4771 54.2947 77.6961 55.0381 77.7731C55.7786 77.853 56.6135 77.7672 57.4101 77.4445C58.2007 77.11 58.8527 76.5742 59.3189 75.9939C59.7909 75.4137 60.0948 74.798 60.2659 74.2562C60.617 73.1668 60.499 72.4297 60.555 72.4327C60.5668 72.4297 60.6052 72.6073 60.617 72.9359C60.6288 73.2615 60.5904 73.7411 60.434 74.3066C60.2777 74.872 59.9797 75.5203 59.4959 76.136C59.0179 76.7488 58.3365 77.3172 57.5045 77.6725C56.6637 78.0129 55.7845 78.0928 55.0145 77.9981C54.2416 77.9063 53.5719 77.6577 53.0644 77.3675C52.554 77.0774 52.1882 76.7666 51.9699 76.5268C51.7457 76.29 51.6454 76.139 51.6572 76.1301Z" fill="#5C5C5C"/>
</g>
</g>
</g>
</g>
<g id="Group_318">
<g id="Group_319">
<g id="Group_320">
<g id="Group_321">
<path id="Vector_65" d="M67.3033 101.767C67.2945 101.767 67.3092 101.646 67.3417 101.418C67.3948 101.196 67.4656 100.855 67.6662 100.461C68.0379 99.668 68.9613 98.6704 70.4187 98.0635C71.8555 97.4152 73.8321 97.2908 75.8235 97.8681C76.7941 98.1582 77.9123 98.5164 78.641 99.4696C78.9979 99.9374 79.1189 100.636 78.8475 101.204C78.5879 101.776 78.0745 102.169 77.5376 102.445C76.9888 102.714 76.3929 102.865 75.797 102.877C75.204 102.889 74.5874 102.741 74.1271 102.356C73.661 101.977 73.4161 101.394 73.3778 100.837C73.3335 100.275 73.4486 99.7331 73.6286 99.2387C74.4133 97.2642 75.9976 96.012 77.4166 95.3903C78.8622 94.7568 80.1692 94.6887 81.0336 94.7657C81.9039 94.8545 82.3553 95.0439 82.3553 95.0439C82.3494 95.0765 81.8862 94.9196 81.0277 94.8604C80.1751 94.813 78.8947 94.9078 77.4904 95.5472C76.7941 95.8669 76.0743 96.3258 75.4282 96.9534C74.785 97.578 74.2038 98.3773 73.8439 99.3157C73.6758 99.7864 73.5725 100.301 73.6138 100.817C73.6522 101.329 73.8705 101.838 74.2805 102.169C74.6847 102.504 75.2423 102.643 75.794 102.631C76.3486 102.619 76.9151 102.474 77.4284 102.223C77.9359 101.965 78.402 101.595 78.6262 101.101C78.8593 100.612 78.7619 100.029 78.4462 99.6088C78.1365 99.1795 77.6792 98.8687 77.216 98.6289C76.7499 98.3921 76.2483 98.2322 75.7645 98.0842C73.8144 97.5069 71.8968 97.6105 70.4866 98.2204C69.0557 98.7947 68.1412 99.739 67.7517 100.5C67.3505 101.272 67.3387 101.776 67.3033 101.767Z" fill="#5C5C5C"/>
</g>
</g>
</g>
</g>
<g id="Group_322">
<g id="Group_323">
<g id="Group_324">
<g id="Group_325">
<path id="Vector_66" d="M49.4806 98.1252C49.4776 98.1163 49.5543 98.0867 49.7018 98.0364C49.8493 97.9861 50.0706 97.918 50.3597 97.8469C50.9321 97.7078 51.7906 97.5154 52.8644 97.5924C53.3984 97.6338 53.9855 97.7581 54.5667 98.0157C55.1449 98.2732 55.7261 98.6788 56.1539 99.2679C56.5758 99.857 56.8354 100.621 56.7705 101.42C56.741 101.817 56.6201 102.216 56.4047 102.575C56.1893 102.927 55.8677 103.244 55.44 103.383C55.021 103.516 54.5284 103.448 54.1979 103.137C53.8705 102.82 53.7908 102.373 53.7701 101.988C53.7406 101.201 53.9088 100.449 54.2038 99.7949C54.788 98.4716 55.8766 97.6042 56.8856 97.243C57.9004 96.8671 58.8032 96.8937 59.3844 96.9944C59.6794 97.0447 59.9007 97.1128 60.0482 97.1631C60.1957 97.2194 60.2695 97.2519 60.2665 97.2608C60.2606 97.2845 59.9508 97.1631 59.3696 97.0891C58.7944 97.0181 57.9181 97.021 56.9446 97.4059C55.9799 97.7759 54.9561 98.6196 54.4074 99.8896C54.133 100.517 53.9767 101.237 54.0091 101.98C54.0268 102.341 54.1124 102.723 54.3661 102.962C54.6139 103.199 55.021 103.261 55.3662 103.152C55.7143 103.039 56.0035 102.764 56.1952 102.45C56.387 102.131 56.4991 101.769 56.5286 101.405C56.5905 100.674 56.3545 99.9577 55.9681 99.4071C55.5727 98.8564 55.0299 98.4627 54.4812 98.2111C53.9265 97.9565 53.366 97.8292 52.8467 97.7759C51.8053 97.6812 50.9557 97.841 50.3774 97.9506C49.8021 98.0571 49.4865 98.143 49.4806 98.1252Z" fill="#5C5C5C"/>
</g>
</g>
</g>
</g>
</g>
</g>
</g>
</g>
<g id="Group_326">
<g id="Group_327">
<path id="Vector_67" d="M95.0592 99.5399C95.0562 99.5429 95.012 99.5074 94.9353 99.4363C94.8556 99.3653 94.7465 99.2528 94.6107 99.1018C94.3393 98.7998 93.9853 98.3262 93.646 97.6838C93.3068 97.0414 92.997 96.2243 92.7875 95.2889C92.5751 94.3504 92.4659 93.2965 92.4276 92.1953C92.3833 91.0911 92.4187 90.0372 92.3922 89.0869C92.3538 88.1367 92.2417 87.2841 92.1296 86.5736C92.0146 85.8631 91.9025 85.2888 91.8228 84.8921C91.7845 84.7086 91.755 84.5576 91.7313 84.4362C91.7107 84.3326 91.7048 84.2764 91.7077 84.2764C91.7136 84.2764 91.7313 84.3267 91.7608 84.4303C91.7903 84.5339 91.8317 84.6849 91.8818 84.8803C91.9792 85.271 92.1119 85.8424 92.2388 86.5558C92.3627 87.2693 92.4895 88.1248 92.5368 89.081C92.5722 90.0431 92.5397 91.0881 92.584 92.1894C92.6223 93.2877 92.7285 94.3327 92.9291 95.2593C93.1297 96.1858 93.4248 96.997 93.7463 97.6364C94.0679 98.2788 94.4072 98.7554 94.6609 99.0663C94.9087 99.3712 95.071 99.5281 95.0592 99.5399Z" fill="#455A64"/>
</g>
</g>
</g>
<g id="Group_328">
<g id="Group_329">
<path id="Vector_68" d="M93.5793 97.7418C93.6 97.7862 92.6972 98.1711 91.762 98.923C90.8209 99.6661 90.2427 100.462 90.2043 100.433C90.1896 100.421 90.3135 100.208 90.5613 99.897C90.8091 99.5861 91.1897 99.1835 91.6647 98.8016C92.1396 98.4227 92.6176 98.1415 92.9746 97.9698C93.3374 97.7981 93.5734 97.7241 93.5793 97.7418Z" fill="#5C5C5C"/>
</g>
</g>
<g id="Group_330">
<g id="Group_331">
<path id="Vector_69" d="M102.253 88.7796C102.256 88.7885 102.111 88.8447 101.848 88.9306C101.586 89.0194 101.208 89.1467 100.748 89.3243C99.8275 89.6736 98.5766 90.2272 97.3257 91.065C96.066 91.8909 95.0954 92.8589 94.3342 93.4954C93.9507 93.8122 93.5996 94.0312 93.3253 94.1053C93.1895 94.1467 93.0804 94.1556 93.0066 94.1556C92.9329 94.1556 92.8945 94.1526 92.8945 94.1467C92.8945 94.1289 93.0509 94.1378 93.3076 94.046C93.5642 93.9602 93.8976 93.7352 94.2664 93.4096C95.001 92.7583 95.9716 91.7695 97.2431 90.9347C98.5058 90.0881 99.7774 89.5463 100.713 89.2207C101.179 89.0549 101.565 88.9424 101.834 88.8714C102.099 88.8033 102.25 88.7678 102.253 88.7796Z" fill="#5C5C5C"/>
</g>
</g>
<g id="Group_332">
<g id="Group_333">
<path id="Vector_70" d="M99.2624 79.6921C99.2624 79.7039 99.1502 79.7247 98.9467 79.7513C98.7107 79.7868 98.4215 79.8312 98.0823 79.8816C97.3536 79.9941 96.3505 80.1746 95.2501 80.4085C94.1496 80.6483 93.1643 80.9029 92.4651 81.1338C91.7629 81.3588 91.3558 81.563 91.344 81.5394C91.3381 81.5305 91.4384 81.4713 91.6213 81.3736C91.8072 81.2789 92.0815 81.1575 92.4297 81.0302C93.1259 80.7697 94.1142 80.4973 95.2176 80.2575C96.321 80.0207 97.3329 79.8579 98.0675 79.775C98.4363 79.7306 98.7343 79.7069 98.9408 79.6951C99.1473 79.6832 99.2624 79.6803 99.2624 79.6921Z" fill="#5C5C5C"/>
</g>
</g>
</g>
<g id="Group_334">
<g id="Group_335">
<g id="Group_336">
<g id="Group_337">
<path id="Vector_71" d="M79.0475 42.5957C77.183 42.0924 75.3125 43.8154 73.4067 43.5075C72.2473 43.321 71.3474 42.427 70.306 41.8882C68.7454 41.083 66.577 41.0178 65.0399 41.8675C63.5028 42.7171 62.5234 43.6022 62.37 45.3547C60.9185 44.5821 58.6055 46.4619 57.8562 48.2233C57.1068 49.9847 57.3694 51.7728 57.8916 53.6141C58.7884 56.7876 60.3166 59.7805 62.3552 62.3678C62.5352 62.5958 62.8213 62.8474 63.081 62.7142C63.2609 62.6224 63.3111 62.3945 63.3376 62.1932C63.553 60.4851 63.2786 58.7562 63.0751 57.0481C62.8715 55.337 62.7387 53.5727 63.2226 51.9208C63.7064 50.2689 64.9307 48.7355 66.6035 48.3447C67.8397 48.0546 69.1436 48.4187 70.2706 49.0019C71.3976 49.588 72.3948 50.3873 73.4716 51.0593C74.5484 51.7313 75.7492 52.2879 77.0177 52.3027C78.2863 52.3145 79.6228 51.6692 80.1243 50.4998C80.6258 49.3305 79.965 47.7171 78.7171 47.4951C79.8529 47.35 80.8117 46.3317 80.8914 45.186C80.9651 44.0374 80.1538 42.8917 79.0475 42.5957Z" fill="#263238"/>
</g>
</g>
<g id="Group_338">
<g id="Group_339">
<g id="Group_340">
<g id="Group_341">
<g id="Group_342">
<g id="Group_343">
<g id="Group_344">
<g id="Group_345">
<g id="Group_346">
<g id="Group_347">
<g id="Group_348">
<g id="Group_349">
<g id="Group_350">
<g id="Group_351">
<g id="Group_352">
<g id="Group_353">
<path id="Vector_72" d="M60.5693 54.046L63.0533 73.1994C63.4752 76.4558 66.5287 78.6968 69.7503 78.1136C72.7566 77.5689 74.807 74.7477 74.4087 71.7104C74.2199 70.2687 74.0665 69.0668 74.0576 68.9158C74.0576 68.9158 78.8576 67.8234 78.5832 62.9507C78.4505 60.5972 77.7837 55.7689 77.1288 51.4083C76.4266 46.725 72.2521 43.3739 67.5465 43.6996L67.0774 43.7321C62.0473 44.3775 59.7875 49.0223 60.5693 54.046Z" fill="#FFBE9D"/>
</g>
</g>
</g>
</g>
</g>
</g>
</g>
</g>
</g>
</g>
<g id="Group_354">
<g id="Group_355">
<g id="Group_356">
<g id="Group_357">
<g id="Group_358">
<g id="Group_359">
<g id="Group_360">
<g id="Group_361">
<g id="Group_362">
<g id="Group_363">
<path id="Vector_73" d="M74.0585 68.8442C74.0585 68.8442 71.011 69.306 67.6094 67.4795C67.6094 67.4795 69.3441 70.878 74.1559 70.1053L74.0585 68.8442Z" fill="#EB996E"/>
</g>
</g>
</g>
</g>
</g>
</g>
</g>
</g>
</g>
</g>
</g>
</g>
</g>
<g id="Group_364">
<g id="Group_365">
<g id="Group_366">
<g id="Group_367">
<g id="Group_368">
<g id="Group_369">
<g id="Group_370">
<g id="Group_371">
<g id="Group_372">
<g id="Group_373">
<g id="Group_374">
<g id="Group_375">
<g id="Group_376">
<g id="Group_377">
<g id="Group_378">
<g id="Group_379">
<path id="Vector_74" d="M75.3149 54.9061C75.3532 55.2732 75.0759 55.6077 74.6953 55.6551C74.3148 55.7025 73.9755 55.4449 73.9371 55.0778C73.8988 54.7107 74.1761 54.3762 74.5567 54.3289C74.9373 54.2815 75.2795 54.539 75.3149 54.9061Z" fill="#263238"/>
</g>
</g>
</g>
</g>
</g>
</g>
</g>
</g>
</g>
</g>
<g id="Group_380">
<g id="Group_381">
<g id="Group_382">
<g id="Group_383">
<g id="Group_384">
<g id="Group_385">
<g id="Group_386">
<g id="Group_387">
<g id="Group_388">
<g id="Group_389">
<g id="Group_390">
<path id="Vector_75" d="M76.2506 53.8708C76.171 53.9685 75.6193 53.6133 74.8729 53.6666C74.1265 53.708 73.6072 54.1314 73.5187 54.0455C73.4774 54.007 73.5512 53.8383 73.7783 53.6488C73.9996 53.4594 74.389 53.264 74.8552 53.2314C75.3183 53.2018 75.7225 53.3469 75.9585 53.5067C76.2005 53.6695 76.289 53.8264 76.2506 53.8708Z" fill="#263238"/>
</g>
</g>
</g>
</g>
</g>
</g>
</g>
</g>
</g>
</g>
</g>
</g>
<g id="Group_391">
<g id="Group_392">
<g id="Group_393">
<g id="Group_394">
<g id="Group_395">
<g id="Group_396">
<g id="Group_397">
<g id="Group_398">
<g id="Group_399">
<g id="Group_400">
<g id="Group_401">
<path id="Vector_76" d="M68.143 55.3924C68.1814 55.7595 67.904 56.094 67.5235 56.1414C67.1429 56.1887 66.8036 55.9312 66.7653 55.5641C66.7269 55.197 67.0042 54.8625 67.3848 54.8151C67.7654 54.7678 68.1047 55.0283 68.143 55.3924Z" fill="#263238"/>
</g>
</g>
</g>
</g>
</g>
</g>
</g>
</g>
</g>
</g>
<g id="Group_402">
<g id="Group_403">
<g id="Group_404">
<g id="Group_405">
<g id="Group_406">
<g id="Group_407">
<g id="Group_408">
<g id="Group_409">
<g id="Group_410">
<g id="Group_411">
<g id="Group_412">
<path id="Vector_77" d="M68.9303 54.5163C68.8506 54.614 68.299 54.2588 67.5526 54.3121C66.8061 54.3535 66.2869 54.7769 66.1984 54.691C66.1571 54.6525 66.2309 54.4838 66.458 54.2943C66.6793 54.1049 67.0687 53.9095 67.5319 53.8769C67.9951 53.8473 68.3993 53.9924 68.6353 54.1522C68.8801 54.315 68.9687 54.4749 68.9303 54.5163Z" fill="#263238"/>
</g>
</g>
</g>
</g>
</g>
</g>
</g>
</g>
</g>
</g>
</g>
</g>
<g id="Group_413">
<g id="Group_414">
<g id="Group_415">
<g id="Group_416">
<g id="Group_417">
<g id="Group_418">
<g id="Group_419">
<g id="Group_420">
<g id="Group_421">
<g id="Group_422">
<g id="Group_423">
<path id="Vector_78" d="M72.015 59.8774C72.0091 59.8359 72.4664 59.7234 73.2099 59.5754C73.3987 59.5428 73.5757 59.4925 73.5993 59.3593C73.6347 59.2172 73.5403 59.0189 73.4341 58.8028C73.2246 58.3528 73.0034 57.8821 72.7703 57.3877C71.8469 55.3717 71.1624 53.708 71.245 53.6695C71.3276 53.634 72.1419 55.2385 73.0653 57.2545C73.2895 57.7518 73.5019 58.2255 73.7055 58.6814C73.7911 58.8945 73.9327 59.1314 73.856 59.4244C73.8147 59.5695 73.6819 59.6849 73.5609 59.7264C73.4429 59.7708 73.3338 59.7826 73.2394 59.7945C72.49 59.8833 72.0209 59.9188 72.015 59.8774Z" fill="#263238"/>
</g>
</g>
</g>
</g>
</g>
</g>
</g>
</g>
</g>
</g>
</g>
<g id="Group_424">
<g id="Group_425">
<g id="Group_426">
<g id="Group_427">
<g id="Group_428">
<g id="Group_429">
<g id="Group_430">
<g id="Group_431">
<g id="Group_432">
<g id="Group_433">
<g id="Group_434">
<path id="Vector_79" d="M69.858 60.5461C69.9789 60.5313 70.035 61.3424 70.7696 61.8694C71.5012 62.3993 72.3568 62.2483 72.3715 62.3608C72.3863 62.4111 72.1916 62.5325 71.8258 62.568C71.4688 62.6065 70.9407 62.5266 70.4923 62.2039C70.0468 61.8783 69.8314 61.4194 69.7813 61.0908C69.7252 60.7533 69.8019 60.5461 69.858 60.5461Z" fill="#263238"/>
</g>
</g>
</g>
</g>
</g>
</g>
</g>
</g>
</g>
</g>
</g>
</g>
</g>
</g>
<g id="Group_435">
<g id="Group_436">
<g id="Group_437">
<g id="Group_438">
<g id="Group_439">
<g id="Group_440">
<g id="Group_441">
<g id="Group_442">
<g id="Group_443">
<g id="Group_444">
<path id="Vector_80" d="M68.9206 51.5748C68.8616 51.782 68.1093 51.7376 67.2419 51.9034C66.3716 52.0514 65.6842 52.3593 65.5544 52.1846C65.4954 52.1017 65.6075 51.9004 65.8789 51.6843C66.1474 51.4682 66.587 51.2492 67.1062 51.1544C67.6284 51.0597 68.1152 51.11 68.4426 51.2196C68.7731 51.3261 68.9442 51.4741 68.9206 51.5748Z" fill="#263238"/>
</g>
</g>
</g>
</g>
</g>
</g>
</g>
</g>
</g>
</g>
<g id="Group_445">
<g id="Group_446">
<g id="Group_447">
<g id="Group_448">
<g id="Group_449">
<g id="Group_450">
<g id="Group_451">
<g id="Group_452">
<g id="Group_453">
<g id="Group_454">
<path id="Vector_81" d="M75.8256 51.7251C75.7076 51.9027 75.1795 51.7636 74.5629 51.7991C73.9433 51.8109 73.43 51.9915 73.2973 51.8228C73.2383 51.7399 73.3091 51.5652 73.5274 51.3876C73.7427 51.2129 74.1086 51.056 74.5334 51.0383C74.9582 51.0235 75.3358 51.1508 75.563 51.3106C75.7931 51.4675 75.8787 51.6392 75.8256 51.7251Z" fill="#263238"/>
</g>
</g>
</g>
</g>
</g>
</g>
</g>
</g>
</g>
</g>
</g>
</g>
</g>
</g>
</g>
<g id="Group_455">
<g id="Group_456">
<g id="Group_457">
<g id="Group_458">
<g id="Group_459">
<g id="Group_460">
<g id="Group_461">
<g id="Group_462">
<g id="Group_463">
<g id="Group_464">
<g id="Group_465">
<path id="Vector_82" d="M61.2142 57.6256C61.1287 57.596 57.8126 56.8678 58.1489 60.1893C58.4853 63.5108 61.7364 62.4865 61.7335 62.3918C61.7276 62.2941 61.2142 57.6256 61.2142 57.6256Z" fill="#FFBE9D"/>
</g>
</g>
</g>
</g>
</g>
</g>
</g>
</g>
</g>
</g>
<g id="Group_466">
<g id="Group_467">
<g id="Group_468">
<g id="Group_469">
<g id="Group_470">
<g id="Group_471">
<g id="Group_472">
<g id="Group_473">
<g id="Group_474">
<g id="Group_475">
<g id="Group_476">
<path id="Vector_83" d="M60.5956 61.2344C60.5808 61.2255 60.5425 61.2817 60.4481 61.335C60.3566 61.3883 60.1973 61.4357 60.0173 61.3883C59.6544 61.2936 59.3034 60.7666 59.2267 60.1716C59.1883 59.8697 59.2208 59.5766 59.3034 59.3279C59.3801 59.0733 59.5187 58.8898 59.6928 58.8395C59.8639 58.7803 59.9996 58.875 60.0498 58.9638C60.1029 59.0526 60.0881 59.1207 60.1058 59.1237C60.1147 59.1296 60.1707 59.0615 60.1294 58.9253C60.1088 58.8602 60.0616 58.7862 59.979 58.7299C59.8934 58.6737 59.7725 58.653 59.6515 58.6766C59.3978 58.721 59.1913 58.9786 59.0998 59.2539C58.9936 59.5292 58.9493 59.8608 58.9936 60.2012C59.0821 60.8673 59.4863 61.4594 59.979 61.5511C60.2179 61.5896 60.4038 61.4979 60.4982 61.409C60.5985 61.3143 60.6074 61.2373 60.5956 61.2344Z" fill="#EB996E"/>
</g>
</g>
</g>
</g>
</g>
</g>
</g>
</g>
</g>
</g>
</g>
</g>
<g id="Group_477">
<g id="Group_478">
<g id="Group_479">
<path id="Vector_84" d="M78.0872 50.3284C75.9896 51.0478 73.5527 50.6718 71.7649 49.3515C70.5169 48.4279 69.505 47.0484 67.9945 46.6961C66.9767 46.4563 65.8881 46.7494 65.0089 47.3178C64.1327 47.8862 63.4453 48.7091 62.87 49.5824C63.9763 51.9922 63.5367 54.7956 63.0765 57.4096C63.0264 57.6997 62.9615 58.0105 62.7431 58.203C62.3714 58.5316 61.7666 58.3362 61.4008 58.0017C60.8137 57.4658 60.5452 56.6665 60.3505 55.8939C59.908 54.1325 59.7369 52.2882 60.0112 50.4942C60.2856 48.7003 61.0202 46.9537 62.2416 45.6126C63.7639 43.9341 65.9943 42.9661 68.2541 42.8447C70.511 42.7233 72.7827 43.419 74.6767 44.6594C75.5559 45.2337 76.379 45.9471 76.8746 46.8737" fill="#263238"/>
</g>
</g>
</g>
</g>
<g id="Group_480">
<g id="Group_481">
<g id="Group_482">
<path id="Vector_85" d="M80.5213 43.67C80.5213 43.67 80.5479 43.7706 80.5125 43.9601C80.4771 44.1466 80.3649 44.4249 80.0965 44.6795C79.831 44.934 79.4002 45.1205 78.8869 45.1798C78.6302 45.2094 78.3529 45.2212 78.0608 45.1857C77.7688 45.1472 77.456 45.0584 77.1876 44.8512C76.928 44.6469 76.7067 44.3242 76.7096 43.9394C76.7096 43.5486 76.9958 43.2022 77.3557 43.0424C77.5357 42.9595 77.7393 42.9151 77.9458 42.924C78.1523 42.9329 78.3618 43.0128 78.5329 43.1401C78.881 43.3947 79.0757 43.8298 79.1082 44.268C79.1436 44.715 78.9695 45.1768 78.6686 45.5261C78.3677 45.8784 77.9605 46.1359 77.515 46.2928C76.6123 46.6096 75.5886 46.506 74.6592 46.1804C73.7181 45.8577 72.8862 45.3574 72.1044 44.8689C71.3196 44.3805 70.5614 43.9157 69.7826 43.5989C69.0066 43.2763 68.2042 43.1312 67.4666 43.1993C66.7261 43.2674 66.0623 43.5249 65.5166 43.8476C64.4191 44.5078 63.8084 45.3959 63.4544 46.0057C63.2744 46.3165 63.1593 46.5682 63.0826 46.7428C63.0059 46.9145 62.9676 47.0063 62.9617 47.0063C62.9587 47.0063 62.9646 46.9796 62.9794 46.9352C62.9941 46.8879 63.0177 46.8198 63.0531 46.731C63.121 46.5534 63.2272 46.2928 63.4013 45.9761C63.7435 45.3515 64.3453 44.4367 65.4605 43.7469C66.0122 43.4095 66.6907 43.1401 67.4578 43.0631C68.2219 42.9832 69.0509 43.1312 69.8445 43.4568C70.6411 43.7766 71.4111 44.2472 72.1958 44.7327C72.9776 45.2182 73.8007 45.7126 74.7182 46.0264C75.6269 46.3432 76.6093 46.4438 77.4678 46.1419C77.8927 45.9938 78.2762 45.7511 78.5565 45.4255C78.8367 45.0998 78.9931 44.6883 78.9636 44.2798C78.937 43.8772 78.76 43.4835 78.4562 43.2585C78.1582 43.0187 77.7422 43.0157 77.4206 43.1667C77.0961 43.3088 76.8483 43.6137 76.8453 43.9423C76.8394 44.2739 77.0312 44.5699 77.2702 44.7594C77.5121 44.9518 77.8071 45.0436 78.0844 45.0821C78.3647 45.1205 78.6361 45.1117 78.8869 45.088C79.3884 45.0406 79.8044 44.8689 80.064 44.6321C80.3295 44.3982 80.4475 44.1318 80.4918 43.9542C80.5243 43.7706 80.5125 43.67 80.5213 43.67Z" fill="#455A64"/>
</g>
</g>
</g>
<g id="Group_483">
<g id="Group_484">
<g id="Group_485">
<path id="Vector_86" d="M57.461 51.1303C57.4728 51.0948 57.8445 51.2932 58.4906 51.3228C58.8122 51.3346 59.1957 51.2813 59.594 51.1303C59.9923 50.9823 60.4053 50.7396 60.7977 50.4435C61.5795 49.8337 61.9837 48.9811 62.14 48.3595C62.2993 47.7259 62.258 47.3145 62.2905 47.3145C62.2994 47.3145 62.32 47.4151 62.3288 47.6016C62.3348 47.7881 62.3229 48.0605 62.2551 48.3861C62.1253 49.0344 61.7211 49.9344 60.901 50.5738C60.4938 50.8817 60.069 51.1274 59.6501 51.2724C59.2311 51.4234 58.824 51.4649 58.4877 51.4382C58.1514 51.4086 57.8917 51.3316 57.7206 51.2606C57.5466 51.1925 57.4581 51.1392 57.461 51.1303Z" fill="#455A64"/>
</g>
</g>
</g>
<g id="Group_486">
<g id="Group_487">
<g id="Group_488">
<path id="Vector_87" d="M57.7695 53.5283C57.7725 53.4987 58.1649 53.5579 58.7874 53.478C59.4039 53.404 60.2625 53.1494 61.0207 52.5692C61.7789 51.986 62.2479 51.2222 62.481 50.642C62.72 50.0588 62.7642 49.6621 62.7967 49.668C62.8055 49.668 62.8055 49.7687 62.779 49.9463C62.7554 50.1239 62.6964 50.3785 62.5902 50.6834C62.3807 51.2873 61.9116 52.0926 61.121 52.6994C60.3303 53.3033 59.4364 53.549 58.7992 53.5935C58.4776 53.6201 58.218 53.6053 58.0409 53.5846C57.8669 53.5638 57.7695 53.5402 57.7695 53.5283Z" fill="#455A64"/>
</g>
</g>
</g>
<g id="Group_489">
<g id="Group_490">
<g id="Group_491">
<path id="Vector_88" d="M66.6731 57.8724C66.6287 57.8843 66.5813 57.8545 66.5694 57.807C66.5576 57.7594 66.5813 57.7088 66.6257 57.697C66.6702 57.6851 66.7176 57.7148 66.7294 57.7624C66.7413 57.8099 66.7146 57.8605 66.6731 57.8724Z" fill="#EB996E"/>
</g>
</g>
</g>
<g id="Group_492">
<g id="Group_493">
<g id="Group_494">
<path id="Vector_89" d="M68.0759 57.4485C68.0315 57.4604 67.9841 57.4248 67.9693 57.3713C67.9544 57.3148 67.9781 57.2613 68.0226 57.2494C68.067 57.2375 68.1144 57.2731 68.1292 57.3267C68.1441 57.3802 68.1204 57.4367 68.0759 57.4485Z" fill="#EB996E"/>
</g>
</g>
</g>
<g id="Group_495">
<g id="Group_496">
<g id="Group_497">
<path id="Vector_90" d="M69.0324 57.3562C68.9882 57.3651 68.941 57.3118 68.9262 57.2408C68.9115 57.1668 68.9351 57.1016 68.9823 57.0928C69.0265 57.0839 69.0738 57.1372 69.0885 57.2082C69.1033 57.2822 69.0767 57.3474 69.0324 57.3562Z" fill="#EB996E"/>
</g>
</g>
</g>
<g id="Group_498">
<g id="Group_499">
<g id="Group_500">
<path id="Vector_91" d="M67.4338 58.7177C67.3893 58.7206 67.3508 58.6998 67.3478 58.6701C67.3449 58.6404 67.3804 58.6136 67.4278 58.6106C67.4723 58.6077 67.5108 58.6285 67.5137 58.6582C67.5137 58.6879 67.4782 58.7147 67.4338 58.7177Z" fill="#EB996E"/>
</g>
</g>
</g>
<g id="Group_501">
<g id="Group_502">
<g id="Group_503">
<path id="Vector_92" d="M68.7204 58.3247C68.676 58.3306 68.6316 58.2949 68.6227 58.2444C68.6138 58.1939 68.6434 58.1463 68.6908 58.1374C68.7353 58.1314 68.7797 58.1671 68.7856 58.2176C68.7975 58.2711 68.7678 58.3187 68.7204 58.3247Z" fill="#EB996E"/>
</g>
</g>
</g>
<g id="Group_504">
<g id="Group_505">
<g id="Group_506">
<path id="Vector_93" d="M75.4633 57.0404C75.4188 57.0523 75.3714 57.0226 75.3596 56.972C75.3448 56.9215 75.3714 56.8709 75.4159 56.8591C75.4603 56.8472 75.5077 56.8769 75.5196 56.9274C75.5314 56.978 75.5077 57.0285 75.4633 57.0404Z" fill="#EB996E"/>
</g>
</g>
</g>
<g id="Group_507">
<g id="Group_508">
<g id="Group_509">
<path id="Vector_94" d="M76.4276 56.8831C76.3832 56.892 76.3387 56.8504 76.3298 56.7939C76.3209 56.7374 76.3476 56.6839 76.395 56.678C76.4394 56.669 76.4839 56.7107 76.4928 56.7672C76.5017 56.8236 76.472 56.8772 76.4276 56.8831Z" fill="#EB996E"/>
</g>
</g>
</g>
<g id="Group_510">
<g id="Group_511">
<g id="Group_512">
<path id="Vector_95" d="M74.6082 57.1226C74.5638 57.1345 74.5193 57.1136 74.5104 57.075C74.4986 57.0363 74.5282 56.9947 74.5727 56.9828C74.6171 56.9709 74.6615 56.9918 74.6704 57.0304C74.6793 57.069 74.6526 57.1107 74.6082 57.1226Z" fill="#EB996E"/>
</g>
</g>
</g>
<g id="Group_513">
<g id="Group_514">
<g id="Group_515">
<path id="Vector_96" d="M75.3923 58.0467C75.3508 58.0675 75.3005 58.0467 75.2738 57.9991C75.2501 57.9516 75.2619 57.898 75.3034 57.8743C75.3449 57.8535 75.3953 57.8743 75.4219 57.9218C75.4456 57.9724 75.4338 58.0259 75.3923 58.0467Z" fill="#EB996E"/>
</g>
</g>
</g>
<g id="Group_516">
<g id="Group_517">
<g id="Group_518">
<path id="Vector_97" d="M76.2134 57.8242C76.169 57.8153 76.1394 57.7766 76.1453 57.738C76.1542 57.6994 76.1957 57.6756 76.2401 57.6845C76.2845 57.6934 76.3142 57.7321 76.3082 57.7707C76.2993 57.8094 76.2579 57.8331 76.2134 57.8242Z" fill="#EB996E"/>
</g>
</g>
</g>
<g id="Group_519">
<g id="Group_520">
<g id="Group_521">
<path id="Vector_98" d="M59.3271 62.2286C59.3595 62.2345 59.2032 62.5246 59.2887 62.9894C59.333 63.2173 59.4569 63.4779 59.6988 63.6614C59.9348 63.8449 60.2859 63.9486 60.6104 63.8361C60.932 63.7265 61.1651 63.4335 61.2123 63.1463C61.2595 62.8532 61.1385 62.5809 61.0235 62.3796C60.7845 61.9592 60.4865 61.8497 60.4983 61.8289C60.4954 61.8053 60.8406 61.8852 61.1208 62.3174C61.2565 62.5217 61.407 62.8118 61.3627 63.17C61.3155 63.5193 61.05 63.8627 60.6665 63.993C60.2771 64.1262 59.8699 63.9959 59.6103 63.7828C59.3389 63.5667 59.212 63.2588 59.1796 63.0101C59.1471 62.7555 59.1884 62.5513 59.2327 62.421C59.271 62.2878 59.3182 62.2256 59.3271 62.2286Z" fill="#263238"/>
</g>
</g>
</g>
<g id="Group_522">
<g id="Group_523">
<g id="Group_524">
<path id="Vector_99" d="M59.2986 61.6665C59.3075 61.6517 59.4255 61.702 59.4993 61.8796C59.5347 61.9655 59.5524 62.0898 59.5081 62.2171C59.4668 62.3415 59.3665 62.4658 59.2131 62.5191C59.0597 62.5694 58.9004 62.5309 58.7942 62.448C58.682 62.3622 58.6407 62.229 58.6496 62.1313C58.6643 61.924 58.8001 61.8619 58.806 61.8796C58.8237 61.8974 58.747 61.9803 58.7676 62.1254C58.7765 62.1964 58.8119 62.2734 58.8856 62.3207C58.9564 62.3711 59.0656 62.3918 59.16 62.3592C59.2544 62.3267 59.3311 62.2438 59.3665 62.1609C59.4048 62.075 59.4048 61.9862 59.3901 61.9122C59.3547 61.7642 59.2809 61.6843 59.2986 61.6665Z" fill="#263238"/>
</g>
</g>
</g>
</g>
</g>
<g id="Group_525">
<g id="Group_526">
<path id="Vector_100" d="M84.8096 104.873L84.2461 111.134L87.1934 111.122C87.2701 111.122 88.4737 111.102 89.8013 111.081C90.7779 111.205 92.3238 111.211 92.7928 111.161C92.8754 111.152 92.9256 111.143 92.9315 111.128C92.9315 111.128 93.1528 111.102 93.3858 111.019C93.3917 111.019 93.3976 111.019 93.3976 111.019V111.016C93.6632 110.918 93.9375 110.746 93.8962 110.45C93.7664 109.553 93.2354 109.479 93.2354 109.479C93.2354 109.479 93.1351 109.473 92.9699 109.462L92.9492 109.385C93.3534 109.385 93.6927 109.376 93.8726 109.355C93.9552 109.346 94.0054 109.334 94.0113 109.322C94.0113 109.322 95.0557 109.198 94.976 108.645C94.8462 107.748 94.3152 107.674 94.3152 107.674C94.3152 107.674 93.9552 107.647 93.4566 107.614C93.8756 107.614 94.2267 107.605 94.4125 107.585C94.4951 107.576 94.5453 107.564 94.5512 107.552C94.5512 107.552 95.5955 107.428 95.5159 106.874C95.3861 105.977 94.855 105.903 94.855 105.903C94.855 105.903 94.563 105.883 94.144 105.856C94.4833 105.853 94.7606 105.844 94.9199 105.826C95.0026 105.817 95.0527 105.806 95.0586 105.794C95.0586 105.794 96.103 105.669 96.0233 105.116C95.8935 104.219 95.3625 104.145 95.3625 104.145C95.3625 104.145 93.7192 104.026 92.5893 103.979C92.5893 103.979 91.3089 102.822 90.8044 102.875C90.0521 102.955 85.671 104.577 85.671 104.577L84.8096 104.873Z" fill="#FFBE9D"/>
</g>
<g id="Group_527">
<g id="Group_528">
<g id="Group_529">
<g id="Group_530">
<g id="Group_531">
<g id="Group_532">
<g id="Group_533">
<g id="Group_534">
<g id="Group_535">
<path id="Vector_101" d="M90.3359 109.296C90.3389 109.347 90.9938 109.412 91.7963 109.438C92.5988 109.465 93.2449 109.444 93.2419 109.391C93.239 109.338 92.584 109.276 91.7815 109.249C90.9791 109.225 90.333 109.246 90.3359 109.296Z" fill="#EB996E"/>
</g>
</g>
</g>
</g>
</g>
<g id="Group_536">
<g id="Group_537">
<g id="Group_538">
<g id="Group_539">
<g id="Group_540">
<path id="Vector_102" d="M90.3281 107.523C90.3252 107.577 91.2545 107.651 92.4051 107.692C93.5527 107.733 94.485 107.725 94.4879 107.671C94.4909 107.618 93.5616 107.544 92.411 107.503C91.2633 107.461 90.3311 107.47 90.3281 107.523Z" fill="#EB996E"/>
</g>
</g>
</g>
</g>
</g>
<g id="Group_541" opacity="0.78">
<g id="Group_542">
<g id="Group_543">
<g id="Group_544">
<g id="Group_545">
<path id="Vector_103" d="M90.4766 105.717C90.4736 105.771 91.4029 105.845 92.5535 105.886C93.7011 105.928 94.6334 105.919 94.6364 105.865C94.6393 105.812 93.71 105.738 92.5594 105.697C91.4088 105.658 90.4766 105.667 90.4766 105.717Z" fill="#EB996E"/>
</g>
</g>
</g>
</g>
</g>
</g>
</g>
</g>
</g>
<g id="Group_546">
<g id="Group_547">
<path id="Vector_104" d="M93.0519 104.024C93.0519 104.044 92.7982 104.062 92.3911 104.077C91.922 104.092 91.388 104.11 90.795 104.13C90.205 104.151 89.6681 104.172 89.199 104.187C88.7889 104.198 88.5381 104.201 88.5352 104.181C88.5322 104.16 88.783 104.118 89.1931 104.08C89.6002 104.039 90.1666 104 90.7921 103.976C91.4175 103.956 91.984 103.956 92.3941 103.97C92.8012 103.979 93.0549 104.003 93.0519 104.024Z" fill="#EB996E"/>
</g>
</g>
</g>
<g id="Group_548">
<g id="Group_549">
<path id="Vector_105" d="M84.8907 103.949C84.8907 103.952 84.8553 103.952 84.7875 103.949C84.7108 103.946 84.6134 103.94 84.4895 103.935C84.2181 103.92 83.8316 103.896 83.3389 103.866C82.3299 103.804 80.8873 103.715 79.1083 103.606C75.5356 103.387 70.6029 103.076 65.1509 102.798C64.1508 102.753 63.1684 102.706 62.2302 102.665L62.1594 102.662L62.1564 102.588C62.1122 101.4 62.0001 100.237 61.9145 99.124C61.8201 98.0109 61.7287 96.9422 61.6431 95.9297C61.4631 93.9049 61.3038 92.0991 61.1711 90.5863C61.0383 89.0854 60.9321 87.8746 60.8583 87.0339C60.8259 86.6254 60.7993 86.3027 60.7816 86.0748C60.7757 85.9711 60.7698 85.8912 60.7639 85.8261C60.761 85.7698 60.761 85.7402 60.7639 85.7402C60.7669 85.7402 60.7728 85.7669 60.7787 85.8231C60.7875 85.8853 60.7964 85.9682 60.8082 86.0688C60.8318 86.2968 60.8672 86.6165 60.9114 87.025C60.997 87.8687 61.118 89.0736 61.2684 90.5745C61.41 92.0872 61.5811 93.8901 61.7729 95.9149C61.8614 96.9274 61.9588 97.9961 62.0561 99.1092C62.1446 100.225 62.2567 101.377 62.3039 102.585L62.2302 102.508C63.1684 102.549 64.1508 102.593 65.1538 102.638C70.6088 102.916 75.5415 103.245 79.1113 103.49C80.8902 103.621 82.3299 103.727 83.3389 103.798C83.8316 103.84 84.2151 103.872 84.4866 103.893C84.6105 103.905 84.7108 103.917 84.7845 103.923C84.8553 103.94 84.8907 103.946 84.8907 103.949Z" fill="#455A64"/>
</g>
</g>
<g id="Group_550">
<g id="Group_551">
<path id="Vector_106" d="M64.2765 111.13C64.2677 111.133 64.2145 111.021 64.129 110.811C64.0847 110.707 64.0346 110.577 63.9933 110.42C63.949 110.266 63.89 110.091 63.8546 109.89C63.8104 109.692 63.7691 109.473 63.7455 109.233C63.7101 108.996 63.7042 108.738 63.6953 108.472C63.6953 107.933 63.7455 107.341 63.8782 106.734C64.0198 106.127 64.2264 105.571 64.4565 105.085C64.5804 104.849 64.6954 104.618 64.8282 104.419C64.9491 104.212 65.0819 104.034 65.2058 103.875C65.3238 103.709 65.4507 103.576 65.5569 103.457C65.6601 103.336 65.7605 103.238 65.846 103.164C66.0142 103.01 66.1086 102.93 66.1145 102.939C66.1381 102.963 65.7605 103.294 65.2914 103.943C65.1763 104.106 65.0495 104.283 64.9344 104.49C64.8075 104.689 64.7013 104.917 64.5804 105.151C64.3621 105.63 64.1614 106.178 64.0228 106.773C63.893 107.368 63.8399 107.948 63.831 108.478C63.8369 108.741 63.8369 108.993 63.8664 109.227C63.8812 109.461 63.9195 109.677 63.9549 109.875C64.1083 110.66 64.306 111.122 64.2765 111.13Z" fill="#5C5C5C"/>
</g>
</g>
</g>
<g id="Group_552">
<g id="Group_553">
<path id="Vector_107" d="M103.142 111.169C103.142 111.21 90.8578 111.246 75.7055 111.246C60.5473 111.246 48.2656 111.21 48.2656 111.169C48.2656 111.127 60.5503 111.092 75.7055 111.092C90.8578 111.092 103.142 111.124 103.142 111.169Z" fill="#263238"/>
</g>
</g>
</g>
<g id="Device">
<g id="Group_554">
<path id="Vector_108" d="M96.6157 14.3304L54.4986 14.3037C49.4301 14.3008 45.3205 18.4216 45.3175 23.5074L45.2969 129.464C45.2969 134.547 49.4006 138.671 54.4661 138.671L96.5862 138.694C101.655 138.697 105.764 134.577 105.767 129.491L105.788 23.5341C105.788 18.4541 101.681 14.3333 96.6157 14.3304ZM102.973 127.945C102.973 131.507 100.094 134.393 96.5449 134.393L54.5104 134.369C50.9613 134.366 48.0878 131.48 48.0878 127.919L48.1084 24.4991C48.1084 20.9378 50.9878 18.0515 54.5369 18.0515L61.6853 18.0545L64.5558 18.0574C65.6504 18.0574 66.5384 18.9899 66.5384 20.1386V21.6246C66.5384 22.7733 67.4264 23.7058 68.5209 23.7058L84.4373 23.7147C85.5318 23.7147 86.4198 22.7851 86.4198 21.6365V20.1504C86.4198 19.0018 87.3078 18.0722 88.4024 18.0722L96.5685 18.0782C100.118 18.0811 102.991 20.9675 102.991 24.5258L102.973 127.945Z" fill="#263238"/>
<g id="Group_555">
<g id="Group_556">
<path id="Vector_109" d="M87.7965 111.169H65.9414V120.932H87.7965V111.169Z" fill="#263238"/>
</g>
<g id="Group_557">
<path id="Vector_110" d="M102.977 111.169H84.1787C84.1787 115.328 80.6532 118.709 76.3193 118.709C71.9855 118.709 68.46 115.325 68.46 111.169H48.0977V128.087C48.0977 131.649 50.9712 134.535 54.5203 134.538L96.5548 134.562C100.104 134.565 102.983 131.678 102.983 128.114L102.977 111.169Z" fill="#BBF046"/>
</g>
<g id="Group_558">
<path id="Vector_111" d="M69.5586 121.53H70.8449C71.7712 121.53 72.4055 122.09 72.4055 122.951C72.4055 123.813 71.7712 124.372 70.8449 124.372H69.5586V121.53ZM70.8124 123.833C71.3759 123.833 71.7417 123.496 71.7417 122.951C71.7417 122.407 71.373 122.069 70.8124 122.069H70.2135V123.83H70.8124V123.833Z" fill="#263238"/>
<path id="Vector_112" d="M74.779 123.125V124.372H74.189V124.099C74.071 124.298 73.8438 124.404 73.5252 124.404C73.0148 124.404 72.7109 124.12 72.7109 123.741C72.7109 123.356 72.9824 123.087 73.6462 123.087H74.1477C74.1477 122.814 73.9854 122.658 73.6462 122.658C73.416 122.658 73.1771 122.735 73.0178 122.862L72.7906 122.418C73.0296 122.246 73.3806 122.154 73.7288 122.154C74.3955 122.154 74.779 122.465 74.779 123.125ZM74.1477 123.682V123.46H73.714C73.419 123.46 73.3246 123.569 73.3246 123.714C73.3246 123.874 73.4573 123.978 73.6816 123.978C73.894 123.978 74.0769 123.88 74.1477 123.682Z" fill="#263238"/>
<path id="Vector_113" d="M77.579 123.122V124.372H76.9476V123.217C76.9476 122.865 76.7854 122.702 76.5051 122.702C76.2012 122.702 75.9829 122.888 75.9829 123.291V124.372H75.3516V122.187H75.9534V122.441C76.1245 122.255 76.3782 122.154 76.6733 122.154C77.1895 122.154 77.579 122.456 77.579 123.122Z" fill="#263238"/>
<path id="Vector_114" d="M78.0703 121.53C78.0703 121.332 78.2296 121.178 78.4627 121.178C78.6958 121.178 78.8551 121.323 78.8551 121.518C78.8551 121.728 78.6958 121.882 78.4627 121.882C78.2296 121.882 78.0703 121.728 78.0703 121.53ZM78.147 122.187H78.7784V124.372H78.147V122.187Z" fill="#263238"/>
<path id="Vector_115" d="M81.4836 123.46H79.8374C79.8994 123.732 80.1295 123.898 80.4599 123.898C80.69 123.898 80.8552 123.83 81.0057 123.688L81.342 124.052C81.1385 124.283 80.8375 124.404 80.4452 124.404C79.6929 124.404 79.2031 123.931 79.2031 123.279C79.2031 122.625 79.7017 122.154 80.3655 122.154C81.0057 122.154 81.4984 122.584 81.4984 123.288C81.4954 123.338 81.4895 123.407 81.4836 123.46ZM79.8286 123.09H80.9024C80.8582 122.814 80.6517 122.634 80.3685 122.634C80.0793 122.634 79.8728 122.809 79.8286 123.09Z" fill="#263238"/>
<path id="Vector_116" d="M81.918 121.361H82.5493V124.375H81.918V121.361Z" fill="#263238"/>
</g>
<g id="Group_559">
<path id="Vector_117" d="M73.614 126.414V128.081H73.4931V126.524H73.0859V126.414H73.614Z" fill="#263238"/>
<path id="Vector_118" d="M74.0352 127.249C74.0352 126.728 74.3036 126.405 74.6842 126.405C75.0648 126.405 75.3332 126.728 75.3332 127.249C75.3332 127.77 75.0648 128.093 74.6842 128.093C74.3036 128.093 74.0352 127.77 74.0352 127.249ZM75.2152 127.249C75.2152 126.784 74.9999 126.515 74.6871 126.515C74.3744 126.515 74.1591 126.784 74.1591 127.249C74.1591 127.714 74.3744 127.983 74.6871 127.983C74.9999 127.98 75.2152 127.714 75.2152 127.249Z" fill="#263238"/>
<path id="Vector_119" d="M75.6055 126.93C75.6055 126.874 75.6497 126.829 75.7058 126.829C75.7618 126.829 75.8061 126.871 75.8061 126.93C75.8061 126.986 75.7618 127.033 75.7058 127.033C75.6497 127.033 75.6055 126.986 75.6055 126.93ZM75.6055 127.99C75.6055 127.933 75.6497 127.889 75.7058 127.889C75.7618 127.889 75.8061 127.93 75.8061 127.99C75.8061 128.046 75.7618 128.093 75.7058 128.093C75.6497 128.09 75.6055 128.046 75.6055 127.99Z" fill="#263238"/>
<path id="Vector_120" d="M76.0703 127.249C76.0703 126.728 76.3388 126.405 76.7194 126.405C77.0999 126.405 77.3684 126.728 77.3684 127.249C77.3684 127.77 77.0999 128.093 76.7194 128.093C76.3388 128.093 76.0703 127.77 76.0703 127.249ZM77.2504 127.249C77.2504 126.784 77.035 126.515 76.7223 126.515C76.4096 126.515 76.1942 126.784 76.1942 127.249C76.1942 127.714 76.4096 127.983 76.7223 127.983C77.035 127.98 77.2504 127.714 77.2504 127.249Z" fill="#263238"/>
<path id="Vector_121" d="M79.0225 127.619H78.6744V128.081H78.5564V127.619H77.6094V127.53L78.5121 126.414H78.6479L77.7628 127.512H78.5593V127.104H78.6744V127.512H79.0225V127.619Z" fill="#263238"/>
</g>
<g id="Group_560">
<path id="Vector_122" d="M58.7784 125.477H55.0199C54.2941 125.477 53.707 124.887 53.707 124.159V120.388C53.707 119.659 54.2941 119.07 55.0199 119.07H58.7784C59.5042 119.07 60.0913 119.659 60.0913 120.388V124.159C60.0913 124.887 59.5012 125.477 58.7784 125.477Z" fill="#263238"/>
</g>
<g id="Group_561">
<path id="Vector_123" d="M96.7267 125.038H93.1835C92.4194 125.038 91.7969 124.414 91.7969 123.647V120.092C91.7969 119.325 92.4194 118.7 93.1835 118.7H96.7267C97.4908 118.7 98.1133 119.325 98.1133 120.092V123.647C98.1133 124.414 97.4908 125.038 96.7267 125.038ZM93.1835 118.851C92.502 118.851 91.9444 119.408 91.9444 120.095V123.65C91.9444 124.337 92.499 124.893 93.1835 124.893H96.7267C97.4082 124.893 97.9657 124.337 97.9657 123.65V120.095C97.9657 119.408 97.4111 118.851 96.7267 118.851H93.1835Z" fill="#263238"/>
</g>
<g id="Group_562">
<path id="Vector_124" d="M58.0594 121.231H55.7287C55.5605 121.231 55.4219 121.368 55.4219 121.539V123.082C55.4219 123.25 55.5576 123.39 55.7287 123.39H55.9264V124.07L56.7141 123.39H58.0594C58.2275 123.39 58.3662 123.253 58.3662 123.082V121.539C58.3662 121.368 58.2305 121.231 58.0594 121.231ZM56.1565 122.593C56.0296 122.593 55.9293 122.49 55.9293 122.365C55.9293 122.238 56.0326 122.137 56.1565 122.137C56.2833 122.137 56.3836 122.241 56.3836 122.365C56.3836 122.49 56.2833 122.593 56.1565 122.593ZM56.8645 122.593C56.7377 122.593 56.6374 122.49 56.6374 122.365C56.6374 122.238 56.7406 122.137 56.8645 122.137C56.9914 122.137 57.0917 122.241 57.0917 122.365C57.0946 122.49 56.9914 122.593 56.8645 122.593ZM57.6227 122.593C57.4959 122.593 57.3956 122.49 57.3956 122.365C57.3956 122.238 57.4988 122.137 57.6227 122.137C57.7496 122.137 57.8499 122.241 57.8499 122.365C57.8528 122.49 57.7496 122.593 57.6227 122.593Z" fill="#BBF046"/>
</g>
<g id="Group_563">
<g id="Group_564">
<g id="Group_565">
<path id="Vector_125" d="M94.1433 122.687C94.1079 122.687 94.0754 122.661 94.0695 122.622C93.8955 121.148 94.99 120.677 95.0018 120.671C95.0372 120.656 95.0815 120.674 95.0992 120.713C95.1139 120.751 95.0962 120.793 95.0608 120.81C95.0195 120.828 94.0548 121.246 94.217 122.604C94.2229 122.646 94.1934 122.681 94.1521 122.687C94.1492 122.684 94.1462 122.687 94.1433 122.687Z" fill="#263238"/>
</g>
<g id="Group_566">
<path id="Vector_126" d="M94.1456 122.687C94.1249 122.687 94.1043 122.678 94.0895 122.66L93.6234 122.113C93.5968 122.08 93.5998 122.036 93.6322 122.009C93.6617 121.983 93.7089 121.986 93.7355 122.018L94.1397 122.495L94.4967 122.021C94.5203 121.988 94.5675 121.983 94.5999 122.006C94.6324 122.03 94.6383 122.077 94.6147 122.11L94.2016 122.658C94.1928 122.675 94.1721 122.684 94.1456 122.687C94.1485 122.687 94.1485 122.687 94.1456 122.687Z" fill="#263238"/>
</g>
</g>
<g id="Group_567">
<g id="Group_568">
<path id="Vector_127" d="M94.8778 123.075C94.8483 123.075 94.8217 123.057 94.8099 123.03C94.7952 122.992 94.8129 122.951 94.8483 122.933C94.8896 122.915 95.8543 122.498 95.692 121.139C95.6861 121.097 95.7156 121.062 95.7569 121.056C95.7953 121.053 95.8336 121.08 95.8395 121.121C96.0136 122.595 94.9191 123.066 94.9073 123.072C94.8955 123.072 94.8866 123.075 94.8778 123.075Z" fill="#263238"/>
</g>
<g id="Group_569">
<path id="Vector_128" d="M95.3546 121.748C95.3399 121.748 95.3222 121.742 95.3104 121.734C95.2779 121.71 95.272 121.663 95.2956 121.63L95.7086 121.082C95.7204 121.065 95.744 121.053 95.7647 121.053H95.7676C95.7883 121.053 95.8089 121.062 95.8237 121.079L96.2898 121.627C96.3164 121.66 96.3134 121.704 96.281 121.731C96.2515 121.757 96.2043 121.754 96.1777 121.722L95.7735 121.245L95.4166 121.719C95.3989 121.74 95.3782 121.748 95.3546 121.748Z" fill="#263238"/>
</g>
</g>
</g>
</g>
<g id="Group_570">
<g id="Group_571">
<path id="Vector_129" d="M56.8505 33.8354C59.2489 33.8354 61.1932 31.8844 61.1932 29.4777C61.1932 27.0711 59.2489 25.1201 56.8505 25.1201C54.4521 25.1201 52.5078 27.0711 52.5078 29.4777C52.5078 31.8844 54.4521 33.8354 56.8505 33.8354Z" fill="#EBEBEB"/>
</g>
<g id="Group_572">
<g id="Group_573">
<path id="Vector_130" d="M56.62 30.7508C56.5993 30.7508 56.5816 30.7419 56.5669 30.7271L55.434 29.5311C55.4074 29.5015 55.4074 29.4571 55.434 29.4305L56.5669 28.2345C56.5964 28.2049 56.6406 28.2049 56.6701 28.2315C56.6996 28.2611 56.6996 28.3055 56.6731 28.3352L55.5874 29.4808L56.6731 30.6265C56.7026 30.6561 56.6996 30.7034 56.6701 30.7301C56.6583 30.7419 56.6406 30.7508 56.62 30.7508Z" fill="#263238"/>
</g>
<g id="Group_574">
<path id="Vector_131" d="M58.5846 29.5513H55.4839C55.4426 29.5513 55.4102 29.5188 55.4102 29.4773C55.4102 29.4359 55.4426 29.4033 55.4839 29.4033H58.5846C58.6259 29.4033 58.6583 29.4359 58.6583 29.4773C58.6583 29.5188 58.6259 29.5513 58.5846 29.5513Z" fill="#263238"/>
</g>
</g>
</g>
</g>
<g id="Group_575">
<g id="Group_576">
<path id="Vector_132" d="M99.6434 106.295C99.9903 104.159 98.5454 102.145 96.4162 101.796C94.287 101.448 92.2797 102.898 91.9328 105.035C91.5859 107.171 93.0308 109.185 95.16 109.534C97.2892 109.882 99.2965 108.432 99.6434 106.295Z" fill="#BBF046"/>
</g>
<g id="Group_577">
<path id="Vector_133" d="M95.791 106.551C95.4016 106.551 95.0859 106.234 95.0859 105.844V104.304C95.0859 103.913 95.4016 103.597 95.791 103.597C96.1805 103.597 96.4961 103.913 96.4961 104.304V105.844C96.4961 106.234 96.1775 106.551 95.791 106.551ZM95.791 103.748C95.4842 103.748 95.2334 103.999 95.2334 104.307V105.847C95.2334 106.154 95.4842 106.406 95.791 106.406C96.0979 106.406 96.3486 106.154 96.3486 105.847V104.307C96.3486 103.996 96.0979 103.748 95.791 103.748Z" fill="#263238"/>
</g>
<g id="Group_578">
<path id="Vector_134" d="M95.7894 107.048C95.3675 107.048 95.0342 106.915 94.8011 106.655C94.3527 106.157 94.4235 105.376 94.4294 105.343C94.4323 105.302 94.4707 105.272 94.509 105.278C94.5503 105.281 94.5798 105.32 94.5739 105.358C94.5739 105.367 94.5061 106.11 94.9103 106.557C95.1168 106.785 95.4118 106.9 95.7894 106.9C96.1641 106.9 96.4621 106.785 96.6804 106.557C97.1111 106.107 97.0875 105.361 97.0875 105.355C97.0846 105.314 97.117 105.281 97.1583 105.278C97.2026 105.284 97.2321 105.308 97.235 105.349C97.235 105.382 97.2616 106.166 96.7866 106.661C96.5388 106.918 96.2054 107.048 95.7894 107.048Z" fill="#263238"/>
</g>
<g id="Group_579">
<path id="Vector_135" d="M95.7886 108.133C95.7473 108.133 95.7148 108.1 95.7148 108.059V106.975C95.7148 106.934 95.7473 106.901 95.7886 106.901C95.8299 106.901 95.8624 106.934 95.8624 106.975V108.059C95.8624 108.1 95.8299 108.133 95.7886 108.133Z" fill="#263238"/>
</g>
</g>
<g id="Group_580">
<g id="Group_581">
<path id="Vector_136" d="M76.3173 117.724C80.1104 117.724 83.1854 114.638 83.1854 110.832C83.1854 107.026 80.1104 103.94 76.3173 103.94C72.5242 103.94 69.4492 107.026 69.4492 110.832C69.4492 114.638 72.5242 117.724 76.3173 117.724Z" fill="#BBF046"/>
</g>
<g id="Group_582">
<path id="Vector_137" d="M75.706 108.925C75.1278 108.478 74.2486 108.641 73.93 109.286C73.7913 109.568 73.7884 109.881 74.0952 110.183C74.7265 110.805 76.0512 112.051 76.6265 112.593C76.9392 112.886 77.3729 113.04 77.8036 112.975C78.0898 112.931 78.3936 112.791 78.6385 112.457C79.2875 111.563 77.7298 110.864 77.7298 110.864L77.0483 111.581L75.4611 110.044L76.1574 109.275L75.706 108.925Z" fill="#263238"/>
</g>
</g>
</g>
</g>
</svg>
