<svg width="152" height="131" viewBox="0 0 152 131" fill="none" xmlns="http://www.w3.org/2000/svg">
<path d="M76.3025 130.122C117.984 130.122 151.773 109.682 151.773 84.4677C151.773 59.2536 117.984 38.8135 76.3025 38.8135C34.6213 38.8135 0.832031 59.2536 0.832031 84.4677C0.832031 109.682 34.6213 130.122 76.3025 130.122Z" fill="#F5F5F5"/>
<path d="M89.895 45.2874C86.0715 47.4949 86.0715 51.0717 89.895 53.2791C93.7185 55.4866 99.9138 55.4866 103.737 53.2791C107.561 51.0717 107.561 47.4949 103.737 45.2874C99.9138 43.08 93.7185 43.08 89.895 45.2874Z" fill="#E0E0E0"/>
<path d="M29.3302 87.3867L6.45245 74.3002C6.17731 74.142 6.17731 73.8859 6.45245 73.7277L68.9155 37.6655C69.1906 37.5073 69.6334 37.5073 69.9085 37.6655L92.7862 50.752C93.0614 50.9101 93.0614 51.1663 92.7862 51.3244L30.3232 87.3867C30.048 87.5448 29.6021 87.5448 29.3302 87.3867Z" fill="#E0E0E0"/>
<path d="M47.3125 107.376C50.404 107.376 52.9102 105.929 52.9102 104.144C52.9102 102.359 50.404 100.912 47.3125 100.912C44.221 100.912 41.7148 102.359 41.7148 104.144C41.7148 105.929 44.221 107.376 47.3125 107.376Z" fill="#E0E0E0"/>
<path d="M146.588 89.0826L86.9492 123.478L56.668 106.094L116.307 71.6982L146.588 89.0826Z" fill="#E0E0E0"/>
<path d="M12.2232 66.8602C12.2232 66.8602 12.3655 62.1701 11.2238 58.9285C10.0822 55.6869 7.85259 53.3467 5.5819 52.6193C3.3112 51.8919 0.939308 53.5807 3.07085 55.6269C5.20239 57.673 9.25359 60.203 9.98729 66.1517L12.2232 66.8602Z" fill="#BBF046"/>
<g opacity="0.15">
<path d="M12.2232 66.8602C12.2232 66.8602 12.3655 62.1701 11.2238 58.9285C10.0822 55.6869 7.85259 53.3467 5.5819 52.6193C3.3112 51.8919 0.939308 53.5807 3.07085 55.6269C5.20239 57.673 9.25359 60.203 9.98729 66.1517L12.2232 66.8602Z" fill="black"/>
</g>
<path d="M11.2982 64.8003C11.3077 64.8003 11.3172 64.8003 11.3235 64.8003C11.3931 64.7908 11.4405 64.7244 11.4279 64.6548C10.4032 58.0609 6.34252 54.4556 4.34064 53.4658C4.27739 53.4341 4.20149 53.4594 4.16987 53.5227C4.13824 53.5859 4.16354 53.6618 4.22679 53.6935C6.18756 54.6612 10.166 58.2032 11.1749 64.6927C11.1907 64.756 11.2413 64.7971 11.2982 64.8003Z" fill="white"/>
<path d="M1.94685 60.674C1.97531 61.1737 2.35481 61.5754 2.72483 61.9169C3.09168 62.2553 3.49332 62.6253 3.57238 63.1187C3.73367 64.1149 2.51926 64.9687 2.72483 65.9586C2.93672 66.9706 4.16378 67.2521 4.9639 67.5905C5.48255 67.8087 5.99488 68.1408 6.2036 68.6626C6.37754 69.0958 6.30797 69.586 6.28899 70.0509C6.25737 70.9048 6.40601 72.173 7.10493 72.758C7.91769 73.438 9.29656 73.8112 10.2706 73.3463C12.0922 72.4734 13.9423 71.0851 14.1162 68.9029C14.2174 67.6253 13.702 66.3128 12.7595 65.4463C12.399 65.1174 11.9847 64.8486 11.6431 64.5007C10.9442 63.786 11.0644 62.8119 10.8462 61.8979C10.6533 61.082 9.86265 60.6867 9.09415 60.5317C8.36677 60.3862 7.54768 60.5159 6.85509 60.2155C6.18147 59.9214 5.57743 59.4818 4.85637 59.2636C4.10369 59.0358 3.23716 59.0611 2.57935 59.5324C2.2125 59.798 1.92155 60.2218 1.94685 60.674Z" fill="#BBF046"/>
<path d="M10.7206 71.0006C10.7238 71.0006 10.7269 71.0006 10.7301 71.0006C10.7933 71.007 10.8471 70.9627 10.8534 70.8994C11.584 63.847 5.18934 60.3524 3.57012 59.8654C3.51004 59.8496 3.44679 59.8812 3.43097 59.9413C3.412 60.0014 3.44679 60.0646 3.50687 60.0804C5.09446 60.558 11.3468 63.9735 10.632 70.8741C10.6257 70.9374 10.6637 70.988 10.7206 71.0006Z" fill="white"/>
<path d="M4.46238 64.9014C4.48452 64.9046 4.50666 64.9046 4.5288 64.8919C4.55093 64.8824 6.91967 63.8388 9.61097 65.3473C9.66474 65.3758 9.73431 65.36 9.76594 65.303C9.79756 65.2493 9.77542 65.1797 9.72166 65.1481C6.92283 63.5826 4.45922 64.6737 4.43392 64.6863C4.37699 64.7116 4.35169 64.7781 4.37699 64.835C4.39597 64.8729 4.4276 64.8951 4.46238 64.9014Z" fill="white"/>
<path d="M89.2955 37.6709C89.2955 37.5918 89.3493 37.5128 89.4537 37.4495C89.6656 37.3293 90.004 37.3293 90.2158 37.4495C90.3202 37.5096 90.374 37.5887 90.374 37.6709L88.4543 48.9991C88.4512 49.0528 88.4164 49.1097 88.3436 49.1509C88.195 49.2362 87.9546 49.2362 87.806 49.1509C87.7333 49.1097 87.6953 49.0528 87.6953 48.9991L89.2955 37.6709Z" fill="#455A64"/>
<path d="M104.09 37.6709C104.09 37.5918 104.036 37.5128 103.932 37.4495C103.72 37.3293 103.382 37.3293 103.17 37.4495C103.065 37.5096 103.012 37.5887 103.012 37.6709L104.931 48.9991C104.935 49.0528 104.969 49.1097 105.042 49.1509C105.191 49.2362 105.431 49.2362 105.58 49.1509C105.652 49.1097 105.69 49.0528 105.69 48.9991L104.09 37.6709Z" fill="#455A64"/>
<path d="M97.3011 38.5283C97.3011 38.4492 97.2473 38.3702 97.143 38.3069C96.9311 38.1868 96.5927 38.1868 96.3808 38.3069C96.2764 38.367 96.2227 38.4461 96.2227 38.5283L96.3808 52.0038C96.3839 52.0576 96.4187 52.1145 96.4915 52.1556C96.6401 52.241 96.8805 52.241 97.0291 52.1556C97.1018 52.1145 97.1398 52.0576 97.1398 52.0038L97.3011 38.5283Z" fill="#455A64"/>
<path d="M106.414 33.9402H106.404C106.404 32.5139 105.471 31.0876 103.583 29.9965C99.8103 27.8176 93.6971 27.8176 89.9242 29.9965C88.0393 31.0844 87.1032 32.5107 87.1032 33.9402H87.0938V34.7055C87.1159 36.1129 88.0615 37.517 89.921 38.5923C93.6939 40.7713 99.8071 40.7713 103.58 38.5923C105.443 37.517 106.385 36.1129 106.407 34.7055V33.9402H106.414Z" fill="#BBF046"/>
<path d="M89.9273 29.9971C86.1544 32.1761 86.1544 35.7055 89.9273 37.8813C93.7002 40.0603 99.8134 40.0603 103.586 37.8813C107.359 35.7023 107.359 32.1729 103.586 29.9971C99.8134 27.8213 93.7002 27.8213 89.9273 29.9971Z" fill="#BBF046"/>
<path opacity="0.45" d="M89.9273 29.9971C86.1544 32.1761 86.1544 35.7055 89.9273 37.8813C93.7002 40.0603 99.8134 40.0603 103.586 37.8813C107.359 35.7023 107.359 32.1729 103.586 29.9971C99.8134 27.8213 93.7002 27.8213 89.9273 29.9971Z" fill="white"/>
<g opacity="0.05">
<path d="M98.8765 32.0956C100.078 32.7914 100.078 33.9172 98.8765 34.6098C97.6747 35.3056 95.7234 35.3056 94.5185 34.6098C93.3167 33.9141 93.3167 32.7882 94.5185 32.0956C95.7234 31.403 97.6747 31.403 98.8765 32.0956Z" fill="black"/>
</g>
<path d="M94.7818 33.5085C93.735 32.4396 93.1183 29.7704 94.1398 28.9229H99.339C100.361 29.7704 99.747 32.4396 98.7002 33.5085C98.6907 33.518 98.6812 33.5275 98.6717 33.537C98.6591 33.5496 98.6464 33.5623 98.637 33.5718C98.6085 33.6002 98.5769 33.6287 98.5421 33.6572C98.5326 33.6635 98.5263 33.6698 98.5168 33.6761C98.4915 33.6951 98.4662 33.7172 98.4377 33.7362C98.3934 33.7678 98.3492 33.7963 98.3017 33.8216C97.4384 34.3181 96.0437 34.3181 95.1803 33.8216C95.1329 33.7963 95.0886 33.7678 95.0443 33.733C95.019 33.7141 94.9937 33.6951 94.9716 33.6761C94.9621 33.6666 94.9494 33.6603 94.94 33.6508C94.9083 33.6255 94.8767 33.5971 94.8482 33.5686C94.8356 33.556 94.8198 33.5401 94.8071 33.5275C94.7976 33.5243 94.7882 33.518 94.7818 33.5085Z" fill="#EBEBEB"/>
<path d="M98.8905 28.5801C100.076 29.2664 100.076 30.3764 98.8905 31.0595C97.7045 31.7458 95.7817 31.7458 94.5926 31.0595C93.4066 30.3733 93.4066 29.2632 94.5926 28.5801C95.7817 27.8939 97.7045 27.8939 98.8905 28.5801Z" fill="#FAFAFA"/>
<path d="M98.0468 29.0646C98.7679 29.4821 98.7679 30.1557 98.0468 30.5732C97.3258 30.9906 96.1556 30.9906 95.4314 30.5732C94.7104 30.1557 94.7104 29.4821 95.4314 29.0646C96.1556 28.6503 97.3258 28.6503 98.0468 29.0646Z" fill="#EBEBEB"/>
<path d="M95.4294 29.7828C96.1504 29.3654 97.3205 29.3654 98.0448 29.7828C98.244 29.8998 98.3895 30.0358 98.478 30.1781C98.3895 30.3236 98.2472 30.4596 98.0448 30.5734C97.3237 30.9909 96.1536 30.9909 95.4294 30.5734C95.2301 30.4564 95.0846 30.3204 94.9961 30.1781C95.0846 30.0358 95.227 29.8998 95.4294 29.7828Z" fill="#E0E0E0"/>
<path d="M97.8886 30.1768C97.8886 30.1768 98.3977 29.6929 98.8342 28.9212C99.2706 28.1496 99.3528 27.1154 99.1251 26.9858C98.9006 26.8593 97.9803 27.8903 97.9803 27.8903C97.9803 27.8903 98.1163 27.2609 98.0783 26.5715C98.0404 25.8852 97.8728 25.259 97.6767 25.1325C97.4806 25.006 97.0379 25.8726 96.8513 26.5019C96.6615 27.1313 96.5508 27.6467 96.5508 27.6467C96.5508 27.6467 96.4212 26.796 96.2124 26.2015C95.9847 25.55 95.776 25.4014 95.6147 25.4646C95.4534 25.5279 95.3459 25.8346 95.3016 26.7043C95.27 27.3115 95.3396 27.9472 95.3396 27.9472C95.3396 27.9472 95.017 27.5898 94.6565 27.2451C94.2612 26.8656 94.0935 26.815 93.9797 26.8846C93.8658 26.9573 93.8342 27.5487 94.4477 28.6524C94.9885 29.6296 95.6021 30.1736 95.6021 30.1736C95.6021 30.1736 96.4433 30.7239 97.8886 30.1768Z" fill="#BBF046"/>
<path opacity="0.3" d="M97.8886 30.1768C97.8886 30.1768 98.3977 29.6929 98.8342 28.9212C99.2706 28.1496 99.3528 27.1154 99.1251 26.9858C98.9006 26.8593 97.9803 27.8903 97.9803 27.8903C97.9803 27.8903 98.1163 27.2609 98.0783 26.5715C98.0404 25.8852 97.8728 25.259 97.6767 25.1325C97.4806 25.006 97.0379 25.8726 96.8513 26.5019C96.6615 27.1313 96.5508 27.6467 96.5508 27.6467C96.5508 27.6467 96.4212 26.796 96.2124 26.2015C95.9847 25.55 95.776 25.4014 95.6147 25.4646C95.4534 25.5279 95.3459 25.8346 95.3016 26.7043C95.27 27.3115 95.3396 27.9472 95.3396 27.9472C95.3396 27.9472 95.017 27.5898 94.6565 27.2451C94.2612 26.8656 94.0935 26.815 93.9797 26.8846C93.8658 26.9573 93.8342 27.5487 94.4477 28.6524C94.9885 29.6296 95.6021 30.1736 95.6021 30.1736C95.6021 30.1736 96.4433 30.7239 97.8886 30.1768Z" fill="black"/>
<path d="M97.313 14.7177C97.1232 14.5754 96.8702 14.5533 96.5761 14.6798C95.8519 14.9897 95.1656 16.0871 95.0423 17.1276C94.9696 17.7474 95.1119 18.206 95.3902 18.4115C95.5135 18.5001 95.9879 18.8575 96.1144 18.9492C96.3041 19.0883 96.5571 19.1105 96.8481 18.984C97.5723 18.674 98.2586 17.5766 98.3819 16.5362C98.4547 15.9226 98.3155 15.4641 98.0404 15.2553C97.917 15.1636 97.4363 14.8094 97.313 14.7177Z" fill="#BBF046"/>
<path opacity="0.3" d="M97.313 14.7177C97.1232 14.5754 96.8702 14.5533 96.5761 14.6798C95.8519 14.9897 95.1656 16.0871 95.0423 17.1276C94.9696 17.7474 95.1119 18.206 95.3902 18.4115C95.5135 18.5001 95.9879 18.8575 96.1144 18.9492C96.3041 19.0883 96.5571 19.1105 96.8481 18.984C97.5723 18.674 98.2586 17.5766 98.3819 16.5362C98.4547 15.9226 98.3155 15.4641 98.0404 15.2553C97.917 15.1636 97.4363 14.8094 97.313 14.7177Z" fill="black"/>
<path d="M98.5794 11.1373C97.9816 10.6977 97.1879 10.625 96.2676 11.0203C94.6958 11.6939 93.4434 13.2689 92.5326 15.432C92.346 15.8716 92.3618 16.3112 92.5674 16.4757L92.5706 16.4788C92.8109 16.6718 93.2252 16.9501 93.4276 17.1145L93.4308 17.1177C93.6869 17.3232 94.1392 17.0133 94.37 16.4599C95.012 14.9292 95.8153 13.9014 96.9222 13.427C97.346 13.2436 97.735 13.2056 98.0702 13.2847C98.1872 13.4618 98.2821 13.6705 98.3517 13.9109C98.3801 14.0089 98.4276 14.0785 98.4845 14.1228C98.6142 14.2208 99.2846 14.7173 99.3447 14.7616C99.5281 14.8976 99.8317 14.7742 100.085 14.4232L100.088 14.42C100.354 14.0564 100.48 13.5535 100.385 13.2373C100.192 12.5921 99.8728 12.0987 99.4554 11.7857C99.3068 11.675 98.7248 11.2449 98.5794 11.1373Z" fill="#BBF046"/>
<path opacity="0.3" d="M98.5794 11.1373C97.9816 10.6977 97.1879 10.625 96.2676 11.0203C94.6958 11.6939 93.4434 13.2689 92.5326 15.432C92.346 15.8716 92.3618 16.3112 92.5674 16.4757L92.5706 16.4788C92.8109 16.6718 93.2252 16.9501 93.4276 17.1145L93.4308 17.1177C93.6869 17.3232 94.1392 17.0133 94.37 16.4599C95.012 14.9292 95.8153 13.9014 96.9222 13.427C97.346 13.2436 97.735 13.2056 98.0702 13.2847C98.1872 13.4618 98.2821 13.6705 98.3517 13.9109C98.3801 14.0089 98.4276 14.0785 98.4845 14.1228C98.6142 14.2208 99.2846 14.7173 99.3447 14.7616C99.5281 14.8976 99.8317 14.7742 100.085 14.4232L100.088 14.42C100.354 14.0564 100.48 13.5535 100.385 13.2373C100.192 12.5921 99.8728 12.0987 99.4554 11.7857C99.3068 11.675 98.7248 11.2449 98.5794 11.1373Z" fill="black"/>
<path d="M101.667 10.0587C101.354 9.27124 100.905 8.65771 100.352 8.24342C100.203 8.13273 99.6213 7.70263 99.4758 7.5951C98.5175 6.88354 97.2367 6.76336 95.7598 7.39587C93.4227 8.39839 91.5347 10.3686 90.0451 13.5217C89.8269 13.9866 89.8143 14.4768 90.0325 14.657L90.0356 14.6602C90.2823 14.8626 90.6713 15.1156 90.8895 15.2927L90.8927 15.2959C91.1394 15.4983 91.5663 15.2105 91.813 14.6823C93.0242 12.1017 94.4948 10.6153 96.405 9.79622C97.3917 9.37244 98.2709 9.36296 98.9856 9.69186C99.2607 9.99546 99.4884 10.375 99.6655 10.8209C99.6972 10.8999 99.7414 10.9569 99.792 10.9948C99.9185 11.0865 100.598 11.5925 100.649 11.6305C100.836 11.7696 101.136 11.6526 101.389 11.3016C101.68 10.9094 101.791 10.375 101.667 10.0587Z" fill="#BBF046"/>
<path opacity="0.3" d="M101.667 10.0587C101.354 9.27124 100.905 8.65771 100.352 8.24342C100.203 8.13273 99.6213 7.70263 99.4758 7.5951C98.5175 6.88354 97.2367 6.76336 95.7598 7.39587C93.4227 8.39839 91.5347 10.3686 90.0451 13.5217C89.8269 13.9866 89.8143 14.4768 90.0325 14.657L90.0356 14.6602C90.2823 14.8626 90.6713 15.1156 90.8895 15.2927L90.8927 15.2959C91.1394 15.4983 91.5663 15.2105 91.813 14.6823C93.0242 12.1017 94.4948 10.6153 96.405 9.79622C97.3917 9.37244 98.2709 9.36296 98.9856 9.69186C99.2607 9.99546 99.4884 10.375 99.6655 10.8209C99.6972 10.8999 99.7414 10.9569 99.792 10.9948C99.9185 11.0865 100.598 11.5925 100.649 11.6305C100.836 11.7696 101.136 11.6526 101.389 11.3016C101.68 10.9094 101.791 10.375 101.667 10.0587Z" fill="black"/>
<path d="M98.38 16.536C98.2566 17.5764 97.5704 18.6738 96.8461 18.9837C96.1219 19.2937 95.638 18.7023 95.7614 17.6587C95.8847 16.6182 96.571 15.5208 97.2952 15.2109C98.0194 14.9041 98.5033 15.4955 98.38 16.536Z" fill="#BBF046"/>
<path d="M97.1269 11.6549C95.5552 12.3286 94.306 13.9035 93.392 16.0667C93.2054 16.5062 93.2212 16.9458 93.4268 17.1103L93.4299 17.1135C93.6861 17.319 94.1383 17.0091 94.3692 16.4556C95.0112 14.925 95.8145 13.8972 96.9214 13.4228C98.0283 12.9484 98.8853 13.4323 99.211 14.5455C99.3281 14.9503 99.7518 14.887 100.09 14.4253L100.093 14.4221C100.359 14.0585 100.486 13.5556 100.391 13.2394C99.9131 11.6644 98.6987 10.9813 97.1269 11.6549Z" fill="#BBF046"/>
<path d="M96.6114 8.03058C94.2743 9.0331 92.3862 11.0034 90.8967 14.1564C90.6785 14.6213 90.6658 15.1115 90.884 15.2917L90.8872 15.2949C91.1339 15.4973 91.5608 15.2095 91.8075 14.6814C93.0187 12.1007 94.4893 10.6144 96.3995 9.79527C98.3096 8.97617 99.8245 9.69407 100.52 11.4556C100.663 11.8161 101.061 11.7497 101.387 11.3006C101.671 10.9053 101.782 10.374 101.659 10.0578C100.805 7.9104 98.9548 7.02806 96.6114 8.03058Z" fill="#BBF046"/>
<path d="M69.6668 39.6557L70.9729 38.903L78.0854 1.6927C78.3226 0.449822 77.6268 -0.0435333 76.5326 0.588972L19.4237 33.5172C18.3295 34.1497 17.2479 35.6709 17.0107 36.9137L10.0342 73.4125C9.95195 73.8362 10.148 74.2663 10.5244 74.4845L26.5267 83.7508L86.2605 49.2634L69.6668 39.6557Z" fill="#455A64"/>
<path d="M17.728 37.3705L10.7578 73.8028L71.7914 38.7968L78.8027 2.15265C79.0399 0.909781 78.3441 0.416428 77.2499 1.04893L20.1442 33.9771C19.0468 34.6096 17.9684 36.1277 17.728 37.3705Z" fill="#263238"/>
<path d="M70.4948 39.3135L10.7578 73.8008L26.9879 83.1745L86.7217 48.6872L70.4948 39.3135Z" fill="#37474F"/>
<path d="M78.2165 1.75462L20.668 34.9232C19.4062 35.6506 19.0109 36.8302 19.2354 38.3861L25.4751 81.9784C25.6964 83.5312 26.9361 84.442 28.198 83.7146L85.2405 50.7927C86.5023 50.0654 87.3435 48.2121 87.1222 46.6593L80.9046 3.25049C80.6833 1.69769 79.4783 1.02724 78.2165 1.75462Z" fill="#455A64"/>
<path d="M82.1055 2.77442C81.6532 2.59732 81.1093 2.64792 80.5527 2.96734L23.5102 35.8892C22.9062 36.2371 22.397 36.8475 22.0554 37.559L20.2148 36.7779C20.6196 35.8955 21.3249 35.573 21.9289 35.2188L78.9682 2.29688C79.5501 1.96482 80.1162 1.92687 80.5811 2.13243V2.12927L82.1055 2.77442Z" fill="#BBF046"/>
<path opacity="0.1" d="M82.1055 2.77442C81.6532 2.59732 81.1093 2.64792 80.5527 2.96734L23.5102 35.8892C22.9062 36.2371 22.397 36.8475 22.0554 37.559L20.2148 36.7779C20.6196 35.8955 21.3249 35.573 21.9289 35.2188L78.9682 2.29688C79.5501 1.96482 80.1162 1.92687 80.5811 2.13243V2.12927L82.1055 2.77442Z" fill="black"/>
<path d="M27.3309 84.1962C26.7648 83.9622 26.3442 83.374 26.224 82.5201L20.0444 39.3516C19.9053 38.3807 19.861 37.511 20.212 36.7773L22.0526 37.5585C22.0052 37.6597 21.9609 37.764 21.9166 37.8716C21.8818 37.957 21.8534 38.0424 21.8281 38.1277C21.8217 38.1404 21.8186 38.1562 21.8154 38.1657C21.7806 38.2637 21.7522 38.3649 21.73 38.463C21.7016 38.5673 21.6794 38.6717 21.6636 38.7761C21.6478 38.8551 21.6383 38.9342 21.632 39.0132C21.5846 39.3516 21.5846 39.6932 21.632 40.0221L27.8464 83.4309C27.9697 84.2943 28.3966 84.8857 28.9691 85.1165L27.3309 84.1962Z" fill="#BBF046"/>
<path opacity="0.3" d="M28.9654 85.1132L28.8705 85.0752L27.3272 84.1992V84.196C26.7611 83.9652 26.3437 83.3769 26.2172 82.523L20.0376 39.3546C19.8985 38.3837 19.851 37.514 20.2052 36.7803L21.7707 37.4412C21.4987 38.0421 21.4418 38.7663 21.5588 39.5981L21.622 40.0219L27.8364 83.4307C27.8427 83.4845 27.8522 83.5414 27.8649 83.592C27.868 83.6204 27.8744 83.6521 27.8838 83.6805C27.8902 83.7185 27.8997 83.7596 27.9123 83.7944C27.9218 83.8355 27.9344 83.8735 27.9471 83.9114C27.9597 83.9494 27.9692 83.9873 27.985 84.0252C28.0009 84.0695 28.0167 84.1138 28.0388 84.1549C28.0578 84.1992 28.0768 84.2403 28.0989 84.2814C28.121 84.3194 28.14 84.3605 28.1621 84.3984C28.2317 84.5123 28.3076 84.6166 28.3898 84.7084C28.4183 84.7368 28.4468 84.7684 28.4752 84.7969C28.5037 84.8254 28.5353 84.8507 28.5638 84.876C28.6903 84.9772 28.8231 85.0562 28.9654 85.1132Z" fill="black"/>
<path d="M80.5478 2.969L22.9961 36.1344C21.7343 36.8618 21.339 38.0414 21.5635 39.5974L27.838 83.43C28.0593 84.9828 29.2643 85.6532 30.5261 84.9258L87.5654 52.0071C88.8273 51.2797 89.6685 49.4265 89.4471 47.8737L83.2359 4.46488C83.0145 2.90891 81.8096 2.24162 80.5478 2.969Z" fill="#27DEBF"/>
<path d="M80.5478 2.969L22.9961 36.1344C21.7343 36.8618 21.339 38.0414 21.5635 39.5974L27.838 83.43C28.0593 84.9828 29.2643 85.6532 30.5261 84.9258L87.5654 52.0071C88.8273 51.2797 89.6685 49.4265 89.4471 47.8737L83.2359 4.46488C83.0145 2.90891 81.8096 2.24162 80.5478 2.969Z" fill="#BBF046"/>
<path d="M84.218 51.7561L33.3045 81.1391C32.6499 81.5155 32.0269 81.1708 31.913 80.3643L25.8852 38.2838C25.7714 37.4773 26.2078 36.5191 26.8593 36.1427L77.7728 6.75971C78.4274 6.38337 79.0505 6.72808 79.1643 7.53453L85.1889 49.6119C85.3091 50.4184 84.8727 51.3766 84.218 51.7561Z" fill="#263238"/>
<path d="M25.8852 38.285L31.9099 80.3624C31.913 80.3941 31.9225 80.4257 31.9288 80.4541L82.8423 51.0711C83.497 50.6948 83.9334 49.7334 83.8164 48.9301L77.7728 6.75781L26.8593 36.1408C26.2078 36.5203 25.7714 37.4786 25.8852 38.285Z" fill="#27DEBF"/>
<path opacity="0.85" d="M25.8852 38.285L31.9099 80.3624C31.913 80.3941 31.9225 80.4257 31.9288 80.4541L82.8423 51.0711C83.497 50.6948 83.9334 49.7334 83.8164 48.9301L77.7728 6.75781L26.8593 36.1408C26.2078 36.5203 25.7714 37.4786 25.8852 38.285Z" fill="white"/>
<path d="M27.6466 61.8173C27.7035 62.2221 27.4853 62.706 27.1564 62.8957C26.8275 63.0855 26.5144 62.9115 26.4543 62.5067C26.3974 62.1019 26.6156 61.6181 26.9445 61.4283C27.2734 61.2354 27.5865 61.4093 27.6466 61.8173Z" fill="#263238"/>
<path d="M25.9951 54.7927C25.739 54.9414 25.5682 55.3145 25.6125 55.6308L26.1501 59.3784C26.1944 59.6946 26.4379 59.8275 26.694 59.682C26.9502 59.5333 27.121 59.1602 27.0767 58.8439L26.5391 55.0963C26.4948 54.7832 26.2513 54.6472 25.9951 54.7927Z" fill="#263238"/>
<path d="M68.3348 59.4351L61.3045 63.4926L59.66 64.4414L48.6133 70.8139C49.3944 63.8721 50.6942 54.0999 52.1079 50.9785L67.6011 51.3011L68.3348 59.4351Z" fill="#646D64"/>
<path d="M65.695 55.1006C64.6577 58.5825 61.4983 60.2713 61.4983 60.2713L61.3086 63.4939L59.6641 64.4427L60.129 59.6009C60.1258 59.5977 64.158 57.9722 65.695 55.1006Z" fill="#595A59"/>
<path d="M62.2305 30.0168C63.4512 29.2483 65.7788 28.638 67.7617 29.3179C70.6618 27.6576 73.2044 27.9833 75.6459 28.3502C76.2531 28.4419 78.255 28.1541 78.6313 28.4988C78.9191 28.7613 79.0013 29.0681 79.1405 29.6753L77.9229 32.9169C75.8072 33.3375 74.5896 33.853 71.5599 34.3337C69.1722 34.71 67.6415 34.9441 67.3791 36.0731C63.9699 33.5589 62.2305 30.0168 62.2305 30.0168Z" fill="#FFA8A7"/>
<path d="M80.1703 31.7354C80.5719 31.2325 80.5846 30.6158 80.5371 29.8094C80.4644 28.5159 80.243 25.9732 80.0501 24.8569C79.7402 23.0764 79.6231 21.96 79.2531 20.8215C78.7756 19.3478 78.9464 18.4306 78.2728 17.4313C77.5991 16.4287 74.3797 15.695 73.6903 17.1656C73.2918 18.01 74.7434 18.4338 74.7845 19.0789C74.7845 19.0789 73.6523 19.9645 74.4556 20.2681C75.0913 20.5084 75.7016 20.6096 75.8914 22.6115C76.059 24.3793 75.4676 26.3496 75.4676 29.0219C75.4676 30.1225 76.021 33.3609 76.021 33.3609C77.3936 32.9782 79.2721 32.8612 80.1703 31.7354Z" fill="#FFA8A7"/>
<path d="M74.5655 19.9935C74.6604 20.3413 76.2575 20.6323 76.618 20.5564C76.9785 20.4773 77.0544 20.2117 77.0544 20.2117L78.1518 20.5469L78.193 19.6329L74.6351 19.459C74.6383 19.4621 74.5307 19.8164 74.5655 19.9935Z" fill="#F28F8F"/>
<path d="M77.9266 29.6156C77.9266 29.6156 77.7115 28.4581 75.5231 27.6738C75.5104 27.8857 75.4883 28.1324 75.4883 28.3285C76.4244 28.5688 77.1296 28.8566 77.9266 29.6156Z" fill="#F28F8F"/>
<path d="M73.8493 16.3767C73.8493 16.3735 73.8493 16.3704 73.8461 16.3672C73.5773 15.3552 72.54 14.7511 71.528 15.02C71.1896 15.1085 70.8986 15.2888 70.6678 15.5196C70.6646 15.5228 70.6583 15.526 70.6551 15.5291C70.6425 15.5418 70.6298 15.5544 70.6172 15.5702C70.6045 15.5861 70.5887 15.5987 70.5761 15.6145C69.8487 16.4083 69.4818 17.8314 69.7538 18.8561C69.7538 18.8593 69.757 18.8624 69.757 18.8656C69.757 18.8688 69.757 18.8719 69.7601 18.8751C69.7759 18.932 69.7917 18.9858 69.8139 19.0395V19.0427C70.1491 19.9503 71.1263 20.4722 72.0783 20.2191C72.2174 20.1812 72.3471 20.1306 72.4672 20.0673C72.6285 19.9914 72.793 19.8776 72.9511 19.7195C73.7291 18.9447 74.1307 17.4551 73.8493 16.3957C73.8524 16.3893 73.8524 16.3862 73.8493 16.3767Z" fill="#455A64"/>
<path d="M71.9372 15.8772C71.1593 16.652 70.7576 18.1416 71.0391 19.201C71.3206 20.2636 72.1808 20.4945 72.9587 19.7197C73.7367 18.9449 74.1384 17.4553 73.8569 16.3959C73.5754 15.3364 72.7152 15.1024 71.9372 15.8772Z" fill="#37474F"/>
<path d="M79.3182 18.7269L79.315 18.7237C79.3118 18.7237 79.3055 18.7206 79.3024 18.7206L72.8034 16.9179V16.9211C72.6674 16.8768 72.5029 16.9243 72.348 17.0792C72.0475 17.3765 71.8957 17.9489 72.0032 18.3569C72.057 18.5656 72.1709 18.6889 72.3068 18.7206L78.8122 20.5264C78.9482 20.5675 79.1094 20.5169 79.2612 20.3651C79.5617 20.0678 79.7135 19.4954 79.606 19.0874C79.5522 18.8882 79.4478 18.768 79.3182 18.7269Z" fill="#263238"/>
<path d="M78.5267 20.1663C78.6342 20.5743 78.9663 20.6629 79.2636 20.3656C79.564 20.0683 79.7158 19.4959 79.6083 19.0879C79.5007 18.6799 79.1687 18.5914 78.8714 18.8887C78.571 19.186 78.4192 19.7584 78.5267 20.1663Z" fill="#455A64"/>
<path d="M78.3893 17.647C78.092 16.7741 78.1901 16.5939 77.4659 16.4357C76.7416 16.2808 76.7385 15.6767 76.0143 15.7621C75.29 15.8475 74.7492 16.091 74.4267 15.993C74.1041 15.895 73.4621 16.2428 73.1648 16.7267C72.8675 17.2106 72.8739 17.9285 72.915 18.4155C72.9561 18.9025 73.4558 19.5129 74.4994 19.7817C75.5209 20.0442 76.5898 20.2719 76.8112 19.7691C76.982 19.3801 76.827 19.0417 76.8776 18.8076C76.9282 18.5705 77.0516 18.3933 77.3773 18.1941L77.8865 18.3364L78.3893 17.647Z" fill="#FFA8A7"/>
<path d="M81.5719 18.5056C81.5719 18.5024 81.5719 18.4993 81.5688 18.4961C81.2999 17.4841 80.2626 16.88 79.2506 17.1489C78.9122 17.2374 78.6213 17.4177 78.3904 17.6485C78.3873 17.6517 78.3809 17.6549 78.3778 17.658C78.3651 17.6707 78.3525 17.6833 78.3398 17.6991C78.3272 17.715 78.3114 17.7276 78.2987 17.7434C77.5713 18.5372 77.2045 19.9603 77.4765 20.985C77.4765 20.9882 77.4796 20.9913 77.4796 20.9945C77.4796 20.9977 77.4796 21.0008 77.4828 21.004C77.4986 21.0609 77.5144 21.1147 77.5365 21.1684V21.1716C77.8718 22.0792 78.849 22.6011 79.8009 22.3481C79.9401 22.3101 80.0697 22.2595 80.1899 22.1963C80.3512 22.1204 80.5156 22.0065 80.6738 21.8484C81.4517 21.0736 81.8534 19.584 81.5719 18.5246C81.5751 18.5182 81.5719 18.5119 81.5719 18.5056Z" fill="#455A64"/>
<path d="M79.6521 18.0071C78.8741 18.7819 78.4725 20.2715 78.7539 21.3309C79.0354 22.3935 79.8956 22.6244 80.6736 21.8496C81.4516 21.0747 81.8532 19.5852 81.5717 18.5257C81.2903 17.4663 80.4332 17.2323 79.6521 18.0071Z" fill="#37474F"/>
<path d="M75.8483 22.2577C75.687 21.7295 74.6719 21.0686 74.0488 20.7302C73.4132 20.3855 73.0938 19.9269 73.0242 19.5411C72.9926 19.364 72.9957 19.1236 73.1349 18.9908C73.274 18.858 73.448 18.7568 73.6187 18.6651C73.8464 18.5417 74.0773 18.4247 74.3018 18.3014C74.5612 18.1622 74.8078 17.9851 75.0545 17.827C75.1146 17.789 75.1779 17.7479 75.2506 17.7289C75.3202 17.71 75.3992 17.7131 75.4593 17.7542C75.706 17.925 75.6744 18.4057 75.5732 18.6429C75.472 18.8801 75.2822 19.0635 75.102 19.247C74.9565 19.3956 74.7572 19.5917 74.713 19.8036C74.675 20.0028 74.9249 20.1546 75.0735 20.221C75.3455 20.3475 75.6586 20.4582 75.9242 20.512C76.3069 20.5942 75.7345 21.8877 75.8483 22.2577Z" fill="#FFA8A7"/>
<path d="M66.8228 34.8854C66.3895 32.3997 64.2105 30.2144 61.0448 29.8791L56.7944 29.8096C56.7944 29.8096 55.697 29.993 53.7995 30.3915C51.902 30.79 50.9184 31.6849 50.754 33.1966C50.6433 34.2118 50.6844 34.7905 51.026 36.4667L51.4434 39.3667C51.4434 39.3667 52.9108 43.4021 53.0342 44.9486C53.1607 46.5298 53.0531 48.6962 52.1075 50.9795C57.7052 53.44 62.9234 54.2179 67.2592 51.0934C67.8885 47.3141 68.0087 41.6722 66.8228 34.8854Z" fill="#FFA8A7"/>
<path d="M67.9569 38.7234C67.4572 32.7557 62.2358 30.017 62.2358 30.017L58.7065 29.2959L53.7287 30.4028C53.7287 30.4028 54.9715 36.5824 51.4453 39.3622C51.4453 39.3622 51.7078 40.4628 52.3118 42.7335C52.9064 44.9599 53.3618 48.0433 51.5244 51.6518C51.5244 51.6518 53.074 53.1825 58.95 53.5967C64.826 54.011 67.6027 51.2976 67.6027 51.2976C67.6027 51.2976 68.4565 44.6911 67.9569 38.7234Z" fill="#BCE1C8"/>
<path opacity="0.5" d="M57.8518 53.5019C58.1523 52.9959 58.4938 52.3128 58.4749 51.8732C58.4432 51.0953 55.559 50.76 55.0277 50.4533C54.4964 50.1465 54.6862 47.6355 54.4901 45.6114C54.294 43.5874 53.029 40.2351 52.4028 38.6223L52.542 38.1953C52.2415 38.6254 51.8778 39.0207 51.4414 39.3655C51.4414 39.3655 51.7039 40.466 52.3079 42.7367C52.9025 44.9631 53.3579 48.0466 51.5205 51.655C51.5236 51.655 52.8804 52.9896 57.8518 53.5019Z" fill="#819481"/>
<path d="M53.7248 30.401C53.7248 30.401 51.2992 29.7622 49.6989 30.7046C48.3833 31.4826 47.6686 32.4219 47.0519 34.3004C46.081 35.1005 45.088 36.005 44.2784 37.1088C42.8236 39.098 41.7515 41.4193 40.9356 42.6938C40.496 43.3832 39.9078 44.0442 40.0596 45.0372C40.1197 45.423 40.3632 45.6444 40.8217 46.0713L45.2809 44.8285C46.5933 43.399 49.4965 41.356 51.2897 39.0316L51.4447 39.3605C52.8615 38.5382 53.981 36.8146 54.0917 34.9108C54.3004 31.2391 53.7248 30.401 53.7248 30.401Z" fill="#FFA8A7"/>
<path d="M40.3281 45.5714C40.8215 46.0743 41.6248 47.2286 43.1776 48.56C44.3603 49.572 46.9473 51.0869 47.9245 51.6498C49.2654 52.4215 49.7746 52.801 50.8087 53.4145C51.5867 53.8794 53.3135 54.7712 54.9548 54.7775C55.8877 54.7807 57.0927 54.1767 57.8295 52.744C58.2059 52.0135 57.0231 51.5454 55.4323 51.2893C53.4463 50.9699 53.0605 50.5429 52.5703 50.2836C52.2414 50.1096 52.2667 49.8883 52.3773 49.5341C52.4691 49.2811 52.5323 49.0249 52.5766 48.7592C52.5007 48.7055 52.118 48.7529 51.6784 49.1071C51.1503 49.5341 50.7012 49.6384 49.4394 48.3418C48.1364 47.004 47.6019 45.6821 45.8942 44.2368C44.1864 42.7916 40.3281 45.5714 40.3281 45.5714Z" fill="#FFA8A7"/>
<path d="M52.3699 38.0827C52.4015 37.602 52.3952 37.3711 52.3952 37.3711C51.9177 38.1997 51.2852 39.0346 51.2852 39.0346L51.4401 39.3635C51.7817 39.1642 52.1042 38.9144 52.4015 38.6203C52.3699 38.478 52.3604 38.1997 52.3699 38.0827Z" fill="#F28F8F"/>
<path d="M45.8808 44.2272C44.9353 43.6864 43.8473 43.7971 43.2812 43.9932C43.2812 43.9932 44.3628 42.9053 46.4627 43.6991L45.8808 44.2272Z" fill="#F28F8F"/>
<path d="M55.2751 17.0557C55.2751 17.0557 54.2631 17.2707 53.9184 18.4124C53.6812 19.1967 53.8172 20.6736 54.3074 22.6059C54.7976 24.5414 55.4079 25.7463 55.6894 26.2808C55.974 26.8152 56.5528 26.9639 56.5528 26.9639L56.4832 24.6647L56.3915 23.0645C56.3915 23.0645 57.4098 21.654 57.5173 20.5028C57.6533 19.0196 57.3371 18.4156 57.3371 18.4156L55.2751 17.0557Z" fill="#37474F"/>
<path d="M55.3804 17.5676L53.6758 17.2197C53.7896 16.7105 54.2608 16.3753 54.7321 16.4702C55.2001 16.565 55.4911 17.0552 55.3804 17.5676Z" fill="#37474F"/>
<path d="M55.4136 17.1287L54.1328 15.9491C54.4933 15.5696 55.0721 15.5285 55.4263 15.8542C55.7805 16.18 55.7742 16.7492 55.4136 17.1287Z" fill="#37474F"/>
<path d="M58.8556 19.7809C58.8746 21.846 60.5634 23.5032 62.6285 23.4842C64.6936 23.4652 66.3508 21.7764 66.3318 19.7113C66.3129 17.6462 64.6241 15.989 62.5589 16.008C60.4938 16.0269 58.8367 17.7157 58.8556 19.7809Z" fill="#37474F"/>
<path d="M56.4477 22.8051C56.0619 23.1435 55.7425 22.277 55.4168 21.9417C55.091 21.6065 54.0284 21.1511 53.5098 22.2706C52.9816 23.4092 53.9905 24.9936 54.8064 25.3067C55.5243 25.585 55.9829 25.1738 55.9829 25.1738L56.0113 30.0473C56.5711 31.1384 58.7785 32.5489 61.2959 32.1188C62.3743 31.9353 61.8715 30.6165 61.3085 29.8828L61.2896 28.0834C61.2896 28.0834 62.5925 28.27 63.225 28.1656C64.2782 27.9917 64.8253 27.1947 65.1352 26.0467C65.6317 24.2061 65.8183 21.1195 65.0909 17.5585C63.905 16.6508 59.8063 16.8279 57.3396 18.4155C57.5357 21.5749 56.8304 22.4699 56.4477 22.8051Z" fill="#FFA8A7"/>
<path d="M65.6617 15.0282C65.6301 14.9681 65.5763 14.9112 65.5067 14.9112C65.453 14.9112 65.4055 14.9428 65.3644 14.9744C65.2095 15.0883 64.8647 15.3792 64.4283 15.6132C64.5137 15.1926 64.5137 14.753 64.4378 14.3324C64.3904 14.0731 64.3113 13.4722 63.9887 13.409C63.7958 13.371 63.6314 13.5323 63.489 13.6683C62.2051 14.8827 60.5194 14.3356 58.9666 14.3957C57.6668 14.4463 56.1014 14.9839 55.5226 16.2521C55.257 16.8308 55.2159 17.4412 55.7472 17.8365C56.2026 18.1749 56.7845 18.3267 57.3348 18.4184C59.928 18.8517 63.644 19.8953 65.5415 17.4696C65.8198 17.1123 65.94 16.7106 65.9337 16.2015C65.9274 15.7334 65.8293 15.3887 65.668 15.0471C65.668 15.0377 65.6649 15.0345 65.6617 15.0282Z" fill="#37474F"/>
<path d="M61.2884 28.0831C61.2884 28.0831 58.9292 27.6308 58.1006 27.2007C57.5472 26.9129 56.804 26.4417 56.668 26.1191C56.668 26.1191 56.6996 26.9857 57.5155 27.5897C58.79 28.5321 61.2947 28.8452 61.2947 28.8452L61.2884 28.0831Z" fill="#F28F8F"/>
<path d="M60.637 21.9109C60.6402 22.1829 60.4315 22.4042 60.169 22.4042C59.9097 22.4074 59.6946 22.1892 59.6914 21.9172C59.6883 21.6452 59.897 21.4239 60.1595 21.4239C60.422 21.4207 60.637 21.6389 60.637 21.9109Z" fill="#263238"/>
<path d="M60.3752 20.4734L59.3252 20.9509C59.1987 20.6505 59.3315 20.2994 59.6225 20.1666C59.9134 20.0338 60.2487 20.1729 60.3752 20.4734Z" fill="#263238"/>
<path d="M60.6998 24.9375L62.591 25.6269C62.4107 26.1677 61.8383 26.4524 61.3165 26.2626C60.7947 26.0728 60.5195 25.4783 60.6998 24.9375Z" fill="#B16668"/>
<path d="M61.3194 26.2627C61.4934 26.3259 61.6737 26.3322 61.8413 26.2974C61.816 25.8104 61.4175 25.4246 60.9241 25.4278C60.8356 25.4278 60.7502 25.4467 60.668 25.4689C60.7344 25.8231 60.9684 26.1362 61.3194 26.2627Z" fill="#F28F8F"/>
<path d="M64.9341 20.7853L63.8398 20.3899C63.9379 20.0832 64.2636 19.9219 64.5641 20.0294C64.8677 20.1401 65.0321 20.4785 64.9341 20.7853Z" fill="#263238"/>
<path d="M64.6917 21.7712C64.6949 22.0432 64.4862 22.2646 64.2237 22.2646C63.9643 22.2677 63.7493 22.0495 63.7461 21.7775C63.743 21.5056 63.9517 21.2842 64.2142 21.2842C64.4767 21.2842 64.6886 21.5024 64.6917 21.7712Z" fill="#263238"/>
<path d="M62.1016 21.248L62.3925 24.2366L63.9738 23.699L62.1016 21.248Z" fill="#F28F8F"/>
<path d="M146.592 86.5504L86.9531 120.946L56.6719 103.562L116.311 69.166L146.592 86.5504Z" fill="#BBF046"/>
<path opacity="0.7" d="M146.401 86.5504L86.7617 120.946L56.4805 103.562L116.119 69.166L146.401 86.5504Z" fill="white"/>
<path d="M146.592 86.5488V87.3932L86.9531 121.789V120.944L146.592 86.5488Z" fill="#BBF046"/>
<path opacity="0.5" d="M146.592 86.5488V87.3932L86.9531 121.789V120.944L146.592 86.5488Z" fill="white"/>
<path d="M86.9531 120.947L56.6719 103.562V104.407L86.9531 121.791V120.947Z" fill="#BBF046"/>
<path opacity="0.4" d="M86.9531 120.947L56.6719 103.562V104.407L86.9531 121.791V120.947Z" fill="white"/>
<path opacity="0.2" d="M90.9362 113.57L90.2595 113.181C89.8009 112.915 89.8009 112.489 90.2595 112.223L91.7648 111.353L87.0653 108.637L85.5599 109.506C85.1014 109.772 84.3582 109.772 83.8996 109.506L83.2228 109.117C82.7643 108.852 82.7643 108.425 83.2228 108.159L87.7895 105.522C88.2481 105.256 88.9913 105.256 89.4498 105.522L90.1266 105.91C90.5852 106.176 90.5852 106.603 90.1266 106.869L88.4631 107.827L93.1626 110.544L94.8261 109.585C95.2847 109.32 96.0279 109.32 96.4865 109.585L97.1632 109.974C97.6218 110.24 97.6218 110.667 97.1632 110.933L92.5966 113.57C92.138 113.836 91.3948 113.836 90.9362 113.57Z" fill="#27DEBF"/>
<path opacity="0.1" d="M90.9362 113.57L90.2595 113.181C89.8009 112.915 89.8009 112.489 90.2595 112.223L91.7648 111.353L87.0653 108.637L85.5599 109.506C85.1014 109.772 84.3582 109.772 83.8996 109.506L83.2228 109.117C82.7643 108.852 82.7643 108.425 83.2228 108.159L87.7895 105.522C88.2481 105.256 88.9913 105.256 89.4498 105.522L90.1266 105.91C90.5852 106.176 90.5852 106.603 90.1266 106.869L88.4631 107.827L93.1626 110.544L94.8261 109.585C95.2847 109.32 96.0279 109.32 96.4865 109.585L97.1632 109.974C97.6218 110.24 97.6218 110.667 97.1632 110.933L92.5966 113.57C92.138 113.836 91.3948 113.836 90.9362 113.57Z" fill="black"/>
<path d="M88.6126 104.357C88.6126 104.354 88.6126 104.347 88.6126 104.344C88.6126 103.038 87.5531 101.979 86.247 101.979C85.8106 101.979 85.4026 102.099 85.0484 102.307C85.0421 102.311 85.0358 102.314 85.0294 102.317C85.0105 102.326 84.9915 102.342 84.9725 102.352C84.9504 102.364 84.9282 102.377 84.9093 102.393C83.7771 103.117 82.8789 104.714 82.8789 106.039C82.8789 106.046 82.8789 106.049 82.8789 106.055C82.8789 106.058 82.8789 106.064 82.8789 106.068C82.8789 106.14 82.8821 106.213 82.8884 106.283C82.8884 106.286 82.8884 106.286 82.8884 106.289C82.9991 107.494 84.0111 108.436 85.2445 108.436C85.4247 108.436 85.5955 108.414 85.7631 108.376C85.9814 108.335 86.2154 108.25 86.4589 108.111C87.6448 107.424 88.6094 105.758 88.6094 104.388C88.6157 104.373 88.6126 104.363 88.6126 104.357Z" fill="#455A64"/>
<path d="M86.463 103.138C85.2771 103.824 84.3125 105.491 84.3125 106.86C84.3125 108.229 85.2739 108.786 86.463 108.1C87.649 107.413 88.6135 105.747 88.6135 104.377C88.6135 103.008 87.649 102.451 86.463 103.138Z" fill="#37474F"/>
<path d="M93.0087 107.787L93.0024 107.784C92.9961 107.781 92.9929 107.777 92.9866 107.774L87.4648 104.574V104.577C87.2846 104.46 87.0284 104.466 86.7438 104.631C86.1967 104.947 85.7539 105.715 85.7539 106.348C85.7539 106.671 85.8709 106.892 86.0543 106.993L91.5824 110.197C91.7627 110.307 92.0157 110.298 92.294 110.137C92.8411 109.82 93.2839 109.052 93.2839 108.419C93.2839 108.109 93.1795 107.891 93.0087 107.787Z" fill="#263238"/>
<path d="M91.3047 109.562C91.3047 110.194 91.7474 110.45 92.2946 110.134C92.8417 109.818 93.2844 109.049 93.2844 108.417C93.2844 107.784 92.8417 107.528 92.2946 107.844C91.7474 108.161 91.3047 108.929 91.3047 109.562Z" fill="#455A64"/>
<path d="M95.7844 108.494C95.7844 108.491 95.7844 108.485 95.7844 108.482C95.7844 107.176 94.725 106.116 93.4189 106.116C92.9825 106.116 92.5745 106.236 92.2203 106.445C92.214 106.448 92.2076 106.451 92.2013 106.455C92.1823 106.464 92.1633 106.48 92.1444 106.489C92.1222 106.502 92.1001 106.515 92.0811 106.531C90.9489 107.255 90.0508 108.852 90.0508 110.177C90.0508 110.183 90.0508 110.186 90.0508 110.19C90.0508 110.193 90.0508 110.199 90.0508 110.202C90.0508 110.275 90.0539 110.348 90.0603 110.417C90.0603 110.42 90.0603 110.42 90.0603 110.424C90.171 111.628 91.183 112.571 92.4164 112.571C92.5966 112.571 92.7674 112.549 92.935 112.511C93.1532 112.47 93.3872 112.384 93.6308 112.245C94.8167 111.559 95.7813 109.892 95.7813 108.523C95.7876 108.51 95.7844 108.504 95.7844 108.494Z" fill="#455A64"/>
<path d="M93.6349 107.276C92.4489 107.962 91.4844 109.629 91.4844 110.998C91.4844 112.368 92.4458 112.924 93.6349 112.238C94.8208 111.552 95.7854 109.885 95.7854 108.516C95.7854 107.146 94.8208 106.593 93.6349 107.276Z" fill="#37474F"/>
<path d="M51.2492 97.2364C51.1227 96.6735 50.8349 96.0726 50.5945 95.5444C50.5661 95.4843 50.5376 95.4211 50.506 95.361C49.9842 94.3269 49.9873 93.1061 50.5534 92.0941C50.5724 92.0593 50.5914 92.0245 50.6103 91.9898C50.9645 91.3478 51.1163 90.7975 51.1163 90.0669C51.1195 89.5103 50.7526 88.6754 50.0189 88.2485C49.8608 88.1536 49.69 88.0714 49.5098 88.0018C49.1777 87.869 48.9563 87.5527 48.9563 87.1954L48.9595 86.1992L45.7717 86.1865L45.7685 87.1827C45.7685 87.5401 45.5408 87.8532 45.2087 87.986C45.0285 88.0556 44.8577 88.1378 44.6964 88.2295C43.9595 88.6501 43.5864 89.4819 43.5864 90.0385C43.58 90.769 43.7287 91.3193 44.0766 91.9645C44.0955 91.9961 44.1113 92.0309 44.1303 92.0625C44.6932 93.0777 44.6869 94.3047 44.1556 95.3357C44.124 95.3958 44.0924 95.4591 44.0639 95.5191C43.8204 96.0441 43.5231 96.6418 43.3966 97.2048C43.2733 97.7487 43.2416 98.337 43.2416 98.9189L43.2227 103.555C43.2195 104.159 43.6148 104.76 44.4055 105.222C45.0538 105.598 45.8665 105.823 46.7078 105.895C47.0904 105.927 47.4794 105.93 47.8589 105.899C48.7002 105.829 49.5066 105.614 50.1518 105.244C50.9487 104.789 51.3472 104.191 51.3472 103.59L51.3599 100.238C51.363 99.8202 51.3788 99.3837 51.3788 98.9473C51.3915 98.3654 51.3693 97.7803 51.2492 97.2364Z" fill="#455A64"/>
<path d="M50.5496 92.0981C50.5685 92.0633 50.5875 92.0285 50.6065 91.9937C50.9101 91.4434 51.0651 90.9564 51.103 90.3682C51.0303 90.599 50.9259 90.8236 50.7994 91.026C50.4357 91.6174 49.9012 92.0854 49.3636 92.525C48.8165 92.9709 48.2125 93.4769 48.1429 94.179C48.0765 94.859 48.5572 95.4756 49.1011 95.8836C49.6451 96.2947 50.2839 96.5825 50.7741 97.0569C50.986 97.2625 51.1663 97.5028 51.3307 97.7495C51.3086 97.5756 51.2833 97.4048 51.2485 97.2372C51.122 96.6742 50.8342 96.0734 50.5938 95.5452C50.5654 95.4851 50.5369 95.4219 50.5053 95.3618C49.9803 94.3308 49.9835 93.1069 50.5496 92.0981Z" fill="#37474F"/>
<path d="M45.2376 87.3023L45.2344 87.8368C45.2312 88.1562 45.4431 88.4787 45.8669 88.7254C46.7081 89.2156 48.0807 89.2219 48.9282 88.7381C49.1401 88.6179 49.2983 88.4756 49.4058 88.327C49.5101 88.1783 49.5639 88.0202 49.5639 87.8589L49.5671 87.3149C49.5671 87.2675 49.5639 87.2169 49.5513 87.1695C49.5007 86.8975 49.2951 86.635 48.9377 86.4263C48.9282 86.4199 48.9156 86.4136 48.9061 86.4105C48.0585 85.9361 46.7113 85.9392 45.8764 86.4168C45.519 86.6223 45.3103 86.8817 45.2565 87.1505C45.2407 87.2011 45.2376 87.2517 45.2376 87.3023Z" fill="#BBF046"/>
<path opacity="0.1" d="M45.2376 87.3023L45.2344 87.8368C45.2312 88.1562 45.4431 88.4787 45.8669 88.7254C46.7081 89.2156 48.0807 89.2219 48.9282 88.7381C49.1401 88.6179 49.2983 88.4756 49.4058 88.327C49.5101 88.1783 49.5639 88.0202 49.5639 87.8589L49.5671 87.3149C49.5671 87.2675 49.5639 87.2169 49.5513 87.1695C49.5007 86.8975 49.2951 86.635 48.9377 86.4263C48.9282 86.4199 48.9156 86.4136 48.9061 86.4105C48.0585 85.9361 46.7113 85.9392 45.8764 86.4168C45.519 86.6223 45.3103 86.8817 45.2565 87.1505C45.2407 87.2011 45.2376 87.2517 45.2376 87.3023Z" fill="black"/>
<path opacity="0.2" d="M48.927 88.1951C49.7746 87.7113 49.7777 86.9207 48.9333 86.4273C48.089 85.9371 46.7196 85.9308 45.872 86.4146C45.0245 86.8985 45.0213 87.6891 45.8657 88.1825C46.7101 88.6758 48.0795 88.679 48.927 88.1951Z" fill="black"/>
<path d="M45.2383 86.6761V86.9987C45.2383 87.0493 45.2414 87.0999 45.2541 87.1505C45.3047 87.4193 45.5134 87.6818 45.8676 87.8905C46.244 88.1119 46.7278 88.2321 47.218 88.2542C47.8284 88.2858 48.4577 88.1688 48.9289 87.9C49.1408 87.7798 49.299 87.6407 49.4065 87.4889C49.4792 87.3877 49.5267 87.277 49.5488 87.1695C49.5615 87.122 49.5646 87.0714 49.5646 87.024V86.6919C49.5646 86.3693 49.3559 86.0499 48.9353 85.8064C48.8973 85.7843 48.8594 85.7653 48.8214 85.7463C47.9707 85.3162 46.6836 85.332 45.8771 85.7969C45.4533 86.0341 45.2383 86.3535 45.2383 86.6761Z" fill="#BBF046"/>
<path opacity="0.1" d="M45.2383 86.6761V86.9987C45.2383 87.0493 45.2414 87.0999 45.2541 87.1505C45.3047 87.4193 45.5134 87.6818 45.8676 87.8905C46.244 88.1119 46.7278 88.2321 47.218 88.2542C47.8284 88.2858 48.4577 88.1688 48.9289 87.9C49.1408 87.7798 49.299 87.6407 49.4065 87.4889C49.4792 87.3877 49.5267 87.277 49.5488 87.1695C49.5615 87.122 49.5646 87.0714 49.5646 87.024V86.6919C49.5646 86.3693 49.3559 86.0499 48.9353 85.8064C48.8973 85.7843 48.8594 85.7653 48.8214 85.7463C47.9707 85.3162 46.6836 85.332 45.8771 85.7969C45.4533 86.0341 45.2383 86.3535 45.2383 86.6761Z" fill="black"/>
<path d="M45.2383 86.6672C45.2351 87.3535 46.2029 87.9164 47.3983 87.9196C48.5937 87.9227 49.5646 87.3725 49.5678 86.683C49.571 85.9968 48.6032 85.4338 47.4078 85.4307C46.2123 85.4275 45.2415 85.981 45.2383 86.6672Z" fill="#BBF046"/>
<path d="M46.6594 85.3908L46.6562 86.5103C46.6562 86.5293 46.6563 86.5451 46.6626 86.5641C46.6816 86.6558 46.7511 86.7475 46.8745 86.8203C47.0041 86.8962 47.1717 86.9373 47.3425 86.9468C47.5544 86.9562 47.7726 86.9183 47.9339 86.8234C48.0067 86.7823 48.0604 86.7349 48.0984 86.6811C48.1237 86.6463 48.1395 86.6084 48.149 86.5704C48.1521 86.5546 48.1553 86.5356 48.1553 86.5198L48.1584 85.3971C48.1584 85.2864 48.0857 85.1757 47.9402 85.0904C47.9276 85.084 47.9149 85.0745 47.8991 85.0682C47.605 84.9196 47.1591 84.9259 46.8776 85.084C46.7322 85.1694 46.6594 85.2801 46.6594 85.3908Z" fill="#BBF046"/>
<path opacity="0.1" d="M46.6594 85.3908L46.6562 86.5103C46.6562 86.5293 46.6563 86.5451 46.6626 86.5641C46.6816 86.6558 46.7511 86.7475 46.8745 86.8203C47.0041 86.8962 47.1717 86.9373 47.3425 86.9468C47.5544 86.9562 47.7726 86.9183 47.9339 86.8234C48.0067 86.7823 48.0604 86.7349 48.0984 86.6811C48.1237 86.6463 48.1395 86.6084 48.149 86.5704C48.1521 86.5546 48.1553 86.5356 48.1553 86.5198L48.1584 85.3971C48.1584 85.2864 48.0857 85.1757 47.9402 85.0904C47.9276 85.084 47.9149 85.0745 47.8991 85.0682C47.605 84.9196 47.1591 84.9259 46.8776 85.084C46.7322 85.1694 46.6594 85.2801 46.6594 85.3908Z" fill="black"/>
<path d="M46.6562 85.3869C46.6562 85.6241 46.9915 85.8202 47.4058 85.8202C47.8201 85.8234 48.1553 85.6305 48.1584 85.3933C48.1584 85.1561 47.8232 84.96 47.4089 84.96C46.9946 84.9568 46.6562 85.1498 46.6562 85.3869Z" fill="#BBF046"/>
<path opacity="0.5" d="M47.1445 85.3903C47.1445 85.4758 47.2648 85.5455 47.4105 85.5455C47.5561 85.5455 47.6764 85.479 47.6764 85.3935C47.6764 85.308 47.5592 85.2384 47.4105 85.2384C47.2648 85.2352 47.1445 85.3049 47.1445 85.3903Z" fill="#BBF046"/>
<path opacity="0.3" d="M47.1445 85.3903C47.1445 85.4758 47.2648 85.5455 47.4105 85.5455C47.5561 85.5455 47.6764 85.479 47.6764 85.3935C47.6764 85.308 47.5592 85.2384 47.4105 85.2384C47.2648 85.2352 47.1445 85.3049 47.1445 85.3903Z" fill="black"/>
<path opacity="0.2" d="M124.88 81.9011C124.665 82.7455 124.767 83.6468 124.52 84.4849C124.169 85.6772 123.16 86.569 122.075 87.1762C117.762 89.6019 112.303 88.4381 107.594 89.9561C106.136 90.4273 104.606 91.3539 104.321 92.8593C104.118 93.9409 104.643 95.0636 105.447 95.8162C106.25 96.5689 107.294 97.0085 108.337 97.3532C112.534 98.7384 117.063 98.5961 121.433 97.9225C126.073 97.2078 130.45 94.5544 132.072 93.321C134.589 91.4077 136.449 88.3052 136.003 85.1743C135.598 82.3249 132.932 80.225 130.333 79.2604C128.277 78.4982 125.44 79.7127 124.88 81.9011Z" fill="#BBF046"/>
<path opacity="0.1" d="M125.076 82.0134C124.861 82.8578 124.962 83.7591 124.715 84.5972C124.364 85.7895 123.355 86.6813 122.271 87.2885C117.957 89.7142 112.498 88.5504 107.789 90.0684C106.331 90.5396 104.801 91.4662 104.516 92.9716C104.314 94.0532 104.839 95.1759 105.642 95.9285C106.445 96.6812 107.489 97.1208 108.533 97.4655C112.729 98.8507 117.258 98.7084 121.629 98.0348C126.268 97.3201 130.645 94.6667 132.267 93.4333C134.785 91.52 136.644 88.4175 136.198 85.2866C135.794 82.4372 133.128 80.3373 130.528 79.3727C128.472 78.6106 125.636 79.825 125.076 82.0134Z" fill="black"/>
<path d="M128.652 22.8338C129.781 22.1222 131.932 21.5593 133.763 22.1886C136.935 21.0975 138.51 21.2968 141.049 21.2936C141.616 21.2936 143.459 21.1102 143.81 21.4296C144.076 21.6731 144.152 21.9546 144.282 22.5175L143.156 25.5156C141.201 25.9046 140.075 26.3821 137.273 26.8249C135.066 27.1728 133.652 27.3878 133.412 28.4314C130.262 26.107 128.652 22.8338 128.652 22.8338Z" fill="#B16668"/>
<path d="M145.229 24.4218C145.599 23.9569 145.612 23.3877 145.567 22.6413C145.501 21.4459 145.061 19.1752 144.884 18.1442C144.597 16.4965 144.274 15.5035 144.04 14.1879C143.79 12.7806 143.939 12.0374 143.433 10.921C142.971 9.90267 139.878 9.59907 139.239 10.9558C138.872 11.7369 140.213 12.1291 140.251 12.7236C140.251 12.7236 139.027 12.341 139.287 13.0905C139.6 13.995 140.754 13.9444 140.896 15.0987C141.093 16.7274 140.884 19.4408 140.884 21.9108C140.884 22.9291 141.396 25.9209 141.396 25.9209C142.664 25.5698 144.401 25.4623 145.229 24.4218Z" fill="#B16668"/>
<path d="M143.265 14.1878L143.736 12.6983L139.571 11.8887C139.871 12.167 140.232 12.42 140.251 12.7267C140.251 12.7267 139.027 12.3441 139.286 13.0936C139.362 13.3118 139.485 13.4731 139.631 13.6091C139.985 13.7799 140.466 14.093 140.899 14.2289C141.655 14.4598 142.23 14.3871 142.515 13.9412C142.528 13.9285 143.265 14.1878 143.265 14.1878Z" fill="#9A4A4D"/>
<path d="M140.896 21.2725C141.763 21.3453 142.49 21.535 143.224 22.2339C143.224 22.2339 143.066 21.0606 140.896 20.6748C140.893 20.8709 140.89 21.0638 140.887 21.2599C140.893 21.2662 140.893 21.2694 140.896 21.2725Z" fill="#9A4A4D"/>
<path d="M139.391 10.2291C139.391 10.2259 139.391 10.2228 139.388 10.2196C139.138 9.2835 138.18 8.7269 137.244 8.97674C136.931 9.05896 136.662 9.22341 136.45 9.43846C136.447 9.44163 136.444 9.44479 136.437 9.44795C136.425 9.4606 136.415 9.47325 136.403 9.4859C136.39 9.49855 136.377 9.51437 136.365 9.52702C135.694 10.2607 135.356 11.5763 135.606 12.5219C135.606 12.5251 135.609 12.5283 135.609 12.5314C135.609 12.5346 135.609 12.5377 135.612 12.5409C135.625 12.5915 135.644 12.6421 135.659 12.6927V12.6959C135.969 13.5371 136.871 14.0178 137.753 13.7838C137.88 13.749 138 13.7016 138.114 13.6415C138.262 13.5719 138.414 13.4644 138.559 13.3189C139.277 12.6042 139.651 11.2285 139.391 10.2449C139.394 10.2386 139.394 10.2354 139.391 10.2291Z" fill="#455A64"/>
<path d="M137.621 9.76696C136.903 10.4817 136.53 11.8574 136.789 12.8409C137.049 13.8213 137.846 14.0364 138.564 13.3216C139.282 12.6069 139.655 11.2312 139.395 10.2477C139.133 9.26412 138.339 9.04907 137.621 9.76696Z" fill="#37474F"/>
<path d="M144.446 12.4013L144.443 12.3981C144.44 12.3981 144.437 12.395 144.43 12.395L138.425 10.7283V10.7315C138.298 10.6904 138.146 10.7346 138.004 10.8769C137.729 11.1521 137.583 11.6802 137.685 12.0566C137.735 12.2495 137.84 12.3633 137.966 12.395L143.978 14.0648C144.104 14.1027 144.253 14.0584 144.392 13.9161C144.667 13.641 144.813 13.1129 144.712 12.7365C144.664 12.5499 144.566 12.4392 144.446 12.4013Z" fill="#263238"/>
<path d="M143.712 13.73C143.813 14.1063 144.117 14.1886 144.395 13.9134C144.671 13.6383 144.816 13.1101 144.715 12.7338C144.614 12.3575 144.31 12.2752 144.032 12.5504C143.753 12.8255 143.611 13.3537 143.712 13.73Z" fill="#455A64"/>
<path d="M143.583 11.4006C143.308 10.5941 143.399 10.4265 142.729 10.2811C142.059 10.1356 142.055 9.57898 141.388 9.65804C140.721 9.7371 140.218 9.96164 139.921 9.86993C139.623 9.77821 139.029 10.1008 138.754 10.5467C138.479 10.9926 138.485 11.6568 138.523 12.1058C138.561 12.5581 139.038 13.0957 139.962 13.472C140.863 13.8421 142.22 14.405 142.511 13.6523L142.131 13.5479C142.021 13.3424 141.983 12.9249 142.087 12.6055C142.157 12.3936 142.346 12.0837 142.65 11.9003L143.121 12.0299L143.583 11.4006Z" fill="#B16668"/>
<path d="M146.524 12.193C146.524 12.1898 146.524 12.1866 146.521 12.1835C146.271 11.2474 145.313 10.6908 144.377 10.9406C144.064 11.0228 143.795 11.1873 143.583 11.4023C143.58 11.4055 143.577 11.4087 143.57 11.4118C143.558 11.4245 143.548 11.4371 143.535 11.4498C143.523 11.4624 143.51 11.4782 143.497 11.4909C142.827 12.2246 142.489 13.5402 142.738 14.4858C142.738 14.489 142.742 14.4921 142.742 14.4953C142.742 14.4984 142.742 14.5016 142.745 14.5048C142.757 14.5554 142.776 14.606 142.792 14.6566V14.6597C143.102 15.501 144.003 15.9817 144.886 15.7476C145.012 15.7129 145.133 15.6654 145.246 15.6053C145.395 15.5358 145.547 15.4282 145.692 15.2828C146.41 14.568 146.783 13.1923 146.524 12.2088C146.53 12.2056 146.527 12.1993 146.524 12.193Z" fill="#455A64"/>
<path d="M144.754 11.7314C144.036 12.4461 143.663 13.8218 143.922 14.8054C144.182 15.7858 144.979 16.0008 145.696 15.2861C146.414 14.5714 146.788 13.1957 146.528 12.2121C146.269 11.2286 145.475 11.0167 144.754 11.7314Z" fill="#37474F"/>
<path d="M107.483 92.9551C107.378 92.9899 107.363 93.5939 107.457 93.7932C107.562 94.0145 108.223 94.7419 109.567 95.0044C110.911 95.2701 112.758 94.9981 113.552 94.957C114.345 94.9158 116.844 95.2131 117.638 95.3207C118.884 95.4883 119.845 95.2163 120.31 94.764C120.493 94.5869 120.506 94.3276 120.496 94.1062C120.474 93.5813 120.424 93.4737 120.364 93.4801L107.483 92.9551Z" fill="#37474F"/>
<path d="M120.155 91.9117C120.181 92.0161 120.203 92.1204 120.222 92.2248C120.32 92.7435 120.405 93.3159 120.339 93.844C120.178 94.2393 119.735 94.4544 119.381 94.5682C118.441 94.8655 117.727 94.8181 116.686 94.622C116.063 94.505 114.27 94.3785 113.524 94.4291C112.704 94.486 111.579 94.641 110.756 94.5651C110.057 94.5018 109.368 94.4291 108.72 94.1508C108.173 93.9168 107.616 93.6163 107.48 93.0534C107.429 92.0287 107.945 91.5322 108.508 91.2033C109.51 90.6151 110.791 90.6088 111.923 90.574C112.831 90.5455 113.773 90.5265 114.577 90.1091C115 89.8909 115.371 89.5651 115.82 89.4007C116.095 89.2995 116.471 89.3627 116.772 89.3532C117.477 89.3374 118.179 89.3216 118.884 89.3153C119.074 89.3121 119.267 89.3026 119.456 89.3184C119.836 89.3501 119.906 90.6594 119.953 90.9155C119.991 91.1148 119.997 91.3298 120.051 91.5227C120.089 91.6524 120.124 91.7821 120.155 91.9117Z" fill="#455A64"/>
<path d="M113.926 90.3606C113.183 90.9298 113.082 91.8185 113.082 91.8185C113.101 92.2138 112.405 92.2486 112.383 91.8533C112.383 91.8533 112.446 90.952 112.993 90.5187C112.993 90.5187 113.483 90.2531 113.926 90.3606Z" fill="#FAFAFA"/>
<path d="M112.306 90.5616C112.306 90.5616 111.765 90.8462 111.626 91.8392C111.617 92.1334 111.006 92.1049 111.016 91.8139C111.016 91.8139 111.111 90.9664 111.572 90.5837C111.765 90.4477 112.243 90.4446 112.306 90.5616Z" fill="#FAFAFA"/>
<path d="M126.606 80.9434C126.369 81.8731 126.397 82.2716 126.672 83.0022C127.064 84.049 127.76 84.5297 128.228 84.9376C128.699 85.3456 129.224 85.9496 129.607 86.541C129.945 87.0692 130.331 87.6732 131.046 88.2678C131.492 88.6378 132.729 88.6473 133.317 88.3848C133.908 88.1223 134.101 87.8946 134.047 86.9458C133.994 86.0192 131.103 85.7314 131.103 85.7314L126.606 80.9434Z" fill="#37474F"/>
<path d="M133.598 84.1414C133.845 84.2299 133.915 84.6917 133.972 85.6183C134.013 86.3172 134.329 87.3355 133.374 87.7972C132.602 88.1704 131.353 87.9585 130.815 87.3071C130.142 86.4975 129.686 85.7796 128.728 84.7928C127.9 83.9358 127.046 83.6607 126.65 81.9244C126.397 80.8081 126.875 80.3558 127.624 80.0206C128.652 79.5589 130.079 80.6626 130.822 81.1654C131.419 81.5734 133.352 84.056 133.598 84.1414Z" fill="#455A64"/>
<path d="M130.819 81.1234C130.775 81.1107 130.728 81.0949 130.68 81.0791C129.178 81.2404 128.596 82.2903 128.451 82.6066C128.318 82.9165 128.751 83.1474 129.001 82.9039C129.561 81.7337 130.753 81.4523 131.227 81.3859C131.072 81.2499 130.933 81.1518 130.819 81.1234Z" fill="#FAFAFA"/>
<path d="M131.507 81.6436C130.119 81.8586 129.578 82.8485 129.439 83.1552C129.306 83.4652 129.739 83.696 129.989 83.4525C130.432 82.5259 131.276 82.1559 131.842 82.0104C131.728 81.8776 131.615 81.7511 131.507 81.6436Z" fill="#FAFAFA"/>
<path d="M133.369 63.6811C133.211 60.2782 133.578 54.3168 133.54 50.1297C134.622 46.4453 133.863 44.8925 132.911 43.0741C131.485 40.348 130.533 39.0703 130.533 39.0703L128.309 48.3966L124.758 52.1727C124.758 52.1727 126.874 63.1435 127.395 65.509C127.838 67.5172 130.251 84.2976 130.251 84.2976C130.476 85.3918 133.018 85.531 133.626 84.7562C133.796 81.0339 134.473 70.4457 134.486 69.2503C134.517 65.7842 133.369 63.6811 133.369 63.6811Z" fill="#B16668"/>
<path d="M117.914 46.96C117.914 46.96 116.507 67.1179 116.507 71.1185C116.507 72.6492 115.672 89.9766 115.672 89.9766C115.666 90.4257 116.089 90.7641 117.133 90.7167C118.616 90.6534 119.457 90.3751 119.518 90.0968C119.562 89.8944 121.836 80.3847 122.424 77.2791C123.142 73.4999 122.671 70.2551 122.671 70.2551C123.509 65.796 125.204 56.0775 125.596 52.8865C125.934 50.1478 117.914 46.96 117.914 46.96Z" fill="#B16668"/>
<path d="M118.414 39.6916C117.696 44.0338 117.566 45.3842 117.038 50.9502C116.627 55.2829 116.374 67.8065 116.355 69.5553C116.336 71.3042 116.004 82.1137 116.004 82.1137C116.004 82.1137 119.271 83.344 121.349 82.4332C121.349 82.4332 122.269 78.6698 122.667 76.962C123.227 74.5648 123.214 72.876 122.942 70.1784L125.314 55.441C125.314 55.441 127.209 66.0291 127.775 69.0399C128.341 72.0506 128.885 74.9759 128.885 74.9759C128.885 74.9759 130.071 75.4661 131.658 75.4155C133.243 75.3649 134.29 74.4383 134.29 74.4383C134.29 74.4383 134.568 70.4472 134.577 69.0936C134.593 66.9399 134.403 65.8678 133.49 63.6288L133.79 50.128C133.79 50.128 134.773 47.7308 134.097 45.3842C133.249 42.4525 130.665 38.0439 130.665 38.0439L118.414 39.6916Z" fill="#646D64"/>
<path d="M125.316 55.455L126.271 51.9477C126.271 51.9477 129.213 51.7169 130.775 49.6865C130.272 50.6384 129.795 51.7643 127.144 52.7732L126.218 56.35L127.59 68.0323L125.316 55.455Z" fill="#595A59"/>
<path d="M133.4 26.8719C133.2 25.4582 132.698 23.7441 131.334 23.1559C129.975 22.5677 127.52 22.7986 127.52 22.7986C127.328 23.4437 124.981 24.2691 123.82 23.1559C122.694 23.3931 121.312 23.6493 119.798 24.0193C118.596 24.3102 117.894 28.8643 117.1 30.3317C116.17 32.0553 117.353 33.8231 118.533 34.7276C118.533 34.7276 118.501 37.479 118.409 39.6959C120.484 41.4322 124.361 41.9065 127.353 41.1254C129.608 40.5372 130.493 39.8382 130.68 38.9622C130.825 38.276 131.224 36.0653 131.556 34.8699C132.324 32.1217 133.665 28.7536 133.4 26.8719Z" fill="#B16668"/>
<path d="M131.338 23.1559C129.978 22.5677 127.524 22.7986 127.524 22.7986C127.331 23.4437 124.984 24.2691 123.824 23.1559C122.698 23.3931 121.316 23.6493 119.801 24.0193C118.599 24.3102 117.29 27.2166 116.619 30.183C116.189 32.0932 117.277 33.763 118.46 34.6675C118.46 34.6675 118.492 35.4708 118.507 36.4955C120.851 37.6276 123.988 38.1747 127.704 37.4663C129.178 37.1849 130.288 36.6979 131.256 36.1602C131.335 35.9325 131.41 35.5688 131.92 34.1046C132.426 32.6372 133.669 28.7631 133.403 26.8782C133.2 25.4582 132.698 23.7441 131.338 23.1559Z" fill="#BCE1C8"/>
<path d="M119.798 24.0196C117.973 23.8995 115.962 24.4497 115.152 28.0392C114.52 28.9437 113.527 30.0253 112.638 31.4041C111.626 32.9759 111.053 34.339 110.105 36.0689C109.184 37.9095 109.596 38.4629 110.503 39.3073C111.335 40.0821 116.417 43.4154 116.718 43.8044C117.018 44.1902 116.724 47.9631 117.265 48.5008C117.268 48.5229 117.268 48.5292 117.271 48.5102C117.284 48.3932 117.375 47.9062 117.515 47.299C117.777 46.3154 118.318 45.3351 118.776 44.5666C119.232 43.8012 119.649 42.9315 119.516 42.0302C119.444 41.5337 118.735 41.1858 118.245 40.7178C116.964 39.4939 114.535 37.1062 114.535 37.1062L120.389 30.5281C121.392 29.2157 121.971 25.2151 119.798 24.0196Z" fill="#B16668"/>
<path opacity="0.1" d="M114.535 37.1055C114.535 37.1055 113.713 37.8993 112.84 38.3072C113.539 38.1997 114.212 37.9625 114.829 37.4597L114.535 37.1055Z" fill="black"/>
<path d="M119.012 9.77939C119.012 9.77307 119.012 9.76358 119.012 9.75726C118.99 9.32083 119.047 8.84328 119.357 8.53019C119.575 8.30882 119.885 8.20762 120.182 8.11274C120.995 7.85658 121.808 7.60041 122.63 7.37587C124.18 6.9521 125.796 6.63901 127.393 6.84141C128.987 7.04381 130.574 7.82495 131.428 9.18484C131.567 9.40938 131.744 9.69717 131.763 9.96598C131.776 10.1526 131.703 10.3265 131.713 10.5163C131.741 11.1077 132.023 11.6832 132.105 12.2715C132.193 12.9008 132.203 13.5396 132.2 14.1721C132.187 16.797 126.03 18.236 126.071 20.0386C125.046 18.6756 124.025 17.3125 123 15.9495C123.006 15.785 122.567 15.3581 122.469 15.2126C122.285 14.9438 122.127 14.656 121.96 14.3777C121.441 13.508 120.562 13.0494 119.958 12.2651C119.404 11.5536 119.063 10.6807 119.012 9.77939Z" fill="#263238"/>
<path d="M120.188 14.3623C120.188 14.3623 119.068 15.8772 119.198 16.0479C119.328 16.2187 119.989 16.4243 119.989 16.4243L120.188 14.3623Z" fill="#9A4A4D"/>
<path d="M123.612 9.55408C122.569 10.0285 120.76 10.9108 120.143 14.5888C119.51 18.3649 120.314 19.7216 120.816 20.2434C121.158 20.5945 122.986 20.7969 123.957 20.547C125.171 20.2339 127.818 19.0891 129.121 17.1821C130.652 14.9399 131.082 11.8785 129.485 10.604C127.236 8.80457 124.498 9.15244 123.612 9.55408Z" fill="#B16668"/>
<path d="M123.45 20.3418L123.402 23.3873C124.433 24.7472 128.241 24.5164 128.051 22.8465L128.127 19.665L123.45 20.3418Z" fill="#B16668"/>
<path d="M120.914 20.3144C121.335 20.5705 122.53 20.7255 123.444 20.6306L123.466 19.9443C123.466 19.9443 122.948 20.1562 122.239 20.2859C121.534 20.4156 120.92 20.3175 120.914 20.3144Z" fill="#9A4A4D"/>
<path d="M123.171 9.4207C122.744 9.58199 122.333 9.74012 121.954 10.0532C121.777 10.1987 121.609 10.3663 121.508 10.575C121.416 10.7616 121.385 10.9735 121.397 11.1822C121.426 11.7515 121.783 12.2954 122.295 12.5453C122.004 12.9058 121.884 13.4023 121.979 13.8546C122.093 14.3985 122.482 14.8349 122.855 15.2429C122.877 15.2682 122.899 15.2903 122.931 15.303C122.988 15.3251 123.048 15.2903 123.102 15.2587C123.763 14.8571 124.19 14.1329 125.085 14.4713C126.258 14.914 126.274 16.0715 125.524 17.0645C125.183 17.5168 124.816 17.7508 124.379 17.7856C123.889 17.8267 123.646 17.5421 123.646 17.5421C123.646 17.5421 123.747 19.7463 125.379 20.5781C125.379 20.5781 127.058 21.1758 128.127 20.5433C128.794 19.4143 129.904 18.6869 130.667 17.6844C132.656 15.0563 134.392 10.6256 130.24 9.0665C130.097 9.01274 129.952 8.96214 129.806 8.91786C128.475 8.50041 127.045 8.41818 125.67 8.64905C124.984 8.7629 124.307 8.95581 123.665 9.22779C123.497 9.30053 123.333 9.36062 123.171 9.4207Z" fill="#263238"/>
<path d="M136.369 22.2326C133.842 22.2326 131.793 20.1833 131.793 17.6564V10.1865C134.32 10.1865 136.369 12.2358 136.369 14.7627V22.2326Z" fill="#263238"/>
<path d="M122.718 16.5821C122.26 16.3956 122.038 15.8801 122.228 15.4278C122.418 14.9756 122.943 14.7605 123.401 14.9471L122.718 16.5821Z" fill="#263238"/>
<path d="M131.441 10.0398C131.78 10.3181 132.273 10.2707 132.545 9.93547C132.817 9.60025 132.763 9.10057 132.425 8.82227L131.441 10.0398Z" fill="#263238"/>
</svg>
