<svg width="239" height="239" viewBox="0 0 239 239" fill="none" xmlns="http://www.w3.org/2000/svg">
<g id="Group 14133">
<g id="Ellipse 7440" filter="url(#filter0_d_1085_4002)">
<circle cx="119.409" cy="104.409" r="103.409" fill="white"/>
</g>
<g id="LIVE">
<g id="Floor">
<path id="Floor_9_" d="M118.303 175.122C159.984 175.122 193.773 154.682 193.773 129.468C193.773 104.254 159.984 83.8135 118.303 83.8135C76.6213 83.8135 42.832 104.254 42.832 129.468C42.832 154.682 76.6213 175.122 118.303 175.122Z" fill="#F5F5F5"/>
</g>
<g id="Shadows">
<path id="Shadow_34_" d="M131.895 90.2874C128.071 92.4949 128.071 96.0717 131.895 98.2791C135.718 100.487 141.914 100.487 145.737 98.2791C149.561 96.0717 149.561 92.4949 145.737 90.2874C141.914 88.08 135.718 88.08 131.895 90.2874Z" fill="#E0E0E0"/>
<path id="Shadow_1_" d="M71.3302 132.387L48.4524 119.3C48.1773 119.142 48.1773 118.886 48.4524 118.728L110.915 82.6655C111.191 82.5073 111.633 82.5073 111.909 82.6655L134.786 95.752C135.061 95.9101 135.061 96.1663 134.786 96.3244L72.3232 132.387C72.048 132.545 71.6021 132.545 71.3302 132.387Z" fill="#E0E0E0"/>
<path id="Shadow_33_" d="M89.3125 152.376C92.404 152.376 94.9102 150.929 94.9102 149.144C94.9102 147.359 92.404 145.912 89.3125 145.912C86.221 145.912 83.7148 147.359 83.7148 149.144C83.7148 150.929 86.221 152.376 89.3125 152.376Z" fill="#E0E0E0"/>
<path id="Vector" d="M188.588 134.083L128.949 168.478L98.668 151.094L158.307 116.698L188.588 134.083Z" fill="#E0E0E0"/>
</g>
<g id="Plants">
<g id="Plants_13_">
<g id="XMLID_5127_">
<g id="XMLID_5132_">
<path id="XMLID_5135_" d="M54.2232 111.86C54.2232 111.86 54.3655 107.17 53.2238 103.929C52.0822 100.687 49.8526 98.3467 47.5819 97.6193C45.3112 96.8919 42.9393 98.5807 45.0709 100.627C47.2024 102.673 51.2536 105.203 51.9873 111.152L54.2232 111.86Z" fill="#BBF046"/>
</g>
<g id="XMLID_5130_" opacity="0.15">
<path id="XMLID_5131_" d="M54.2232 111.86C54.2232 111.86 54.3655 107.17 53.2238 103.929C52.0822 100.687 49.8526 98.3467 47.5819 97.6193C45.3112 96.8919 42.9393 98.5807 45.0709 100.627C47.2024 102.673 51.2536 105.203 51.9873 111.152L54.2232 111.86Z" fill="black"/>
</g>
<g id="XMLID_5128_">
<path id="XMLID_5129_" d="M53.2982 109.8C53.3077 109.8 53.3172 109.8 53.3235 109.8C53.3931 109.791 53.4405 109.724 53.4279 109.655C52.4032 103.061 48.3425 99.4556 46.3406 98.4658C46.2774 98.4341 46.2015 98.4594 46.1699 98.5227C46.1382 98.5859 46.1635 98.6618 46.2268 98.6935C48.1876 99.6612 52.166 103.203 53.1749 109.693C53.1907 109.756 53.2413 109.797 53.2982 109.8Z" fill="white"/>
</g>
</g>
<g id="XMLID_336_">
<g id="XMLID_5122_">
<g id="XMLID_5125_">
<path id="XMLID_5126_" d="M43.9468 105.674C43.9753 106.174 44.3548 106.575 44.7248 106.917C45.0917 107.255 45.4933 107.625 45.5724 108.119C45.7337 109.115 44.5193 109.969 44.7248 110.959C44.9367 111.971 46.1638 112.252 46.9639 112.59C47.4825 112.809 47.9949 113.141 48.2036 113.663C48.3775 114.096 48.308 114.586 48.289 115.051C48.2574 115.905 48.406 117.173 49.1049 117.758C49.9177 118.438 51.2966 118.811 52.2706 118.346C54.0922 117.473 55.9423 116.085 56.1162 113.903C56.2174 112.625 55.702 111.313 54.7595 110.446C54.399 110.117 53.9847 109.849 53.6431 109.501C52.9442 108.786 53.0644 107.812 52.8462 106.898C52.6533 106.082 51.8626 105.687 51.0942 105.532C50.3668 105.386 49.5477 105.516 48.8551 105.215C48.1815 104.921 47.5774 104.482 46.8564 104.264C46.1037 104.036 45.2372 104.061 44.5794 104.532C44.2125 104.798 43.9215 105.222 43.9468 105.674Z" fill="#BBF046"/>
</g>
</g>
<g id="XMLID_5120_">
<path id="XMLID_5121_" d="M52.7206 116.001C52.7238 116.001 52.7269 116.001 52.7301 116.001C52.7933 116.007 52.8471 115.963 52.8534 115.899C53.584 108.847 47.1893 105.352 45.5701 104.865C45.51 104.85 45.4468 104.881 45.431 104.941C45.412 105.001 45.4468 105.065 45.5069 105.08C47.0945 105.558 53.3468 108.973 52.632 115.874C52.6257 115.937 52.6637 115.988 52.7206 116.001Z" fill="white"/>
</g>
<g id="XMLID_338_">
<path id="XMLID_5072_" d="M46.4624 109.901C46.4845 109.905 46.5067 109.905 46.5288 109.892C46.5509 109.882 48.9197 108.839 51.611 110.347C51.6647 110.376 51.7343 110.36 51.7659 110.303C51.7976 110.249 51.7754 110.18 51.7217 110.148C48.9228 108.583 46.4592 109.674 46.4339 109.686C46.377 109.712 46.3517 109.778 46.377 109.835C46.396 109.873 46.4276 109.895 46.4624 109.901Z" fill="white"/>
</g>
</g>
</g>
</g>
<g id="Table">
<g id="Table_4_">
<g id="Table_5_">
<g id="Group">
<path id="Vector_2" d="M131.296 82.6709C131.296 82.5918 131.349 82.5128 131.454 82.4495C131.666 82.3293 132.004 82.3293 132.216 82.4495C132.32 82.5096 132.374 82.5887 132.374 82.6709L130.454 93.9991C130.451 94.0528 130.416 94.1097 130.344 94.1509C130.195 94.2362 129.955 94.2362 129.806 94.1509C129.733 94.1097 129.695 94.0528 129.695 93.9991L131.296 82.6709Z" fill="#455A64"/>
<path id="Vector_3" d="M146.09 82.6709C146.09 82.5918 146.036 82.5128 145.932 82.4495C145.72 82.3293 145.382 82.3293 145.17 82.4495C145.065 82.5096 145.012 82.5887 145.012 82.6709L146.931 93.9991C146.935 94.0528 146.969 94.1097 147.042 94.1509C147.191 94.2362 147.431 94.2362 147.58 94.1509C147.652 94.1097 147.69 94.0528 147.69 93.9991L146.09 82.6709Z" fill="#455A64"/>
<path id="Vector_4" d="M139.301 83.5283C139.301 83.4492 139.247 83.3702 139.143 83.3069C138.931 83.1868 138.593 83.1868 138.381 83.3069C138.276 83.367 138.223 83.4461 138.223 83.5283L138.381 97.0038C138.384 97.0576 138.419 97.1145 138.491 97.1556C138.64 97.241 138.88 97.241 139.029 97.1556C139.102 97.1145 139.14 97.0576 139.14 97.0038L139.301 83.5283Z" fill="#455A64"/>
</g>
<g id="Group_2">
<path id="Vector_5" d="M148.414 78.9402H148.404C148.404 77.5139 147.471 76.0876 145.583 74.9965C141.81 72.8176 135.697 72.8176 131.924 74.9965C130.039 76.0844 129.103 77.5107 129.103 78.9402H129.094V79.7055C129.116 81.1129 130.061 82.517 131.921 83.5923C135.694 85.7713 141.807 85.7713 145.58 83.5923C147.443 82.517 148.385 81.1129 148.407 79.7055V78.9402H148.414Z" fill="#BBF046"/>
<path id="XMLID_3772_" d="M131.927 74.9971C128.154 77.1761 128.154 80.7055 131.927 82.8813C135.7 85.0603 141.813 85.0603 145.586 82.8813C149.359 80.7023 149.359 77.1729 145.586 74.9971C141.813 72.8213 135.7 72.8213 131.927 74.9971Z" fill="#BBF046"/>
<path id="XMLID_3758_" opacity="0.45" d="M131.927 74.9971C128.154 77.1761 128.154 80.7055 131.927 82.8813C135.7 85.0603 141.813 85.0603 145.586 82.8813C149.359 80.7023 149.359 77.1729 145.586 74.9971C141.813 72.8213 135.7 72.8213 131.927 74.9971Z" fill="white"/>
</g>
</g>
<g id="Pot_11_">
<g id="XMLID_3731_" opacity="0.05">
<path id="XMLID_3757_" d="M140.876 77.0956C142.078 77.7914 142.078 78.9172 140.876 79.6098C139.675 80.3056 137.723 80.3056 136.519 79.6098C135.317 78.9141 135.317 77.7882 136.519 77.0956C137.723 76.403 139.675 76.403 140.876 77.0956Z" fill="black"/>
</g>
<g id="XMLID_356_">
<path id="XMLID_3730_" d="M136.782 78.5085C135.735 77.4396 135.118 74.7704 136.14 73.9229H141.339C142.361 74.7704 141.747 77.4396 140.7 78.5085C140.691 78.518 140.681 78.5275 140.672 78.537C140.659 78.5496 140.646 78.5623 140.637 78.5718C140.608 78.6002 140.577 78.6287 140.542 78.6572C140.533 78.6635 140.526 78.6698 140.517 78.6761C140.491 78.6951 140.466 78.7172 140.438 78.7362C140.393 78.7678 140.349 78.7963 140.302 78.8216C139.438 79.3181 138.044 79.3181 137.18 78.8216C137.133 78.7963 137.089 78.7678 137.044 78.733C137.019 78.7141 136.994 78.6951 136.972 78.6761C136.962 78.6666 136.949 78.6603 136.94 78.6508C136.908 78.6255 136.877 78.5971 136.848 78.5686C136.836 78.556 136.82 78.5401 136.807 78.5275C136.798 78.5243 136.788 78.518 136.782 78.5085Z" fill="#EBEBEB"/>
<path id="XMLID_3729_" d="M140.89 73.5801C142.076 74.2664 142.076 75.3764 140.89 76.0595C139.705 76.7458 137.782 76.7458 136.593 76.0595C135.407 75.3733 135.407 74.2632 136.593 73.5801C137.782 72.8939 139.705 72.8939 140.89 73.5801Z" fill="#FAFAFA"/>
<path id="XMLID_358_" d="M140.047 74.0646C140.768 74.4821 140.768 75.1557 140.047 75.5732C139.326 75.9906 138.156 75.9906 137.431 75.5732C136.71 75.1557 136.71 74.4821 137.431 74.0646C138.156 73.6503 139.326 73.6503 140.047 74.0646Z" fill="#EBEBEB"/>
<path id="XMLID_357_" d="M137.429 74.7828C138.15 74.3654 139.321 74.3654 140.045 74.7828C140.244 74.8998 140.389 75.0358 140.478 75.1781C140.389 75.3236 140.247 75.4596 140.045 75.5734C139.324 75.9909 138.154 75.9909 137.429 75.5734C137.23 75.4564 137.085 75.3204 136.996 75.1781C137.085 75.0358 137.227 74.8998 137.429 74.7828Z" fill="#E0E0E0"/>
</g>
<g id="XMLID_328_">
<path id="XMLID_355_" d="M139.889 75.1768C139.889 75.1768 140.398 74.6929 140.834 73.9212C141.271 73.1496 141.353 72.1154 141.125 71.9858C140.901 71.8593 139.98 72.8903 139.98 72.8903C139.98 72.8903 140.116 72.2609 140.078 71.5715C140.04 70.8852 139.873 70.259 139.677 70.1325C139.481 70.006 139.038 70.8726 138.851 71.5019C138.662 72.1313 138.551 72.6467 138.551 72.6467C138.551 72.6467 138.421 71.796 138.212 71.2015C137.985 70.55 137.776 70.4014 137.615 70.4646C137.453 70.5279 137.346 70.8346 137.302 71.7043C137.27 72.3115 137.34 72.9472 137.34 72.9472C137.34 72.9472 137.017 72.5898 136.656 72.2451C136.261 71.8656 136.094 71.815 135.98 71.8846C135.866 71.9573 135.834 72.5487 136.448 73.6524C136.989 74.6296 137.602 75.1736 137.602 75.1736C137.602 75.1736 138.443 75.7239 139.889 75.1768Z" fill="#BBF046"/>
<path id="XMLID_347_" opacity="0.3" d="M139.889 75.1768C139.889 75.1768 140.398 74.6929 140.834 73.9212C141.271 73.1496 141.353 72.1154 141.125 71.9858C140.901 71.8593 139.98 72.8903 139.98 72.8903C139.98 72.8903 140.116 72.2609 140.078 71.5715C140.04 70.8852 139.873 70.259 139.677 70.1325C139.481 70.006 139.038 70.8726 138.851 71.5019C138.662 72.1313 138.551 72.6467 138.551 72.6467C138.551 72.6467 138.421 71.796 138.212 71.2015C137.985 70.55 137.776 70.4014 137.615 70.4646C137.453 70.5279 137.346 70.8346 137.302 71.7043C137.27 72.3115 137.34 72.9472 137.34 72.9472C137.34 72.9472 137.017 72.5898 136.656 72.2451C136.261 71.8656 136.094 71.815 135.98 71.8846C135.866 71.9573 135.834 72.5487 136.448 73.6524C136.989 74.6296 137.602 75.1736 137.602 75.1736C137.602 75.1736 138.443 75.7239 139.889 75.1768Z" fill="black"/>
</g>
</g>
</g>
</g>
<g id="WiFi_1_">
<g id="WiFi">
<g id="XMLID_3816_">
<path id="XMLID_3824_" d="M139.313 59.7177C139.123 59.5754 138.87 59.5533 138.576 59.6798C137.852 59.9897 137.166 61.0871 137.042 62.1276C136.97 62.7474 137.112 63.206 137.39 63.4115C137.514 63.5001 137.988 63.8575 138.114 63.9492C138.304 64.0883 138.557 64.1105 138.848 63.984C139.572 63.674 140.259 62.5766 140.382 61.5362C140.455 60.9226 140.316 60.4641 140.04 60.2553C139.917 60.1636 139.436 59.8094 139.313 59.7177Z" fill="#BBF046"/>
<path id="XMLID_3823_" opacity="0.3" d="M139.313 59.7177C139.123 59.5754 138.87 59.5533 138.576 59.6798C137.852 59.9897 137.166 61.0871 137.042 62.1276C136.97 62.7474 137.112 63.206 137.39 63.4115C137.514 63.5001 137.988 63.8575 138.114 63.9492C138.304 64.0883 138.557 64.1105 138.848 63.984C139.572 63.674 140.259 62.5766 140.382 61.5362C140.455 60.9226 140.316 60.4641 140.04 60.2553C139.917 60.1636 139.436 59.8094 139.313 59.7177Z" fill="black"/>
<path id="XMLID_3821_" d="M140.579 56.1373C139.982 55.6977 139.188 55.625 138.268 56.0203C136.696 56.6939 135.443 58.2689 134.533 60.432C134.346 60.8716 134.362 61.3112 134.567 61.4757L134.571 61.4788C134.811 61.6718 135.225 61.9501 135.428 62.1145L135.431 62.1177C135.687 62.3232 136.139 62.0133 136.37 61.4599C137.012 59.9292 137.815 58.9014 138.922 58.427C139.346 58.2436 139.735 58.2056 140.07 58.2847C140.187 58.4618 140.282 58.6705 140.352 58.9109C140.38 59.0089 140.428 59.0785 140.484 59.1228C140.614 59.2208 141.285 59.7173 141.345 59.7616C141.528 59.8976 141.832 59.7742 142.085 59.4232L142.088 59.42C142.354 59.0564 142.48 58.5535 142.385 58.2373C142.192 57.5921 141.873 57.0987 141.455 56.7857C141.307 56.675 140.725 56.2449 140.579 56.1373Z" fill="#BBF046"/>
<path id="XMLID_3819_" opacity="0.3" d="M140.579 56.1373C139.982 55.6977 139.188 55.625 138.268 56.0203C136.696 56.6939 135.443 58.2689 134.533 60.432C134.346 60.8716 134.362 61.3112 134.567 61.4757L134.571 61.4788C134.811 61.6718 135.225 61.9501 135.428 62.1145L135.431 62.1177C135.687 62.3232 136.139 62.0133 136.37 61.4599C137.012 59.9292 137.815 58.9014 138.922 58.427C139.346 58.2436 139.735 58.2056 140.07 58.2847C140.187 58.4618 140.282 58.6705 140.352 58.9109C140.38 59.0089 140.428 59.0785 140.484 59.1228C140.614 59.2208 141.285 59.7173 141.345 59.7616C141.528 59.8976 141.832 59.7742 142.085 59.4232L142.088 59.42C142.354 59.0564 142.48 58.5535 142.385 58.2373C142.192 57.5921 141.873 57.0987 141.455 56.7857C141.307 56.675 140.725 56.2449 140.579 56.1373Z" fill="black"/>
<path id="XMLID_3818_" d="M143.667 55.0587C143.354 54.2712 142.905 53.6577 142.352 53.2434C142.203 53.1327 141.621 52.7026 141.476 52.5951C140.518 51.8835 139.237 51.7634 137.76 52.3959C135.423 53.3984 133.535 55.3686 132.045 58.5217C131.827 58.9866 131.814 59.4768 132.032 59.657L132.036 59.6602C132.282 59.8626 132.671 60.1156 132.89 60.2927L132.893 60.2959C133.139 60.4983 133.566 60.2105 133.813 59.6823C135.024 57.1017 136.495 55.6153 138.405 54.7962C139.392 54.3724 140.271 54.363 140.986 54.6919C141.261 54.9955 141.488 55.375 141.666 55.8209C141.697 55.8999 141.741 55.9569 141.792 55.9948C141.919 56.0865 142.598 56.5925 142.649 56.6305C142.836 56.7696 143.136 56.6526 143.389 56.3016C143.68 55.9094 143.791 55.375 143.667 55.0587Z" fill="#BBF046"/>
<path id="XMLID_3817_" opacity="0.3" d="M143.667 55.0587C143.354 54.2712 142.905 53.6577 142.352 53.2434C142.203 53.1327 141.621 52.7026 141.476 52.5951C140.518 51.8835 139.237 51.7634 137.76 52.3959C135.423 53.3984 133.535 55.3686 132.045 58.5217C131.827 58.9866 131.814 59.4768 132.032 59.657L132.036 59.6602C132.282 59.8626 132.671 60.1156 132.89 60.2927L132.893 60.2959C133.139 60.4983 133.566 60.2105 133.813 59.6823C135.024 57.1017 136.495 55.6153 138.405 54.7962C139.392 54.3724 140.271 54.363 140.986 54.6919C141.261 54.9955 141.488 55.375 141.666 55.8209C141.697 55.8999 141.741 55.9569 141.792 55.9948C141.919 56.0865 142.598 56.5925 142.649 56.6305C142.836 56.7696 143.136 56.6526 143.389 56.3016C143.68 55.9094 143.791 55.375 143.667 55.0587Z" fill="black"/>
</g>
<g id="XMLID_3790_">
<g id="XMLID_3814_">
<path id="XMLID_3815_" d="M140.38 61.536C140.257 62.5764 139.57 63.6738 138.846 63.9837C138.122 64.2937 137.638 63.7023 137.761 62.6587C137.885 61.6182 138.571 60.5208 139.295 60.2109C140.019 59.9041 140.503 60.4955 140.38 61.536Z" fill="#BBF046"/>
</g>
<g id="XMLID_3799_">
<g id="XMLID_3803_">
<path id="XMLID_3804_" d="M139.127 56.6549C137.555 57.3286 136.306 58.9035 135.392 61.0667C135.205 61.5062 135.221 61.9458 135.427 62.1103L135.43 62.1135C135.686 62.319 136.138 62.0091 136.369 61.4556C137.011 59.925 137.814 58.8972 138.921 58.4228C140.028 57.9484 140.885 58.4323 141.211 59.5455C141.328 59.9503 141.752 59.887 142.09 59.4253L142.093 59.4221C142.359 59.0585 142.486 58.5556 142.391 58.2394C141.913 56.6644 140.699 55.9813 139.127 56.6549Z" fill="#BBF046"/>
</g>
</g>
<g id="XMLID_3791_">
<g id="XMLID_3792_">
<path id="XMLID_3795_" d="M138.611 53.0306C136.274 54.0331 134.386 56.0034 132.897 59.1564C132.678 59.6213 132.666 60.1115 132.884 60.2917L132.887 60.2949C133.134 60.4973 133.561 60.2095 133.807 59.6814C135.019 57.1007 136.489 55.6144 138.399 54.7953C140.31 53.9762 141.824 54.6941 142.52 56.4556C142.663 56.8161 143.061 56.7497 143.387 56.3006C143.671 55.9053 143.782 55.374 143.659 55.0578C142.805 52.9104 140.955 52.0281 138.611 53.0306Z" fill="#BBF046"/>
</g>
</g>
</g>
</g>
</g>
<g id="Device">
<g id="Device_6_">
<g id="Case">
<path id="Vector_6" d="M111.667 84.6557L112.973 83.903L120.085 46.6927C120.323 45.4498 119.627 44.9565 118.533 45.589L61.4237 78.5172C60.3295 79.1497 59.2479 80.6709 59.0107 81.9137L52.0342 118.412C51.9519 118.836 52.148 119.266 52.5244 119.485L68.5267 128.751L128.261 94.2634L111.667 84.6557Z" fill="#455A64"/>
<path id="Vector_7" d="M59.728 82.3705L52.7578 118.803L113.791 83.7968L120.803 47.1527C121.04 45.9098 120.344 45.4164 119.25 46.0489L62.1442 78.9771C61.0468 79.6096 59.9684 81.1277 59.728 82.3705Z" fill="#263238"/>
<path id="Vector_8" d="M112.495 84.3135L52.7578 118.801L68.9879 128.175L128.722 93.6872L112.495 84.3135Z" fill="#37474F"/>
<path id="XMLID_259_" d="M120.216 46.7546L62.668 79.9232C61.4062 80.6506 61.0109 81.8302 61.2354 83.3861L67.4751 126.978C67.6964 128.531 68.9361 129.442 70.198 128.715L127.24 95.7927C128.502 95.0654 129.344 93.2121 129.122 91.6593L122.905 48.2505C122.683 46.6977 121.478 46.0272 120.216 46.7546Z" fill="#455A64"/>
</g>
<g id="Tablet">
<g id="Group_3">
<path id="XMLID_335_" d="M124.105 47.7744C123.653 47.5973 123.109 47.6479 122.553 47.9673L65.5102 80.8892C64.9062 81.2371 64.397 81.8475 64.0554 82.559L62.2148 81.7779C62.6196 80.8955 63.3249 80.573 63.9289 80.2188L120.968 47.2969C121.55 46.9648 122.116 46.9269 122.581 47.1324V47.1293L124.105 47.7744Z" fill="#BBF046"/>
<path id="XMLID_334_" opacity="0.1" d="M124.105 47.7744C123.653 47.5973 123.109 47.6479 122.553 47.9673L65.5102 80.8892C64.9062 81.2371 64.397 81.8475 64.0554 82.559L62.2148 81.7779C62.6196 80.8955 63.3249 80.573 63.9289 80.2188L120.968 47.2969C121.55 46.9648 122.116 46.9269 122.581 47.1324V47.1293L124.105 47.7744Z" fill="black"/>
</g>
<g id="Group_4">
<path id="XMLID_333_" d="M69.3309 129.196C68.7648 128.962 68.3442 128.374 68.224 127.52L62.0444 84.3516C61.9053 83.3807 61.861 82.511 62.212 81.7773L64.0526 82.5585C64.0052 82.6597 63.9609 82.764 63.9166 82.8716C63.8818 82.957 63.8534 83.0424 63.8281 83.1277C63.8217 83.1404 63.8186 83.1562 63.8154 83.1657C63.7806 83.2637 63.7522 83.3649 63.73 83.463C63.7016 83.5673 63.6794 83.6717 63.6636 83.7761C63.6478 83.8551 63.6383 83.9342 63.632 84.0132C63.5846 84.3516 63.5846 84.6932 63.632 85.0221L69.8464 128.431C69.9697 129.294 70.3966 129.886 70.9691 130.117L69.3309 129.196Z" fill="#BBF046"/>
<path id="Vector_9" opacity="0.3" d="M70.9654 130.113L70.8705 130.075L69.3272 129.199V129.196C68.7611 128.965 68.3437 128.377 68.2172 127.523L62.0376 84.3546C61.8985 83.3837 61.851 82.514 62.2052 81.7803L63.7707 82.4412C63.4987 83.0421 63.4418 83.7663 63.5588 84.5981L63.622 85.0219L69.8364 128.431C69.8427 128.484 69.8522 128.541 69.8649 128.592C69.868 128.62 69.8744 128.652 69.8838 128.681C69.8902 128.718 69.8997 128.76 69.9123 128.794C69.9218 128.835 69.9344 128.873 69.9471 128.911C69.9597 128.949 69.9692 128.987 69.985 129.025C70.0009 129.07 70.0167 129.114 70.0388 129.155C70.0578 129.199 70.0768 129.24 70.0989 129.281C70.121 129.319 70.14 129.36 70.1621 129.398C70.2317 129.512 70.3076 129.617 70.3898 129.708C70.4183 129.737 70.4468 129.768 70.4752 129.797C70.5037 129.825 70.5353 129.851 70.5638 129.876C70.6903 129.977 70.8231 130.056 70.9654 130.113Z" fill="black"/>
</g>
<g id="Group_5">
<path id="XMLID_7049_" d="M122.548 47.969L64.9961 81.1344C63.7343 81.8618 63.339 83.0414 63.5635 84.5974L69.838 128.43C70.0593 129.983 71.2643 130.653 72.5261 129.926L129.565 97.0071C130.827 96.2797 131.668 94.4265 131.447 92.8737L125.236 49.4649C125.015 47.9089 123.81 47.2416 122.548 47.969Z" fill="#27DEBF"/>
<path id="XMLID_327_" d="M122.548 47.969L64.9961 81.1344C63.7343 81.8618 63.339 83.0414 63.5635 84.5974L69.838 128.43C70.0593 129.983 71.2643 130.653 72.5261 129.926L129.565 97.0071C130.827 96.2797 131.668 94.4265 131.447 92.8737L125.236 49.4649C125.015 47.9089 123.81 47.2416 122.548 47.969Z" fill="#BBF046"/>
</g>
<g id="Group_6">
<path id="XMLID_7048_" d="M126.218 96.7561L75.3045 126.139C74.6499 126.515 74.0269 126.171 73.913 125.364L67.8852 83.2838C67.7714 82.4773 68.2078 81.5191 68.8593 81.1427L119.773 51.7597C120.427 51.3834 121.05 51.7281 121.164 52.5345L127.189 94.6119C127.309 95.4184 126.873 96.3766 126.218 96.7561Z" fill="#263238"/>
<path id="Vector_10" d="M67.8852 83.285L73.9099 125.362C73.913 125.394 73.9225 125.426 73.9288 125.454L124.842 96.0711C125.497 95.6948 125.933 94.7334 125.816 93.9301L119.773 51.7578L68.8593 81.1408C68.2078 81.5203 67.7714 82.4786 67.8852 83.285Z" fill="#27DEBF"/>
<path id="Vector_11" opacity="0.85" d="M67.8852 83.285L73.9099 125.362C73.913 125.394 73.9225 125.426 73.9288 125.454L124.842 96.0711C125.497 95.6948 125.933 94.7334 125.816 93.9301L119.773 51.7578L68.8593 81.1408C68.2078 81.5203 67.7714 82.4786 67.8852 83.285Z" fill="white"/>
</g>
<g id="Group_7">
<path id="XMLID_7045_" d="M69.6466 106.817C69.7035 107.222 69.4853 107.706 69.1564 107.896C68.8275 108.085 68.5144 107.912 68.4543 107.507C68.3974 107.102 68.6156 106.618 68.9445 106.428C69.2734 106.235 69.5865 106.409 69.6466 106.817Z" fill="#263238"/>
<path id="XMLID_7042_" d="M67.9951 99.7927C67.739 99.9414 67.5682 100.315 67.6125 100.631L68.1501 104.378C68.1944 104.695 68.4379 104.827 68.694 104.682C68.9502 104.533 69.121 104.16 69.0767 103.844L68.5391 100.096C68.4948 99.7832 68.2513 99.6472 67.9951 99.7927Z" fill="#263238"/>
</g>
</g>
<g id="Personal_Trainer">
<g id="Group_8">
<path id="Vector_12" d="M110.335 104.435L103.304 108.493L101.66 109.441L90.6133 115.814C91.3944 108.872 92.6942 99.0999 94.1079 95.9785L109.601 96.3011L110.335 104.435Z" fill="#646D64"/>
<path id="Vector_13" d="M107.695 100.101C106.658 103.583 103.498 105.271 103.498 105.271L103.309 108.494L101.664 109.443L102.129 104.601C102.126 104.598 106.158 102.972 107.695 100.101Z" fill="#595A59"/>
</g>
<g id="Group_9">
<path id="Vector_14" d="M104.23 75.0168C105.451 74.2483 107.779 73.638 109.762 74.3179C112.662 72.6576 115.204 72.9833 117.646 73.3502C118.253 73.4419 120.255 73.1541 120.631 73.4988C120.919 73.7613 121.001 74.0681 121.14 74.6753L119.923 77.9169C117.807 78.3375 116.59 78.853 113.56 79.3337C111.172 79.71 109.642 79.9441 109.379 81.0731C105.97 78.5589 104.23 75.0168 104.23 75.0168Z" fill="#FFA8A7"/>
<path id="Vector_15" d="M122.17 76.7354C122.572 76.2325 122.585 75.6158 122.537 74.8094C122.464 73.5159 122.243 70.9732 122.05 69.8569C121.74 68.0764 121.623 66.96 121.253 65.8215C120.776 64.3478 120.946 63.4306 120.273 62.4313C119.599 61.4287 116.38 60.695 115.69 62.1656C115.292 63.01 116.743 63.4338 116.784 64.0789C116.784 64.0789 115.652 64.9645 116.456 65.2681C117.091 65.5084 117.702 65.6096 117.891 67.6115C118.059 69.3793 117.468 71.3496 117.468 74.0219C117.468 75.1225 118.021 78.3609 118.021 78.3609C119.394 77.9782 121.272 77.8612 122.17 76.7354Z" fill="#FFA8A7"/>
<path id="Vector_16" d="M116.566 64.9935C116.66 65.3413 118.257 65.6323 118.618 65.5564C118.979 65.4773 119.054 65.2117 119.054 65.2117L120.152 65.5469L120.193 64.6329L116.635 64.459C116.638 64.4621 116.531 64.8164 116.566 64.9935Z" fill="#F28F8F"/>
<path id="Vector_17" d="M119.927 74.6156C119.927 74.6156 119.712 73.4581 117.523 72.6738C117.51 72.8857 117.488 73.1324 117.488 73.3285C118.424 73.5688 119.13 73.8566 119.927 74.6156Z" fill="#F28F8F"/>
<g id="Dumbbell_1_">
<g id="Group_10">
<path id="Vector_18" d="M115.849 61.3767C115.849 61.3735 115.849 61.3704 115.846 61.3672C115.577 60.3552 114.54 59.7511 113.528 60.02C113.19 60.1085 112.899 60.2888 112.668 60.5196C112.665 60.5228 112.658 60.526 112.655 60.5291C112.642 60.5418 112.63 60.5544 112.617 60.5702C112.605 60.5861 112.589 60.5987 112.576 60.6145C111.849 61.4083 111.482 62.8314 111.754 63.8561C111.754 63.8593 111.757 63.8624 111.757 63.8656C111.757 63.8688 111.757 63.8719 111.76 63.8751C111.776 63.932 111.792 63.9858 111.814 64.0395V64.0427C112.149 64.9503 113.126 65.4722 114.078 65.2191C114.217 65.1812 114.347 65.1306 114.467 65.0673C114.629 64.9914 114.793 64.8776 114.951 64.7195C115.729 63.9447 116.131 62.4551 115.849 61.3957C115.852 61.3893 115.852 61.3862 115.849 61.3767Z" fill="#455A64"/>
<path id="Vector_19" d="M113.937 60.8772C113.159 61.652 112.758 63.1416 113.039 64.201C113.321 65.2636 114.181 65.4945 114.959 64.7197C115.737 63.9449 116.138 62.4553 115.857 61.3959C115.575 60.3364 114.715 60.1024 113.937 60.8772Z" fill="#37474F"/>
</g>
<g id="Group_11">
<path id="Vector_20" d="M121.318 63.7269L121.315 63.7237C121.312 63.7237 121.306 63.7206 121.302 63.7206L114.803 61.9179V61.9211C114.667 61.8768 114.503 61.9243 114.348 62.0792C114.048 62.3765 113.896 62.9489 114.003 63.3569C114.057 63.5656 114.171 63.6889 114.307 63.7206L120.812 65.5264C120.948 65.5675 121.109 65.5169 121.261 65.3651C121.562 65.0678 121.713 64.4954 121.606 64.0874C121.552 63.8882 121.448 63.768 121.318 63.7269Z" fill="#263238"/>
<path id="Vector_21" d="M120.527 65.1663C120.634 65.5743 120.966 65.6629 121.264 65.3656C121.564 65.0683 121.716 64.4959 121.608 64.0879C121.501 63.6799 121.169 63.5914 120.871 63.8887C120.571 64.186 120.419 64.7584 120.527 65.1663Z" fill="#455A64"/>
</g>
<path id="Vector_22" d="M120.389 62.647C120.092 61.7741 120.19 61.5939 119.466 61.4357C118.742 61.2808 118.738 60.6767 118.014 60.7621C117.29 60.8475 116.749 61.091 116.427 60.993C116.104 60.895 115.462 61.2428 115.165 61.7267C114.868 62.2106 114.874 62.9285 114.915 63.4155C114.956 63.9025 115.456 64.5129 116.499 64.7817C117.521 65.0442 118.59 65.2719 118.811 64.7691C118.982 64.3801 118.827 64.0417 118.878 63.8076C118.928 63.5705 119.052 63.3933 119.377 63.1941L119.886 63.3364L120.389 62.647Z" fill="#FFA8A7"/>
<g id="Group_12">
<path id="Vector_23" d="M123.572 63.5056C123.572 63.5024 123.572 63.4993 123.569 63.4961C123.3 62.4841 122.263 61.88 121.251 62.1489C120.912 62.2374 120.621 62.4177 120.39 62.6485C120.387 62.6517 120.381 62.6549 120.378 62.658C120.365 62.6707 120.352 62.6833 120.34 62.6991C120.327 62.715 120.311 62.7276 120.299 62.7434C119.571 63.5372 119.204 64.9603 119.476 65.985C119.476 65.9882 119.48 65.9913 119.48 65.9945C119.48 65.9977 119.48 66.0008 119.483 66.004C119.499 66.0609 119.514 66.1147 119.537 66.1684V66.1716C119.872 67.0792 120.849 67.6011 121.801 67.3481C121.94 67.3101 122.07 67.2595 122.19 67.1963C122.351 67.1204 122.516 67.0065 122.674 66.8484C123.452 66.0736 123.853 64.584 123.572 63.5246C123.575 63.5182 123.572 63.5119 123.572 63.5056Z" fill="#455A64"/>
<path id="Vector_24" d="M121.652 63.0071C120.874 63.7819 120.472 65.2715 120.754 66.3309C121.035 67.3935 121.896 67.6244 122.674 66.8496C123.452 66.0747 123.853 64.5852 123.572 63.5257C123.29 62.4663 122.433 62.2323 121.652 63.0071Z" fill="#37474F"/>
</g>
<path id="Vector_25" d="M117.848 67.2577C117.687 66.7295 116.672 66.0686 116.049 65.7302C115.413 65.3855 115.094 64.9269 115.024 64.5411C114.993 64.364 114.996 64.1236 115.135 63.9908C115.274 63.858 115.448 63.7568 115.619 63.6651C115.846 63.5417 116.077 63.4247 116.302 63.3014C116.561 63.1622 116.808 62.9851 117.055 62.827C117.115 62.789 117.178 62.7479 117.251 62.7289C117.32 62.71 117.399 62.7131 117.459 62.7542C117.706 62.925 117.674 63.4057 117.573 63.6429C117.472 63.8801 117.282 64.0635 117.102 64.247C116.956 64.3956 116.757 64.5917 116.713 64.8036C116.675 65.0028 116.925 65.1546 117.073 65.221C117.345 65.3475 117.659 65.4582 117.924 65.512C118.307 65.5942 117.734 66.8877 117.848 67.2577Z" fill="#FFA8A7"/>
</g>
</g>
<g id="Group_13">
<path id="Vector_26" d="M108.823 79.8854C108.39 77.3997 106.211 75.2144 103.045 74.8791L98.7944 74.8096C98.7944 74.8096 97.697 74.993 95.7995 75.3915C93.902 75.79 92.9184 76.6849 92.754 78.1966C92.6433 79.2118 92.6844 79.7905 93.026 81.4667L93.4434 84.3667C93.4434 84.3667 94.9108 88.4021 95.0342 89.9486C95.1607 91.5298 95.0531 93.6962 94.1075 95.9795C99.7052 98.44 104.923 99.2179 109.259 96.0934C109.889 92.3141 110.009 86.6722 108.823 79.8854Z" fill="#FFA8A7"/>
<path id="Vector_27" d="M109.957 83.7234C109.457 77.7557 104.236 75.017 104.236 75.017L100.706 74.2959L95.7287 75.4028C95.7287 75.4028 96.9715 81.5824 93.4453 84.3622C93.4453 84.3622 93.7078 85.4628 94.3118 87.7335C94.9064 89.9599 95.3618 93.0433 93.5244 96.6518C93.5244 96.6518 95.074 98.1825 100.95 98.5967C106.826 99.011 109.603 96.2976 109.603 96.2976C109.603 96.2976 110.457 89.6911 109.957 83.7234Z" fill="#BCE1C8"/>
<path id="Vector_28" opacity="0.5" d="M99.8518 98.5019C100.152 97.9959 100.494 97.3128 100.475 96.8732C100.443 96.0953 97.559 95.76 97.0277 95.4533C96.4964 95.1465 96.6862 92.6355 96.4901 90.6114C96.294 88.5874 95.029 85.2351 94.4028 83.6223L94.542 83.1953C94.2415 83.6254 93.8778 84.0207 93.4414 84.3655C93.4414 84.3655 93.7039 85.466 94.3079 87.7367C94.9025 89.9631 95.3579 93.0466 93.5205 96.655C93.5236 96.655 94.8804 97.9896 99.8518 98.5019Z" fill="#819481"/>
</g>
<g id="Group_14">
<path id="Vector_29" d="M95.7248 75.401C95.7248 75.401 93.2992 74.7622 91.6989 75.7046C90.3833 76.4826 89.6686 77.4219 89.0519 79.3004C88.081 80.1005 87.088 81.005 86.2784 82.1088C84.8236 84.098 83.7515 86.4193 82.9356 87.6938C82.496 88.3832 81.9078 89.0442 82.0596 90.0372C82.1197 90.423 82.3632 90.6444 82.8217 91.0713L87.2809 89.8285C88.5933 88.399 91.4965 86.356 93.2897 84.0316L93.4447 84.3605C94.8615 83.5382 95.981 81.8146 96.0917 79.9108C96.3004 76.2391 95.7248 75.401 95.7248 75.401Z" fill="#FFA8A7"/>
<path id="Vector_30" d="M82.3281 90.5714C82.8215 91.0743 83.6248 92.2286 85.1776 93.56C86.3603 94.572 88.9473 96.0869 89.9245 96.6498C91.2654 97.4215 91.7746 97.801 92.8087 98.4145C93.5867 98.8794 95.3135 99.7712 96.9548 99.7775C97.8877 99.7807 99.0927 99.1767 99.8295 97.744C100.206 97.0135 99.0231 96.5454 97.4323 96.2893C95.4463 95.9699 95.0605 95.5429 94.5703 95.2836C94.2414 95.1096 94.2667 94.8883 94.3773 94.5341C94.4691 94.2811 94.5323 94.0249 94.5766 93.7592C94.5007 93.7055 94.118 93.7529 93.6784 94.1071C93.1503 94.5341 92.7012 94.6384 91.4394 93.3418C90.1364 92.004 89.6019 90.6821 87.8942 89.2368C86.1864 87.7916 82.3281 90.5714 82.3281 90.5714Z" fill="#FFA8A7"/>
<path id="Vector_31" d="M94.3699 83.0827C94.4015 82.602 94.3952 82.3711 94.3952 82.3711C93.9177 83.1997 93.2852 84.0346 93.2852 84.0346L93.4401 84.3635C93.7817 84.1642 94.1042 83.9144 94.4015 83.6203C94.3699 83.478 94.3604 83.1997 94.3699 83.0827Z" fill="#F28F8F"/>
<path id="Vector_32" d="M87.8808 89.2272C86.9353 88.6864 85.8473 88.7971 85.2812 88.9932C85.2812 88.9932 86.3628 87.9053 88.4627 88.6991L87.8808 89.2272Z" fill="#F28F8F"/>
</g>
<g id="XMLID_412_">
<g id="XMLID_3721_">
<path id="Vector_33" d="M97.2751 62.0557C97.2751 62.0557 96.2631 62.2707 95.9184 63.4124C95.6812 64.1967 95.8172 65.6736 96.3074 67.6059C96.7976 69.5414 97.4079 70.7463 97.6894 71.2808C97.974 71.8152 98.5528 71.9639 98.5528 71.9639L98.4832 69.6647L98.3915 68.0645C98.3915 68.0645 99.4098 66.654 99.5173 65.5028C99.6533 64.0196 99.3371 63.4156 99.3371 63.4156L97.2751 62.0557Z" fill="#37474F"/>
<path id="XMLID_3726_" d="M97.3804 62.5676L95.6758 62.2197C95.7896 61.7105 96.2608 61.3753 96.7321 61.4702C97.2001 61.565 97.4911 62.0552 97.3804 62.5676Z" fill="#37474F"/>
<path id="XMLID_326_" d="M97.4136 62.1287L96.1328 60.9491C96.4933 60.5696 97.0721 60.5285 97.4263 60.8542C97.7805 61.18 97.7742 61.7492 97.4136 62.1287Z" fill="#37474F"/>
<path id="XMLID_3725_" d="M100.856 64.7809C100.875 66.846 102.563 68.5032 104.629 68.4842C106.694 68.4652 108.351 66.7764 108.332 64.7113C108.313 62.6462 106.624 60.989 104.559 61.008C102.494 61.0269 100.837 62.7157 100.856 64.7809Z" fill="#37474F"/>
<path id="XMLID_3724_" d="M98.4477 67.8051C98.0619 68.1435 97.7425 67.277 97.4168 66.9417C97.091 66.6065 96.0284 66.1511 95.5098 67.2706C94.9816 68.4092 95.9905 69.9936 96.8064 70.3067C97.5243 70.585 97.9829 70.1738 97.9829 70.1738L98.0113 75.0473C98.5711 76.1384 100.779 77.5489 103.296 77.1188C104.374 76.9353 103.871 75.6165 103.309 74.8828L103.29 73.0834C103.29 73.0834 104.593 73.27 105.225 73.1656C106.278 72.9917 106.825 72.1947 107.135 71.0467C107.632 69.2061 107.818 66.1195 107.091 62.5585C105.905 61.6508 101.806 61.8279 99.3396 63.4155C99.5357 66.5749 98.8304 67.4699 98.4477 67.8051Z" fill="#FFA8A7"/>
<path id="Vector_34" d="M107.662 60.0282C107.63 59.9681 107.576 59.9112 107.507 59.9112C107.453 59.9112 107.406 59.9428 107.364 59.9744C107.209 60.0883 106.865 60.3792 106.428 60.6132C106.514 60.1926 106.514 59.753 106.438 59.3324C106.39 59.0731 106.311 58.4722 105.989 58.409C105.796 58.371 105.631 58.5323 105.489 58.6683C104.205 59.8827 102.519 59.3356 100.967 59.3957C99.6668 59.4463 98.1014 59.9839 97.5226 61.2521C97.257 61.8308 97.2159 62.4412 97.7472 62.8365C98.2026 63.1749 98.7845 63.3267 99.3348 63.4184C101.928 63.8517 105.644 64.8953 107.542 62.4696C107.82 62.1123 107.94 61.7106 107.934 61.2015C107.927 60.7334 107.829 60.3887 107.668 60.0471C107.668 60.0377 107.665 60.0345 107.662 60.0282Z" fill="#37474F"/>
<path id="XMLID_3723_" d="M103.288 73.0831C103.288 73.0831 100.929 72.6308 100.101 72.2007C99.5472 71.9129 98.804 71.4417 98.668 71.1191C98.668 71.1191 98.6996 71.9857 99.5155 72.5897C100.79 73.5321 103.295 73.8452 103.295 73.8452L103.288 73.0831Z" fill="#F28F8F"/>
</g>
<g id="XMLID_413_">
<path id="XMLID_3720_" d="M102.637 66.9109C102.64 67.1829 102.431 67.4042 102.169 67.4042C101.91 67.4074 101.695 67.1892 101.691 66.9172C101.688 66.6452 101.897 66.4239 102.159 66.4239C102.422 66.4207 102.637 66.6389 102.637 66.9109Z" fill="#263238"/>
<path id="XMLID_3719_" d="M102.375 65.4734L101.325 65.9509C101.199 65.6505 101.332 65.2994 101.622 65.1666C101.913 65.0338 102.249 65.1729 102.375 65.4734Z" fill="#263238"/>
<path id="XMLID_3718_" d="M102.7 69.9375L104.591 70.6269C104.411 71.1677 103.838 71.4524 103.316 71.2626C102.795 71.0728 102.52 70.4783 102.7 69.9375Z" fill="#B16668"/>
<path id="Vector_35" d="M103.319 71.2627C103.493 71.3259 103.674 71.3322 103.841 71.2974C103.816 70.8104 103.417 70.4246 102.924 70.4278C102.836 70.4278 102.75 70.4467 102.668 70.4689C102.734 70.8231 102.968 71.1362 103.319 71.2627Z" fill="#F28F8F"/>
<path id="XMLID_1281_" d="M106.934 65.7853L105.84 65.3899C105.938 65.0832 106.264 64.9219 106.564 65.0294C106.868 65.1401 107.032 65.4785 106.934 65.7853Z" fill="#263238"/>
<path id="XMLID_418_" d="M106.692 66.7712C106.695 67.0432 106.486 67.2646 106.224 67.2646C105.964 67.2677 105.749 67.0495 105.746 66.7775C105.743 66.5056 105.952 66.2842 106.214 66.2842C106.477 66.2842 106.689 66.5024 106.692 66.7712Z" fill="#263238"/>
<path id="XMLID_416_" d="M104.102 66.248L104.393 69.2366L105.974 68.699L104.102 66.248Z" fill="#F28F8F"/>
</g>
</g>
</g>
</g>
</g>
<g id="Mat_1_">
<g id="Mat">
<path id="Vector_36" d="M188.592 131.55L128.953 165.946L98.6719 148.562L158.311 114.166L188.592 131.55Z" fill="#BBF046"/>
<path id="Vector_37" opacity="0.7" d="M188.401 131.55L128.762 165.946L98.4805 148.562L158.119 114.166L188.401 131.55Z" fill="white"/>
<path id="Vector_38" d="M188.592 131.549V132.393L128.953 166.789V165.944L188.592 131.549Z" fill="#BBF046"/>
<path id="Vector_39" opacity="0.5" d="M188.592 131.549V132.393L128.953 166.789V165.944L188.592 131.549Z" fill="white"/>
<path id="Vector_40" d="M128.953 165.947L98.6719 148.562V149.407L128.953 166.791V165.947Z" fill="#BBF046"/>
<path id="Vector_41" opacity="0.4" d="M128.953 165.947L98.6719 148.562V149.407L128.953 166.791V165.947Z" fill="white"/>
</g>
</g>
<g id="Dumbbell">
<g id="Dumbbell_4_">
<g id="Shadow_21_">
<path id="Shadow_23_" opacity="0.2" d="M132.936 158.57L132.259 158.181C131.801 157.915 131.801 157.489 132.259 157.223L133.765 156.353L129.065 153.637L127.56 154.506C127.101 154.772 126.358 154.772 125.9 154.506L125.223 154.117C124.764 153.852 124.764 153.425 125.223 153.159L129.79 150.522C130.248 150.256 130.991 150.256 131.45 150.522L132.127 150.91C132.585 151.176 132.585 151.603 132.127 151.869L130.463 152.827L135.163 155.544L136.826 154.585C137.285 154.32 138.028 154.32 138.486 154.585L139.163 154.974C139.622 155.24 139.622 155.667 139.163 155.933L134.597 158.57C134.138 158.836 133.395 158.836 132.936 158.57Z" fill="#27DEBF"/>
<path id="Shadow_22_" opacity="0.1" d="M132.936 158.57L132.259 158.181C131.801 157.915 131.801 157.489 132.259 157.223L133.765 156.353L129.065 153.637L127.56 154.506C127.101 154.772 126.358 154.772 125.9 154.506L125.223 154.117C124.764 153.852 124.764 153.425 125.223 153.159L129.79 150.522C130.248 150.256 130.991 150.256 131.45 150.522L132.127 150.91C132.585 151.176 132.585 151.603 132.127 151.869L130.463 152.827L135.163 155.544L136.826 154.585C137.285 154.32 138.028 154.32 138.486 154.585L139.163 154.974C139.622 155.24 139.622 155.667 139.163 155.933L134.597 158.57C134.138 158.836 133.395 158.836 132.936 158.57Z" fill="black"/>
</g>
<g id="Group_15">
<path id="Vector_42" d="M130.613 149.357C130.613 149.354 130.613 149.347 130.613 149.344C130.613 148.038 129.553 146.979 128.247 146.979C127.811 146.979 127.403 147.099 127.048 147.307C127.042 147.311 127.036 147.314 127.029 147.317C127.01 147.326 126.991 147.342 126.973 147.352C126.95 147.364 126.928 147.377 126.909 147.393C125.777 148.117 124.879 149.714 124.879 151.039C124.879 151.046 124.879 151.049 124.879 151.055C124.879 151.058 124.879 151.064 124.879 151.068C124.879 151.14 124.882 151.213 124.888 151.283C124.888 151.286 124.888 151.286 124.888 151.289C124.999 152.494 126.011 153.436 127.244 153.436C127.425 153.436 127.596 153.414 127.763 153.376C127.981 153.335 128.215 153.25 128.459 153.111C129.645 152.424 130.609 150.758 130.609 149.388C130.616 149.373 130.613 149.363 130.613 149.357Z" fill="#455A64"/>
<path id="Vector_43" d="M128.463 148.138C127.277 148.824 126.312 150.491 126.312 151.86C126.312 153.229 127.274 153.786 128.463 153.1C129.649 152.413 130.614 150.747 130.614 149.377C130.614 148.008 129.649 147.451 128.463 148.138Z" fill="#37474F"/>
</g>
<g id="Group_16">
<path id="Vector_44" d="M135.009 152.787L135.002 152.784C134.996 152.781 134.993 152.777 134.987 152.774L129.465 149.574V149.577C129.285 149.46 129.028 149.466 128.744 149.631C128.197 149.947 127.754 150.715 127.754 151.348C127.754 151.671 127.871 151.892 128.054 151.993L133.582 155.197C133.763 155.307 134.016 155.298 134.294 155.137C134.841 154.82 135.284 154.052 135.284 153.419C135.284 153.109 135.18 152.891 135.009 152.787Z" fill="#263238"/>
<path id="Vector_45" d="M133.305 154.562C133.305 155.194 133.747 155.45 134.295 155.134C134.842 154.818 135.284 154.049 135.284 153.417C135.284 152.784 134.842 152.528 134.295 152.844C133.747 153.161 133.305 153.929 133.305 154.562Z" fill="#455A64"/>
</g>
<g id="Group_17">
<path id="Vector_46" d="M137.784 153.494C137.784 153.491 137.784 153.485 137.784 153.482C137.784 152.176 136.725 151.116 135.419 151.116C134.982 151.116 134.574 151.236 134.22 151.445C134.214 151.448 134.208 151.451 134.201 151.455C134.182 151.464 134.163 151.48 134.144 151.489C134.122 151.502 134.1 151.515 134.081 151.531C132.949 152.255 132.051 153.852 132.051 155.177C132.051 155.183 132.051 155.186 132.051 155.19C132.051 155.193 132.051 155.199 132.051 155.202C132.051 155.275 132.054 155.348 132.06 155.417C132.06 155.42 132.06 155.42 132.06 155.424C132.171 156.628 133.183 157.571 134.416 157.571C134.597 157.571 134.767 157.549 134.935 157.511C135.153 157.47 135.387 157.384 135.631 157.245C136.817 156.559 137.781 154.892 137.781 153.523C137.788 153.51 137.784 153.504 137.784 153.494Z" fill="#455A64"/>
<path id="Vector_47" d="M135.635 152.276C134.449 152.962 133.484 154.629 133.484 155.998C133.484 157.368 134.446 157.924 135.635 157.238C136.821 156.552 137.785 154.885 137.785 153.516C137.785 152.146 136.821 151.593 135.635 152.276Z" fill="#37474F"/>
</g>
</g>
</g>
<g id="Water">
<g id="Water_1_">
<g id="XMLID_3777_">
<path id="Vector_48" d="M93.2492 142.236C93.1227 141.673 92.8349 141.073 92.5945 140.544C92.5661 140.484 92.5376 140.421 92.506 140.361C91.9842 139.327 91.9873 138.106 92.5534 137.094C92.5724 137.059 92.5914 137.025 92.6103 136.99C92.9645 136.348 93.1163 135.797 93.1163 135.067C93.1195 134.51 92.7526 133.675 92.0189 133.248C91.8608 133.154 91.69 133.071 91.5098 133.002C91.1777 132.869 90.9563 132.553 90.9563 132.195L90.9595 131.199L87.7717 131.187L87.7685 132.183C87.7685 132.54 87.5408 132.853 87.2087 132.986C87.0285 133.056 86.8577 133.138 86.6964 133.23C85.9595 133.65 85.5864 134.482 85.5864 135.038C85.58 135.769 85.7287 136.319 86.0766 136.964C86.0955 136.996 86.1113 137.031 86.1303 137.063C86.6932 138.078 86.6869 139.305 86.1556 140.336C86.124 140.396 86.0924 140.459 86.0639 140.519C85.8204 141.044 85.5231 141.642 85.3966 142.205C85.2733 142.749 85.2416 143.337 85.2416 143.919L85.2227 148.555C85.2195 149.159 85.6148 149.76 86.4055 150.222C87.0538 150.598 87.8665 150.823 88.7078 150.895C89.0904 150.927 89.4794 150.93 89.8589 150.899C90.7002 150.829 91.5066 150.614 92.1518 150.244C92.9487 149.789 93.3472 149.191 93.3472 148.59L93.3599 145.238C93.363 144.82 93.3788 144.384 93.3788 143.947C93.3915 143.365 93.3693 142.78 93.2492 142.236Z" fill="#455A64"/>
<path id="Vector_49" d="M92.5496 137.098C92.5685 137.063 92.5875 137.028 92.6065 136.994C92.9101 136.443 93.0651 135.956 93.103 135.368C93.0303 135.599 92.9259 135.824 92.7994 136.026C92.4357 136.617 91.9012 137.085 91.3636 137.525C90.8165 137.971 90.2125 138.477 90.1429 139.179C90.0765 139.859 90.5572 140.476 91.1011 140.884C91.6451 141.295 92.2839 141.583 92.7741 142.057C92.986 142.262 93.1663 142.503 93.3307 142.749C93.3086 142.576 93.2833 142.405 93.2485 142.237C93.122 141.674 92.8342 141.073 92.5938 140.545C92.5654 140.485 92.5369 140.422 92.5053 140.362C91.9803 139.331 91.9835 138.107 92.5496 137.098Z" fill="#37474F"/>
<g id="Group_18">
<path id="XMLID_3784_" d="M87.2376 132.302L87.2344 132.837C87.2312 133.156 87.4431 133.479 87.8669 133.725C88.7081 134.216 90.0807 134.222 90.9282 133.738C91.1401 133.618 91.2983 133.476 91.4058 133.327C91.5101 133.178 91.5639 133.02 91.5639 132.859L91.5671 132.315C91.5671 132.268 91.5639 132.217 91.5513 132.169C91.5007 131.897 91.2951 131.635 90.9377 131.426C90.9282 131.42 90.9156 131.414 90.9061 131.41C90.0585 130.936 88.7113 130.939 87.8764 131.417C87.519 131.622 87.3103 131.882 87.2565 132.15C87.2407 132.201 87.2376 132.252 87.2376 132.302Z" fill="#BBF046"/>
<path id="XMLID_3781_" opacity="0.1" d="M87.2376 132.302L87.2344 132.837C87.2312 133.156 87.4431 133.479 87.8669 133.725C88.7081 134.216 90.0807 134.222 90.9282 133.738C91.1401 133.618 91.2983 133.476 91.4058 133.327C91.5101 133.178 91.5639 133.02 91.5639 132.859L91.5671 132.315C91.5671 132.268 91.5639 132.217 91.5513 132.169C91.5007 131.897 91.2951 131.635 90.9377 131.426C90.9282 131.42 90.9156 131.414 90.9061 131.41C90.0585 130.936 88.7113 130.939 87.8764 131.417C87.519 131.622 87.3103 131.882 87.2565 132.15C87.2407 132.201 87.2376 132.252 87.2376 132.302Z" fill="black"/>
<path id="XMLID_3780_" opacity="0.2" d="M90.927 133.195C91.7746 132.711 91.7777 131.921 90.9333 131.427C90.089 130.937 88.7196 130.931 87.872 131.415C87.0245 131.899 87.0213 132.689 87.8657 133.182C88.7101 133.676 90.0795 133.679 90.927 133.195Z" fill="black"/>
<path id="XMLID_3779_" d="M87.2383 131.676V131.999C87.2383 132.049 87.2414 132.1 87.2541 132.15C87.3047 132.419 87.5134 132.682 87.8676 132.891C88.244 133.112 88.7278 133.232 89.218 133.254C89.8284 133.286 90.4577 133.169 90.9289 132.9C91.1408 132.78 91.299 132.641 91.4065 132.489C91.4792 132.388 91.5267 132.277 91.5488 132.169C91.5615 132.122 91.5646 132.071 91.5646 132.024V131.692C91.5646 131.369 91.3559 131.05 90.9353 130.806C90.8973 130.784 90.8594 130.765 90.8214 130.746C89.9707 130.316 88.6836 130.332 87.8771 130.797C87.4533 131.034 87.2383 131.354 87.2383 131.676Z" fill="#BBF046"/>
<path id="XMLID_3778_" opacity="0.1" d="M87.2383 131.676V131.999C87.2383 132.049 87.2414 132.1 87.2541 132.15C87.3047 132.419 87.5134 132.682 87.8676 132.891C88.244 133.112 88.7278 133.232 89.218 133.254C89.8284 133.286 90.4577 133.169 90.9289 132.9C91.1408 132.78 91.299 132.641 91.4065 132.489C91.4792 132.388 91.5267 132.277 91.5488 132.169C91.5615 132.122 91.5646 132.071 91.5646 132.024V131.692C91.5646 131.369 91.3559 131.05 90.9353 130.806C90.8973 130.784 90.8594 130.765 90.8214 130.746C89.9707 130.316 88.6836 130.332 87.8771 130.797C87.4533 131.034 87.2383 131.354 87.2383 131.676Z" fill="black"/>
<path id="Vector_50" d="M87.2383 131.667C87.2351 132.353 88.2029 132.916 89.3983 132.92C90.5937 132.923 91.5646 132.372 91.5678 131.683C91.571 130.997 90.6032 130.434 89.4078 130.431C88.2123 130.428 87.2415 130.981 87.2383 131.667Z" fill="#BBF046"/>
</g>
</g>
<path id="XMLID_3776_" d="M88.6594 130.391L88.6562 131.51C88.6562 131.529 88.6563 131.545 88.6626 131.564C88.6816 131.656 88.7511 131.748 88.8745 131.82C89.0041 131.896 89.1717 131.937 89.3425 131.947C89.5544 131.956 89.7726 131.918 89.9339 131.823C90.0067 131.782 90.0604 131.735 90.0984 131.681C90.1237 131.646 90.1395 131.608 90.149 131.57C90.1521 131.555 90.1553 131.536 90.1553 131.52L90.1584 130.397C90.1584 130.286 90.0857 130.176 89.9402 130.09C89.9276 130.084 89.9149 130.075 89.8991 130.068C89.605 129.92 89.1591 129.926 88.8776 130.084C88.7322 130.169 88.6594 130.28 88.6594 130.391Z" fill="#BBF046"/>
<path id="XMLID_344_" opacity="0.1" d="M88.6594 130.391L88.6562 131.51C88.6562 131.529 88.6563 131.545 88.6626 131.564C88.6816 131.656 88.7511 131.748 88.8745 131.82C89.0041 131.896 89.1717 131.937 89.3425 131.947C89.5544 131.956 89.7726 131.918 89.9339 131.823C90.0067 131.782 90.0604 131.735 90.0984 131.681C90.1237 131.646 90.1395 131.608 90.149 131.57C90.1521 131.555 90.1553 131.536 90.1553 131.52L90.1584 130.397C90.1584 130.286 90.0857 130.176 89.9402 130.09C89.9276 130.084 89.9149 130.075 89.8991 130.068C89.605 129.92 89.1591 129.926 88.8776 130.084C88.7322 130.169 88.6594 130.28 88.6594 130.391Z" fill="black"/>
<path id="Vector_51" d="M88.6562 130.387C88.6562 130.624 88.9915 130.82 89.4058 130.82C89.8201 130.823 90.1553 130.63 90.1584 130.393C90.1584 130.156 89.8232 129.96 89.4089 129.96C88.9946 129.957 88.6562 130.15 88.6562 130.387Z" fill="#BBF046"/>
<path id="Vector_52" opacity="0.5" d="M89.1445 130.39C89.1445 130.476 89.2648 130.545 89.4105 130.545C89.5561 130.545 89.6764 130.479 89.6764 130.394C89.6764 130.308 89.5592 130.238 89.4105 130.238C89.2648 130.235 89.1445 130.305 89.1445 130.39Z" fill="#BBF046"/>
<path id="Vector_53" opacity="0.3" d="M89.1445 130.39C89.1445 130.476 89.2648 130.545 89.4105 130.545C89.5561 130.545 89.6764 130.479 89.6764 130.394C89.6764 130.308 89.5592 130.238 89.4105 130.238C89.2648 130.235 89.1445 130.305 89.1445 130.39Z" fill="black"/>
</g>
</g>
<g id="Character_3_">
<g id="Shadow">
<path id="Vector_54" opacity="0.2" d="M166.88 126.901C166.665 127.746 166.767 128.647 166.52 129.485C166.169 130.677 165.16 131.569 164.075 132.176C159.762 134.602 154.303 133.438 149.594 134.956C148.136 135.427 146.606 136.354 146.321 137.859C146.118 138.941 146.643 140.064 147.447 140.816C148.25 141.569 149.294 142.009 150.337 142.353C154.534 143.738 159.063 143.596 163.433 142.922C168.073 142.208 172.45 139.554 174.072 138.321C176.589 136.408 178.449 133.305 178.003 130.174C177.598 127.325 174.932 125.225 172.333 124.26C170.277 123.498 167.44 124.713 166.88 126.901Z" fill="#BBF046"/>
<path id="Vector_55" opacity="0.1" d="M167.076 127.013C166.861 127.858 166.962 128.759 166.715 129.597C166.364 130.789 165.355 131.681 164.271 132.289C159.957 134.714 154.498 133.55 149.789 135.068C148.331 135.54 146.801 136.466 146.516 137.972C146.314 139.053 146.839 140.176 147.642 140.929C148.445 141.681 149.489 142.121 150.533 142.466C154.729 143.851 159.258 143.708 163.629 143.035C168.268 142.32 172.645 139.667 174.267 138.433C176.785 136.52 178.644 133.418 178.198 130.287C177.794 127.437 175.128 125.337 172.528 124.373C170.472 123.611 167.636 124.825 167.076 127.013Z" fill="black"/>
</g>
<g id="Character_10_">
<g id="Group_19">
<path id="Vector_56" d="M170.652 67.8338C171.781 67.1222 173.932 66.5593 175.763 67.1886C178.935 66.0975 180.51 66.2968 183.049 66.2936C183.616 66.2936 185.459 66.1102 185.81 66.4296C186.076 66.6731 186.152 66.9546 186.282 67.5175L185.156 70.5156C183.201 70.9046 182.075 71.3821 179.273 71.8249C177.066 72.1728 175.652 72.3878 175.412 73.4314C172.262 71.107 170.652 67.8338 170.652 67.8338Z" fill="#B16668"/>
<path id="Vector_57" d="M187.229 69.4218C187.599 68.9569 187.612 68.3877 187.567 67.6413C187.501 66.4459 187.061 64.1752 186.884 63.1442C186.597 61.4965 186.274 60.5035 186.04 59.1879C185.79 57.7806 185.939 57.0374 185.433 55.921C184.971 54.9027 181.878 54.5991 181.239 55.9558C180.872 56.7369 182.213 57.1291 182.251 57.7236C182.251 57.7236 181.027 57.341 181.287 58.0905C181.6 58.995 182.754 58.9444 182.896 60.0987C183.093 61.7274 182.884 64.4408 182.884 66.9108C182.884 67.9291 183.396 70.9209 183.396 70.9209C184.664 70.5698 186.401 70.4623 187.229 69.4218Z" fill="#B16668"/>
<path id="Vector_58" d="M185.265 59.1878L185.736 57.6983L181.571 56.8887C181.871 57.167 182.232 57.42 182.251 57.7267C182.251 57.7267 181.027 57.3441 181.286 58.0936C181.362 58.3118 181.485 58.4731 181.631 58.6091C181.985 58.7799 182.466 59.093 182.899 59.2289C183.655 59.4598 184.23 59.3871 184.515 58.9412C184.528 58.9285 185.265 59.1878 185.265 59.1878Z" fill="#9A4A4D"/>
<path id="Vector_59" d="M182.896 66.2725C183.763 66.3453 184.49 66.535 185.224 67.2339C185.224 67.2339 185.066 66.0606 182.896 65.6748C182.893 65.8709 182.89 66.0638 182.887 66.2599C182.893 66.2662 182.893 66.2694 182.896 66.2725Z" fill="#9A4A4D"/>
<g id="Dumbbell_3_">
<g id="Group_20">
<path id="Vector_60" d="M181.391 55.2291C181.391 55.2259 181.391 55.2228 181.388 55.2196C181.138 54.2835 180.18 53.7269 179.244 53.9767C178.931 54.059 178.662 54.2234 178.45 54.4385C178.447 54.4416 178.444 54.4448 178.437 54.448C178.425 54.4606 178.415 54.4733 178.403 54.4859C178.39 54.4986 178.377 54.5144 178.365 54.527C177.694 55.2607 177.356 56.5763 177.606 57.5219C177.606 57.5251 177.609 57.5283 177.609 57.5314C177.609 57.5346 177.609 57.5377 177.612 57.5409C177.625 57.5915 177.644 57.6421 177.659 57.6927V57.6959C177.969 58.5371 178.871 59.0178 179.753 58.7838C179.88 58.749 180 58.7016 180.114 58.6415C180.262 58.5719 180.414 58.4644 180.559 58.3189C181.277 57.6042 181.651 56.2285 181.391 55.2449C181.394 55.2386 181.394 55.2354 181.391 55.2291Z" fill="#455A64"/>
<path id="Vector_61" d="M179.621 54.767C178.903 55.4817 178.53 56.8574 178.789 57.8409C179.049 58.8213 179.846 59.0364 180.564 58.3216C181.282 57.6069 181.655 56.2312 181.395 55.2477C181.133 54.2641 180.339 54.0491 179.621 54.767Z" fill="#37474F"/>
</g>
<g id="Group_21">
<path id="Vector_62" d="M186.446 57.4013L186.443 57.3981C186.44 57.3981 186.437 57.395 186.43 57.395L180.425 55.7283V55.7315C180.298 55.6904 180.146 55.7346 180.004 55.8769C179.729 56.1521 179.583 56.6802 179.685 57.0566C179.735 57.2495 179.84 57.3633 179.966 57.395L185.978 59.0648C186.104 59.1027 186.253 59.0584 186.392 58.9161C186.667 58.641 186.813 58.1129 186.712 57.7365C186.664 57.5499 186.566 57.4392 186.446 57.4013Z" fill="#263238"/>
<path id="Vector_63" d="M185.712 58.73C185.813 59.1063 186.117 59.1886 186.395 58.9134C186.671 58.6383 186.816 58.1101 186.715 57.7338C186.614 57.3575 186.31 57.2752 186.032 57.5504C185.753 57.8255 185.611 58.3537 185.712 58.73Z" fill="#455A64"/>
</g>
<path id="Vector_64" d="M185.583 56.4006C185.308 55.5941 185.399 55.4265 184.729 55.2811C184.059 55.1356 184.055 54.579 183.388 54.658C182.721 54.7371 182.218 54.9616 181.921 54.8699C181.623 54.7782 181.029 55.1008 180.754 55.5467C180.479 55.9926 180.485 56.6568 180.523 57.1058C180.561 57.5581 181.038 58.0957 181.962 58.472C182.863 58.8421 184.22 59.405 184.511 58.6523L184.131 58.5479C184.021 58.3424 183.983 57.9249 184.087 57.6055C184.157 57.3936 184.346 57.0837 184.65 56.9003L185.121 57.0299L185.583 56.4006Z" fill="#B16668"/>
<g id="Group_22">
<path id="Vector_65" d="M188.524 57.193C188.524 57.1898 188.524 57.1866 188.521 57.1835C188.271 56.2474 187.313 55.6908 186.377 55.9406C186.064 56.0228 185.795 56.1873 185.583 56.4023C185.58 56.4055 185.577 56.4087 185.57 56.4118C185.558 56.4245 185.548 56.4371 185.535 56.4498C185.523 56.4624 185.51 56.4782 185.497 56.4909C184.827 57.2246 184.489 58.5402 184.738 59.4858C184.738 59.489 184.742 59.4921 184.742 59.4953C184.742 59.4984 184.742 59.5016 184.745 59.5048C184.757 59.5554 184.776 59.606 184.792 59.6566V59.6597C185.102 60.501 186.003 60.9817 186.886 60.7476C187.012 60.7129 187.133 60.6654 187.246 60.6053C187.395 60.5358 187.547 60.4282 187.692 60.2828C188.41 59.568 188.783 58.1923 188.524 57.2088C188.53 57.2056 188.527 57.1993 188.524 57.193Z" fill="#455A64"/>
<path id="Vector_66" d="M186.754 56.7314C186.036 57.4461 185.663 58.8218 185.922 59.8054C186.182 60.7858 186.979 61.0008 187.696 60.2861C188.414 59.5714 188.788 58.1957 188.528 57.2121C188.269 56.2286 187.475 56.0167 186.754 56.7314Z" fill="#37474F"/>
</g>
</g>
</g>
<g id="XMLID_3749_">
<g id="Group_23">
<path id="Vector_67" d="M149.483 137.955C149.378 137.99 149.363 138.594 149.457 138.793C149.562 139.015 150.223 139.742 151.567 140.004C152.911 140.27 154.758 139.998 155.552 139.957C156.345 139.916 158.844 140.213 159.638 140.321C160.884 140.488 161.845 140.216 162.31 139.764C162.493 139.587 162.506 139.328 162.496 139.106C162.474 138.581 162.424 138.474 162.364 138.48L149.483 137.955Z" fill="#37474F"/>
<g id="XMLID_3768_">
<g id="XMLID_3769_">
<path id="XMLID_3770_" d="M162.155 136.912C162.181 137.016 162.203 137.12 162.222 137.225C162.32 137.743 162.405 138.316 162.339 138.844C162.178 139.239 161.735 139.454 161.381 139.568C160.441 139.866 159.727 139.818 158.686 139.622C158.063 139.505 156.27 139.378 155.524 139.429C154.704 139.486 153.579 139.641 152.756 139.565C152.057 139.502 151.368 139.429 150.72 139.151C150.173 138.917 149.616 138.616 149.48 138.053C149.429 137.029 149.945 136.532 150.508 136.203C151.51 135.615 152.791 135.609 153.923 135.574C154.831 135.546 155.773 135.527 156.577 135.109C157 134.891 157.371 134.565 157.82 134.401C158.095 134.299 158.471 134.363 158.772 134.353C159.477 134.337 160.179 134.322 160.884 134.315C161.074 134.312 161.267 134.303 161.456 134.318C161.836 134.35 161.906 135.659 161.953 135.916C161.991 136.115 161.997 136.33 162.051 136.523C162.089 136.652 162.124 136.782 162.155 136.912Z" fill="#455A64"/>
</g>
</g>
<path id="Vector_68" d="M155.926 135.361C155.183 135.93 155.082 136.819 155.082 136.819C155.101 137.214 154.405 137.249 154.383 136.853C154.383 136.853 154.446 135.952 154.993 135.519C154.993 135.519 155.483 135.253 155.926 135.361Z" fill="#FAFAFA"/>
<path id="Vector_69" d="M154.306 135.562C154.306 135.562 153.765 135.846 153.626 136.839C153.617 137.133 153.006 137.105 153.016 136.814C153.016 136.814 153.111 135.966 153.572 135.584C153.765 135.448 154.243 135.445 154.306 135.562Z" fill="#FAFAFA"/>
</g>
<g id="Group_24">
<path id="XMLID_3765_" d="M168.606 125.943C168.369 126.873 168.397 127.272 168.672 128.002C169.064 129.049 169.76 129.53 170.228 129.938C170.699 130.346 171.224 130.95 171.607 131.541C171.945 132.069 172.331 132.673 173.046 133.268C173.492 133.638 174.729 133.647 175.317 133.385C175.908 133.122 176.101 132.895 176.047 131.946C175.994 131.019 173.103 130.731 173.103 130.731L168.606 125.943Z" fill="#37474F"/>
<path id="XMLID_3764_" d="M175.598 129.141C175.845 129.23 175.915 129.692 175.972 130.618C176.013 131.317 176.329 132.336 175.374 132.797C174.602 133.17 173.353 132.959 172.815 132.307C172.142 131.497 171.686 130.78 170.728 129.793C169.9 128.936 169.046 128.661 168.65 126.924C168.397 125.808 168.875 125.356 169.624 125.021C170.652 124.559 172.079 125.663 172.822 126.165C173.419 126.573 175.352 129.056 175.598 129.141Z" fill="#455A64"/>
<path id="XMLID_3762_" d="M172.819 126.123C172.775 126.111 172.728 126.095 172.68 126.079C171.178 126.24 170.596 127.29 170.451 127.607C170.318 127.917 170.751 128.147 171.001 127.904C171.561 126.734 172.753 126.452 173.227 126.386C173.072 126.25 172.933 126.152 172.819 126.123Z" fill="#FAFAFA"/>
<path id="XMLID_3761_" d="M173.507 126.644C172.119 126.859 171.578 127.848 171.439 128.155C171.306 128.465 171.739 128.696 171.989 128.453C172.432 127.526 173.276 127.156 173.842 127.01C173.728 126.878 173.615 126.751 173.507 126.644Z" fill="#FAFAFA"/>
</g>
<path id="Vector_70" d="M175.369 108.681C175.211 105.278 175.578 99.3168 175.54 95.1297C176.622 91.4453 175.863 89.8925 174.911 88.0741C173.485 85.348 172.533 84.0703 172.533 84.0703L170.309 93.3966L166.758 97.1727C166.758 97.1727 168.874 108.143 169.395 110.509C169.838 112.517 172.251 129.298 172.251 129.298C172.476 130.392 175.018 130.531 175.626 129.756C175.796 126.034 176.473 115.446 176.486 114.25C176.517 110.784 175.369 108.681 175.369 108.681Z" fill="#B16668"/>
<path id="Vector_71" d="M159.914 91.96C159.914 91.96 158.507 112.118 158.507 116.118C158.507 117.649 157.672 134.977 157.672 134.977C157.666 135.426 158.089 135.764 159.133 135.717C160.616 135.653 161.457 135.375 161.518 135.097C161.562 134.894 163.836 125.385 164.424 122.279C165.142 118.5 164.671 115.255 164.671 115.255C165.509 110.796 167.204 101.078 167.596 97.8865C167.934 95.1478 159.914 91.96 159.914 91.96Z" fill="#B16668"/>
<g id="Group_25">
<path id="Vector_72" d="M160.414 84.6916C159.696 89.0338 159.566 90.3842 159.038 95.9502C158.627 100.283 158.374 112.806 158.355 114.555C158.336 116.304 158.004 127.114 158.004 127.114C158.004 127.114 161.271 128.344 163.349 127.433C163.349 127.433 164.269 123.67 164.667 121.962C165.227 119.565 165.214 117.876 164.942 115.178L167.314 100.441C167.314 100.441 169.209 111.029 169.775 114.04C170.341 117.051 170.885 119.976 170.885 119.976C170.885 119.976 172.071 120.466 173.658 120.416C175.243 120.365 176.29 119.438 176.29 119.438C176.29 119.438 176.568 115.447 176.577 114.094C176.593 111.94 176.403 110.868 175.49 108.629L175.79 95.128C175.79 95.128 176.773 92.7308 176.097 90.3842C175.249 87.4525 172.665 83.0439 172.665 83.0439L160.414 84.6916Z" fill="#646D64"/>
<path id="Vector_73" d="M167.316 100.455L168.271 96.9477C168.271 96.9477 171.213 96.7169 172.775 94.6865C172.272 95.6384 171.795 96.7643 169.144 97.7732L168.218 101.35L169.59 113.032L167.316 100.455Z" fill="#595A59"/>
</g>
</g>
<g id="Group_26">
<path id="XMLID_3773_" d="M175.4 71.8719C175.2 70.4582 174.698 68.7441 173.334 68.1559C171.975 67.5677 169.52 67.7986 169.52 67.7986C169.328 68.4437 166.981 69.2691 165.82 68.1559C164.694 68.3931 163.312 68.6493 161.798 69.0193C160.596 69.3102 159.894 73.8643 159.1 75.3317C158.17 77.0553 159.353 78.8231 160.533 79.7276C160.533 79.7276 160.501 82.479 160.409 84.6959C162.484 86.4322 166.361 86.9065 169.353 86.1254C171.608 85.5372 172.493 84.8382 172.68 83.9622C172.825 83.276 173.224 81.0653 173.556 79.8699C174.324 77.1217 175.665 73.7536 175.4 71.8719Z" fill="#B16668"/>
<path id="Vector_74" d="M173.338 68.1559C171.978 67.5677 169.524 67.7986 169.524 67.7986C169.331 68.4437 166.984 69.2691 165.824 68.1559C164.698 68.3931 163.316 68.6493 161.801 69.0193C160.599 69.3102 159.29 72.2166 158.619 75.183C158.189 77.0932 159.277 78.763 160.46 79.6675C160.46 79.6675 160.492 80.4708 160.507 81.4955C162.851 82.6276 165.988 83.1747 169.704 82.4663C171.178 82.1849 172.288 81.6979 173.256 81.1602C173.335 80.9325 173.41 80.5688 173.92 79.1046C174.426 77.6372 175.669 73.7631 175.403 71.8782C175.2 70.4582 174.698 68.7441 173.338 68.1559Z" fill="#BCE1C8"/>
</g>
<g id="Group_27">
<path id="Vector_75" d="M161.798 69.0196C159.973 68.8995 157.962 69.4497 157.152 73.0392C156.52 73.9437 155.527 75.0253 154.638 76.4041C153.626 77.9759 153.053 79.339 152.105 81.0689C151.184 82.9095 151.596 83.4629 152.503 84.3073C153.335 85.0821 158.417 88.4154 158.718 88.8044C159.018 89.1902 158.724 92.9631 159.265 93.5008C159.268 93.5229 159.268 93.5292 159.271 93.5102C159.284 93.3932 159.375 92.9062 159.515 92.299C159.777 91.3154 160.318 90.3351 160.776 89.5666C161.232 88.8012 161.649 87.9315 161.516 87.0302C161.444 86.5337 160.735 86.1858 160.245 85.7178C158.964 84.4939 156.535 82.1062 156.535 82.1062L162.389 75.5281C163.392 74.2157 163.971 70.2151 161.798 69.0196Z" fill="#B16668"/>
<path id="Vector_76" opacity="0.1" d="M156.535 82.1055C156.535 82.1055 155.713 82.8993 154.84 83.3072C155.539 83.1997 156.212 82.9625 156.829 82.4597L156.535 82.1055Z" fill="black"/>
</g>
<g id="XMLID_3745_">
<g id="XMLID_3760_">
<path id="XMLID_3763_" d="M161.012 54.7794C161.012 54.7731 161.012 54.7636 161.012 54.7573C160.99 54.3208 161.047 53.8433 161.357 53.5302C161.575 53.3088 161.885 53.2076 162.182 53.1127C162.995 52.8566 163.808 52.6004 164.63 52.3759C166.18 51.9521 167.796 51.639 169.393 51.8414C170.987 52.0438 172.574 52.825 173.428 54.1848C173.567 54.4094 173.744 54.6972 173.763 54.966C173.776 55.1526 173.703 55.3265 173.713 55.5163C173.741 56.1077 174.023 56.6832 174.105 57.2715C174.193 57.9008 174.203 58.5396 174.2 59.1721C174.187 61.797 168.03 63.236 168.071 65.0386C167.046 63.6756 166.025 62.3125 165 60.9495C165.006 60.785 164.567 60.3581 164.469 60.2126C164.285 59.9438 164.127 59.656 163.96 59.3777C163.441 58.508 162.562 58.0494 161.958 57.2651C161.404 56.5536 161.063 55.6807 161.012 54.7794Z" fill="#263238"/>
</g>
<g id="XMLID_3756_">
<path id="XMLID_3759_" d="M162.188 59.3623C162.188 59.3623 161.068 60.8772 161.198 61.0479C161.328 61.2187 161.989 61.4243 161.989 61.4243L162.188 59.3623Z" fill="#9A4A4D"/>
</g>
<g id="XMLID_3754_">
<path id="XMLID_3755_" d="M165.612 54.5541C164.569 55.0285 162.76 55.9108 162.143 59.5888C161.51 63.3649 162.314 64.7216 162.816 65.2434C163.158 65.5945 164.986 65.7969 165.957 65.547C167.171 65.2339 169.818 64.0891 171.121 62.1821C172.652 59.9399 173.082 56.8785 171.485 55.604C169.236 53.8046 166.498 54.1524 165.612 54.5541Z" fill="#B16668"/>
</g>
<g id="XMLID_3766_">
<g id="XMLID_3767_">
<path id="XMLID_3771_" d="M165.45 65.3418L165.402 68.3873C166.433 69.7472 170.241 69.5164 170.051 67.8465L170.127 64.665L165.45 65.3418Z" fill="#B16668"/>
</g>
</g>
<path id="Vector_77" d="M162.914 65.3144C163.335 65.5705 164.53 65.7255 165.444 65.6306L165.466 64.9443C165.466 64.9443 164.948 65.1562 164.239 65.2859C163.534 65.4156 162.92 65.3175 162.914 65.3144Z" fill="#9A4A4D"/>
<g id="XMLID_3752_">
<path id="XMLID_3753_" d="M165.171 54.4207C164.744 54.582 164.333 54.7401 163.954 55.0532C163.777 55.1987 163.609 55.3663 163.508 55.575C163.416 55.7616 163.385 55.9735 163.397 56.1822C163.426 56.7515 163.783 57.2954 164.295 57.5453C164.004 57.9058 163.884 58.4023 163.979 58.8546C164.093 59.3985 164.482 59.8349 164.855 60.2429C164.877 60.2682 164.899 60.2903 164.931 60.303C164.988 60.3251 165.048 60.2903 165.102 60.2587C165.763 59.8571 166.19 59.1329 167.085 59.4713C168.258 59.914 168.274 61.0715 167.524 62.0645C167.183 62.5168 166.816 62.7508 166.379 62.7856C165.889 62.8267 165.646 62.5421 165.646 62.5421C165.646 62.5421 165.747 64.7463 167.379 65.5781C167.379 65.5781 169.058 66.1758 170.127 65.5433C170.794 64.4143 171.904 63.6869 172.667 62.6844C174.656 60.0563 176.392 55.6256 172.24 54.0665C172.097 54.0127 171.952 53.9621 171.806 53.9179C170.475 53.5004 169.045 53.4182 167.67 53.649C166.984 53.7629 166.307 53.9558 165.665 54.2278C165.497 54.3005 165.333 54.3606 165.171 54.4207Z" fill="#263238"/>
</g>
<g id="Group_28">
<path id="Vector_78" d="M178.369 67.2326C175.842 67.2326 173.793 65.1833 173.793 62.6564V55.1865C176.32 55.1865 178.369 57.2358 178.369 59.7627V67.2326Z" fill="#263238"/>
</g>
<path id="XMLID_3751_" d="M164.718 61.5821C164.26 61.3956 164.038 60.8801 164.228 60.4278C164.418 59.9756 164.943 59.7605 165.401 59.9471L164.718 61.5821Z" fill="#263238"/>
<path id="XMLID_3747_" d="M173.441 55.0398C173.78 55.3181 174.273 55.2707 174.545 54.9355C174.817 54.6002 174.763 54.1006 174.425 53.8223L173.441 55.0398Z" fill="#263238"/>
</g>
</g>
</g>
</g>
</g>
<defs>
<filter id="filter0_d_1085_4002" x="0" y="0" width="238.818" height="238.818" filterUnits="userSpaceOnUse" color-interpolation-filters="sRGB">
<feFlood flood-opacity="0" result="BackgroundImageFix"/>
<feColorMatrix in="SourceAlpha" type="matrix" values="0 0 0 0 0 0 0 0 0 0 0 0 0 0 0 0 0 0 127 0" result="hardAlpha"/>
<feMorphology radius="1" operator="dilate" in="SourceAlpha" result="effect1_dropShadow_1085_4002"/>
<feOffset dy="15"/>
<feGaussianBlur stdDeviation="7.5"/>
<feComposite in2="hardAlpha" operator="out"/>
<feColorMatrix type="matrix" values="0 0 0 0 0.733333 0 0 0 0 0.941176 0 0 0 0 0.27451 0 0 0 0.15 0"/>
<feBlend mode="normal" in2="BackgroundImageFix" result="effect1_dropShadow_1085_4002"/>
<feBlend mode="normal" in="SourceGraphic" in2="effect1_dropShadow_1085_4002" result="shape"/>
</filter>
</defs>
</svg>
