<svg width="46" height="40" viewBox="0 0 46 40" fill="none" xmlns="http://www.w3.org/2000/svg">
<g id="Group 69">
<path id="Vector" fill-rule="evenodd" clip-rule="evenodd" d="M27.0593 40V8.13634e-08H22.4403L11.6166 10.6667H4.0589C1.82107 10.6667 0 12.4613 0 14.6667V25.3333C0 27.5387 1.82107 29.3333 4.0589 29.3333H11.6166L22.4403 40H27.0593ZM24.3534 37.3333H23.5605L13.5297 27.448V12.552L23.5605 2.66668H24.3534V37.3333V37.3333ZM40.0578 34.1432C43.8894 30.3645 46 25.3432 46 19.9992C46 14.6579 43.8894 9.63654 40.0578 5.85788L38.1447 7.7432C41.4676 11.0179 43.294 15.3699 43.294 19.9992C43.294 24.6312 41.4676 28.9832 38.1447 32.2579L40.0578 34.1432ZM34.3291 28.4827C36.621 26.192 37.8819 23.1787 37.8819 20C37.8819 16.8213 36.621 13.808 34.3291 11.5173L32.3997 13.3893C34.1911 15.1787 35.176 17.5253 35.176 20C35.176 22.4747 34.1911 24.8213 32.3997 26.6107L34.3291 28.4827ZM10.8237 26.6667H4.0589C3.31475 26.6667 2.70593 26.0693 2.70593 25.3333V14.6667C2.70593 13.9307 3.31475 13.3333 4.0589 13.3333H10.8237V26.6667Z" fill="black"/>
</g>
</svg>
