<svg width="39" height="43" viewBox="0 0 39 43" fill="none" xmlns="http://www.w3.org/2000/svg">
<path d="M15.2294 35.2206C14.836 35.2309 14.4909 34.9411 14.4357 34.5442C14.3771 34.1301 14.6566 33.747 15.0638 33.6677C14.6152 31.1243 13.3901 29.7232 12.096 28.2428C11.0883 27.0902 10.0427 25.8927 9.21791 24.1292C8.40693 22.3934 7.96176 20.5989 7.97557 18.7354C7.99282 16.8719 8.4656 14.9532 9.49398 12.9689C9.50088 12.9551 9.50778 12.9447 9.51469 12.9309C10.864 10.6464 12.7517 9.12109 14.8533 8.26526C16.6167 7.54401 18.532 7.29899 20.4093 7.47154C22.2797 7.64409 24.1122 8.23075 25.7134 9.17631C27.7495 10.3807 29.4232 12.1683 30.3446 14.4252C30.8415 15.6468 31.1797 17.01 31.2211 18.5042C31.2625 19.9916 31.0072 21.5963 30.3204 23.2941C29.4025 25.5683 28.1877 26.9797 27.0524 28.3014C26.0067 29.5196 25.0336 30.6515 24.4918 32.3874C24.7989 32.4598 25.0405 32.7117 25.0888 33.043C25.1475 33.471 24.8472 33.8678 24.4193 33.9265L24.1536 33.9644C24.1053 34.3406 24.0742 34.7444 24.0604 35.1757L24.1467 35.1619C24.5746 35.1033 24.9715 35.4035 25.0301 35.8314C25.0888 36.2593 24.7886 36.6562 24.3606 36.7148L24.0915 36.7528C24.0949 36.8046 24.0984 36.8563 24.1018 36.9081C24.126 37.2118 24.1294 37.5051 24.1122 37.7846L24.157 37.7777C24.5884 37.726 24.9784 38.0331 25.0336 38.461C25.0853 38.8924 24.7782 39.2823 24.3503 39.3376L23.7705 39.41C23.3564 40.4833 22.6179 41.3011 21.7448 41.805C21.1444 42.1535 20.4783 42.3537 19.8089 42.3951C19.129 42.4365 18.4423 42.3088 17.8142 42.0051C17.0964 41.6531 16.4545 41.0699 15.9887 40.2314C15.7643 40.1175 15.5987 39.8966 15.5642 39.6274C15.5504 39.5205 15.5607 39.4169 15.5883 39.3203C15.4538 38.92 15.3537 38.4817 15.2881 37.9986L15.264 38.002C14.836 38.0607 14.4392 37.7605 14.3805 37.3326C14.3219 36.9046 14.6221 36.5078 15.05 36.4491L15.2364 36.4215C15.2502 36.0005 15.2467 35.6002 15.2294 35.2206ZM0.752739 20.3125C0.348979 20.3229 0.0142374 20.0088 0.000433609 19.6051C-0.0133702 19.2013 0.304117 18.8666 0.707877 18.8528L3.7102 18.7492C4.11396 18.7354 4.4487 19.0529 4.4625 19.4567C4.47631 19.8604 4.15882 20.1952 3.75506 20.209L0.752739 20.3125ZM38.1955 17.3412C38.5958 17.2998 38.9547 17.5932 38.9961 17.9935C39.0375 18.3938 38.7442 18.7527 38.3439 18.7941L35.3554 19.1081C34.955 19.1495 34.5961 18.8562 34.5547 18.4559C34.5133 18.0556 34.8067 17.6967 35.207 17.6553L38.1955 17.3412ZM32.7533 5.10074C32.9777 4.766 33.4297 4.67628 33.7645 4.90059C34.0992 5.1249 34.1889 5.57697 33.9646 5.91171L32.2944 8.4102C32.0701 8.74494 31.618 8.83466 31.2832 8.61035C30.9485 8.38604 30.8588 7.93397 31.0831 7.59923L32.7533 5.10074ZM19.8882 0.711141C19.8986 0.30738 20.2333 -0.0101067 20.6336 0.000246158C21.0374 0.010599 21.3549 0.345341 21.3445 0.74565L21.2686 3.74797C21.2582 4.15173 20.9235 4.46922 20.5232 4.45887C20.1194 4.44851 19.802 4.11377 19.8123 3.71346L19.8882 0.711141ZM4.79034 5.35956C4.49356 5.08349 4.47976 4.62106 4.75238 4.32773C5.02846 4.03095 5.49089 4.01715 5.78422 4.28977L7.98247 6.33963C8.27925 6.61571 8.29305 7.07813 8.02043 7.37146C7.74435 7.66824 7.28193 7.68205 6.9886 7.40942L4.79034 5.35956ZM16.5236 33.4571L22.9044 32.5496C23.4531 30.2374 24.6471 28.8467 25.9412 27.3455C27.0041 26.1101 28.136 24.7918 28.9642 22.742C29.5716 21.2408 29.7959 19.8328 29.7614 18.5353C29.7269 17.2412 29.4301 16.0471 28.9884 14.967C28.1946 13.0241 26.7418 11.4781 24.968 10.429C23.5497 9.59042 21.9312 9.06933 20.2782 8.92094C18.6321 8.7691 16.9515 8.98651 15.402 9.61803C13.5868 10.36 11.9545 11.6782 10.7812 13.6625C9.87013 15.4294 9.44912 17.1204 9.43532 18.7458C9.42151 20.3815 9.81837 21.9655 10.5396 23.5081C11.2747 25.0817 12.2547 26.1998 13.1934 27.2765C14.6566 28.9537 16.0404 30.5377 16.5236 33.4571ZM22.6455 34.1715L16.6857 35.017C16.703 35.3966 16.7099 35.7934 16.703 36.2145L22.5869 35.3793C22.5938 34.9549 22.611 34.5511 22.6455 34.1715ZM16.7341 37.795C16.7755 38.1125 16.8376 38.4024 16.917 38.6715L22.6283 37.9675C22.6662 37.6708 22.6731 37.3567 22.6455 37.022V37.0151L22.6421 36.9564L16.7341 37.795ZM17.7279 40.1554C17.9488 40.3866 18.1938 40.5661 18.4526 40.6903C18.8495 40.8836 19.2878 40.963 19.7191 40.9388C20.1643 40.9112 20.606 40.7766 21.0098 40.5419C21.3894 40.3211 21.731 40.0139 22.0037 39.6274L17.7279 40.1554Z" fill="black"/>
</svg>
