<svg width="53" height="40" viewBox="0 0 53 40" fill="none" xmlns="http://www.w3.org/2000/svg">
<g id="Group 70">
<path id="Vector" d="M39.1868 6.22296C34.9605 4.15279 30.736 2.07847 26.5134 0L0 13.0138L4.5366 15.2944L4.16116 15.3573V39.7208H6.39594V17.3191L8.00498 17.0305L8.63071 17.3447V29.651C8.63071 31.778 20.265 37.873 22.5958 39.0738C23.8077 39.6932 25.1413 40.0103 26.4912 39.9997C27.8411 39.9892 29.1701 39.6515 30.3729 39.0133C44.3872 31.543 44.3872 30.1676 44.3872 29.651V17.3447L53 13.0231C53 13.0231 44.5078 8.83176 39.1868 6.22296ZM42.1524 29.2577C38.0493 32.1017 33.775 34.6685 29.356 36.9421C28.4639 37.4163 27.4778 37.6673 26.4762 37.6754C25.4746 37.6835 24.485 37.4484 23.5859 36.9887C19.1509 34.7914 14.8965 32.219 10.8655 29.2972V18.4641L26.5089 26.3138L42.1524 18.4641V29.2577ZM26.5089 23.7352L11.7952 16.351L26.2519 13.7561L25.872 11.4592L8.32902 14.6102L5.19362 13.037L26.5067 2.57622C28.3504 3.49081 45.5537 11.9176 47.831 13.0347L26.5089 23.7352Z" fill="black"/>
</g>
</svg>
