<svg width="42" height="53" viewBox="0 0 42 53" fill="none" xmlns="http://www.w3.org/2000/svg">
<path d="M36.0543 16.9288C33.9152 15.1803 31.2972 14.2561 28.4827 14.2561C26.2634 14.2561 24.0342 14.8356 21.9742 15.936C21.8638 15.1059 21.669 14.3015 21.3947 13.5255C21.6156 12.9151 21.9114 12.3269 22.2817 11.7689C23.5355 12.3216 24.7759 12.6129 25.9978 12.6129C27.8119 12.6129 29.5865 12.0043 31.3036 10.7877C35.2388 7.9999 37.6772 2.81846 37.8499 1.80472C37.9045 1.48328 37.7714 1.17928 37.5337 0.990944C37.4331 0.871202 37.3011 0.775292 37.1419 0.722978C34.8121 -0.0413924 32.3691 -0.203567 30.0765 0.255056C26.0065 1.06942 23.2379 2.92541 21.8475 5.77131C21.1412 7.21577 20.8419 8.88925 20.9721 10.6162C20.7797 10.8917 20.6024 11.1736 20.4402 11.4625C18.8772 8.82763 16.526 7.21461 14.6921 6.29213C14.2637 6.07822 13.7428 6.2497 13.5278 6.67751C13.3127 7.10533 13.4853 7.62673 13.9132 7.8418C15.8087 8.7945 18.3325 10.5709 19.5898 13.6196C19.909 14.3933 20.1188 15.2106 20.2403 16.0551C18.1314 14.8816 15.8191 14.2561 13.5167 14.2561C10.7022 14.2561 8.08417 15.1803 5.9451 16.9288C2.1465 20.0334 -0.129177 25.4572 0.00567782 31.0827C0.114957 35.6242 1.73147 40.2732 4.68084 44.5275L4.73722 44.6089C7.09311 48.0082 10.025 52.2386 14.9978 52.313L15.1205 52.3136C17.4851 52.3136 19.6846 51.3237 20.9994 50.4948C22.3143 51.3243 24.5138 52.3136 26.8784 52.3136L27.0022 52.313C31.975 52.2386 34.9069 48.0082 37.2628 44.6089L37.3192 44.5275C40.2685 40.2732 41.885 35.6242 41.9943 31.0827C42.1292 25.4572 39.8535 20.0334 36.0543 16.9288ZM23.4059 6.53219C24.5463 4.19781 26.9051 2.65803 30.4172 1.95527C32.19 1.60128 34.071 1.6751 35.9009 2.16395C35.2417 3.68455 33.2631 7.2739 30.3015 9.37228C27.3021 11.4974 24.8224 10.9528 23.4129 10.3883C24.6039 9.18395 25.9821 8.39226 27.022 7.92085C27.4579 7.72322 27.6515 7.20879 27.4533 6.77284C27.255 6.33689 26.7418 6.14449 26.3053 6.34154C24.9689 6.9478 23.7738 7.71624 22.7653 8.60791C22.8769 7.87609 23.0885 7.18205 23.4059 6.53219ZM35.419 43.2103L35.3626 43.2917C33.2014 46.4102 30.752 49.9444 26.9679 50.0008L26.8784 50.0013C24.798 50.0013 22.6491 48.9103 21.7121 48.1773C21.5028 48.0134 21.2517 47.932 20.9994 47.932C20.7471 47.932 20.496 48.014 20.2868 48.1773C19.3498 48.9109 17.2008 50.0013 15.1199 50.0013L15.0309 50.0008C11.2469 49.9444 8.79739 46.4102 6.63623 43.2917L6.57985 43.2103C3.88914 39.328 2.41446 35.1156 2.31623 31.0275C2.19823 26.0989 4.14897 21.3831 7.40699 18.7197C9.12813 17.313 11.2405 16.569 13.5156 16.569C15.5564 16.569 17.6199 17.1607 19.4881 18.2837C20.4059 18.8429 21.5859 18.847 22.5142 18.2802C24.3772 17.1613 26.4407 16.5696 28.4815 16.5696C30.7566 16.5696 32.869 17.3136 34.5901 18.7203C37.8487 21.3842 39.7994 26.1001 39.6809 31.0281C39.5838 35.1156 38.1097 39.328 35.419 43.2103Z" fill="black"/>
<path d="M10.6421 42.7715C10.2177 42.1629 9.81898 41.5258 9.45801 40.8795C9.22434 40.4615 8.69597 40.3116 8.27803 40.5458C7.8601 40.7795 7.71071 41.3079 7.94439 41.7258C8.33384 42.4222 8.76281 43.1075 9.21969 43.7631C10.1398 45.0826 11.1989 46.3178 12.3667 47.4344C12.5347 47.5949 12.7503 47.6751 12.966 47.6751C13.1944 47.6751 13.4223 47.5856 13.5926 47.4071C13.9239 47.0613 13.9111 46.512 13.5653 46.1812C12.48 45.1442 11.4965 43.9968 10.6421 42.7715Z" fill="black"/>
<path d="M8.04193 37.8388C7.89196 37.4436 7.76176 37.0675 7.64899 36.7158C7.50251 36.2595 7.01424 36.009 6.55853 36.1549C6.10223 36.3014 5.8517 36.7896 5.9976 37.2454C6.11909 37.6238 6.25859 38.0283 6.42018 38.4538C6.55155 38.8003 6.88113 39.0136 7.23164 39.0136C7.33336 39.0136 7.43741 38.995 7.53855 38.9572C7.98613 38.7875 8.21166 38.287 8.04193 37.8388Z" fill="black"/>
<path d="M28.2801 18.0472C27.9331 18.0291 27.5773 18.0297 27.2227 18.0477C26.7444 18.0733 26.3776 18.4814 26.4026 18.9598C26.427 19.4224 26.81 19.7811 27.2675 19.7811C27.2832 19.7811 27.2983 19.7811 27.314 19.7799C27.6081 19.7642 27.9022 19.7642 28.1894 19.7793C28.6573 19.8009 29.0753 19.437 29.1008 18.9586C29.1258 18.4802 28.7585 18.0727 28.2801 18.0472Z" fill="black"/>
<path d="M31.6654 18.8481C31.537 18.7912 31.4091 18.7383 31.2824 18.6889C30.8354 18.5133 30.3332 18.7348 30.1594 19.1806C29.985 19.6265 30.2053 20.1298 30.6511 20.3036C30.754 20.3437 30.858 20.3873 30.9627 20.4338C31.0772 20.4844 31.1963 20.5082 31.3138 20.5082C31.6468 20.5082 31.9636 20.3158 32.1072 19.9921C32.3008 19.5544 32.1031 19.0423 31.6654 18.8481Z" fill="black"/>
<path d="M33.0241 20.6012C32.6986 20.9523 32.7195 21.501 33.0706 21.8266C34.3505 23.0135 35.0004 24.3882 35.2736 25.102C35.4055 25.4473 35.7345 25.6595 36.0839 25.6595C36.1868 25.6595 36.2914 25.6409 36.3937 25.6019C36.8413 25.4304 37.0651 24.9294 36.8936 24.4824C36.5663 23.6279 35.7874 21.9812 34.2494 20.5553C33.8977 20.2286 33.349 20.2501 33.0241 20.6012Z" fill="black"/>
</svg>
