<svg width="42" height="40" viewBox="0 0 42 40" fill="none" xmlns="http://www.w3.org/2000/svg">
<path d="M21.0035 39.1935C20.6116 39.1935 20.2476 39.0395 19.9817 38.7455L3.38044 21.0525C-1.12681 16.2513 -1.12681 8.44059 3.38044 3.65339C5.59207 1.30178 8.53158 0 11.6671 0C14.8025 0 17.742 1.30178 19.9537 3.65339L21.0035 4.7732L22.0533 3.65339C24.265 1.30178 27.2045 0 30.3399 0C30.3399 0 30.3399 0 30.3539 0C33.4894 0 36.4149 1.30178 38.6266 3.65339C40.7962 5.991 42 9.07049 42 12.3599C42 15.6354 40.7962 18.7289 38.6126 21.0665L22.0253 38.7455C21.7594 39.0395 21.3814 39.1935 21.0035 39.1935ZM11.6671 2.81353C9.31545 2.81353 7.10382 3.79337 5.4241 5.58507C1.91068 9.32245 1.91068 15.4114 5.4241 19.1628L21.0035 35.75L36.5689 19.1488C38.2626 17.3431 39.2005 14.9355 39.2005 12.3599C39.2005 9.78437 38.2626 7.37677 36.5689 5.57107C34.9032 3.77937 32.6916 2.79953 30.3399 2.79953C30.3399 2.79953 30.3399 2.79953 30.3259 2.79953C27.9743 2.79953 25.7627 3.77937 24.083 5.57107L22.0113 7.7827C21.7454 8.06266 21.3814 8.23063 20.9895 8.23063C20.5976 8.23063 20.2336 8.07665 19.9677 7.7827L17.896 5.57107C16.2443 3.79337 14.0187 2.81353 11.6671 2.81353Z" fill="black"/>
</svg>
