<svg width="62" height="62" viewBox="0 0 62 62" fill="none" xmlns="http://www.w3.org/2000/svg">
<g id="Group 65">
<path id="Vector" fill-rule="evenodd" clip-rule="evenodd" d="M11.8087 23.389C12.1183 24.4551 12.6302 25.6447 13.3121 26.9678C17.8557 36.4788 24.284 50.6036 27.3602 57.3957C28.7571 60.4802 33.1048 60.5558 34.5458 57.5217C37.6854 50.9102 44.2038 37.2576 48.823 28.0852L48.8368 28.0572C49.4817 26.7236 49.9643 25.5381 50.2471 24.4842C50.527 23.4413 50.651 22.3845 50.4278 21.3741C49.9188 19.0688 47.9396 18.1322 46.1994 17.6233C35.2509 14.4217 25.4993 14.2723 15.7859 16.4986C14.8583 16.7113 13.9191 17.0466 13.1427 17.6423C12.3105 18.2808 11.748 19.1571 11.5442 20.2417C11.3535 21.2571 11.5002 22.327 11.8087 23.389ZM30.5937 22.7508C26.0212 22.627 21.6266 23.0644 16.2111 23.9145C15.9341 23.2952 15.7372 22.7687 15.6075 22.3222C15.3922 21.5807 15.4001 21.1864 15.4331 21.0108C15.4531 20.9043 15.4771 20.8625 15.5718 20.7897C15.7222 20.6744 16.0501 20.5056 16.7079 20.3548C25.7555 18.2811 34.8198 18.4057 45.125 21.4191C46.5605 21.839 46.5644 22.1612 46.5646 22.1872C46.5967 22.3332 46.6198 22.6957 46.4249 23.4226C46.3139 23.836 46.1449 24.3233 45.907 24.8981C39.8781 23.562 35.1815 22.875 30.5937 22.7508ZM30.5273 26.7052C34.546 26.8138 38.7246 27.3882 44.1454 28.5537C39.6256 37.6268 33.857 49.712 30.9682 55.795L30.9667 55.7979L30.9631 55.7979L30.9617 55.795C28.131 49.5448 22.4443 37.0471 17.9986 27.6486C22.7632 26.9355 26.599 26.5988 30.5273 26.7052ZM29.137 35.3462C30.6578 33.7931 30.6185 31.2885 29.0492 29.752C27.48 28.2155 24.9751 28.2289 23.4544 29.782C21.9337 31.3351 21.973 33.8397 23.5422 35.3762C25.1115 36.9128 27.6163 36.8993 29.137 35.3462ZM33.3991 39.5194C34.9683 41.056 35.0076 43.5605 33.4869 45.1136C31.9662 46.6667 29.4613 46.6802 27.8921 45.1436C26.3228 43.6071 26.2835 41.1025 27.8042 39.5494C29.3249 37.9963 31.8298 37.9828 33.3991 39.5194ZM38.95 36.6923C40.4707 35.1392 40.4314 32.6346 38.8621 31.0981C37.2928 29.5615 34.788 29.5749 33.2673 31.128C31.7465 32.6812 31.7859 35.1857 33.3551 36.7223C34.9244 38.2588 37.4292 38.2454 38.95 36.6923Z" fill="black"/>
</g>
</svg>
