<svg width="62" height="50" viewBox="0 0 62 50" fill="none" xmlns="http://www.w3.org/2000/svg">
<g id="Group 67">
<g id="Group 58">
<g id="Group 57">
<g id="Vector">
<path d="M30.3813 40.411L3.57323 17.6572L2 19.5117L28.8113 42.2686L28.8149 42.2719C31.8626 44.8364 35.7308 46.2477 39.7146 46.2485H56.8976V43.8161H39.7147C36.3067 43.8162 32.9877 42.6065 30.3813 40.411Z" fill="black"/>
<path d="M30.3813 40.411L3.57323 17.6572L2 19.5117L28.8113 42.2686L28.8149 42.2719C31.8626 44.8364 35.7308 46.2477 39.7146 46.2485H56.8976V43.8161H39.7147C36.3067 43.8162 32.9877 42.6065 30.3813 40.411Z" stroke="black"/>
</g>
<g id="Vector_2">
<mask id="path-2-inside-1_1140_395" fill="white">
<path d="M23.8542 31.74L29.8726 36.8045C29.6502 35.6858 29.161 34.4898 28.1946 33.3865C27.4459 32.5306 25.8385 30.7647 23.9049 28.6016C23.8545 29.646 23.8344 30.7018 23.8542 31.74Z"/>
</mask>
<path d="M23.8542 31.74L18.8551 31.8352L18.8983 34.1043L20.6348 35.5656L23.8542 31.74ZM29.8726 36.8045L26.6532 40.6302L37.5549 49.8042L34.7766 35.8296L29.8726 36.8045ZM28.1946 33.3865L24.4312 36.6784L24.4333 36.6808L28.1946 33.3865ZM23.9049 28.6016L27.6327 25.2693L19.4989 16.1701L18.9107 28.3606L23.9049 28.6016ZM20.6348 35.5656L26.6532 40.6302L33.0919 32.9789L27.0736 27.9143L20.6348 35.5656ZM34.7766 35.8296C34.4092 33.9817 33.5819 31.9486 31.9559 30.0922L24.4333 36.6808C24.7401 37.0311 24.8911 37.39 24.9686 37.7795L34.7766 35.8296ZM31.958 30.0945C31.1907 29.2173 29.5062 27.3653 27.6327 25.2693L20.1771 31.9338C22.1708 34.1641 23.7011 35.8438 24.4312 36.6784L31.958 30.0945ZM18.9107 28.3606C18.8557 29.5012 18.8329 30.6701 18.8551 31.8352L28.8533 31.6448C28.8359 30.7335 28.8533 29.7909 28.8991 28.8425L18.9107 28.3606Z" fill="black" mask="url(#path-2-inside-1_1140_395)"/>
</g>
<g id="Vector_3">
<mask id="path-4-inside-2_1140_395" fill="white">
<path d="M17.1603 17.72C16.1163 16.789 15.1883 15.9275 14.4209 15.1602C15.1647 16.3103 15.8535 17.3547 16.8795 18.6515C16.9696 18.3445 17.0636 18.0343 17.1603 17.72Z"/>
</mask>
<path d="M17.1603 17.72L21.9394 19.1899L22.8827 16.1233L20.4879 13.988L17.1603 17.72ZM14.4209 15.1602L17.9564 11.6246L10.2225 17.8756L14.4209 15.1602ZM16.8795 18.6515L12.9584 21.7539L18.9541 29.332L21.6769 20.0603L16.8795 18.6515ZM20.4879 13.988C19.4814 13.0906 18.6307 12.2989 17.9564 11.6246L10.8854 18.6957C11.7459 19.5562 12.7512 20.4875 13.8328 21.4519L20.4879 13.988ZM10.2225 17.8756C10.9891 19.0608 11.7812 20.266 12.9584 21.7539L20.8006 15.5491C19.9258 14.4435 19.3404 13.5597 18.6193 12.4448L10.2225 17.8756ZM21.6769 20.0603C21.759 19.7806 21.8464 19.4922 21.9394 19.1899L12.3813 16.25C12.2809 16.5765 12.1802 16.9085 12.0821 17.2427L21.6769 20.0603Z" fill="black" mask="url(#path-4-inside-2_1140_395)"/>
</g>
<g id="Vector_4">
<mask id="path-6-inside-3_1140_395" fill="white">
<path d="M22.9418 22.658C21.3778 21.3572 19.8836 20.0991 18.5307 18.9248C18.4348 19.3689 18.3389 19.8242 18.2471 20.2925C19.3056 21.5079 20.669 22.9651 22.5262 24.8365C22.6492 24.1305 22.7867 23.4026 22.9418 22.658Z"/>
</mask>
<path d="M22.9418 22.658L27.8367 23.678L28.4498 20.7358L26.1392 18.8139L22.9418 22.658ZM18.5307 18.9248L21.8083 15.1489L15.4278 9.61063L13.6435 17.8688L18.5307 18.9248ZM18.2471 20.2925L13.3406 19.3299L12.8695 21.7311L14.4766 23.5763L18.2471 20.2925ZM22.5262 24.8365L18.9773 28.3586L25.7914 35.2247L27.452 25.6948L22.5262 24.8365ZM26.1392 18.8139C24.5871 17.523 23.1231 16.2901 21.8083 15.1489L15.2532 22.7008C16.6441 23.908 18.1686 25.1914 19.7445 26.5021L26.1392 18.8139ZM13.6435 17.8688C13.5439 18.3298 13.4409 18.8189 13.3406 19.3299L23.1535 21.2551C23.237 20.8296 23.3256 20.408 23.418 19.9808L13.6435 17.8688ZM14.4766 23.5763C15.6286 24.8991 17.0719 26.4387 18.9773 28.3586L26.0752 21.3144C24.2661 19.4915 22.9826 18.1168 22.0175 17.0087L14.4766 23.5763ZM27.452 25.6948C27.5667 25.0365 27.694 24.3629 27.8367 23.678L18.047 21.6381C17.8794 22.4423 17.7318 23.2244 17.6004 23.9782L27.452 25.6948Z" fill="black" mask="url(#path-6-inside-3_1140_395)"/>
</g>
<g id="Vector_5">
<mask id="path-8-inside-4_1140_395" fill="white">
<path d="M17.3857 26.2969L21.8057 30.0164C21.9073 29.0459 22.0426 27.9314 22.2232 26.7128C20.8325 25.1403 19.3624 23.4543 17.969 21.8037C17.7166 23.2641 17.507 24.7897 17.3857 26.2969Z"/>
</mask>
<path d="M17.3857 26.2969L12.4019 25.8958L12.1952 28.4637L14.1664 30.1225L17.3857 26.2969ZM21.8057 30.0164L18.5863 33.842L25.7968 39.9098L26.7784 30.5372L21.8057 30.0164ZM22.2232 26.7128L27.1691 27.4459L27.5104 25.1438L25.9686 23.4004L22.2232 26.7128ZM17.969 21.8037L21.7895 18.5783L14.869 10.3808L13.042 20.9522L17.969 21.8037ZM14.1664 30.1225L18.5863 33.842L25.025 26.1907L20.6051 22.4712L14.1664 30.1225ZM26.7784 30.5372C26.8736 29.629 27.0002 28.5857 27.1691 27.4459L17.2772 25.9797C17.0849 27.277 16.941 28.4629 16.8329 29.4955L26.7784 30.5372ZM25.9686 23.4004C24.5927 21.8446 23.1497 20.1895 21.7895 18.5783L14.1484 25.0291C15.5751 26.7191 17.0724 28.4361 18.4778 30.0252L25.9686 23.4004ZM13.042 20.9522C12.7701 22.5254 12.538 24.2049 12.4019 25.8958L22.3696 26.698C22.4761 25.3746 22.663 24.0028 22.8959 22.6552L13.042 20.9522Z" fill="black" mask="url(#path-8-inside-4_1140_395)"/>
</g>
<g id="Vector_6" filter="url(#filter0_d_1140_395)">
<path d="M21.1295 12.922L21.1225 12.9437L21.1225 12.9437L21.1225 12.9437L21.1225 12.9438L21.1223 12.9444L21.1213 12.9477L21.1166 12.9622L21.0976 13.0227C21.0807 13.0768 21.0556 13.1579 21.0233 13.2641C20.9586 13.4764 20.8652 13.789 20.7515 14.186C20.558 14.8613 20.306 15.7797 20.0369 16.8635C20.8953 17.6109 21.8027 18.3875 22.7344 19.1649C22.93 18.4218 23.1428 17.672 23.375 16.9208L23.6586 16.0029L24.5871 16.2495L25.5917 16.5163L26.5119 16.7606L26.313 17.6916L26.3129 17.6917L26.3129 17.6917L26.3129 17.6917L26.3128 17.6923L26.3121 17.6955L26.3091 17.7098L26.2968 17.7689C26.2859 17.8216 26.2697 17.9008 26.2489 18.0044C26.2075 18.2116 26.148 18.5165 26.0766 18.9036C25.9551 19.563 25.7994 20.46 25.6398 21.5184C27.1242 22.6821 28.5956 23.7688 29.9588 24.6714L29.9592 24.6716C36.3006 28.8737 41.0029 33.4365 41.8294 40.3842H41.8424H41.8591H41.8758H41.8926H41.9095H41.9264H41.9434H41.9604H41.9774H41.9946H42.0117H42.0289H42.0462H42.0635H42.0809H42.0984H42.1158H42.1334H42.1509H42.1686H42.1863H42.204H42.2218H42.2396H42.2575H42.2755H42.2934H42.3115H42.3296H42.3477H42.3659H42.3841H42.4024H42.4208H42.4392H42.4576H42.4761H42.4946H42.5132H42.5318H42.5505H42.5692H42.588H42.6068H42.6257H42.6446H42.6636H42.6826H42.7017H42.7208H42.7399H42.7591H42.7784H42.7976H42.817H42.8364H42.8558H42.8753H42.8948H42.9144H42.934H42.9536H42.9734H42.9931H43.0129H43.0327H43.0526H43.0725H43.0925H43.1125H43.1326H43.1527H43.1728H43.193H43.2133H43.2336H43.2539H43.2742H43.2946H43.3151H43.3356H43.3561H43.3767H43.3973H43.418H43.4387H43.4594H43.4802H43.5011H43.5219H43.5428H43.5638H43.5848H43.6058H43.6269H43.648H43.6692H43.6904H43.7116H43.7329H43.7542H43.7755H43.7969H43.8184H43.8398H43.8614H43.8829H43.9045H43.9261H43.9478H43.9695H43.9912H44.013H44.0348H44.0567H44.0786H44.1005H44.1225H44.1445H44.1666H44.1886H44.2108H44.2329H44.2551H44.2773H44.2996H44.3219H44.3442H44.3666H44.389H44.4115H44.4339H44.4565H44.479H44.5016H44.5242H44.5469H44.5695H44.5923H44.615H44.6378H44.6606H44.6835H44.7064H44.7293H44.7523H44.7753H44.7983H44.8214H44.8445H44.8676H44.8907H44.9139H44.9372H44.9604H44.9837H45.007H45.0304H45.0537H45.0772H45.1006H45.1241H45.1476H45.1711H45.1947H45.2183H45.2419H45.2656H45.2893H45.313H45.3368H45.3605H45.3843H45.4082H45.432H45.4559H45.4799H45.5038H45.5278H45.5518H45.5759H45.5999H45.624H45.6482H45.6723H45.6965H45.7207H45.7449H45.7692H45.7935H45.8178H45.8422H45.8665H45.8909H45.9154H45.9398H45.9643H45.9888H46.0133H46.0379H46.0625H46.0871H46.1117H46.1364H46.1611H46.1858H46.2105H46.2353H46.26H46.2848H46.3097H46.3345H46.3594H46.3843H46.4092H46.4342H46.4592H46.4842H46.5092H46.5342H46.5593H46.5844H46.6095H46.6346H46.6598H46.685H46.7102H46.7354H46.7606H46.7859H46.8112H46.8365H46.8618H46.8872H46.9125H46.9379H46.9633H46.9888H47.0142H47.0397H47.0652H47.0907H47.1162H47.1418H47.1674H47.193H47.2186H47.2442H47.2698H47.2955H47.3212H47.3469H47.3726H47.3984H47.4241H47.4499H47.4757H47.5015H47.5273H47.5532H47.5791H47.6049H47.6308H47.6567H47.6827H47.7086H47.7346H47.7606H47.7866H47.8126H47.8386H47.8647H47.8907H47.9168H47.9429H47.969H47.9951H48.0212H48.0474H48.0736H48.0997H48.1259H48.1521H48.1784H48.2046H48.2308H48.2571H48.2834H48.3097H48.336H48.3623H48.3886H48.415H48.4413H48.4677H48.4941H48.5204H48.5468H48.5733H48.5997H48.6261H48.6526H48.679H48.7055H48.732H48.7585H48.785H48.8115H48.838H48.8645H48.8911H48.9176H48.9442H48.9708H48.9974H49.024H49.0506H49.0772H49.1038H49.1304H49.1571H49.1837H49.2104H49.237H49.2637H49.2904H49.3171H49.3438H49.3705H49.3972H49.4239H49.4506H49.4774H49.5041H49.5308H49.5576H49.5844H49.6111H49.6379H49.6647H49.6915H49.7183H49.745H49.7718H49.7986H49.8255H49.8523H49.8791H49.9059H49.9328H49.9596H49.9864H50.0133H50.0401H50.067H50.0938H50.1207H50.1476H50.1744H50.2013H50.2282H50.255H50.2819H50.3088H50.3357H50.3626H50.3895H50.4163H50.4432H50.4701H50.497H50.5239H50.5508H50.5777H50.6046H50.6315H50.6584H50.6853H50.7122H50.7391H50.766H50.7929H50.8198H50.8468H50.8737H50.9006H50.9275H50.9544H50.9813H51.0082H51.0351H51.062H51.0889H51.1158H51.1427H51.1695H51.1964H51.2233H51.2502H51.2771H51.304H51.3308H51.3577H51.3846H51.4115H51.4383H51.4652H51.492H51.5189H51.5458H51.5726H51.5994H51.6263H51.6531H51.6799H51.7068H51.7336H51.7604H51.7872H51.814H51.8408H51.8676H51.8944H51.9212H51.948H51.9747H52.0015H52.0283H52.055H52.0818H52.1085H52.1352H52.1619H52.1887H52.2154H52.2421H52.2688H52.2955H52.3221H52.3488H52.3755H52.4021H52.4288H52.4554H52.482H52.5086H52.5353H52.5619H52.5885H52.615H52.6416C54.002 40.3842 54.8361 40.0446 55.3156 39.6488C55.783 39.2631 55.9989 38.7561 56.0116 38.2073C56.0385 37.0539 55.1522 35.7182 53.6326 35.3677L53.6323 35.3676C52.2405 35.0461 50.6733 34.5224 49.4721 34.0876C48.8675 33.8687 48.3477 33.6695 47.9785 33.5247C47.7939 33.4523 47.6466 33.3935 47.545 33.3525C47.4942 33.332 47.4548 33.3159 47.4278 33.3049L47.4172 33.3006C45.821 32.7583 44.5154 31.586 43.8054 30.0558L43.8053 30.0556L43.8036 30.052M21.1295 12.922L44.2156 29.8661L44.6052 29.7482L44.5876 29.6901L44.7109 29.6318L44.5873 29.689L44.3157 28.7911M21.1295 12.922C22.5009 14.0593 24.4155 14.7183 26.3376 14.9227C29.0976 15.2163 32.2186 14.6202 34.4841 12.8072L34.4842 12.8071C34.9567 12.4289 35.2026 12.4381 35.2844 12.4515C35.3927 12.4694 35.5727 12.5558 35.8128 12.8561C36.2491 13.4017 36.5499 14.2053 36.8034 14.8826C36.8464 14.9974 36.888 15.1086 36.9287 15.2143C36.9288 15.2144 36.9288 15.2145 36.9289 15.2146L37.8621 14.8553C37.9445 15.0697 38.1967 15.637 38.557 16.4287L37.5913 16.7209M21.1295 12.922L37.5913 16.7209M43.8036 30.052L44.1852 29.8753L43.7782 29.9984M43.8036 30.052L43.8001 30.0446L43.7798 30.0016L43.7782 29.9984M43.8036 30.052L43.7782 29.9984M43.7782 29.9984L43.7016 29.8358C43.6335 29.6912 43.5344 29.4804 43.4102 29.2153L44.3157 28.7911M44.3157 28.7911L39.3515 30.2926L53.8574 34.3933C51.1917 33.7775 47.7668 32.3631 47.7668 32.3631C46.4155 31.9126 45.3098 30.9244 44.711 29.6317C44.711 29.6317 44.5635 29.3199 44.3157 28.7911ZM42.0373 26.2917L38.4687 27.3711C38.4687 27.3711 38.4686 27.3711 38.4686 27.3711L38.4679 27.3713L38.7574 28.3285L42.0373 26.2917ZM42.0373 26.2917C41.8756 25.9467 41.7074 25.5877 41.5347 25.2187L37.7245 26.3712L37.7242 26.3713C36.6552 26.6943 35.5228 26.0905 35.1987 25.0184L35.1987 25.0184C34.8748 23.9466 35.4815 22.8173 36.5508 22.493L36.5515 22.4928L39.8024 21.5097C39.6336 21.1471 39.4666 20.7881 39.303 20.4361L35.809 21.4926L42.0373 26.2917ZM37.5913 16.7209L34.6353 17.6151C33.5634 17.9387 32.9596 19.0706 33.2824 20.1397L33.2825 20.14C33.6062 21.2104 34.7368 21.8173 35.8082 21.4928L37.5913 16.7209ZM11.033 12.8911L10.6167 13.3897L10.903 13.9728C11.6371 15.4675 13.3712 17.783 15.393 20.266C15.1584 21.156 14.9533 22.0034 14.7749 22.7921L6.02036 15.4249C6.30331 15.0894 6.66842 14.6563 7.09378 14.1513C8.13331 12.9173 9.5329 11.2539 10.9729 9.53659C13.8379 6.12 16.9041 2.44135 17.5701 1.55352L17.5701 1.5535C17.9018 1.11125 18.1716 1.01993 18.3197 1.00353C18.4845 0.98528 18.7027 1.03796 18.9513 1.22957C19.2011 1.4222 19.4234 1.71524 19.557 2.03812C19.6928 2.36618 19.7048 2.64219 19.6566 2.81907C19.6386 2.88505 19.6203 2.95205 19.6016 3.02004C19.0128 5.16947 18.1531 8.30775 19.741 11.2569C19.7759 11.3219 19.8123 11.386 19.85 11.4493L19.5025 11.3181L18.6056 10.9796L18.2295 11.8614C17.8714 12.7008 17.5405 13.5419 17.2343 14.3753C16.3761 13.5989 15.6391 12.9195 15.0706 12.3903C14.6702 12.0177 14.3536 11.7197 14.1375 11.5153C14.0294 11.4131 13.9465 11.3343 13.8907 11.2812L13.8278 11.2211L13.8121 11.2061L13.8083 11.2025L13.8074 11.2016L13.8072 11.2015L13.8072 11.2014L13.8072 11.2014L13.0213 10.448L12.3372 11.295L11.6199 12.1831L11.4941 12.3389L11.033 12.8911Z" stroke="black" stroke-width="2" shape-rendering="crispEdges"/>
</g>
</g>
</g>
</g>
<defs>
<filter id="filter0_d_1140_395" x="0.610352" y="0" width="60.4023" height="49.3838" filterUnits="userSpaceOnUse" color-interpolation-filters="sRGB">
<feFlood flood-opacity="0" result="BackgroundImageFix"/>
<feColorMatrix in="SourceAlpha" type="matrix" values="0 0 0 0 0 0 0 0 0 0 0 0 0 0 0 0 0 0 127 0" result="hardAlpha"/>
<feOffset dy="4"/>
<feGaussianBlur stdDeviation="2"/>
<feComposite in2="hardAlpha" operator="out"/>
<feColorMatrix type="matrix" values="0 0 0 0 0 0 0 0 0 0 0 0 0 0 0 0 0 0 0.25 0"/>
<feBlend mode="normal" in2="BackgroundImageFix" result="effect1_dropShadow_1140_395"/>
<feBlend mode="normal" in="SourceGraphic" in2="effect1_dropShadow_1140_395" result="shape"/>
</filter>
</defs>
</svg>
