<svg width="34" height="43" viewBox="0 0 34 43" fill="none" xmlns="http://www.w3.org/2000/svg">
<path id="Vector" d="M27.6666 11.25C27.6666 16.9108 22.8909 21.5 17 21.5C11.109 21.5 6.33333 16.9108 6.33333 11.25C6.33333 5.58908 11.109 1 17 1C22.8909 1 27.6666 5.58908 27.6666 11.25ZM9.84706 26.625H24.1531C25.4397 26.625 26.0829 26.625 26.6584 26.7431C28.6501 27.1519 30.3725 28.5881 31.3373 30.6456C31.6162 31.2398 31.8197 31.946 32.2266 33.3587C32.7154 35.0559 32.96 35.9046 32.993 36.589C33.1096 39.0039 31.7514 41.1844 29.7349 41.8199C29.1634 42 28.3904 42 26.8442 42H7.15584C5.60971 42 4.83667 42 4.2651 41.8199C2.24849 41.1844 0.890354 39.0039 1.00697 36.589C1.04003 35.9046 1.28449 35.0559 1.77342 33.3587C2.18033 31.946 2.38376 31.2398 2.66256 30.6456C3.62747 28.5881 5.34976 27.1519 7.34149 26.7431C7.91699 26.625 8.56034 26.625 9.84706 26.625Z" stroke="black" stroke-width="2" stroke-linecap="round" stroke-linejoin="round"/>
</svg>
