<svg width="84" height="84" viewBox="0 0 84 84" fill="none" xmlns="http://www.w3.org/2000/svg">
<g id="Group 59">
<circle id="Ellipse 1" cx="42" cy="42" r="42" fill="#BBF046"/>
<path id="Vector" d="M52.6666 32.25C52.6666 37.9108 47.8909 42.5 42 42.5C36.109 42.5 31.3333 37.9108 31.3333 32.25C31.3333 26.5891 36.109 22 42 22C47.8909 22 52.6666 26.5891 52.6666 32.25ZM34.8471 47.625H49.1531C50.4397 47.625 51.0829 47.625 51.6584 47.7431C53.6501 48.1519 55.3725 49.5881 56.3373 51.6456C56.6162 52.2398 56.8197 52.946 57.2266 54.3587C57.7154 56.0559 57.96 56.9046 57.993 57.589C58.1096 60.0039 56.7514 62.1844 54.7349 62.8199C54.1634 63 53.3904 63 51.8442 63H32.1558C30.6097 63 29.8367 63 29.2651 62.8199C27.2485 62.1844 25.8904 60.0039 26.007 57.589C26.04 56.9046 26.2845 56.0559 26.7734 54.3587C27.1803 52.946 27.3838 52.2398 27.6626 51.6456C28.6275 49.5881 30.3498 48.1519 32.3415 47.7431C32.917 47.625 33.5603 47.625 34.8471 47.625Z" stroke="black" stroke-width="2" stroke-linecap="round" stroke-linejoin="round"/>
</g>
</svg>
