<svg width="46" height="46" viewBox="0 0 46 46" fill="none" xmlns="http://www.w3.org/2000/svg">
<g id="Group 68">
<g id="treadmill">
<path id="primary" d="M37.2517 32.7776L32.7783 5.88867" stroke="black" stroke-width="2" stroke-linecap="round" stroke-linejoin="round"/>
<path id="primary_2" d="M37.6667 1L32.7778 5.88889H23" stroke="black" stroke-width="2" stroke-linecap="round" stroke-linejoin="round"/>
<path id="primary_3" d="M40.1111 35.2228H5.88889C4.59227 35.2228 3.34877 35.7378 2.43192 36.6547C1.51508 37.5715 1 38.815 1 40.1117C1 41.4083 1.51508 42.6518 2.43192 43.5686C3.34877 44.4855 4.59227 45.0005 5.88889 45.0005H40.1111C41.4077 45.0005 42.6512 44.4855 43.5681 43.5686C44.4849 42.6518 45 41.4083 45 40.1117C45 38.815 44.4849 37.5715 43.5681 36.6547C42.6512 35.7378 41.4077 35.2228 40.1111 35.2228ZM40.1111 35.2228H30.3333V32.7783H40.1111V35.2228Z" stroke="black" stroke-width="2" stroke-linecap="round" stroke-linejoin="round"/>
</g>
</g>
</svg>
