<svg width="36" height="36" viewBox="0 0 36 36" fill="none" xmlns="http://www.w3.org/2000/svg">
<g id="Group 61">
<g id="Group 56">
<path id="Vector" d="M31.9076 1H4.09238C2.38451 1 1 2.38451 1 4.09238V31.9076C1 33.6155 2.38451 35 4.09238 35H31.9076C33.6155 35 35 33.6155 35 31.9076V4.09238C35 2.38451 33.6155 1 31.9076 1Z" stroke="#020202" stroke-width="2" stroke-miterlimit="10"/>
<path id="Vector_2" d="M7.18457 10.2772C13.936 4.09248 22.0636 4.09248 28.815 10.2772L25.7227 14.9077C23.2978 13.8035 20.6643 13.2321 17.9998 13.2321C15.3353 13.2321 12.7018 13.8035 10.277 14.9077L7.18457 10.2772Z" stroke="#020202" stroke-width="2" stroke-miterlimit="10"/>
<path id="Vector_3" d="M18 8.72266V13.3693" stroke="#020202" stroke-width="2" stroke-miterlimit="10"/>
<path id="Vector_4" d="M18 19.5381V30.3695" stroke="#020202" stroke-width="2" stroke-miterlimit="10"/>
</g>
</g>
</svg>
