<svg width="50" height="48" viewBox="0 0 50 48" fill="none" xmlns="http://www.w3.org/2000/svg">
<g id="Group 63">
<path id="Vector" d="M40.5188 13.4415L39.0943 14.6832L42.7914 18.9245C43.772 20.0494 44.2621 21.5206 44.154 23.0146C44.0459 24.5086 43.3485 25.903 42.2151 26.8909C41.0817 27.8789 39.6053 28.3796 38.1105 28.2828C36.6157 28.1859 35.2251 27.4996 34.2446 26.3748L30.5474 22.1335L22.0006 29.5837L25.6977 33.825C26.6782 34.9499 27.1684 36.4211 27.0603 37.9151C26.9522 39.4091 26.2548 40.8035 25.1214 41.7915C23.988 42.7794 22.5115 43.2801 21.0168 43.1833C19.522 43.0865 18.1314 42.4001 17.1509 41.2753L13.4537 37.034L12.0293 38.2757C11.6515 38.605 11.1593 38.7719 10.661 38.7396C10.1628 38.7074 9.69925 38.4786 9.37241 38.1036C9.04556 37.7287 8.88218 37.2383 8.91821 36.7403C8.95424 36.2423 9.18672 35.7775 9.56451 35.4482L10.989 34.2065L7.29187 29.9652C6.31133 28.8403 5.82119 27.369 5.92927 25.875C6.03734 24.381 6.73479 22.9867 7.86818 21.9987C9.00156 21.0108 10.478 20.5101 11.9728 20.6069C13.4676 20.7037 14.8582 21.39 15.8387 22.5149L19.5358 26.7562L28.0827 19.3059L24.3856 15.0646C23.405 13.9398 22.9149 12.4685 23.023 10.9745C23.1311 9.48053 23.8285 8.08618 24.9619 7.09821C26.0953 6.11025 27.5718 5.60959 29.0665 5.70639C30.5613 5.8032 31.9519 6.48952 32.9324 7.61438L36.6296 11.8557L38.054 10.614C38.4318 10.2846 38.924 10.1178 39.4222 10.15C39.9205 10.1823 40.384 10.4111 40.7109 10.786C41.0377 11.161 41.2011 11.6514 41.1651 12.1494C41.1291 12.6474 40.8966 13.1122 40.5188 13.4415ZM12.9898 24.9983C12.6629 24.6234 12.1994 24.3946 11.7011 24.3623C11.2029 24.3301 10.7107 24.4969 10.3329 24.8263C9.95513 25.1556 9.72264 25.6204 9.68662 26.1184C9.65059 26.6164 9.81397 27.1068 10.1408 27.4817L19.9998 38.7919C20.3267 39.1668 20.7902 39.3956 21.2884 39.4279C21.7867 39.4601 22.2789 39.2932 22.6567 38.9639C23.0345 38.6346 23.2669 38.1698 23.303 37.6718C23.339 37.1738 23.1756 36.6834 22.8488 36.3084L12.9898 24.9983ZM30.0835 10.0978C29.7566 9.72285 29.2931 9.49407 28.7948 9.4618C28.2966 9.42954 27.8044 9.59642 27.4266 9.92574C27.0488 10.2551 26.8164 10.7198 26.7803 11.2178C26.7443 11.7158 26.9077 12.2063 27.2345 12.5812L37.0935 23.8913C37.4204 24.2663 37.8839 24.4951 38.3822 24.5273C38.8804 24.5596 39.3726 24.3927 39.7504 24.0634C40.1282 23.7341 40.3606 23.2693 40.3967 22.7713C40.4327 22.2733 40.2693 21.7829 39.9425 21.4079L30.0835 10.0978Z" fill="black"/>
</g>
</svg>
