<svg xmlns="http://www.w3.org/2000/svg" width="17.429" height="13.302" viewBox="0 0 17.429 13.302">
  <g id="Group_1494" data-name="Group 1494" transform="translate(-531.897 -473.696)">
    <path id="Path_196" data-name="Path 196" d="M536.066,479.965a3.445,3.445,0,0,1-1.37-2.78,3.368,3.368,0,0,1,1.05-2.49,3.5,3.5,0,1,1,4.572,5.272c.028.014.052.027.077.037a6.49,6.49,0,0,1,3.556,3.57,7.017,7.017,0,0,1,.555,2.713.647.647,0,0,1-.352.629.62.62,0,0,1-.68-.044.664.664,0,0,1-.281-.583,5.565,5.565,0,0,0-.336-1.921,5.183,5.183,0,0,0-2.752-3.07,4.628,4.628,0,0,0-5.1.849,5.5,5.5,0,0,0-1.739,3.353,7.772,7.772,0,0,0-.061.824.656.656,0,1,1-1.311-.019,6.952,6.952,0,0,1,1.453-4.273,6.272,6.272,0,0,1,2.612-2.008c.03-.012.06-.025.09-.039C536.056,479.984,536.059,479.975,536.066,479.965Zm4.306-2.775a2.183,2.183,0,1,0-2.162,2.18A2.183,2.183,0,0,0,540.373,477.19Z" fill="#fff"/>
    <path id="Path_197" data-name="Path 197" d="M1036.241,529.4c.038.018.07.034.1.047a5.08,5.08,0,0,1,3.052,3.414,8.421,8.421,0,0,1,.322,2.42.654.654,0,1,1-1.308.007,7.957,7.957,0,0,0-.218-1.91,3.853,3.853,0,0,0-1.384-2.194,4.624,4.624,0,0,0-1.8-.8c-.148-.034-.3-.062-.448-.089a.68.68,0,0,1-.588-.61.664.664,0,0,1,.481-.673,1.939,1.939,0,0,0,1.294-1.324,1.959,1.959,0,0,0-1.842-2.514.658.658,0,0,1-.643-.91.649.649,0,0,1,.62-.4,3.187,3.187,0,0,1,2.551,1.249,3.245,3.245,0,0,1-.141,4.219C1036.277,529.356,1036.262,529.376,1036.241,529.4Z" transform="translate(-490.39 -49.079)" fill="#fff"/>
  </g>
</svg>
