<svg xmlns="http://www.w3.org/2000/svg" width="21.165" height="21.164" viewBox="0 0 21.165 21.164">
  <g id="Group_6638" data-name="Group 6638" transform="translate(-23.124 -280.123)">
    <path id="Path_173" data-name="Path 173" d="M934.5-2.281c-.014.094-.035.188-.042.283a1,1,0,0,1-.873.957c-.319.055-.64.1-.957.164a.242.242,0,0,0-.157.142,9.44,9.44,0,0,1-.981,2.359.266.266,0,0,0,.022.23c.174.265.367.517.549.777A.956.956,0,0,1,932,3.919c-.411.445-.84.875-1.286,1.285a.95.95,0,0,1-1.286.051c-.253-.179-.508-.357-.756-.543a.209.209,0,0,0-.274-.018,8.9,8.9,0,0,1-2.317.972.263.263,0,0,0-.157.166c-.065.31-.111.624-.161.937a.98.98,0,0,1-.966.882q-.9.028-1.8,0a.978.978,0,0,1-.962-.885c-.049-.306-.106-.611-.15-.918a.194.194,0,0,0-.168-.193,8.815,8.815,0,0,1-2.342-.965.265.265,0,0,0-.23.018c-.27.178-.528.375-.794.561a.941.941,0,0,1-1.253-.052q-.682-.631-1.314-1.316a.95.95,0,0,1-.055-1.255q.272-.39.554-.773a.209.209,0,0,0,.021-.274,8.215,8.215,0,0,1-.958-2.3.221.221,0,0,0-.218-.193c-.3-.043-.6-.1-.9-.145A.979.979,0,0,1,913.35-2c-.019-.6-.02-1.2,0-1.8a.98.98,0,0,1,.9-.967c.3-.044.6-.1.9-.145a.2.2,0,0,0,.194-.168,8.813,8.813,0,0,1,.966-2.342.265.265,0,0,0-.014-.231c-.178-.271-.375-.529-.561-.794a.948.948,0,0,1,.049-1.254c.425-.46.87-.9,1.33-1.329a.942.942,0,0,1,1.221-.056q.409.282.807.579a.2.2,0,0,0,.257.013,8.192,8.192,0,0,1,2.3-.957.222.222,0,0,0,.2-.216c.04-.293.1-.585.142-.877a1,1,0,0,1,1-.917c.081-.006.162-.026.243-.039h1.242c.081.014.161.034.242.039a1,1,0,0,1,1,.916c.047.3.1.6.147.9a.193.193,0,0,0,.171.189,8.333,8.333,0,0,1,2.317.965.209.209,0,0,0,.274-.023c.254-.189.513-.373.772-.555a.947.947,0,0,1,1.253.053c.449.416.885.849,1.3,1.3a.958.958,0,0,1,.057,1.287c-.182.26-.374.512-.548.777a.265.265,0,0,0-.019.23,9.4,9.4,0,0,1,.98,2.358.242.242,0,0,0,.157.14c.317.064.638.111.957.165a1,1,0,0,1,.872.957c.008.095.028.189.042.283Zm-.7-.623c-.018-.287-.034-.569-.052-.851a.307.307,0,0,0-.3-.312c-.409-.063-.815-.139-1.224-.2a.416.416,0,0,1-.39-.36A7.988,7.988,0,0,0,930.729-7.3a.409.409,0,0,1,.017-.514c.245-.334.48-.674.725-1.007a.317.317,0,0,0-.019-.462q-.591-.593-1.186-1.181a.3.3,0,0,0-.427-.017c-.334.244-.675.478-1.007.725a.432.432,0,0,1-.55.018,7.877,7.877,0,0,0-2.657-1.1.416.416,0,0,1-.36-.39c-.06-.409-.137-.816-.2-1.224a.3.3,0,0,0-.312-.294q-.857-.007-1.715,0a.29.29,0,0,0-.3.282c-.064.408-.141.815-.2,1.224a.427.427,0,0,1-.372.4,7.872,7.872,0,0,0-2.656,1.1.419.419,0,0,1-.532-.019c-.332-.247-.674-.48-1.008-.724a.307.307,0,0,0-.445.02q-.587.582-1.171,1.167a.325.325,0,0,0-.02.479c.242.327.472.663.714.99a.421.421,0,0,1,.019.533,7.937,7.937,0,0,0-1.11,2.676.407.407,0,0,1-.378.348c-.415.063-.829.138-1.245.2a.29.29,0,0,0-.283.3q-.01.857,0,1.715a.3.3,0,0,0,.295.311c.4.061.8.14,1.2.2a.437.437,0,0,1,.415.385,7.823,7.823,0,0,0,1.1,2.637.432.432,0,0,1-.02.55c-.247.332-.481.673-.724,1.008a.3.3,0,0,0,.02.428q.588.6,1.182,1.186a.316.316,0,0,0,.462.018c.333-.245.674-.48,1.007-.726a.409.409,0,0,1,.514-.017,7.971,7.971,0,0,0,2.675,1.113.417.417,0,0,1,.359.391c.06.409.137.816.2,1.224a.306.306,0,0,0,.333.295c.551,0,1.1,0,1.652,0a.313.313,0,0,0,.344-.306c.06-.409.137-.815.2-1.224a.406.406,0,0,1,.348-.377,7.929,7.929,0,0,0,2.676-1.11.419.419,0,0,1,.532.018c.327.242.664.471.99.713a.324.324,0,0,0,.478-.02q.584-.585,1.167-1.171a.307.307,0,0,0,.02-.445c-.244-.334-.478-.675-.724-1.008a.419.419,0,0,1-.021-.532,7.968,7.968,0,0,0,1.11-2.676.414.414,0,0,1,.4-.352c.409-.058.816-.135,1.224-.2a.309.309,0,0,0,.288-.321C933.768-2.343,933.786-2.625,933.8-2.9Z" transform="translate(-890.211 293.623)" fill="#fff"/>
    <path id="Path_174" data-name="Path 174" d="M983.781,50.44a7.069,7.069,0,1,1-7.081,7A7.086,7.086,0,0,1,983.781,50.44Zm6.348,7.071a6.361,6.361,0,1,0-6.386,6.359A6.373,6.373,0,0,0,990.128,57.511Z" transform="translate(-950.078 233.213)" fill="#fff"/>
  </g>
</svg>
