<svg xmlns="http://www.w3.org/2000/svg" width="14.387" height="16.493" viewBox="0 0 14.387 16.493">
  <g id="Group_1492" data-name="Group 1492" transform="translate(-1254.919 -442.98)">
    <path id="Path_185" data-name="Path 185" d="M1262.094,459.47c-1.444,0-2.888,0-4.332,0a2.714,2.714,0,0,1-2.842-2.83c0-2.207-.005-4.414.007-6.621a1.285,1.285,0,0,1,.176-.619c.414-.7.863-1.369,1.281-2.062a1.089,1.089,0,0,0,.149-.521c.015-.845,0-1.69.007-2.535a1.194,1.194,0,0,1,1.291-1.3q4.279,0,8.558,0a1.194,1.194,0,0,1,1.29,1.3c0,.845-.007,1.69.008,2.535a1.1,1.1,0,0,0,.149.521c.425.7.877,1.389,1.3,2.091a1.07,1.07,0,0,1,.157.521q.015,3.381,0,6.762a2.7,2.7,0,0,1-2.769,2.758C1265.052,459.476,1263.573,459.471,1262.094,459.47Zm.03-15.918q-2.113,0-4.227,0c-.551,0-.78.222-.78.761,0,1.961,0,3.922,0,5.883a.4.4,0,0,0,.233.415c1.322.712,2.637,1.436,3.951,2.162a1.592,1.592,0,0,0,1.641,0q1.957-1.079,3.92-2.145a.427.427,0,0,0,.255-.439c-.009-1.949,0-3.9-.006-5.848,0-.567-.218-.784-.792-.785Q1264.22,443.551,1262.124,443.553Zm-1.354,9.589-5.276-2.892v.413q0,2.941,0,5.882a2.167,2.167,0,0,0,2.341,2.353h8.559a2.165,2.165,0,0,0,2.337-2.322q0-2.976,0-5.953v-.374l-5.274,2.892c.117.131.209.235.3.337,1.138,1.25,2.279,2.5,3.408,3.756a.6.6,0,0,1,.154.447c-.017.082-.261.165-.4.166q-4.808.014-9.615,0c-.141,0-.356-.074-.4-.175s.045-.308.138-.415c.573-.653,1.164-1.29,1.748-1.933Zm-2.959,4.116h8.561a.628.628,0,0,0-.06-.114c-1.081-1.191-2.16-2.383-3.251-3.564-.07-.075-.237-.081-.36-.083a10.7,10.7,0,0,1-1.144-.009.458.458,0,0,0-.476.162c-.711.8-1.435,1.583-2.153,2.373C1258.568,456.42,1258.209,456.818,1257.811,457.258Zm-2.2-7.6.9.483v-1.906Zm12.087.5.907-.5-.907-1.438Z" fill="#fff"/>
    <path id="Path_186" data-name="Path 186" d="M1304.437,509.659c.3,0,.609,0,.914,0,.26,0,.391.1.389.375-.006.621,0,1.242,0,1.864a.322.322,0,0,1-.368.365q-.932,0-1.864,0c-.263,0-.378-.138-.376-.4,0-.609,0-1.219,0-1.828,0-.267.127-.382.39-.377C1303.827,509.664,1304.132,509.659,1304.437,509.659Zm-.7.589v1.4h1.41v-1.4Z" transform="translate(-44.816 -61.979)" fill="#fff"/>
    <path id="Path_187" data-name="Path 187" d="M1304.436,466.754c-.3,0-.61,0-.915,0-.248,0-.374-.108-.374-.355,0-.633,0-1.267,0-1.9a.315.315,0,0,1,.351-.348q.95,0,1.9,0c.251,0,.354.137.353.379q0,.932,0,1.865c0,.25-.117.364-.366.36C1305.069,466.75,1304.753,466.754,1304.436,466.754Zm.715-.586v-1.407h-1.408v1.407Z" transform="translate(-44.829 -19.679)" fill="#fff"/>
    <path id="Path_188" data-name="Path 188" d="M1352.511,493.564c-.61,0-1.219,0-1.829,0-.205,0-.4-.029-.408-.275-.005-.269.2-.3.421-.3q1.847,0,3.693,0c.218,0,.43.029.425.295s-.226.28-.438.278C1353.754,493.561,1353.133,493.564,1352.511,493.564Z" transform="translate(-88.636 -46.488)" fill="#fff"/>
    <path id="Path_189" data-name="Path 189" d="M1352.547,476.022c.621,0,1.243,0,1.864,0,.208,0,.4.041.4.284s-.182.29-.392.29q-1.882,0-3.764,0c-.212,0-.4-.051-.385-.3s.2-.279.409-.278C1351.3,476.025,1351.925,476.022,1352.547,476.022Z" transform="translate(-88.635 -30.713)" fill="#fff"/>
    <path id="Path_190" data-name="Path 190" d="M1350.509,520.689c.621,0,1.242,0,1.863,0,.206,0,.4.035.4.28s-.182.3-.391.3q-1.881,0-3.762,0c-.213,0-.392-.063-.386-.3s.206-.273.409-.272C1349.267,520.692,1349.888,520.69,1350.509,520.689Z" transform="translate(-86.742 -72.232)" fill="#fff"/>
    <path id="Path_191" data-name="Path 191" d="M1350.617,537.633c.621,0,1.242,0,1.863,0,.2,0,.4.033.4.279s-.181.3-.393.3q-1.881,0-3.761,0c-.214,0-.411-.073-.373-.3a.473.473,0,0,1,.363-.262C1349.351,537.618,1349.984,537.633,1350.617,537.633Z" transform="translate(-86.849 -87.98)" fill="#fff"/>
  </g>
</svg>
