<svg xmlns="http://www.w3.org/2000/svg" width="23.042" height="22.651" viewBox="0 0 23.042 22.651">
  <g id="contacts-svgrepo-com" transform="translate(0 -2.861)">
    <g id="Group_593" data-name="Group 593" transform="translate(0 2.861)">
      <g id="Group_592" data-name="Group 592" transform="translate(0 0)">
        <path id="Path_124" data-name="Path 124" d="M23.042,7.287V5.353a2.17,2.17,0,0,0-2.167-2.167H17.15a2.2,2.2,0,0,0-1.155-.325H2.218A2.221,2.221,0,0,0,0,5.079V23.294a2.221,2.221,0,0,0,2.218,2.218H15.994a2.2,2.2,0,0,0,1.155-.325h3.725a2.17,2.17,0,0,0,2.167-2.167V21.086a2.163,2.163,0,0,0-.77-1.655,2.163,2.163,0,0,0,.77-1.655V15.842a2.163,2.163,0,0,0-.77-1.655,2.163,2.163,0,0,0,.77-1.655V10.6a2.163,2.163,0,0,0-.77-1.655A2.163,2.163,0,0,0,23.042,7.287ZM17.189,23.294a1.2,1.2,0,0,1-1.195,1.195H2.218a1.2,1.2,0,0,1-1.195-1.195V5.079A1.2,1.2,0,0,1,2.218,3.885H15.994a1.2,1.2,0,0,1,1.195,1.195Zm4.829-.274a1.145,1.145,0,0,1-1.143,1.143H18.035a2.205,2.205,0,0,0,.178-.869V19.943h2.662a1.145,1.145,0,0,1,1.143,1.143Zm0-5.244a1.145,1.145,0,0,1-1.143,1.143H18.213V14.7h2.662a1.145,1.145,0,0,1,1.143,1.143Zm0-5.244a1.145,1.145,0,0,1-1.143,1.143H18.213V9.454h2.662A1.145,1.145,0,0,1,22.018,10.6Zm0-5.244A1.145,1.145,0,0,1,20.875,8.43H18.213V5.079a2.206,2.206,0,0,0-.178-.869h2.839a1.145,1.145,0,0,1,1.143,1.143V7.287Z" transform="translate(0 -2.861)" fill="#fff"/>
        <rect id="Rectangle_276" data-name="Rectangle 276" width="12.696" height="1.024" transform="translate(2.759 15.506)" fill="#fff"/>
        <path id="Path_125" data-name="Path 125" d="M59.9,64.883h9.081a.512.512,0,0,0,.5-.618,5.183,5.183,0,0,0-1.807-2.937,4.169,4.169,0,1,0-6.468,0A5.182,5.182,0,0,0,59.4,64.265a.512.512,0,0,0,.5.618Zm2.352-3.046a.512.512,0,0,0,.073-.812,3.145,3.145,0,1,1,4.232,0,.512.512,0,0,0,.073.813A4.165,4.165,0,0,1,68.3,63.859H60.587A4.164,4.164,0,0,1,62.253,61.838Z" transform="translate(-55.336 -51.003)" fill="#fff"/>
        <rect id="Rectangle_277" data-name="Rectangle 277" width="9.499" height="1.024" transform="translate(4.357 17.531)" fill="#fff"/>
      </g>
    </g>
  </g>
</svg>
