<svg xmlns="http://www.w3.org/2000/svg" width="20.044" height="20.098" viewBox="0 0 20.044 20.098">
  <g id="Group_3" data-name="Group 3" transform="translate(-58.965 -93.121)">
    <path id="Path_38" data-name="Path 38" d="M78,112.719H71.188a.512.512,0,0,1-.512-.512v-5.079H67.3v5.079a.512.512,0,0,1-.512.512H59.977a.512.512,0,0,1-.512-.512V99.567a.512.512,0,0,1,.248-.439l9.01-5.422a.513.513,0,0,1,.528,0l9.01,5.422a.512.512,0,0,1,.248.439v12.64A.512.512,0,0,1,78,112.719Zm-6.3-1.024h5.785V99.857l-8.5-5.114-8.5,5.114v11.838h5.785v-5.079a.512.512,0,0,1,.512-.512h4.4a.512.512,0,0,1,.512.512v5.079Z" transform="translate(0)" fill="#fff" stroke="#fff" stroke-width="1"/>
  </g>
</svg>
