<svg xmlns="http://www.w3.org/2000/svg" width="26.977" height="28.495" viewBox="0 0 26.977 28.495">
  <g id="diet-vegan-svgrepo-com" transform="translate(-6.557 0.25)">
    <g id="Group_595" data-name="Group 595" transform="translate(6.807)">
      <g id="Group_594" data-name="Group 594" transform="translate(0)">
        <path id="Path_126" data-name="Path 126" d="M29.725,16.366a1.9,1.9,0,0,0-1.328-.039,3.529,3.529,0,0,1-.692.094,5.509,5.509,0,0,1,2.448-2.46.228.228,0,0,0,.342.23.56.56,0,0,0,.2-.766l-.29-.095a6.962,6.962,0,0,0-1.464.873,2.547,2.547,0,0,0-.359-1.621,2.856,2.856,0,0,0-1.274-.979v-9.3A2.309,2.309,0,0,0,25.007,0H9.113A2.309,2.309,0,0,0,6.807,2.306V20.424l.067.161,4.859,4.859.161.067h9.27a7.31,7.31,0,0,0,2.17,1.56,3.6,3.6,0,0,0,1.327.186,4.99,4.99,0,0,1,.832.063,5.826,5.826,0,0,1,.82.287,4.139,4.139,0,0,0,1.375.388h.039c2.758-.088,4.719-1.871,5.382-4.893A6.274,6.274,0,0,0,29.725,16.366Zm-2.412-.174V15a5.129,5.129,0,0,0,1.071-.3A5.454,5.454,0,0,0,27.312,16.192Zm-2.206-2.34-.425.32a5.272,5.272,0,0,1-.709-.517ZM24,13.448a4.225,4.225,0,0,1,2.246-.3A4.431,4.431,0,0,1,28.3,14.195Zm1.394.454.729.127-.676.508a4.157,4.157,0,0,1-.563-.252Zm.968.208c.012-.009.015-.024.022-.037l.795.138-.7.527a2.96,2.96,0,0,1-.789-.122Zm1.094.154s0,0,0,0l.8.14a4.653,4.653,0,0,1-1.43.335Zm-.342-2.393a2.63,2.63,0,0,1,1.207.891,2.174,2.174,0,0,1,.313,1.292A5.388,5.388,0,0,0,27.4,13.2,2.242,2.242,0,0,1,27.109,11.871ZM11.666,24.733,7.585,20.651H9.815a1.853,1.853,0,0,1,1.851,1.85Zm.456.322V22.5A2.309,2.309,0,0,0,9.816,20.2H7.263V2.306A1.853,1.853,0,0,1,9.113.456H25.006a1.853,1.853,0,0,1,1.851,1.851v9.143l-.011,0-.034.173a2.788,2.788,0,0,0,.135,1.388,3.725,3.725,0,0,0-.65-.181,4.7,4.7,0,0,0-2.828.507l-.176.1.135.15a5.242,5.242,0,0,0,1.824,1.226.1.1,0,0,0,.084.041s.007,0,.011,0a3.691,3.691,0,0,0,.617.168,3.741,3.741,0,0,0,.635.053c.089,0,.173-.008.259-.014v1.14c-.165-.07-.328-.147-.488-.224a2.933,2.933,0,0,0-1.815-.434,6.188,6.188,0,0,0-5.024,4.585,5.88,5.88,0,0,0,1.234,4.934H12.122ZM32.665,23c-.361,1.646-1.485,4.425-4.952,4.535a3.5,3.5,0,0,1-1.23-.355,6.159,6.159,0,0,0-.892-.309,5.2,5.2,0,0,0-.918-.074,3.452,3.452,0,0,1-1.144-.142,5.9,5.9,0,0,1-3.554-6.44,5.663,5.663,0,0,1,4.666-4.235,1.213,1.213,0,0,1,.233-.022,3.179,3.179,0,0,1,1.3.42,5.472,5.472,0,0,0,1.194.461,2.692,2.692,0,0,0,1.122-.07,1.571,1.571,0,0,1,1.017-.008A5.821,5.821,0,0,1,32.665,23Z" transform="translate(-6.807)" fill="#fff" stroke="#fff" stroke-width="0.5"/>
        <path id="Path_127" data-name="Path 127" d="M135.285,145.66a1.63,1.63,0,0,0-1.076-.032,2.167,2.167,0,0,1-.842.051,4.7,4.7,0,0,1-.966-.368,2.518,2.518,0,0,0-1.5-.366,4.978,4.978,0,0,0-4.217,3.692,5.229,5.229,0,0,0,3.273,5.683,3.193,3.193,0,0,0,1.1.155,4.461,4.461,0,0,1,.734.061,5.266,5.266,0,0,1,.723.248,3.611,3.611,0,0,0,1.158.325h.022a4.56,4.56,0,0,0,4.508-3.942A5.145,5.145,0,0,0,135.285,145.66ZM138,151.121a4.365,4.365,0,0,1-4.309,3.779,3.431,3.431,0,0,1-1.1-.31,5.424,5.424,0,0,0-.755-.258,4.635,4.635,0,0,0-.772-.066,3.082,3.082,0,0,1-1.024-.135,5.023,5.023,0,0,1-3.156-5.449,4.772,4.772,0,0,1,4.049-3.531,1.187,1.187,0,0,1,.208-.018,2.894,2.894,0,0,1,1.172.367,4.841,4.841,0,0,0,1.009.383,2.343,2.343,0,0,0,.925-.05,1.462,1.462,0,0,1,.94.011A4.941,4.941,0,0,1,138,151.121Z" transform="translate(-112.828 -128.284)" fill="#fff" stroke="#fff" stroke-width="0.5"/>
        <path id="Path_128" data-name="Path 128" d="M168.126,179.052l-.1.01a1.41,1.41,0,0,0,.189,1.96l.1-.01a1.41,1.41,0,0,0-.189-1.96Zm.127,1.819a1.26,1.26,0,0,1-.16-1.668,1.26,1.26,0,0,1,.16,1.668Z" transform="translate(-149.246 -158.495)" fill="#fff" stroke="#fff" stroke-width="0.5"/>
        <path id="Path_129" data-name="Path 129" d="M178.892,182.2a1.638,1.638,0,0,0-.8.7h0a1.634,1.634,0,0,0-.086,1.059l.086.044a1.41,1.41,0,0,0,.888-1.758Zm-.117,1.045a1.469,1.469,0,0,1-.662.6,1.26,1.26,0,0,1,.755-1.494A1.47,1.47,0,0,1,178.776,183.241Z" transform="translate(-158.303 -161.278)" fill="#fff" stroke="#fff" stroke-width="0.5"/>
        <path id="Path_130" data-name="Path 130" d="M41.564,33.167a1.854,1.854,0,0,0,.388-.618,1.9,1.9,0,0,0,.122-.71,1.86,1.86,0,0,0-.535-1.286,1.8,1.8,0,0,0-.684-.427,2.772,2.772,0,0,0-.969-.158H38.167v3.807h1.719a2.745,2.745,0,0,0,.985-.166A1.822,1.822,0,0,0,41.564,33.167Zm-1.679-.082h-.9V30.648h.9a1.373,1.373,0,0,1,1.01.345,1.187,1.187,0,0,1,.359.84,1.2,1.2,0,0,1-.332.884A1.356,1.356,0,0,1,39.885,33.085Z" transform="translate(-34.566 -26.527)" fill="#fff" stroke="#fff" stroke-width="0.5"/>
        <rect id="Rectangle_278" data-name="Rectangle 278" width="0.819" height="3.807" transform="translate(8.126 3.441)" fill="#fff" stroke="#fff" stroke-width="0.5"/>
        <path id="Path_131" data-name="Path 131" d="M94.635,33.072H92.178v-.86h2.37v-.669h-2.37v-.876h2.457v-.7H91.359v3.807h3.276Z" transform="translate(-81.651 -26.531)" fill="#fff" stroke="#fff" stroke-width="0.5"/>
        <path id="Path_132" data-name="Path 132" d="M126.834,33.779h.825V30.625h1.388v-.653h-3.6v.653h1.387Z" transform="translate(-111.826 -26.531)" fill="#fff" stroke="#fff" stroke-width="0.5"/>
        <path id="Path_133" data-name="Path 133" d="M59.747,88.346a.13.13,0,0,0,.13.13H71.1a.13.13,0,1,0,0-.26H59.877A.13.13,0,0,0,59.747,88.346Z" transform="translate(-53.669 -78.088)" fill="#fff" stroke="#fff" stroke-width="0.5"/>
        <path id="Path_134" data-name="Path 134" d="M71.1,105.024H59.877a.13.13,0,1,0,0,.26H71.1a.13.13,0,0,0,0-.26Z" transform="translate(-53.669 -92.966)" fill="#fff" stroke="#fff" stroke-width="0.5"/>
        <path id="Path_135" data-name="Path 135" d="M69.433,121.832H59.877a.13.13,0,1,0,0,.26h9.556a.13.13,0,1,0,0-.26Z" transform="translate(-53.669 -107.844)" fill="#fff" stroke="#fff" stroke-width="0.5"/>
        <path id="Path_136" data-name="Path 136" d="M64.946,138.644H58.833a.13.13,0,1,0,0,.26h6.114a.13.13,0,1,0,0-.26Z" transform="translate(-52.745 -122.726)" fill="#fff" stroke="#fff" stroke-width="0.5"/>
        <path id="Path_137" data-name="Path 137" d="M64.946,155.452H58.833a.13.13,0,0,0,0,.26h6.114a.13.13,0,0,0,0-.26Z" transform="translate(-52.745 -137.604)" fill="#fff" stroke="#fff" stroke-width="0.5"/>
        <path id="Path_138" data-name="Path 138" d="M37.625,81.868l-.13.13v1.074l.13.13H38.7l.13-.13V82l-.13-.13Zm.944,1.074h-.814v-.813h.814Z" transform="translate(-33.972 -72.469)" fill="#fff" stroke="#fff" stroke-width="0.5"/>
        <path id="Path_139" data-name="Path 139" d="M37.625,99.268l-.13.13v1.074l.13.13H38.7l.13-.13V99.4l-.13-.13Zm.944,1.074h-.814v-.814h.814Z" transform="translate(-33.972 -87.871)" fill="#fff" stroke="#fff" stroke-width="0.5"/>
        <path id="Path_140" data-name="Path 140" d="M37.625,116.664l-.13.13v1.074l.13.13H38.7l.13-.13v-1.074l-.13-.13Zm.944,1.074h-.814v-.814h.814Z" transform="translate(-33.972 -103.27)" fill="#fff" stroke="#fff" stroke-width="0.5"/>
        <path id="Path_141" data-name="Path 141" d="M37.625,133.72l-.13.13v1.074l.13.13H38.7l.13-.13V133.85l-.13-.13Zm.944,1.074h-.814v-.813h.814Z" transform="translate(-33.972 -118.367)" fill="#fff" stroke="#fff" stroke-width="0.5"/>
        <path id="Path_142" data-name="Path 142" d="M37.625,151.12l-.13.13v1.074l.13.13H38.7l.13-.13V151.25l-.13-.13Zm.944,1.074h-.814v-.813h.814Z" transform="translate(-33.972 -133.77)" fill="#fff" stroke="#fff" stroke-width="0.5"/>
      </g>
    </g>
  </g>
</svg>
