<svg xmlns="http://www.w3.org/2000/svg" width="21.023" height="15.973" viewBox="0 0 21.023 15.973">
  <g id="Group_1495" data-name="Group 1495" transform="translate(-106.606 -851.416)">
    <path id="Path_198" data-name="Path 198" d="M127.629,861.089a1.14,1.14,0,0,1-1.055.909c-.191.013-.383,0-.575,0-.067,0-.133.006-.219.01v.379c0,.773,0,1.547,0,2.32a.464.464,0,0,1-.237.482.451.451,0,0,1-.509-.1c-.363-.28-.727-.559-1.1-.827a.541.541,0,0,0-.3-.1q-5.091-.008-10.182,0a.6.6,0,0,0-.332.115q-1.947,1.457-3.883,2.927c-.027.021-.056.04-.082.062a.421.421,0,0,1-.708-.352c0-.835,0-1.67,0-2.5v-.253h-.639a1.126,1.126,0,0,1-1.209-1.2q0-4.1,0-8.191a1.118,1.118,0,0,1,1.191-1.2c.314,0,.629,0,.978,0,0-.211-.005-.413,0-.615a3.79,3.79,0,0,1,.044-.713,1.062,1.062,0,0,1,.986-.818c.1-.007.191-.005.287-.005q8.078,0,16.156-.007a1.232,1.232,0,0,1,1.378.928Zm-18.353,5.065.2-.151c1.092-.825,2.185-1.646,3.272-2.477a.873.873,0,0,1,.565-.188q4.567.008,9.135,0h.2c-.5-.43-1.012-.809-1.514-1.2a.651.651,0,0,0-.431-.144q-2.125.008-4.249,0a.4.4,0,0,1-.456-.391.416.416,0,0,1,.448-.428c.041,0,.082,0,.123,0,1.451,0,2.9,0,4.352,0a.823.823,0,0,1,.53.176q1.632,1.243,3.273,2.476c.067.05.136.1.229.164,0-.8,0-1.549,0-2.3,0-.361.147-.509.512-.512.294,0,.588,0,.883,0,.381,0,.454-.073.454-.455q0-4.013,0-8.026c0-.385-.071-.457-.452-.457h-16.32c-.371,0-.439.07-.439.447q0,4,0,8.006c0,.432.053.485.482.485h2.463a1.614,1.614,0,0,1,.2.006.412.412,0,0,1,.385.427.4.4,0,0,1-.423.385c-.9,0-1.794-.021-2.689.01a1.182,1.182,0,0,1-1.253-1.247c.024-2.039.008-4.078.008-6.117V854.4c-.337,0-.644,0-.951,0s-.4.1-.4.391q0,4.085,0,8.17c0,.282.1.384.382.386.335,0,.671,0,1.006,0a.411.411,0,0,1,.459.454c0,.219,0,.438,0,.657Z" transform="translate(0)" fill="#fff"/>
    <path id="Path_199" data-name="Path 199" d="M355.732,895.864a2.4,2.4,0,0,1-1.125.474,2.3,2.3,0,0,1-2.2-.971,3.012,3.012,0,0,1,.049-3.644,2.3,2.3,0,0,1,3.793.136,2.939,2.939,0,0,1,.119,3.255c-.071.129-.067.194.038.29.207.189.4.392.6.591.217.218.238.45.062.632s-.424.164-.646-.058S355.965,896.1,355.732,895.864Zm-.611-.6c-.226-.221-.454-.436-.672-.661a.62.62,0,0,1-.159-.254.373.373,0,0,1,.184-.439.4.4,0,0,1,.507.072c.228.223.447.457.681.7.038-.052.056-.071.068-.094a2.221,2.221,0,0,0-.3-2.453,1.472,1.472,0,0,0-2.112-.135,2.177,2.177,0,0,0,.054,3.2A1.411,1.411,0,0,0,355.121,895.265Z" transform="translate(-231.791 -37.219)" fill="#fff"/>
    <path id="Path_200" data-name="Path 200" d="M260.845,901.825a.422.422,0,0,1-.309.442.407.407,0,0,1-.48-.258c-.169-.388-.341-.775-.491-1.171a.313.313,0,0,0-.354-.243c-.526.016-1.053.01-1.579,0a.22.22,0,0,0-.244.159c-.171.424-.352.844-.532,1.265a.386.386,0,0,1-.4.253.364.364,0,0,1-.358-.285.545.545,0,0,1,.026-.316q.968-2.315,1.948-4.624a.4.4,0,0,1,.388-.282.411.411,0,0,1,.4.291q.97,2.3,1.939,4.606A1.213,1.213,0,0,1,260.845,901.825Zm-1.737-2.06-.648-1.536-.649,1.536Z" transform="translate(-141.292 -42.867)" fill="#fff"/>
    <path id="Path_201" data-name="Path 201" d="M190.522,897.536v1.325h2.084a.95.95,0,0,1,.223.018.405.405,0,0,1-.1.8c-.656.005-1.313,0-1.969,0h-.245v.239c0,.629,0,1.258,0,1.887a.981.981,0,0,1-.024.243.4.4,0,0,1-.791-.067,1.782,1.782,0,0,1,0-.184q0-2.266,0-4.533c0-.43.12-.551.544-.552.82,0,1.641,0,2.461,0a.41.41,0,0,1,.446.406.423.423,0,0,1-.426.412c-.054,0-.109,0-.164,0h-2.032Z" transform="translate(-78.537 -42.819)" fill="#fff"/>
    <path id="Path_202" data-name="Path 202" d="M245,1030.709a.4.4,0,0,1-.408-.414.41.41,0,0,1,.406-.4.418.418,0,0,1,.411.419A.4.4,0,0,1,245,1030.709Z" transform="translate(-130.429 -168.708)" fill="#fff"/>
  </g>
</svg>
