<svg xmlns="http://www.w3.org/2000/svg" width="25.432" height="25.432" viewBox="0 0 25.432 25.432">
  <path id="feedback-svgrepo-com" d="M12.9,17.491a8.911,8.911,0,0,1,2.285,1.317,8.536,8.536,0,0,1,1.762,1.9,8.772,8.772,0,0,1,1.54,4.93v.794H16.9v-.8a7.074,7.074,0,0,0-2.1-5.054,7.364,7.364,0,0,0-2.273-1.526,7.108,7.108,0,0,0-7.837,1.526,7.375,7.375,0,0,0-1.526,2.273,7.069,7.069,0,0,0-.572,2.781v.8H1v-.8a8.582,8.582,0,0,1,1.54-4.928A8.934,8.934,0,0,1,6.59,17.493a5.439,5.439,0,0,1-1.008-.9A5.733,5.733,0,0,1,4.824,15.5a5.344,5.344,0,0,1-.472-1.241,6.076,6.076,0,0,1-.173-1.342,5.374,5.374,0,0,1,.436-2.16,5.564,5.564,0,0,1,10.529,3.49,5.4,5.4,0,0,1-.483,1.243,6.369,6.369,0,0,1-.758,1.1A5.045,5.045,0,0,1,12.9,17.491Zm-3.155-.6a3.876,3.876,0,0,0,1.54-.309,3.986,3.986,0,0,0,2.111-2.113,3.794,3.794,0,0,0,.323-1.551,3.884,3.884,0,0,0-1.168-2.794,4.329,4.329,0,0,0-1.266-.857,3.72,3.72,0,0,0-1.54-.323A3.873,3.873,0,0,0,8.2,9.256a4.029,4.029,0,0,0-2.125,2.125,3.992,3.992,0,0,0,0,3.079,4.171,4.171,0,0,0,.847,1.266A3.938,3.938,0,0,0,9.743,16.9ZM26.432,1V13.716H23.253l-4.769,4.769V13.716H16.9v-1.59h3.179v2.521L22.6,12.127h2.247V2.59H8.948V5.445q-.4.05-.8.125a4.759,4.759,0,0,0-.794.223V1Z" transform="translate(-1 -1)" fill="#fff"/>
</svg>
