<svg xmlns="http://www.w3.org/2000/svg" width="235.283" height="16" viewBox="0 0 235.283 16">
  <g id="Group_6251" data-name="Group 6251" transform="translate(-25.717 -153)">
    <g id="Group_6177" data-name="Group 6177">
      <text id="Manage_Users" data-name="Manage Users" transform="translate(55 166)" fill="#fff" font-size="14" font-family="Helvetica-Bold, Helvetica" font-weight="700"><tspan x="0" y="0">Manage Users</tspan></text>
      <g id="Group_1481" data-name="Group 1481" transform="translate(407.023 46.25)">
        <path id="Path_159" data-name="Path 159" d="M-380.8,338.446a.448.448,0,0,1-.257-.479,4.579,4.579,0,0,1,3.765-4.37,5.718,5.718,0,0,1,.8-.067c.467-.01.936-.016,1.4,0a4.455,4.455,0,0,1,3.971,2.48,4.417,4.417,0,0,1,.508,1.968.435.435,0,0,1-.256.467Zm9.48-.7c-.03-.175-.053-.335-.085-.493a3.846,3.846,0,0,0-3.648-3.026c-.522-.007-1.044-.008-1.565,0a3.263,3.263,0,0,0-.678.077,3.8,3.8,0,0,0-2.911,2.724,7.224,7.224,0,0,0-.15.716Z" transform="translate(0 -217.818)" fill="#fff" stroke="#fff" stroke-width="0.5"/>
        <path id="Path_160" data-name="Path 160" d="M-310.07,108.75c.237.051.48.083.71.157a3.128,3.128,0,0,1,2.162,3.174,3.135,3.135,0,0,1-2.625,2.891,3.13,3.13,0,0,1-3.616-2.776,3.131,3.131,0,0,1,2.77-3.425.761.761,0,0,0,.089-.02Zm-.261,5.568a2.44,2.44,0,0,0,2.441-2.428,2.439,2.439,0,0,0-2.425-2.444,2.44,2.44,0,0,0-2.447,2.433A2.44,2.44,0,0,0-310.331,114.318Z" transform="translate(-65.509)" fill="#fff" stroke="#fff" stroke-width="0.5"/>
      </g>
    </g>
    <path id="Path_5841" data-name="Path 5841" d="M7.41,8.59,12,13.17l4.59-4.58L18,10l-6,6L6,10Z" transform="translate(243 148.705)" fill="#fff"/>
  </g>
</svg>
