<svg xmlns="http://www.w3.org/2000/svg" width="17.541" height="18.772" viewBox="0 0 17.541 18.772">
  <g id="Group_4" data-name="Group 4" transform="translate(-574.985 -449.148)">
    <path id="Path_7" data-name="Path 7" d="M187.191,25.949a4.94,4.94,0,1,0-4.94-4.94A4.946,4.946,0,0,0,187.191,25.949Zm0-8.542a3.6,3.6,0,1,1-3.6,3.6A3.606,3.606,0,0,1,187.191,17.407Z" transform="translate(396.564 433.081)" fill="#fff"/>
    <path id="Path_8" data-name="Path 8" d="M125.756,194.234h16.2a.669.669,0,0,0,.669-.669c0-.017,0-.033,0-.05a8.77,8.77,0,0,0-17.539.05A.669.669,0,0,0,125.756,194.234Zm8.1-8.1a7.442,7.442,0,0,1,7.4,6.762h-14.8A7.442,7.442,0,0,1,133.857,186.134Z" transform="translate(449.898 273.687)" fill="#fff"/>
  </g>
</svg>
