<svg xmlns="http://www.w3.org/2000/svg" width="21.825" height="24.496" viewBox="0 0 21.825 24.496">
  <g id="Group_6" data-name="Group 6" transform="translate(-3868.848 486.766)">
    <path id="Path_23" data-name="Path 23" d="M165.378,71.4a1.89,1.89,0,0,1-.723,1.407.434.434,0,0,0-.177.545,10.189,10.189,0,0,1-.014,5.857.569.569,0,0,0,.2.437,2.082,2.082,0,0,1-.626,3.531,3.583,3.583,0,0,1-1.488.01c-.21-.024-.333-.038-.485.123a10.1,10.1,0,0,1-4.988,2.9.482.482,0,0,0-.41.454,2.1,2.1,0,0,1-2.057,1.688,2.066,2.066,0,0,1-2.028-1.663.537.537,0,0,0-.481-.491,10.078,10.078,0,0,1-4.878-2.838.476.476,0,0,0-.6-.144,2.065,2.065,0,0,1-2.319-.667,2.122,2.122,0,0,1-.142-2.416c.059-.1.117-.226.21-.275.56-.293.392-.706.271-1.175a9.818,9.818,0,0,1,.092-5.262.493.493,0,0,0-.17-.625,2.083,2.083,0,0,1,2.011-3.554.535.535,0,0,0,.669-.158,10.014,10.014,0,0,1,4.844-2.81c.271-.068.426-.152.487-.486a2.077,2.077,0,0,1,4.067-.031c.072.356.248.454.55.531a10.031,10.031,0,0,1,4.8,2.8.51.51,0,0,0,.632.157A2.1,2.1,0,0,1,165.378,71.4ZM163.9,73.258a2.135,2.135,0,0,1-2.073-3.574,9.759,9.759,0,0,0-5.137-2.975,2.14,2.14,0,0,1-4.14,0,9.767,9.767,0,0,0-5.141,2.973,2.13,2.13,0,0,1-2.015,3.584A8.757,8.757,0,0,0,145.4,79.2a2.08,2.08,0,0,1,2.306.925,2.109,2.109,0,0,1-.3,2.664,9.762,9.762,0,0,0,5.147,2.971,2.13,2.13,0,0,1,4.115-.041,9.086,9.086,0,0,0,5.129-2.969,2.074,2.074,0,0,1-.353-2.5,2.123,2.123,0,0,1,2.46-1.05A9.9,9.9,0,0,0,163.9,73.258ZM145.931,82.8a1.562,1.562,0,1,0-1.549-1.564A1.569,1.569,0,0,0,145.931,82.8Zm.02-10.017a1.559,1.559,0,1,0-1.57-1.542A1.561,1.561,0,0,0,145.951,72.785ZM163.273,82.8a1.563,1.563,0,1,0-1.548-1.567A1.567,1.567,0,0,0,163.273,82.8Zm1.577-11.588a1.562,1.562,0,1,0-1.538,1.572A1.561,1.561,0,0,0,164.85,71.212Zm-10.24-3.437a1.555,1.555,0,1,0-1.561-1.552A1.567,1.567,0,0,0,154.61,67.776Zm0,20.027a1.557,1.557,0,1,0-1.557-1.554A1.577,1.577,0,0,0,154.608,87.8Z" transform="translate(3725.149 -550.744)" fill="#fff"/>
    <path id="Path_24" data-name="Path 24" d="M215.02,164.744c-1.3,0-2.593,0-3.889,0-.736,0-1.084-.364-1.085-1.111q0-2.9,0-5.809c0-.779.346-1.126,1.115-1.127q3.867,0,7.735,0c.767,0,1.112.355,1.113,1.131q0,2.862,0,5.723c0,.866-.327,1.192-1.184,1.194Q216.921,164.746,215.02,164.744Zm.025-7.524c-1.3,0-2.592,0-3.888,0-.365,0-.593.135-.592.528q0,2.969.007,5.94a.472.472,0,0,0,.541.531q3.909,0,7.82,0c.368,0,.552-.174.551-.567-.01-1.922,0-3.843-.007-5.765,0-.539-.125-.66-.674-.662Q216.924,157.216,215.045,157.219Z" transform="translate(3664.744 -635.229)" fill="#fff"/>
    <path id="Path_25" data-name="Path 25" d="M157.4,133.928a1.1,1.1,0,0,1-1.113,1.1,1.086,1.086,0,0,1-1.1-1.1,1.106,1.106,0,0,1,2.211.008Zm-1.08.567a.55.55,0,0,0,.534-.537.566.566,0,1,0-1.129-.07A.579.579,0,0,0,156.32,134.5Z" transform="translate(3714.802 -613.442)" fill="#fff"/>
    <path id="Path_26" data-name="Path 26" d="M354.664,249.636a1.1,1.1,0,1,1,.043-2.207,1.1,1.1,0,1,1-.043,2.207Zm0-1.672a.568.568,0,1,0,.586.57A.568.568,0,0,0,354.668,247.964Z" transform="translate(3533.753 -718.035)" fill="#fff"/>
    <path id="Path_27" data-name="Path 27" d="M354.64,132.829a1.1,1.1,0,0,1,1.122,1.085,1.086,1.086,0,0,1-1.085,1.117,1.1,1.1,0,1,1-.038-2.2Zm.01,1.676a.572.572,0,0,0,.579-.554.588.588,0,0,0-.575-.593.568.568,0,0,0-.558.6A.559.559,0,0,0,354.651,134.506Z" transform="translate(3533.779 -613.45)" fill="#fff"/>
    <path id="Path_28" data-name="Path 28" d="M255.439,77.816a1.1,1.1,0,0,1-1.091-1.12,1.11,1.11,0,0,1,2.219.036A1.108,1.108,0,0,1,255.439,77.816Zm.086-1.666a.573.573,0,0,0-.634.572.543.543,0,0,0,.549.561.552.552,0,0,0,.579-.572A.544.544,0,0,0,255.525,76.15Z" transform="translate(3624.309 -561.24)" fill="#fff"/>
    <path id="Path_29" data-name="Path 29" d="M255.4,306.911a1.089,1.089,0,0,1-1.045-1.113,1.11,1.11,0,1,1,1.045,1.113Zm.056-1.672a.573.573,0,1,0,.565.547A.56.56,0,0,0,255.458,305.239Z" transform="translate(3624.301 -770.313)" fill="#fff"/>
    <path id="Path_30" data-name="Path 30" d="M227.993,185.31v3.176H224.46V185.31Zm-3.007.539v2.1h2.486v-2.1Z" transform="translate(3651.585 -661.345)" fill="#fff"/>
    <path id="Path_31" data-name="Path 31" d="M224.56,171.738v-.468h7.4c.008.146.016.288.026.468Z" transform="translate(3651.494 -648.532)" fill="#fff"/>
    <path id="Path_32" data-name="Path 32" d="M224.25,228.75h3.271v.475H224.28C224.271,229.08,224.262,228.941,224.25,228.75Z" transform="translate(3651.777 -700.988)" fill="#fff"/>
    <path id="Path_33" data-name="Path 33" d="M273.59,228.953v-.533c.525,0,1.055,0,1.585,0,.434,0,.87,0,1.3.028.088.006.246.165.233.223-.023.106-.149.267-.234.269C275.522,228.96,274.567,228.953,273.59,228.953Z" transform="translate(3606.749 -700.686)" fill="#fff"/>
    <path id="Path_34" data-name="Path 34" d="M273.6,216.828v-.478h3.126c-.008.163-.015.3-.023.478Z" transform="translate(3606.74 -689.672)" fill="#fff"/>
    <path id="Path_35" data-name="Path 35" d="M273.56,204.583v-.473h3.106c.007.149.015.3.023.473Z" transform="translate(3606.776 -678.501)" fill="#fff"/>
    <path id="Path_36" data-name="Path 36" d="M276.48,191.87v.471h-3.106c-.007-.143-.015-.292-.024-.471Z" transform="translate(3606.968 -667.331)" fill="#fff"/>
    <path id="Path_37" data-name="Path 37" d="M157.37,248.581a1.119,1.119,0,0,1-1.148,1.065,1.1,1.1,0,1,1,1.148-1.065Zm-.538,0a.585.585,0,0,0-.533-.609.568.568,0,1,0-.029,1.134A.56.56,0,0,0,156.832,248.583Z" transform="translate(3714.832 -718.043)" fill="#fff"/>
    <circle id="Ellipse_1" data-name="Ellipse 1" cx="1.974" cy="1.974" r="1.974" transform="translate(3869.12 -471.486)" fill="none" stroke="#fff" stroke-width="0.5"/>
    <circle id="Ellipse_2" data-name="Ellipse 2" cx="1.974" cy="1.974" r="1.974" transform="translate(3877.799 -466.469)" fill="none" stroke="#fff" stroke-width="0.5"/>
    <circle id="Ellipse_3" data-name="Ellipse 3" cx="1.974" cy="1.974" r="1.974" transform="translate(3886.474 -471.473)" fill="none" stroke="#fff" stroke-width="0.5"/>
    <circle id="Ellipse_4" data-name="Ellipse 4" cx="1.974" cy="1.974" r="1.974" transform="translate(3886.454 -481.499)" fill="none" stroke="#fff" stroke-width="0.5"/>
    <circle id="Ellipse_5" data-name="Ellipse 5" cx="1.974" cy="1.974" r="1.974" transform="translate(3877.775 -486.516)" fill="none" stroke="#fff" stroke-width="0.5"/>
    <circle id="Ellipse_6" data-name="Ellipse 6" cx="1.974" cy="1.974" r="1.974" transform="translate(3869.098 -481.478)" fill="none" stroke="#fff" stroke-width="0.5"/>
  </g>
</svg>
