<svg xmlns="http://www.w3.org/2000/svg" width="24.003" height="23.096" viewBox="0 0 24.003 23.096">
  <g id="Group_1752" data-name="Group 1752" transform="translate(-46 -864)">
    <g id="Group_1751" data-name="Group 1751" transform="translate(46 864)">
      <path id="Path_220" data-name="Path 220" d="M779.658,316.39h.914v.938h-.914Z" transform="translate(-779.658 -310.847)" fill="#fff"/>
      <path id="Path_221" data-name="Path 221" d="M804.569,226.859c2.635,3.4,2.634,6.762.005,10.149h4.7v.933h-.261c-1.79,0-3.581,0-5.371.005a.733.733,0,0,0-.386.116,7.365,7.365,0,0,1-8.255,0,.7.7,0,0,0-.365-.112q-1.935-.012-3.87,0a.384.384,0,0,0-.265.09c-.618.726-1.225,1.461-1.843,2.2a.812.812,0,0,0,.06.1c.58.7,1.155,1.4,1.747,2.085a.529.529,0,0,0,.364.133q7.447.01,14.894.006h.32v.921h-.255q-7.634,0-15.269,0a.751.751,0,0,1-.64-.306c-.7-.854-1.408-1.7-2.113-2.543a.488.488,0,0,1-.006-.766c.71-.853,1.425-1.7,2.128-2.561a.755.755,0,0,1,.647-.3c.977.01,1.955,0,2.932,0h.23c-2.636-3.4-2.635-6.761,0-10.157h-4.716v-.926h.267c1.775,0,3.549,0,5.324-.006a.9.9,0,0,0,.471-.142,7.387,7.387,0,0,1,8.2.015.777.777,0,0,0,.406.128c1.274.01,2.549,0,3.823.01a.426.426,0,0,0,.372-.179c.534-.654,1.078-1.3,1.617-1.949.049-.059.1-.121.15-.191-.526-.632-1.065-1.241-1.557-1.886a1.016,1.016,0,0,0-.923-.426c-4.863.015-9.726.01-14.589.01h-.331v-.921h.26q7.646,0,15.293,0a.711.711,0,0,1,.6.284c.7.859,1.418,1.708,2.128,2.561.254.306.253.475-.005.785-.705.847-1.415,1.69-2.113,2.543a.756.756,0,0,1-.646.3c-.977-.01-1.954,0-2.932,0Zm-5.433-1.391a6.469,6.469,0,1,0,6.469,6.48A6.488,6.488,0,0,0,799.136,225.468Z" transform="translate(-787.126 -220.389)" fill="#fff"/>
      <path id="Path_222" data-name="Path 222" d="M811.877,253.436v-.9h5.057v.9Z" transform="translate(-810.017 -250.677)" fill="#fff"/>
      <path id="Path_223" data-name="Path 223" d="M1080.955,573.571H1075.9v-.9h5.055Z" transform="translate(-1058.795 -552.328)" fill="#fff"/>
      <path id="Path_224" data-name="Path 224" d="M795.939,285.585V284.7h5.052v.884Z" transform="translate(-794.999 -280.988)" fill="#fff"/>
      <path id="Path_225" data-name="Path 225" d="M1096.922,540.765v.883h-5.052v-.883Z" transform="translate(-1073.843 -522.266)" fill="#fff"/>
      <path id="Path_226" data-name="Path 226" d="M836.838,220.7v.891h-.9V220.7Z" transform="translate(-832.689 -220.681)" fill="#fff"/>
      <path id="Path_227" data-name="Path 227" d="M1180.75,509.52h-.9v-.9h.9Z" transform="translate(-1156.747 -491.976)" fill="#fff"/>
      <path id="Path_228" data-name="Path 228" d="M1124.742,604.62v.893h-.9v-.893Z" transform="translate(-1103.97 -582.434)" fill="#fff"/>
      <path id="Path_229" data-name="Path 229" d="M902.792,329.993a5.539,5.539,0,1,1-5.543-5.54A5.533,5.533,0,0,1,902.792,329.993Zm-.924.011a4.616,4.616,0,1,0-4.633,4.605A4.61,4.61,0,0,0,901.868,330Z" transform="translate(-885.247 -318.448)" fill="#fff"/>
    </g>
    <path id="rupee-sign-solid-svgrepo-com_1_" data-name="rupee-sign-solid-svgrepo-com (1)" d="M8,5v.41h.82a1.075,1.075,0,0,1,.968.615H8v.41H9.839a1.021,1.021,0,0,1-1.019.82H8v.506l2.1,1.749h.641L8.525,7.666H8.82a1.421,1.421,0,0,0,1.429-1.23h1.032v-.41H10.217a1.278,1.278,0,0,0-.372-.615h1.435V5Z" transform="translate(48.364 868.278)" fill="#fff"/>
  </g>
</svg>
