<svg xmlns="http://www.w3.org/2000/svg" width="21.573" height="23.161" viewBox="0 0 21.573 23.161">
  <g id="calander-01" transform="translate(-84.07 -9.861)">
    <path id="Path_9" data-name="Path 9" d="M88.407,12.415V11.049c0-.13,0-.261,0-.391a.843.843,0,0,1,1.673-.09,3.542,3.542,0,0,1,.016.444c0,.413,0,.827,0,1.241v.154h9.126v-.143q0-.762,0-1.524a.848.848,0,1,1,1.694,0c0,.5,0,1.007,0,1.51v.164h3.039a1.635,1.635,0,0,1,1.683,1.687V31.336a1.637,1.637,0,0,1-1.686,1.686H85.766a1.64,1.64,0,0,1-1.7-1.691V14.11a1.638,1.638,0,0,1,1.691-1.695h2.646Zm-3.045,6.148V30.62a1.126,1.126,0,0,0,1.182,1.188h16.828a.928.928,0,0,0,.981-.98V18.563Zm13.865-5.012a1.258,1.258,0,0,0-.406,1.354,1.31,1.31,0,0,0,2.521-.053,1.242,1.242,0,0,0-.421-1.3v.138c0,.279,0,.557,0,.835a.843.843,0,0,1-1.187.774.815.815,0,0,1-.5-.778C99.221,14.2,99.226,13.882,99.226,13.551Zm-9.121,0c0,.055-.006.1-.006.149,0,.3.012.6-.01.9a.835.835,0,0,1-.875.773.846.846,0,0,1-.8-.85c0-.292,0-.584,0-.876a1.059,1.059,0,0,0-.011-.105,1.29,1.29,0,0,0-.378,1.415,1.31,1.31,0,0,0,2.49-.064A1.267,1.267,0,0,0,90.1,13.553Z" transform="translate(0 0)" fill="#fff"/>
    <path id="Path_10" data-name="Path 10" d="M298.621,207.112c0-.261,0-.521,0-.782a.471.471,0,0,1,.5-.5q.8,0,1.591,0a.465.465,0,0,1,.489.482q.01.8,0,1.6a.464.464,0,0,1-.5.488q-.789.005-1.577,0a.471.471,0,0,1-.5-.508C298.62,207.633,298.621,207.372,298.621,207.112Z" transform="translate(-199.259 -181.999)" fill="#fff"/>
    <path id="Path_11" data-name="Path 11" d="M299.914,154.274c-.256,0-.512,0-.768,0a.472.472,0,0,1-.512-.512q0-.775,0-1.55a.475.475,0,0,1,.514-.512q.775,0,1.55,0a.475.475,0,0,1,.514.513q0,.775,0,1.55a.474.474,0,0,1-.515.511h-.783Z" transform="translate(-199.27 -131.728)" fill="#fff"/>
    <path id="Path_12" data-name="Path 12" d="M247.036,152.981c0,.261,0,.521,0,.782a.465.465,0,0,1-.5.507q-.781,0-1.564,0a.469.469,0,0,1-.507-.516q0-.775,0-1.55a.47.47,0,0,1,.5-.508q.782,0,1.564,0a.468.468,0,0,1,.506.5C247.038,152.46,247.036,152.721,247.036,152.981Z" transform="translate(-148.961 -131.724)" fill="#fff"/>
    <path id="Path_13" data-name="Path 13" d="M138.653,152.978c0,.265,0,.53,0,.8a.456.456,0,0,1-.459.48q-.829.012-1.658,0a.449.449,0,0,1-.454-.47q-.007-.816,0-1.631a.457.457,0,0,1,.47-.47c.544-.006,1.087-.006,1.631,0a.461.461,0,0,1,.468.486C138.654,152.438,138.653,152.708,138.653,152.978Z" transform="translate(-48.301 -131.709)" fill="#fff"/>
    <path id="Path_14" data-name="Path 14" d="M247.029,207.123c0,.261,0,.521,0,.782a.464.464,0,0,1-.5.5q-.789,0-1.577,0a.466.466,0,0,1-.5-.5q0-.789,0-1.577a.466.466,0,0,1,.486-.5q.8-.006,1.6,0a.466.466,0,0,1,.483.487v.027C247.029,206.6,247.029,206.862,247.029,207.123Z" transform="translate(-148.954 -181.998)" fill="#fff"/>
    <path id="Path_15" data-name="Path 15" d="M192.862,153c0,.265,0,.53,0,.8a.458.458,0,0,1-.478.488q-.808.007-1.617,0a.457.457,0,0,1-.474-.492q0-.8,0-1.59a.464.464,0,0,1,.492-.49q.8-.005,1.59,0a.464.464,0,0,1,.488.494C192.864,152.474,192.862,152.739,192.862,153Z" transform="translate(-98.65 -131.742)" fill="#fff"/>
    <path id="Path_16" data-name="Path 16" d="M138.665,207.108c0,.265,0,.53,0,.8a.461.461,0,0,1-.478.49q-.808.009-1.617,0a.456.456,0,0,1-.475-.478q-.006-.808,0-1.617a.459.459,0,0,1,.477-.478q.808-.007,1.617,0a.464.464,0,0,1,.476.492C138.667,206.578,138.665,206.843,138.665,207.108Z" transform="translate(-48.314 -181.991)" fill="#fff"/>
    <path id="Path_17" data-name="Path 17" d="M247.029,263.06c0,.261,0,.521,0,.782a.461.461,0,0,1-.5.5q-.782,0-1.564,0a.464.464,0,0,1-.5-.5q0-.781,0-1.564a.469.469,0,0,1,.506-.5q.781,0,1.564,0a.466.466,0,0,1,.5.505C247.03,262.539,247.029,262.8,247.029,263.06Z" transform="translate(-148.954 -233.956)" fill="#fff"/>
    <path id="Path_18" data-name="Path 18" d="M138.659,263.081c0,.265,0,.53,0,.8a.455.455,0,0,1-.468.483c-.544.006-1.087,0-1.631,0a.449.449,0,0,1-.472-.465q-.009-.816,0-1.631a.457.457,0,0,1,.48-.473q.8,0,1.6,0a.465.465,0,0,1,.487.495C138.659,262.55,138.659,262.816,138.659,263.081Z" transform="translate(-48.307 -233.974)" fill="#fff"/>
    <path id="Path_19" data-name="Path 19" d="M192.878,206.963c0,.265,0,.53,0,.8a.462.462,0,0,1-.485.494q-.8,0-1.6,0a.459.459,0,0,1-.48-.486q0-.8,0-1.6a.453.453,0,0,1,.473-.478q.816-.005,1.631,0a.452.452,0,0,1,.466.47C192.881,206.424,192.878,206.694,192.878,206.963Z" transform="translate(-98.666 -181.865)" fill="#fff"/>
    <path id="Path_20" data-name="Path 20" d="M190.3,263.058c0-.265,0-.53,0-.8a.463.463,0,0,1,.49-.49q.8,0,1.59,0a.461.461,0,0,1,.489.491q0,.8,0,1.59a.454.454,0,0,1-.476.488q-.808.006-1.617,0a.456.456,0,0,1-.477-.488v-.014Q190.3,263.449,190.3,263.058Z" transform="translate(-98.659 -233.955)" fill="#fff"/>
  </g>
</svg>
