<svg xmlns="http://www.w3.org/2000/svg" width="17.735" height="24.512" viewBox="0 0 17.735 24.512">
  <g id="Group_4153" data-name="Group 4153" transform="translate(14055 -23861)">
    <path id="Path_260" data-name="Path 260" d="M80.068,1.694H77.011A1.246,1.246,0,0,0,75.832.847H74.54a2.074,2.074,0,0,0-3.344,0H69.9a1.246,1.246,0,0,0-1.179.847H65.668A1.67,1.67,0,0,0,64,3.362V22.844a1.67,1.67,0,0,0,1.668,1.668h14.4a1.67,1.67,0,0,0,1.668-1.668V3.362A1.67,1.67,0,0,0,80.068,1.694ZM69.9,4.606h5.929a1.241,1.241,0,0,0,.934-.424h2.481V22.023H66.488V4.182h2.481A1.241,1.241,0,0,0,69.9,4.606Zm0-2.965h1.506a.4.4,0,0,0,.343-.2,1.283,1.283,0,0,1,2.232,0,.4.4,0,0,0,.343.2h1.506a.451.451,0,0,1,.45.45V3.362a.451.451,0,0,1-.45.45H69.9a.451.451,0,0,1-.45-.45V2.091A.451.451,0,0,1,69.9,1.641Zm11.038,21.2a.875.875,0,0,1-.874.874h-14.4a.875.875,0,0,1-.874-.874V3.362a.875.875,0,0,1,.874-.874h2.991v.874c0,.009,0,.018,0,.026H66.091a.4.4,0,0,0-.4.4V22.421a.4.4,0,0,0,.4.4H79.644a.4.4,0,0,0,.4-.4V3.785a.4.4,0,0,0-.4-.4H77.076c0-.009,0-.018,0-.026V2.488h2.991a.875.875,0,0,1,.874.874Z" transform="translate(-14119 23861)" fill="#fff"/>
    <path id="Path_261" data-name="Path 261" d="M224.4,32.794a.4.4,0,1,0-.281-.116A.4.4,0,0,0,224.4,32.794Z" transform="translate(-14270.529 23830.695)" fill="#fff"/>
    <path id="Path_262" data-name="Path 262" d="M176.4,144.794h7.2a.4.4,0,0,0,0-.794h-7.2a.4.4,0,0,0,0,.794Z" transform="translate(-14225.071 23724.623)" fill="#fff"/>
    <path id="Path_263" data-name="Path 263" d="M176.4,224.794h7.2a.4.4,0,1,0,0-.794h-7.2a.4.4,0,1,0,0,.794Z" transform="translate(-14225.071 23648.857)" fill="#fff"/>
    <path id="Path_264" data-name="Path 264" d="M176.4,304.794h1.271a.4.4,0,1,0,0-.794H176.4a.4.4,0,1,0,0,.794Z" transform="translate(-14225.071 23573.094)" fill="#fff"/>
    <path id="Path_265" data-name="Path 265" d="M176.4,184.794h7.2a.4.4,0,0,0,0-.794h-7.2a.4.4,0,0,0,0,.794Z" transform="translate(-14225.071 23686.742)" fill="#fff"/>
    <path id="Path_266" data-name="Path 266" d="M176.4,264.794h1.694a.4.4,0,1,0,0-.794H176.4a.4.4,0,1,0,0,.794Z" transform="translate(-14225.071 23610.977)" fill="#fff"/>
    <path id="Path_267" data-name="Path 267" d="M176.4,344.794h1.694a.4.4,0,1,0,0-.794H176.4a.4.4,0,1,0,0,.794Z" transform="translate(-14225.071 23535.211)" fill="#fff"/>
    <path id="Path_268" data-name="Path 268" d="M136.4,144.794h.424a.4.4,0,0,0,0-.794H136.4a.4.4,0,0,0,0,.794Z" transform="translate(-14187.188 23724.623)" fill="#fff"/>
    <path id="Path_269" data-name="Path 269" d="M136.4,224.794h.424a.4.4,0,1,0,0-.794H136.4a.4.4,0,1,0,0,.794Z" transform="translate(-14187.188 23648.857)" fill="#fff"/>
    <path id="Path_270" data-name="Path 270" d="M136.4,304.794h.424a.4.4,0,1,0,0-.794H136.4a.4.4,0,1,0,0,.794Z" transform="translate(-14187.188 23573.094)" fill="#fff"/>
    <path id="Path_271" data-name="Path 271" d="M136.4,184.794h.424a.4.4,0,0,0,0-.794H136.4a.4.4,0,0,0,0,.794Z" transform="translate(-14187.188 23686.742)" fill="#fff"/>
    <path id="Path_272" data-name="Path 272" d="M136.4,264.794h.424a.4.4,0,1,0,0-.794H136.4a.4.4,0,1,0,0,.794Z" transform="translate(-14187.188 23610.977)" fill="#fff"/>
    <path id="Path_273" data-name="Path 273" d="M136.4,344.794h.424a.4.4,0,1,0,0-.794H136.4a.4.4,0,1,0,0,.794Z" transform="translate(-14187.188 23535.211)" fill="#fff"/>
    <path id="Path_274" data-name="Path 274" d="M234.515,264a2.515,2.515,0,1,0,1.5,4.534l.012-.008.03-.025a2.513,2.513,0,0,0-1.539-4.5Zm-.4.841v1.277h-1.277A1.726,1.726,0,0,1,234.118,264.841Zm-1.277,2.071h1.475l.885,1.18a1.719,1.719,0,0,1-2.36-1.18Zm3,.7-.925-1.233v-1.542a1.719,1.719,0,0,1,.925,2.774Z" transform="translate(-14278.106 23610.977)" fill="#fff"/>
  </g>
</svg>
