<svg xmlns="http://www.w3.org/2000/svg" width="26.204" height="26.196" viewBox="0 0 26.204 26.196">
  <g id="Group_1948" data-name="Group 1948" transform="translate(-748.11 -204.601)">
    <path id="Path_230" data-name="Path 230" d="M766.844,230.8c-.59-.119-1.18-.239-1.771-.356-.2-.04-.4-.071-.6-.11a.864.864,0,0,1-.721-1.051c.054-.3.113-.6.162-.9a.71.71,0,0,0-.021-.19.663.663,0,0,0-.2.055c-.248.165-.488.343-.734.511a.819.819,0,0,1-1.214-.178.385.385,0,0,0-.377-.139H748.785c-.563,0-.665-.1-.665-.675,0-1.279-.028-2.558.005-3.836a8.9,8.9,0,0,1,5.089-8.233,1.007,1.007,0,0,0,.088-.062l-.174-.2a6.627,6.627,0,0,1,1.847-10.132,6.1,6.1,0,0,1,8.145,2.491,6.675,6.675,0,0,1-.735,7.658c-.049.057-.1.117-.129.157.5.314,1,.626,1.5.928a.255.255,0,0,0,.2-.016.849.849,0,0,1,1.128.282c.174.242.336.493.5.738.045.065.1.125.19.238.044-.139.076-.212.091-.289.056-.293.1-.587.159-.88a.847.847,0,0,1,1.03-.711q1.181.214,2.361.434a.859.859,0,0,1,.756,1.068c-.044.278-.1.553-.145.83a2.712,2.712,0,0,0,0,.35l.894-.626a.855.855,0,0,1,1.337.236q.661.972,1.316,1.949a.871.871,0,0,1-.243,1.308c-.229.164-.463.319-.688.488a.815.815,0,0,0-.139.186.89.89,0,0,0,.19.092,5.436,5.436,0,0,0,.6.11,1.094,1.094,0,0,1,1.014.758v.409a1.391,1.391,0,0,0-.052.167c-.134.728-.262,1.457-.4,2.185a.861.861,0,0,1-1.111.756c-.276-.05-.552-.106-.829-.15a.124.124,0,1,0-.135.207c.172.264.354.521.528.784a.853.853,0,0,1-.214,1.236q-1.017.73-2.048,1.44a.827.827,0,0,1-1.175-.208c-.182-.247-.346-.506-.52-.758-.046-.066-.1-.126-.188-.239a2.56,2.56,0,0,0-.1.279c-.048.242-.1.484-.13.729a.979.979,0,0,1-.692.888Zm-14.3-3.227c0-.719,0-1.424,0-2.129,0-.318.161-.508.414-.513s.429.2.429.523c0,.7,0,1.408,0,2.107h7.626a.4.4,0,0,0-.024-.073c-.219-.325-.441-.648-.659-.973a.85.85,0,0,1,.208-1.255c.245-.184.5-.358.743-.543a.135.135,0,1,0-.068-.261c-.274-.059-.552-.106-.828-.155a.852.852,0,0,1-.746-1.052q.214-1.22.443-2.437a.854.854,0,0,1,1.08-.736c.284.053.568.11.854.157a.581.581,0,0,0,.181-.03.57.57,0,0,0-.044-.179c-.157-.243-.324-.48-.486-.72a.879.879,0,0,1,.252-1.361c.386-.273.774-.545,1.218-.859-.5-.265-.964-.5-1.418-.749a.279.279,0,0,0-.341.05,6,6,0,0,1-7.181.037.383.383,0,0,0-.454-.047A7.956,7.956,0,0,0,749,223.335c-.1,1.356-.029,2.726-.035,4.09a.891.891,0,0,0,.024.146Zm5.223-22.127a5.2,5.2,0,0,0-2,.408,5.769,5.769,0,0,0-2.122,8.881,5.215,5.215,0,0,0,7.419.805,5.74,5.74,0,0,0,1.6-6.758A5.308,5.308,0,0,0,757.768,205.444Zm13.738,13.131c-.375.261-.716.5-1.059.738a.479.479,0,0,1-.691,0c-.118-.083-.242-.159-.367-.232a.456.456,0,0,1-.264-.591c.077-.424.151-.849.229-1.293l-2.474-.481c-.069.364-.133.689-.191,1.015-.118.666-.117.666-.774.8-.033.007-.065.019-.1.027-.438.108-.5.084-.758-.3l-.681-1-2.069,1.446c.177.269.35.52.513.778.327.517.566.577.044,1.275-.287.384-.315.439-.786.348-.373-.072-.748-.136-1.141-.207l-.461,2.5a.769.769,0,0,0,.1.04q.574.122,1.149.242c.337.07.418.158.472.506a2.948,2.948,0,0,0,.08.4.5.5,0,0,1-.219.618c-.35.241-.692.495-1.051.753l1.419,2.127c.369-.257.727-.5,1.078-.754a.482.482,0,0,1,.651,0,2.921,2.921,0,0,0,.363.237c.288.167.34.267.284.6-.071.425-.147.849-.224,1.291l2.484.482c.086-.448.166-.857.241-1.266.069-.374.14-.445.524-.513.117-.021.235-.041.35-.071.353-.091.456-.055.665.25.24.35.479.7.725,1.063l2.068-1.449c-.206-.311-.372-.612-.587-.874a.732.732,0,0,1-.007-1.1.511.511,0,0,0,.065-.109c.2-.356.3-.4.7-.324s.783.144,1.2.22c.15-.816.3-1.609.433-2.4.009-.053-.095-.167-.162-.183-.365-.083-.735-.144-1.1-.212-.322-.06-.422-.165-.472-.478a4.4,4.4,0,0,0-.089-.45.488.488,0,0,1,.226-.591c.36-.241.709-.5,1.078-.757Z" transform="translate(0 0)" fill="#fff"/>
    <path id="Path_231" data-name="Path 231" d="M1051.877,507.7a3.014,3.014,0,1,1,2.992-3A3.014,3.014,0,0,1,1051.877,507.7Zm-2.109-3.014a2.126,2.126,0,1,0,2.126-2.172A2.164,2.164,0,0,0,1049.769,504.689Z" transform="translate(-284.923 -281.388)" fill="#fff"/>
  </g>
</svg>
