<svg xmlns="http://www.w3.org/2000/svg" width="21.999" height="22.59" viewBox="0 0 21.999 22.59">
  <g id="manager-svgrepo-com" transform="translate(-3.882)">
    <path id="Path_40" data-name="Path 40" d="M195.007,214.649l-.015,0-.589-.18a.637.637,0,0,0-.615.137l-1.193,1.079L191.4,214.6a.637.637,0,0,0-.615-.137l-.589.18-.015,0a2.282,2.282,0,0,0-1.563,2.168v3.261a.638.638,0,0,0,.638.638h6.672a.638.638,0,0,0,.638-.638v-3.261A2.282,2.282,0,0,0,195.007,214.649Zm.287,4.791h-5.4v-2.623a1.008,1.008,0,0,1,.684-.955l.234-.072,1.353,1.223a.638.638,0,0,0,.856,0l1.353-1.223.234.072a1.008,1.008,0,0,1,.684.955v2.623Z" transform="translate(-170.687 -198.125)" fill="#fff"/>
    <path id="Path_41" data-name="Path 41" d="M212.858,156.914a2.306,2.306,0,1,0-2.306-2.306A2.309,2.309,0,0,0,212.858,156.914Zm0-3.336a1.03,1.03,0,1,1-1.03,1.03A1.031,1.031,0,0,1,212.858,153.578Z" transform="translate(-190.95 -140.718)" fill="#fff"/>
    <path id="Path_42" data-name="Path 42" d="M10.268,214.649l-.015,0-.589-.18a.637.637,0,0,0-.615.137l-1.193,1.079L6.663,214.6a.637.637,0,0,0-.615-.137l-.589.18-.015,0a2.282,2.282,0,0,0-1.563,2.168v3.261a.638.638,0,0,0,.638.638h6.672a.638.638,0,0,0,.638-.638v-3.261A2.282,2.282,0,0,0,10.268,214.649Zm.287,4.791h-5.4v-2.623a1.008,1.008,0,0,1,.684-.955l.234-.072,1.353,1.223a.638.638,0,0,0,.856,0l1.353-1.223.234.072a1.008,1.008,0,0,1,.684.955v2.623Z" transform="translate(0 -198.125)" fill="#fff"/>
    <path id="Path_43" data-name="Path 43" d="M25.813,154.608a2.306,2.306,0,1,0,2.306-2.306A2.309,2.309,0,0,0,25.813,154.608Zm3.336,0a1.03,1.03,0,1,1-1.03-1.03A1.031,1.031,0,0,1,29.149,154.608Z" transform="translate(-20.263 -140.718)" fill="#fff"/>
    <path id="Path_44" data-name="Path 44" d="M87.308,82.665h8.181a.638.638,0,0,0,.638-.638V78.956a2.654,2.654,0,0,0-1.817-2.521l-.736-.226a.638.638,0,0,0-.771.353l-.843,1.919-.218-.971.451-.78a.338.338,0,0,0-.293-.507h-1a.338.338,0,0,0-.293.507l.451.78-.218.971-.843-1.919a.638.638,0,0,0-.771-.353l-.736.226a2.654,2.654,0,0,0-1.817,2.521v3.071A.638.638,0,0,0,87.308,82.665Zm6.434-5.07.171.052a1.38,1.38,0,0,1,.938,1.309v2.433H92.076Zm-5.8,1.361a1.38,1.38,0,0,1,.938-1.309l.171-.052,1.666,3.794H87.946V78.956Z" transform="translate(-76.491 -70.386)" fill="#fff"/>
    <path id="Path_45" data-name="Path 45" d="M116.241,5.366a2.683,2.683,0,1,0-2.683-2.683A2.686,2.686,0,0,0,116.241,5.366Zm0-4.09a1.407,1.407,0,1,1-1.407,1.407A1.409,1.409,0,0,1,116.241,1.276Z" transform="translate(-101.334)" fill="#fff"/>
    <path id="Path_46" data-name="Path 46" d="M233.714,64.7a.562.562,0,0,0-.585.91l.77.876a.563.563,0,0,0,.846,0l.77-.876a.563.563,0,0,0-.665-.88,5.777,5.777,0,0,0-1.387-3.286.563.563,0,0,0-.846.743A4.632,4.632,0,0,1,233.714,64.7Z" transform="translate(-211.207 -56.591)" fill="#fff"/>
    <path id="Path_47" data-name="Path 47" d="M24.319,66.487a.563.563,0,0,0,.846,0l.77-.876a.562.562,0,0,0-.585-.91,4.631,4.631,0,0,1,1.1-2.513.563.563,0,0,0-.846-.743,5.776,5.776,0,0,0-1.387,3.286.563.563,0,0,0-.665.88Z" transform="translate(-18.042 -56.594)" fill="#fff"/>
  </g>
</svg>
