<svg xmlns="http://www.w3.org/2000/svg" width="25.207" height="14.207" viewBox="0 0 25.207 14.207">
  <g id="Group_1490" data-name="Group 1490" transform="translate(-565.233 -1461.718)">
    <path id="Path_184" data-name="Path 184" d="M578.41,1474.989c-.747,1.051-1.64,1.249-2.6.43-1.721-1.471-3.367-3.031-5.041-4.556-.125-.113-.231-.247-.394-.425-.1.333-.173.6-.269.855a.539.539,0,0,1-.726.4c-1.223-.352-2.45-.69-3.676-1.029-.439-.121-.55-.359-.419-.81.727-2.52,1.426-5.049,2.142-7.573.16-.564.331-.654.9-.5a21.539,21.539,0,0,1,3.209.929,6.71,6.71,0,0,0,3.072.222,5.631,5.631,0,0,0,2.067-.394,5.187,5.187,0,0,1,3.688.2c.639.215,1.254.5,1.875.768a.878.878,0,0,0,1.162-.251.869.869,0,0,1,.383-.244c1.207-.35,2.42-.677,3.626-1.032.473-.139.687.024.815.484q1.068,3.836,2.176,7.66c.113.39,0,.625-.361.729-1.283.372-2.567.742-3.861,1.069-.149.038-.367-.195-.553-.3a1.438,1.438,0,0,0-.425-.235.4.4,0,0,0-.506.29,1.674,1.674,0,0,1-1.1,1.021.662.662,0,0,0-.352.357,1.649,1.649,0,0,1-1.624,1.326.648.648,0,0,0-.449.213,1.621,1.621,0,0,1-2.509.572C578.582,1475.114,578.506,1475.058,578.41,1474.989Zm-4.052-11.009c-.587.051-1.149.115-1.714.145a.608.608,0,0,0-.623.514c-.346,1.242-.68,2.489-1.084,3.712a1.335,1.335,0,0,0,.268,1.422,34.419,34.419,0,0,0,5.47,4.992.4.4,0,0,0,.623-.03.417.417,0,0,0-.023-.628,10.769,10.769,0,0,1-.9-.969.639.639,0,0,1-.034-.6c.114-.137.4-.159.617-.171.1-.005.2.134.3.214.711.6,1.411,1.211,2.134,1.8.357.288.686.207.8-.212a.731.731,0,0,0-.2-.6c-.586-.549-1.208-1.058-1.822-1.577a.491.491,0,0,1-.109-.743.485.485,0,0,1,.717-.058,4.986,4.986,0,0,1,.415.313c.67.55,1.341,1.1,2,1.656.317.267.6.312.894-.033s.164-.625-.146-.877c-.269-.219-.531-.445-.793-.673-.463-.4-.928-.8-1.382-1.219-.215-.2-.282-.477-.03-.649a.941.941,0,0,1,.669-.086c.18.041.327.234.486.363.647.528,1.3,1.053,1.937,1.587a.483.483,0,0,0,.8-.084.564.564,0,0,0-.108-.863c-1.56-1.252-3.111-2.517-4.672-3.768a1.339,1.339,0,0,0-1.833.163,7.052,7.052,0,0,1-1.626,1.248,1.269,1.269,0,0,1-1.852-.942,4.351,4.351,0,0,1,.075-1.754A8.739,8.739,0,0,1,574.358,1463.98Zm10.881,6.451-1.662-5.975c-.913.546-1.636.063-2.4-.259a16.352,16.352,0,0,0-1.951-.691,3.64,3.64,0,0,0-3.605.8,3.507,3.507,0,0,0-1.2,2.235.837.837,0,0,0,.267.686.882.882,0,0,0,.721-.086,2.025,2.025,0,0,0,.656-.6,1.75,1.75,0,0,1,1.63-.979.344.344,0,0,0,.18-.051,1.036,1.036,0,0,1,1.25.2q2.706,2.244,5.429,4.468A2.6,2.6,0,0,0,585.239,1470.432Zm-18.849-.633,2.833.786,1.958-6.918-2.826-.807Zm22.9.211-1.96-6.948-2.827.823,1.965,6.905Z" fill="#fff"/>
  </g>
</svg>
