<svg xmlns="http://www.w3.org/2000/svg" width="22.028" height="16.861" viewBox="0 0 22.028 16.861">
  <g id="Group_6075" data-name="Group 6075" transform="translate(-1992.606 -584)">
    <path id="Path_5821" data-name="Path 5821" d="M1998.54,652.786a6.809,6.809,0,0,0-3.21.934c-.644.261-1.27.566-1.9.86-.315.147-.614.167-.773-.184-.15-.329.055-.533.353-.661,1.261-.541,2.489-1.18,3.788-1.6a4.746,4.746,0,0,1,5.352,1.215,1.746,1.746,0,0,0,2.287.3c.727-.453,1.442-.929,2.185-1.354a2.548,2.548,0,0,1,2.968.014.665.665,0,0,0,.429.052,2.363,2.363,0,0,1,1.969.456.733.733,0,0,0,.463.091c.248-.009.5-.1.741-.087a1.409,1.409,0,0,1,1.3.8,1.336,1.336,0,0,1-.244,1.542,4.4,4.4,0,0,1-.879.776c-2.483,1.617-4.984,3.208-7.466,4.827a3.385,3.385,0,0,1-3.555.207c-1.281-.625-2.565-1.247-3.813-1.935a1.6,1.6,0,0,0-2.012.1,2.915,2.915,0,0,1-.863.528c-.182.064-.432-.066-.651-.109.053-.22.034-.537.173-.641a14.983,14.983,0,0,1,1.586-.994,1.75,1.75,0,0,1,1.74.077c1.323.665,2.656,1.31,3.965,2a2.751,2.751,0,0,0,3.065-.113c2.425-1.608,4.888-3.159,7.329-4.743a2.474,2.474,0,0,0,.631-.57.656.656,0,0,0,.119-.557.6.6,0,0,0-.525-.247,6.238,6.238,0,0,0-1.521.608c-1.38.856-2.71,1.793-4.094,2.645a3.1,3.1,0,0,1-1.437.486,17.917,17.917,0,0,1-5.383-.325c-.121-.033-.24-.072-.363-.094-.33-.059-.552-.239-.47-.583s.336-.419.672-.325a17.4,17.4,0,0,0,5.158.441,4.2,4.2,0,0,0,.689-.077c.359-.069.651-.225.647-.655s-.292-.589-.649-.66c-.243-.048-.494-.058-.741-.083-.727-.074-1.461-.106-2.179-.232a3.706,3.706,0,0,1-2.352-1.262A2.871,2.871,0,0,0,1998.54,652.786Zm12.638.7-.038-.2a2.593,2.593,0,0,0-.994.066c-.874.454-1.7.992-2.553,1.5l.354.755Zm-5.751.62c1.549.574,2.324-.632,3.359-1.159C2007.386,652.479,2006.565,653.584,2005.428,654.11Z" transform="translate(0 -60.519)" fill="#fff"/>
    <g id="Group_6075-2" data-name="Group 6075" transform="translate(2001.712 584)">
      <path id="Path_5822" data-name="Path 5822" d="M2081.766,584.514h-1.7a1.543,1.543,0,0,1,.575,1.049h1.121v.514h-1.11c-.1,1.049-.936,1.717-2.251,1.758.8.833,1.676,1.881,2.539,2.94h-.987c-.8-.966-1.552-1.861-2.519-2.889v-.637H2078c1.11,0,1.707-.463,1.778-1.172h-2.344v-.514h2.313c-.144-.6-.689-.894-1.583-.894h-.73V584h4.328Z" transform="translate(-2077.438 -584)" fill="#fff"/>
    </g>
  </g>
</svg>
