<svg xmlns="http://www.w3.org/2000/svg" width="15.502" height="17.008" viewBox="0 0 15.502 17.008">
  <g id="Group_1488" data-name="Group 1488" transform="translate(940.186 -431.418)">
    <path id="Path_178" data-name="Path 178" d="M-871.827,439.8a4.2,4.2,0,0,1-4.2-4.173,4.2,4.2,0,0,1,4.185-4.213,4.207,4.207,0,0,1,4.2,4.2A4.2,4.2,0,0,1-871.827,439.8Z" transform="translate(-59.96)" fill="#fff"/>
    <path id="Path_179" data-name="Path 179" d="M-930.2,597.885h-9.971v-1.138c0-.188.015-.378,0-.565a2.691,2.691,0,0,1,1.246-2.487,9.226,9.226,0,0,1,3-1.415,14.8,14.8,0,0,1,4.2-.661h.281A6.284,6.284,0,0,0-930.2,597.885Z" transform="translate(0 -149.71)" fill="#fff"/>
    <g id="Group_1488-2" data-name="Group 1488" transform="translate(-929.259 441.265)">
      <path id="Path_180" data-name="Path 180" d="M-768.752,582.321h-1.793a1.629,1.629,0,0,1,.608,1.108h1.184v.543h-1.174c-.109,1.108-.989,1.815-2.38,1.858.848.88,1.771,1.988,2.684,3.108h-1.043c-.848-1.021-1.641-1.967-2.662-3.053v-.674h.6c1.173,0,1.8-.489,1.88-1.239h-2.477v-.543h2.445c-.152-.63-.728-.945-1.673-.945h-.772v-.706h4.575Z" transform="translate(773.327 -581.778)" fill="#fff"/>
    </g>
  </g>
</svg>
