<svg xmlns="http://www.w3.org/2000/svg" width="15.582" height="15.582" viewBox="0 0 15.582 15.582">
  <path id="calender-svgrepo-com" d="M15.245,3.558H13.687V2.779a.779.779,0,0,0-1.558,0v.779H7.454V2.779a.779.779,0,1,0-1.558,0v.779H4.337A2.337,2.337,0,0,0,2,5.9v9.349a2.337,2.337,0,0,0,2.337,2.337H15.245a2.337,2.337,0,0,0,2.337-2.337V5.9a2.337,2.337,0,0,0-2.337-2.337Zm.779,11.687a.779.779,0,0,1-.779.779H4.337a.779.779,0,0,1-.779-.779V9.791H16.024Zm0-7.012H3.558V5.9a.779.779,0,0,1,.779-.779H5.9V5.9a.779.779,0,0,0,1.558,0V5.116h4.675V5.9a.779.779,0,1,0,1.558,0V5.116h1.558a.779.779,0,0,1,.779.779Z" transform="translate(-2 -2)" fill="#fff"/>
</svg>
