<svg xmlns="http://www.w3.org/2000/svg" width="14.103" height="17.814" viewBox="0 0 14.103 17.814">
  <g id="Group_1485" data-name="Group 1485" transform="translate(471.754 -453.747)">
    <path id="Path_170" data-name="Path 170" d="M-471.753,462.655q0-3.456,0-6.911a1.862,1.862,0,0,1,2-2h10.112a1.86,1.86,0,0,1,1.99,1.983q0,6.923,0,13.846a1.861,1.861,0,0,1-1.989,1.984h-10.135a1.859,1.859,0,0,1-1.978-1.972Q-471.755,466.122-471.753,462.655Zm13.36,0q0-3.444,0-6.888a1.131,1.131,0,0,0-1.265-1.277h-10.088a1.129,1.129,0,0,0-1.265,1.254q0,6.911,0,13.822a1.129,1.129,0,0,0,1.265,1.254h10.088a1.132,1.132,0,0,0,1.265-1.277Q-458.393,466.1-458.393,462.654Z" transform="translate(0 0)" fill="#fff"/>
    <g id="Group_1485-2" data-name="Group 1485" transform="translate(-467.502 458.642)">
      <path id="Path_172" data-name="Path 172" d="M-397.2,533.58h-2.282a2.073,2.073,0,0,1,.774,1.411h1.507v.691h-1.494c-.138,1.411-1.258,2.309-3.029,2.365,1.079,1.12,2.254,2.531,3.416,3.955h-1.328c-1.079-1.3-2.088-2.5-3.388-3.886v-.857h.761c1.494,0,2.3-.622,2.392-1.576h-3.153v-.691h3.112c-.194-.8-.927-1.2-2.13-1.2h-.982v-.9h5.822Z" transform="translate(403.02 -532.889)" fill="#fff"/>
    </g>
  </g>
</svg>
