<svg xmlns="http://www.w3.org/2000/svg" width="18.108" height="18.108" viewBox="0 0 18.108 18.108">
  <g id="Group_1491" data-name="Group 1491" transform="translate(-1983.752 -937.503)">
    <path id="Path_181" data-name="Path 181" d="M1992.811,937.5a9.054,9.054,0,1,1-9.059,9.039A9.068,9.068,0,0,1,1992.811,937.5Zm-.01,1.293a7.761,7.761,0,1,0,7.766,7.76A7.771,7.771,0,0,0,1992.8,938.8Z" transform="translate(0)" fill="#fff"/>
    <path id="Path_182" data-name="Path 182" d="M2069.617,1035.439h.257q3.122,0,6.245,0a.647.647,0,1,1,.027,1.292c-.593,0-1.186,0-1.778,0q-2.92,0-5.841,0a.7.7,0,0,1-.683-.339.686.686,0,0,1,.092-.773c.412-.607.815-1.22,1.224-1.829a.645.645,0,0,1,1.169.212.65.65,0,0,1-.115.536Z" transform="translate(-79.482 -90.822)" fill="#fff"/>
    <path id="Path_183" data-name="Path 183" d="M2074.894,1118.789h-1.1q-2.646,0-5.291,0a1.112,1.112,0,0,1-.318-.035.637.637,0,0,1-.448-.684.651.651,0,0,1,.61-.571c.041,0,.081,0,.121,0h7.573a1.141,1.141,0,0,1,.221.012.64.64,0,0,1,.413.99c-.423.656-.857,1.3-1.3,1.948a.63.63,0,0,1-.891.17.64.64,0,0,1-.176-.89c.19-.3.39-.6.585-.895C2074.9,1118.828,2074.9,1118.819,2074.894,1118.789Z" transform="translate(-79.459 -170.292)" fill="#fff"/>
  </g>
</svg>
