<svg xmlns="http://www.w3.org/2000/svg" width="17.226" height="17.222" viewBox="0 0 17.226 17.222">
  <g id="Group_1486" data-name="Group 1486" transform="translate(561.145 103.401)">
    <path id="Path_167" data-name="Path 167" d="M-380.338,73.877l.986.408c.15-.154.321-.335.5-.51a.609.609,0,0,1,.9-.04.614.614,0,0,1-.049.887c-.166.17-.335.338-.5.507,0,0-.006.011,0,0,.117.308.226.6.346.9a.19.19,0,0,0,.146.072c.213.008.426,0,.638,0a.6.6,0,0,1,.641.612.594.594,0,0,1-.64.589c-.213,0-.426-.007-.638.006a.216.216,0,0,0-.154.108c-.118.274-.221.555-.349.883.146.14.328.309.5.484a.609.609,0,0,1,.046.9.611.611,0,0,1-.9-.056c-.172-.172-.339-.349-.48-.495-.327.124-.619.23-.906.35a.2.2,0,0,0-.084.156c-.01.219,0,.438-.005.657a.591.591,0,0,1-.6.615.6.6,0,0,1-.6-.611c-.008-.225.005-.451-.007-.676a.215.215,0,0,0-.113-.148c-.269-.116-.543-.218-.867-.345-.146.152-.327.34-.508.526a.59.59,0,0,1-.634.17.592.592,0,0,1-.255-.973c.187-.2.4-.38.568-.541-.129-.338-.235-.63-.355-.916a.2.2,0,0,0-.152-.087c-.219-.01-.438,0-.657-.005a.6.6,0,0,1-.625-.59.608.608,0,0,1,.611-.608c.219-.008.438-.006.657,0a.161.161,0,0,0,.187-.129,6.869,6.869,0,0,1,.294-.707.148.148,0,0,0-.033-.207c-.159-.15-.313-.306-.465-.464a.6.6,0,0,1-.02-.859.6.6,0,0,1,.872.015c.153.148.306.3.451.452a.158.158,0,0,0,.222.04,7.181,7.181,0,0,1,.707-.294.152.152,0,0,0,.123-.172c-.005-.213-.005-.426,0-.639a.613.613,0,0,1,.6-.642.606.606,0,0,1,.6.649C-380.335,73.394-380.338,73.644-380.338,73.877Zm1.045,2.836a1.655,1.655,0,0,0-1.591-1.659,1.674,1.674,0,0,0-1.7,1.686,1.651,1.651,0,0,0,1.645,1.605A1.619,1.619,0,0,0-379.293,76.713Z" transform="translate(-167.185 -167.086)" fill="#fff"/>
    <path id="Path_168" data-name="Path 168" d="M-480.708-103.4a4.409,4.409,0,0,1,4.417,4.4,4.409,4.409,0,0,1-4.4,4.411,4.405,4.405,0,0,1-4.414-4.4A4.4,4.4,0,0,1-480.708-103.4Zm0,7.606a3.207,3.207,0,0,0,3.215-3.2,3.206,3.206,0,0,0-3.2-3.2,3.2,3.2,0,0,0-3.212,3.185A3.2,3.2,0,0,0-480.708-95.8Z" transform="translate(-72.228)" fill="#fff"/>
    <path id="Path_169" data-name="Path 169" d="M-556.412,93.333h-3.267a1.354,1.354,0,0,1-1.459-1.466,11.627,11.627,0,0,1,.032-1.425,3.166,3.166,0,0,1,1.231-2.018,7.762,7.762,0,0,1,2.839-1.442,13.884,13.884,0,0,1,4.091-.573.587.587,0,0,1,.612.559.6.6,0,0,1-.555.637,2.172,2.172,0,0,1-.225.006,12.688,12.688,0,0,0-3.373.458,6.891,6.891,0,0,0-2.6,1.26,3.687,3.687,0,0,0-.53.554,1.49,1.49,0,0,0-.327.977c.006.332,0,.663,0,1,0,.256.021.276.282.276h6.554c.069,0,.138,0,.206,0a.6.6,0,0,1,.562.631.586.586,0,0,1-.605.566C-554.1,93.335-555.255,93.333-556.412,93.333Z" transform="translate(0 -180.303)" fill="#fff"/>
  </g>
</svg>
