<svg xmlns="http://www.w3.org/2000/svg" width="15.012" height="15.095" viewBox="0 0 15.012 15.095">
  <g id="Group_1493" data-name="Group 1493" transform="translate(-1034.08 -625.214)">
    <path id="Path_192" data-name="Path 192" d="M1077.076,626.061h-1.106v1.609l-2,.833-1.066-1.233-.855.877,1.248,1.063c-.437.952-.437.952-1.29.878-.008-.026-.03-.063-.021-.077.309-.454.09-.746-.257-1.072-.781-.734-.771-.856-.028-1.647a7.834,7.834,0,0,1,.7-.653.612.612,0,0,1,.984.041c.263.267.505.554.71.781a1.237,1.237,0,0,0,.15-.015c.882-.368.882-.368.884-1.356,0-.666.124-.829.779-.867a12.04,12.04,0,0,1,1.459.037.546.546,0,0,1,.539.619c0,.39,0,.78,0,1.2a6.3,6.3,0,0,0,.724.3.482.482,0,0,0,.382-.073c.246-.2.461-.445.688-.672a.549.549,0,0,1,.82-.061,17.054,17.054,0,0,1,1.21,1.208.542.542,0,0,1-.034.791c-.057.062-.117.119-.176.179-.7.707-.7.707-.3,1.645.391,0,.794,0,1.2,0,.361,0,.6.171.617.538.022.568.024,1.139,0,1.707-.015.368-.258.534-.621.53a3.486,3.486,0,0,1-.543,0c-.489-.085-.744.092-.905.579-.1.306-.091.474.146.671a7.86,7.86,0,0,1,.564.559.554.554,0,0,1,.056.823c-.381.423-.79.823-1.21,1.207a.531.531,0,0,1-.787-.039c-.071-.067-.139-.137-.208-.206-.674-.673-.674-.673-1.615-.269,0,.331,0,.678,0,1.025,0,.627-.15.778-.835.809,0-.79-.005-1.58.009-2.369,0-.068.125-.162.21-.2.553-.219,1.11-.424,1.762-.67l1.058,1.191.819-.871-1.157-1.036.843-2.034h1.606V631.24h-1.6l-.808-1.965,1.247-1.086-.956-.812-1.015,1.14-2.013-.842Z" transform="translate(-33.957)" fill="#fff"/>
    <path id="Path_193" data-name="Path 193" d="M1037.958,755.026c-.781-.079-1.866-.153-2.939-.31-.962-.141-1.043-.3-.863-1.251a4.621,4.621,0,0,1,1.894-2.95.378.378,0,0,1,.511-.006,2.933,2.933,0,0,0,3.378.01.381.381,0,0,1,.512-.014,4.746,4.746,0,0,1,1.986,3.483.48.48,0,0,1-.408.579,13.453,13.453,0,0,1-1.594.311C1039.716,754.956,1038.99,754.968,1037.958,755.026Z" transform="translate(0 -114.717)" fill="#fff"/>
    <path id="Path_194" data-name="Path 194" d="M1060.622,696.1a2.35,2.35,0,1,1-4.7-.042,2.35,2.35,0,0,1,4.7.042Z" transform="translate(-20.014 -62.783)" fill="#fff"/>
    <path id="Path_195" data-name="Path 195" d="M1106.2,675.049l.158-.805a2.09,2.09,0,0,0,2.059.045,1.949,1.949,0,0,0,.937-1.129,2.016,2.016,0,0,0-1.169-2.507,2.05,2.05,0,0,0-2.659,1.215l-.628-.511a2.784,2.784,0,0,1,3.625-1.471,2.86,2.86,0,0,1,1.48,3.9A2.8,2.8,0,0,1,1106.2,675.049Z" transform="translate(-64.889 -40.746)" fill="#fff"/>
  </g>
</svg>
