<svg xmlns="http://www.w3.org/2000/svg" width="23.67" height="26.409" viewBox="0 0 23.67 26.409">
  <g id="notification-bell-svgrepo-com" transform="translate(-12.407 44)">
    <g id="Group_54" data-name="Group 54" transform="translate(12.407 -44)">
      <g id="Group_53" data-name="Group 53" transform="translate(0)">
        <path id="Path_76" data-name="Path 76" d="M54.969,21.587c-2.806-1.267-2.913-6.708-2.915-6.845v-3.65a8.494,8.494,0,0,0-5.2-7.819,3.285,3.285,0,0,0-6.57,0,8.494,8.494,0,0,0-5.2,7.819v3.65c0,.137-.109,5.577-2.915,6.845a.745.745,0,0,0,.307,1.423H39.6A4.186,4.186,0,0,0,40.7,25.164a3.929,3.929,0,0,0,5.739,0,4.185,4.185,0,0,0,1.106-2.153h7.115a.745.745,0,0,0,.307-1.423Zm-3.7-2.606a8.259,8.259,0,0,0,1.305,2.54H34.567a8.259,8.259,0,0,0,1.305-2.54Zm-7.7-17.492a1.8,1.8,0,0,1,1.725,1.3,8.518,8.518,0,0,0-3.45,0A1.8,1.8,0,0,1,43.572,1.489ZM36.58,14.747V11.092a6.992,6.992,0,0,1,13.984,0v3.66a15.543,15.543,0,0,0,.315,2.739H36.265A15.554,15.554,0,0,0,36.58,14.747ZM43.572,24.92a2.612,2.612,0,0,1-2.447-1.909h4.894A2.612,2.612,0,0,1,43.572,24.92Z" transform="translate(-31.737)" fill="#fff"/>
        <path id="Path_77" data-name="Path 77" d="M177.155,119.235a5.817,5.817,0,0,0-5.811,5.811.745.745,0,0,0,1.489,0,4.326,4.326,0,0,1,4.321-4.321.745.745,0,1,0,0-1.489Z" transform="translate(-165.32 -114.09)" fill="#fff"/>
      </g>
    </g>
  </g>
</svg>
