<svg xmlns="http://www.w3.org/2000/svg" width="18.485" height="18.16" viewBox="0 0 18.485 18.16">
  <g id="Group_6284" data-name="Group 6284" transform="translate(-227 -253.5)">
    <g id="Group_6284-2" data-name="Group 6284" transform="translate(227 253.791)">
      <path id="Path_5852" data-name="Path 5852" d="M235.935,272.37a8.935,8.935,0,0,1,0-17.87h1.025l-.064,7.974,7.974-.064v1.025A8.945,8.945,0,0,1,235.935,272.37Zm-1.026-15.76a6.9,6.9,0,1,0,7.85,7.85l-7.914.064Z" transform="translate(-227 -254.5)" fill="#fff"/>
    </g>
    <g id="Group_6285" data-name="Group 6285" transform="translate(237.569 253.5)">
      <path id="Path_5853" data-name="Path 5853" d="M263.375,261.1l.068-7.6h.972a6.649,6.649,0,0,1,6.827,6.516l.049,1.02Zm2.009-5.5-.167,3.657,3.828-.166A4.393,4.393,0,0,0,265.384,255.607Z" transform="translate(-263.375 -253.5)" fill="#fff"/>
    </g>
  </g>
</svg>
