<svg xmlns="http://www.w3.org/2000/svg" width="23.817" height="23.627" viewBox="0 0 23.817 23.627">
  <g id="settings-svgrepo-com" transform="translate(0 -1.95)">
    <g id="Group_8" data-name="Group 8" transform="translate(0 1.95)">
      <g id="Group_7" data-name="Group 7" transform="translate(0 0)">
        <path id="Path_53" data-name="Path 53" d="M22.81,10.751H20.953a8.057,8.057,0,0,0-.5-1.157L21.76,8.286a.967.967,0,0,0,0-1.405L18.842,3.963a.967.967,0,0,0-1.405,0L16.081,5.32c-.35-.151-.754-.3-1.1-.452V2.957A1.009,1.009,0,0,0,13.97,1.95H9.847A1.009,1.009,0,0,0,8.84,2.957v1.8c-.4.151-.754.3-1.1.452L6.38,3.856a.967.967,0,0,0-1.405,0L2.057,6.774a.967.967,0,0,0,0,1.405L3.365,9.487a11.885,11.885,0,0,0-.5,1.157H1.007A1.009,1.009,0,0,0,0,11.651v4.123a1.009,1.009,0,0,0,1.007,1.007H2.713a12.663,12.663,0,0,0,.5,1.206L1.96,19.241a.976.976,0,0,0,0,1.405l2.918,2.918a.967.967,0,0,0,1.405,0l1.206-1.206a5.473,5.473,0,0,0,1.255.554v1.658a1.009,1.009,0,0,0,1.007,1.007h4.123a.914.914,0,0,0,.958-.9V23.02c.4-.151.851-.355,1.255-.554l1.206,1.206a.967.967,0,0,0,1.405,0l2.918-2.918a.967.967,0,0,0,0-1.405L20.36,18.094a12.663,12.663,0,0,0,.5-1.206h1.95a1.009,1.009,0,0,0,1.007-1.007V11.758A1.009,1.009,0,0,0,22.81,10.751Zm-1.143,4.075H20.16a.968.968,0,0,0-.953.754,7.789,7.789,0,0,1-.856,2.11A.98.98,0,0,0,18.5,18.9l1.055,1.055L18.05,21.459l-1.007-1.007a.92.92,0,0,0-1.206-.151,8.887,8.887,0,0,1-2.164.9.964.964,0,0,0-.754.953v1.459H10.756v0h-.049V22.154a.968.968,0,0,0-.754-.953,8.025,8.025,0,0,1-2.164-.9.98.98,0,0,0-1.206.151L5.577,21.454,4.07,19.946l1.055-1.055a.989.989,0,0,0,.151-1.206,6.39,6.39,0,0,1-.856-2.11.964.964,0,0,0-.953-.754H1.96V12.657h1.61a.968.968,0,0,0,.953-.754,6.335,6.335,0,0,1,.856-2.013.98.98,0,0,0-.151-1.206L4.07,7.527,5.577,6.02,6.735,7.177a.989.989,0,0,0,1.206.151,7.741,7.741,0,0,1,2.013-.8.964.964,0,0,0,.754-.953V3.914h2.164V5.626a.968.968,0,0,0,.754.953,7.061,7.061,0,0,1,2.013.8.98.98,0,0,0,1.206-.151L18.05,6.025l1.507,1.507L18.4,8.69A.92.92,0,0,0,18.249,9.9a8.833,8.833,0,0,1,.856,2.013.964.964,0,0,0,.953.754h1.61Z" transform="translate(0 -1.95)" fill="#fff"/>
        <path id="Path_54" data-name="Path 54" d="M135.68,132.25a5.48,5.48,0,1,0,5.48,5.48A5.5,5.5,0,0,0,135.68,132.25Zm0,9a3.521,3.521,0,1,1,3.521-3.521A3.532,3.532,0,0,1,135.68,141.251Z" transform="translate(-123.869 -125.914)" fill="#fff"/>
      </g>
    </g>
  </g>
</svg>
