<svg xmlns="http://www.w3.org/2000/svg" width="17.453" height="17.454" viewBox="0 0 17.453 17.454">
  <path id="Path_203" data-name="Path 203" d="M815.829,405.363l2.046.847c.311-.32.665-.7,1.031-1.059a1.252,1.252,0,1,1,1.766,1.759c-.345.353-.694.7-1.041,1.052-.009.009-.012.023,0,0,.243.639.468,1.255.719,1.86a.4.4,0,0,0,.3.149c.441.017.883,0,1.325.009a1.25,1.25,0,0,1,1.331,1.269,1.232,1.232,0,0,1-1.328,1.222c-.442.006-.884-.014-1.324.012a.447.447,0,0,0-.319.224c-.244.569-.459,1.152-.724,1.832.3.29.682.64,1.046,1a1.252,1.252,0,1,1-1.77,1.748c-.357-.357-.7-.725-1-1.027-.679.258-1.285.478-1.88.726a.425.425,0,0,0-.175.323c-.02.454,0,.909-.011,1.364a1.226,1.226,0,0,1-1.235,1.275,1.243,1.243,0,0,1-1.253-1.268c-.016-.467.011-.936-.015-1.4a.445.445,0,0,0-.235-.308c-.557-.24-1.126-.452-1.8-.716-.3.315-.678.7-1.055,1.092a1.243,1.243,0,1,1-1.845-1.665c.387-.417.824-.788,1.179-1.122-.268-.7-.488-1.307-.737-1.9a.418.418,0,0,0-.316-.181c-.454-.02-.909,0-1.364-.011a1.244,1.244,0,1,1-.029-2.487c.454-.018.909-.013,1.364,0a.334.334,0,0,0,.389-.268,14.272,14.272,0,0,1,.61-1.467.306.306,0,0,0-.068-.43c-.331-.312-.65-.636-.966-.963a1.245,1.245,0,1,1,1.767-1.751c.318.307.634.615.935.938a.327.327,0,0,0,.461.083,14.9,14.9,0,0,1,1.467-.61.314.314,0,0,0,.256-.358c-.011-.441-.011-.883,0-1.325a1.273,1.273,0,0,1,1.238-1.333,1.258,1.258,0,0,1,1.253,1.347C815.834,404.361,815.829,404.88,815.829,405.363ZM818,411.248a3.434,3.434,0,0,0-3.3-3.442,3.472,3.472,0,0,0-3.531,3.5,3.427,3.427,0,0,0,3.413,3.331A3.359,3.359,0,0,0,818,411.248Z" transform="translate(-805.856 -402.495)" fill="#fff"/>
</svg>
