<svg width="23" height="36" viewBox="0 0 23 36" fill="none" xmlns="http://www.w3.org/2000/svg">
<path id="Vector" d="M20.3289 0.00221368H2.67113C1.99618 -0.0258282 1.33736 0.213456 0.837395 0.668232C0.337429 1.12301 0.0365735 1.75666 0 2.43191V33.5681C0.0365735 34.2433 0.337429 34.877 0.837395 35.3318C1.33736 35.7865 1.99618 36.0258 2.67113 35.9978H20.3289C21.0038 36.0258 21.6626 35.7865 22.1626 35.3318C22.6626 34.877 22.9634 34.2433 23 33.5681V2.43191C22.9634 1.75666 22.6626 1.12301 22.1626 0.668232C21.6626 0.213456 21.0038 -0.0258282 20.3289 0.00221368ZM8.67476 1.757H14.3252C14.3657 1.75527 14.4061 1.76156 14.4442 1.77549C14.4823 1.78942 14.5172 1.81073 14.547 1.83819C14.5768 1.86566 14.6009 1.89874 14.618 1.93554C14.635 1.97234 14.6446 2.01215 14.6463 2.05268C14.6447 2.09293 14.635 2.13245 14.6179 2.16892C14.6008 2.20538 14.5765 2.23805 14.5466 2.26501C14.5167 2.29196 14.4817 2.31265 14.4437 2.32586C14.4057 2.33907 14.3654 2.34453 14.3252 2.34193H8.67476C8.6346 2.34453 8.59432 2.33907 8.5563 2.32586C8.51828 2.31265 8.48328 2.29196 8.45337 2.26501C8.42345 2.23805 8.39923 2.20538 8.38211 2.16892C8.365 2.13245 8.35534 2.09293 8.35371 2.05268C8.35536 2.01215 8.36498 1.97234 8.38202 1.93554C8.39905 1.89874 8.42317 1.86566 8.45299 1.83819C8.48281 1.81073 8.51775 1.78942 8.5558 1.77549C8.59386 1.76156 8.63428 1.75527 8.67476 1.757ZM11.5 34.7829C11.2647 34.7605 11.0409 34.6701 10.8559 34.5228C10.6709 34.3754 10.5327 34.1774 10.458 33.9529C10.3834 33.7283 10.3755 33.4869 10.4353 33.258C10.4952 33.029 10.6202 32.8224 10.7951 32.6633C10.9701 32.5041 11.1875 32.3993 11.4209 32.3615C11.6542 32.3238 11.8935 32.3547 12.1097 32.4505C12.3258 32.5464 12.5095 32.703 12.6384 32.9014C12.7672 33.0998 12.8357 33.3314 12.8356 33.5681C12.8173 33.9057 12.6669 34.2225 12.4169 34.4499C12.1669 34.6773 11.8375 34.797 11.5 34.7829ZM21.1315 31.4983H1.86851V3.85888H21.1315V31.4983Z" fill="black"/>
</svg>
