<svg width="135" height="42" viewBox="0 0 135 42" fill="none" xmlns="http://www.w3.org/2000/svg">
<g id="Group 36 1" clip-path="url(#clip0_488_833)">
<g id="Group 36">
<path id="Path 10612" d="M120.935 2.78976V-0.00195312L135 7.11693L120.944 14.2295V11.8943H120.278C108.451 11.8975 96.6238 11.9005 84.7963 11.9033C70.5406 11.9033 56.283 11.9033 42.0232 11.9033C36.8372 11.9033 31.6512 11.9033 26.4652 11.9033C24.4551 11.9001 22.4452 11.8768 20.4356 11.8335C18.829 11.7912 17.234 12.1194 15.7723 12.7933C14.3106 13.4671 13.0208 14.4687 12.0013 15.7217C10.5069 17.4743 9.62267 19.6721 9.48371 21.9793C9.4145 22.7401 9.28095 23.4952 9.2069 24.256C8.99935 25.8468 9.29872 27.4629 10.0618 28.8708C10.8248 30.2787 12.012 31.4054 13.4517 32.0881C14.4055 32.5836 15.4612 32.8466 16.534 32.8559C19.5215 32.8768 22.5089 32.8663 25.497 32.8768C25.796 32.8768 25.9289 32.8021 25.9732 32.4727C26.2117 30.7107 26.4675 28.9512 26.7406 27.1943C26.8098 26.7378 26.5233 26.795 26.2652 26.7943C24.0046 26.7943 21.744 26.7943 19.4834 26.7943C19.0502 26.7943 18.6163 26.7867 18.1831 26.7943C17.8938 26.7999 17.8046 26.6827 17.8468 26.3937C18.1093 24.6042 18.3653 22.8129 18.6149 21.0197C18.7471 20.0775 18.8855 19.1353 18.9914 18.1903C19.0315 17.8294 19.1519 17.6717 19.5346 17.6724C25.2313 17.6808 30.929 17.6808 36.6275 17.6724C37.0067 17.6724 37.0538 17.812 37.006 18.154C36.5382 21.4747 36.0905 24.7983 35.6261 28.1197C35.1985 31.1781 34.7535 34.2343 34.3252 37.2926C34.1307 38.6829 33.9459 40.0745 33.7805 41.4683C33.7404 41.8061 33.6497 41.9471 33.2788 41.9464C27.0555 41.9331 20.8266 42.0972 14.6109 41.885C8.92732 41.6903 4.58766 38.9209 1.81957 33.8497C0.414599 31.2917 -0.201525 28.369 0.0500738 25.4557C0.181802 22.7269 0.638349 20.024 1.40989 17.4051C2.27569 14.812 3.63457 12.4141 5.41046 10.3456C7.75862 7.5492 10.7643 5.39105 14.1528 4.06837C16.2674 3.2175 18.5229 2.77913 20.7996 2.77651C53.4791 2.78721 86.1589 2.78977 118.839 2.78418L120.935 2.78976Z" fill="#BBF046"/>
<path id="Path 10613" d="M36.251 41.9449C36.4856 40.1659 36.7077 38.4825 36.9292 36.7984C37.0717 35.7152 37.206 34.6348 37.3568 33.5502C37.4516 32.8746 37.462 32.876 38.1291 32.876C46.7988 32.876 55.4684 32.8781 64.138 32.8823C64.814 32.9089 65.4844 32.7486 66.0767 32.4188C66.6689 32.089 67.1606 31.6023 67.4985 31.0112C67.7842 30.5974 67.9482 30.1105 67.9713 29.6068C67.9944 29.103 67.8759 28.603 67.6293 28.1643C67.3987 27.7271 67.0489 27.3656 66.6212 27.1224C66.1935 26.8793 65.7057 26.7647 65.2155 26.7922C60.1374 26.7999 55.0573 26.8808 49.9821 26.7601C45.5822 26.6554 42.3802 24.5267 40.628 20.3817C40.3842 19.6609 40.1843 18.9258 40.0294 18.1804C39.9076 17.7519 40.0924 17.6751 40.4681 17.6765C43.6577 17.6856 46.8465 17.6814 50.0353 17.6814C55.5625 17.6814 61.0897 17.6367 66.6161 17.6996C68.5092 17.6405 70.3805 18.1196 72.0164 19.0823C73.6522 20.0449 74.9866 21.4522 75.8671 23.1434C76.8295 24.9266 77.2165 26.9682 76.9743 28.9837C76.4304 34.6292 73.3758 38.4518 68.4057 40.8485C66.806 41.6062 65.056 41.9857 63.2889 41.9582C54.4954 41.9352 45.7019 41.9477 36.9084 41.9477L36.251 41.9449Z" fill="#BBF046"/>
<path id="Path 10614" d="M86.8583 41.9185H77.9209C77.9804 41.4202 78.0288 40.9463 78.0946 40.4752C78.4406 37.9885 78.8005 35.5031 79.1465 33.0157C79.4925 30.5129 79.8288 28.0088 80.1762 25.506C80.4489 23.5441 80.7298 21.5843 81.0066 19.6231C81.0758 19.1444 81.145 18.6656 81.1872 18.184C81.2198 17.7883 81.3983 17.671 81.7865 17.6731C84.4024 17.6885 87.0189 17.6808 89.6347 17.6808L113.132 17.6843C113.285 17.6631 113.441 17.669 113.592 17.7017C113.694 17.7422 113.827 17.9069 113.815 17.9998C113.625 19.5164 113.418 21.0309 113.206 22.5447C113.033 23.78 112.828 25.0118 112.682 26.25C112.629 26.6925 112.464 26.8083 112.04 26.8083C104.532 26.7962 97.0246 26.7902 89.5171 26.7902C89.1178 26.7902 88.9531 26.8739 88.8943 27.3073C88.5351 30.0914 88.1455 32.8719 87.7607 35.6525C87.4807 37.6765 87.196 39.7005 86.9068 41.7245C86.8942 41.79 86.878 41.8548 86.8583 41.9185Z" fill="#BBF046"/>
</g>
</g>
<defs>
<clipPath id="clip0_488_833">
<rect width="135" height="42" fill="white"/>
</clipPath>
</defs>
</svg>
